G04 (created by PCBNEW (2013-07-07 BZR 4022)-stable) date 2/20/2015 11:38:31 AM*
%MOIN*%
G04 Gerber Fmt 3.4, Leading zero omitted, Abs format*
%FSLAX34Y34*%
G01*
G70*
G90*
G04 APERTURE LIST*
%ADD10C,0.00590551*%
%ADD11C,0.005*%
%ADD12C,0.00295276*%
%ADD13C,0.0028*%
%ADD14C,0.012*%
%ADD15C,0.006*%
%ADD16C,0.0045*%
%ADD17C,0.008*%
G04 APERTURE END LIST*
G54D10*
G54D11*
X105011Y-49963D02*
X105082Y-50263D01*
X105139Y-50048D01*
X105197Y-50263D01*
X105268Y-49963D01*
X105497Y-50248D02*
X105468Y-50263D01*
X105411Y-50263D01*
X105382Y-50248D01*
X105368Y-50220D01*
X105368Y-50106D01*
X105382Y-50077D01*
X105411Y-50063D01*
X105468Y-50063D01*
X105497Y-50077D01*
X105511Y-50106D01*
X105511Y-50134D01*
X105368Y-50163D01*
X105768Y-50263D02*
X105768Y-50106D01*
X105754Y-50077D01*
X105725Y-50063D01*
X105668Y-50063D01*
X105639Y-50077D01*
X105768Y-50248D02*
X105739Y-50263D01*
X105668Y-50263D01*
X105639Y-50248D01*
X105625Y-50220D01*
X105625Y-50191D01*
X105639Y-50163D01*
X105668Y-50148D01*
X105739Y-50148D01*
X105768Y-50134D01*
X105911Y-50263D02*
X105911Y-50063D01*
X105911Y-50120D02*
X105925Y-50091D01*
X105939Y-50077D01*
X105968Y-50063D01*
X105997Y-50063D01*
X106225Y-50263D02*
X106225Y-50106D01*
X106211Y-50077D01*
X106182Y-50063D01*
X106125Y-50063D01*
X106097Y-50077D01*
X106225Y-50248D02*
X106197Y-50263D01*
X106125Y-50263D01*
X106097Y-50248D01*
X106082Y-50220D01*
X106082Y-50191D01*
X106097Y-50163D01*
X106125Y-50148D01*
X106197Y-50148D01*
X106225Y-50134D01*
X106368Y-50263D02*
X106368Y-49963D01*
X106368Y-50077D02*
X106397Y-50063D01*
X106454Y-50063D01*
X106482Y-50077D01*
X106497Y-50091D01*
X106511Y-50120D01*
X106511Y-50206D01*
X106497Y-50234D01*
X106482Y-50248D01*
X106454Y-50263D01*
X106397Y-50263D01*
X106368Y-50248D01*
X106682Y-50263D02*
X106654Y-50248D01*
X106639Y-50220D01*
X106639Y-49963D01*
X106911Y-50248D02*
X106882Y-50263D01*
X106825Y-50263D01*
X106797Y-50248D01*
X106782Y-50220D01*
X106782Y-50106D01*
X106797Y-50077D01*
X106825Y-50063D01*
X106882Y-50063D01*
X106911Y-50077D01*
X106925Y-50106D01*
X106925Y-50134D01*
X106782Y-50163D01*
X107382Y-50106D02*
X107425Y-50120D01*
X107439Y-50134D01*
X107454Y-50163D01*
X107454Y-50206D01*
X107439Y-50234D01*
X107425Y-50248D01*
X107397Y-50263D01*
X107282Y-50263D01*
X107282Y-49963D01*
X107382Y-49963D01*
X107411Y-49977D01*
X107425Y-49991D01*
X107439Y-50020D01*
X107439Y-50048D01*
X107425Y-50077D01*
X107411Y-50091D01*
X107382Y-50106D01*
X107282Y-50106D01*
X107625Y-50263D02*
X107597Y-50248D01*
X107582Y-50220D01*
X107582Y-49963D01*
X107868Y-50063D02*
X107868Y-50263D01*
X107739Y-50063D02*
X107739Y-50220D01*
X107754Y-50248D01*
X107782Y-50263D01*
X107825Y-50263D01*
X107854Y-50248D01*
X107868Y-50234D01*
X108125Y-50248D02*
X108097Y-50263D01*
X108039Y-50263D01*
X108011Y-50248D01*
X107997Y-50220D01*
X107997Y-50106D01*
X108011Y-50077D01*
X108039Y-50063D01*
X108097Y-50063D01*
X108125Y-50077D01*
X108139Y-50106D01*
X108139Y-50134D01*
X107997Y-50163D01*
X108225Y-50063D02*
X108339Y-50063D01*
X108268Y-49963D02*
X108268Y-50220D01*
X108282Y-50248D01*
X108311Y-50263D01*
X108339Y-50263D01*
X108482Y-50263D02*
X108454Y-50248D01*
X108439Y-50234D01*
X108425Y-50206D01*
X108425Y-50120D01*
X108439Y-50091D01*
X108454Y-50077D01*
X108482Y-50063D01*
X108525Y-50063D01*
X108554Y-50077D01*
X108568Y-50091D01*
X108582Y-50120D01*
X108582Y-50206D01*
X108568Y-50234D01*
X108554Y-50248D01*
X108525Y-50263D01*
X108482Y-50263D01*
X108754Y-50263D02*
X108725Y-50248D01*
X108711Y-50234D01*
X108697Y-50206D01*
X108697Y-50120D01*
X108711Y-50091D01*
X108725Y-50077D01*
X108754Y-50063D01*
X108797Y-50063D01*
X108825Y-50077D01*
X108839Y-50091D01*
X108854Y-50120D01*
X108854Y-50206D01*
X108839Y-50234D01*
X108825Y-50248D01*
X108797Y-50263D01*
X108754Y-50263D01*
X108939Y-50063D02*
X109054Y-50063D01*
X108982Y-49963D02*
X108982Y-50220D01*
X108997Y-50248D01*
X109025Y-50263D01*
X109054Y-50263D01*
X109154Y-50263D02*
X109154Y-49963D01*
X109282Y-50263D02*
X109282Y-50106D01*
X109268Y-50077D01*
X109239Y-50063D01*
X109197Y-50063D01*
X109168Y-50077D01*
X109154Y-50091D01*
X109639Y-50248D02*
X109682Y-50263D01*
X109754Y-50263D01*
X109782Y-50248D01*
X109797Y-50234D01*
X109811Y-50206D01*
X109811Y-50177D01*
X109797Y-50148D01*
X109782Y-50134D01*
X109754Y-50120D01*
X109697Y-50106D01*
X109668Y-50091D01*
X109654Y-50077D01*
X109639Y-50048D01*
X109639Y-50020D01*
X109654Y-49991D01*
X109668Y-49977D01*
X109697Y-49963D01*
X109768Y-49963D01*
X109811Y-49977D01*
X109939Y-50263D02*
X109939Y-50063D01*
X109939Y-50091D02*
X109954Y-50077D01*
X109982Y-50063D01*
X110025Y-50063D01*
X110054Y-50077D01*
X110068Y-50106D01*
X110068Y-50263D01*
X110068Y-50106D02*
X110082Y-50077D01*
X110111Y-50063D01*
X110154Y-50063D01*
X110182Y-50077D01*
X110197Y-50106D01*
X110197Y-50263D01*
X110468Y-50263D02*
X110468Y-50106D01*
X110454Y-50077D01*
X110425Y-50063D01*
X110368Y-50063D01*
X110339Y-50077D01*
X110468Y-50248D02*
X110439Y-50263D01*
X110368Y-50263D01*
X110339Y-50248D01*
X110325Y-50220D01*
X110325Y-50191D01*
X110339Y-50163D01*
X110368Y-50148D01*
X110439Y-50148D01*
X110468Y-50134D01*
X110611Y-50263D02*
X110611Y-50063D01*
X110611Y-50120D02*
X110625Y-50091D01*
X110639Y-50077D01*
X110668Y-50063D01*
X110697Y-50063D01*
X110754Y-50063D02*
X110868Y-50063D01*
X110797Y-49963D02*
X110797Y-50220D01*
X110811Y-50248D01*
X110839Y-50263D01*
X110868Y-50263D01*
X111197Y-50106D02*
X111297Y-50106D01*
X111339Y-50263D02*
X111197Y-50263D01*
X111197Y-49963D01*
X111339Y-49963D01*
X111439Y-50263D02*
X111597Y-50063D01*
X111439Y-50063D02*
X111597Y-50263D01*
X111868Y-49977D02*
X111839Y-49963D01*
X111797Y-49963D01*
X111754Y-49977D01*
X111725Y-50006D01*
X111711Y-50034D01*
X111697Y-50091D01*
X111697Y-50134D01*
X111711Y-50191D01*
X111725Y-50220D01*
X111754Y-50248D01*
X111797Y-50263D01*
X111825Y-50263D01*
X111868Y-50248D01*
X111882Y-50234D01*
X111882Y-50134D01*
X111825Y-50134D01*
X112239Y-50263D02*
X112239Y-49963D01*
X112354Y-49963D01*
X112382Y-49977D01*
X112397Y-49991D01*
X112411Y-50020D01*
X112411Y-50063D01*
X112397Y-50091D01*
X112382Y-50106D01*
X112354Y-50120D01*
X112239Y-50120D01*
X112539Y-50263D02*
X112539Y-50063D01*
X112539Y-50120D02*
X112554Y-50091D01*
X112568Y-50077D01*
X112597Y-50063D01*
X112625Y-50063D01*
X112768Y-50263D02*
X112739Y-50248D01*
X112725Y-50234D01*
X112711Y-50206D01*
X112711Y-50120D01*
X112725Y-50091D01*
X112739Y-50077D01*
X112768Y-50063D01*
X112811Y-50063D01*
X112839Y-50077D01*
X112854Y-50091D01*
X112868Y-50120D01*
X112868Y-50206D01*
X112854Y-50234D01*
X112839Y-50248D01*
X112811Y-50263D01*
X112768Y-50263D01*
X112954Y-50063D02*
X113068Y-50063D01*
X112997Y-49963D02*
X112997Y-50220D01*
X113011Y-50248D01*
X113039Y-50263D01*
X113068Y-50263D01*
X113211Y-50263D02*
X113182Y-50248D01*
X113168Y-50234D01*
X113154Y-50206D01*
X113154Y-50120D01*
X113168Y-50091D01*
X113182Y-50077D01*
X113211Y-50063D01*
X113254Y-50063D01*
X113282Y-50077D01*
X113297Y-50091D01*
X113311Y-50120D01*
X113311Y-50206D01*
X113297Y-50234D01*
X113282Y-50248D01*
X113254Y-50263D01*
X113211Y-50263D01*
X113397Y-50063D02*
X113511Y-50063D01*
X113439Y-49963D02*
X113439Y-50220D01*
X113454Y-50248D01*
X113482Y-50263D01*
X113511Y-50263D01*
X113582Y-50063D02*
X113654Y-50263D01*
X113725Y-50063D02*
X113654Y-50263D01*
X113625Y-50334D01*
X113611Y-50348D01*
X113582Y-50363D01*
X113839Y-50063D02*
X113839Y-50363D01*
X113839Y-50077D02*
X113868Y-50063D01*
X113925Y-50063D01*
X113954Y-50077D01*
X113968Y-50091D01*
X113982Y-50120D01*
X113982Y-50206D01*
X113968Y-50234D01*
X113954Y-50248D01*
X113925Y-50263D01*
X113868Y-50263D01*
X113839Y-50248D01*
X114225Y-50248D02*
X114197Y-50263D01*
X114139Y-50263D01*
X114111Y-50248D01*
X114097Y-50220D01*
X114097Y-50106D01*
X114111Y-50077D01*
X114139Y-50063D01*
X114197Y-50063D01*
X114225Y-50077D01*
X114239Y-50106D01*
X114239Y-50134D01*
X114097Y-50163D01*
X104997Y-50433D02*
X105097Y-50733D01*
X105197Y-50433D01*
X105411Y-50718D02*
X105382Y-50733D01*
X105325Y-50733D01*
X105297Y-50718D01*
X105282Y-50690D01*
X105282Y-50576D01*
X105297Y-50547D01*
X105325Y-50533D01*
X105382Y-50533D01*
X105411Y-50547D01*
X105425Y-50576D01*
X105425Y-50604D01*
X105282Y-50633D01*
X105554Y-50733D02*
X105554Y-50533D01*
X105554Y-50590D02*
X105568Y-50561D01*
X105582Y-50547D01*
X105611Y-50533D01*
X105639Y-50533D01*
X105725Y-50718D02*
X105754Y-50733D01*
X105811Y-50733D01*
X105839Y-50718D01*
X105854Y-50690D01*
X105854Y-50676D01*
X105839Y-50647D01*
X105811Y-50633D01*
X105768Y-50633D01*
X105739Y-50618D01*
X105725Y-50590D01*
X105725Y-50576D01*
X105739Y-50547D01*
X105768Y-50533D01*
X105811Y-50533D01*
X105839Y-50547D01*
X105982Y-50733D02*
X105982Y-50533D01*
X105982Y-50433D02*
X105968Y-50447D01*
X105982Y-50461D01*
X105997Y-50447D01*
X105982Y-50433D01*
X105982Y-50461D01*
X106168Y-50733D02*
X106139Y-50718D01*
X106125Y-50704D01*
X106111Y-50676D01*
X106111Y-50590D01*
X106125Y-50561D01*
X106139Y-50547D01*
X106168Y-50533D01*
X106211Y-50533D01*
X106239Y-50547D01*
X106254Y-50561D01*
X106268Y-50590D01*
X106268Y-50676D01*
X106254Y-50704D01*
X106239Y-50718D01*
X106211Y-50733D01*
X106168Y-50733D01*
X106397Y-50533D02*
X106397Y-50733D01*
X106397Y-50561D02*
X106411Y-50547D01*
X106439Y-50533D01*
X106482Y-50533D01*
X106511Y-50547D01*
X106525Y-50576D01*
X106525Y-50733D01*
X107054Y-50733D02*
X106882Y-50733D01*
X106968Y-50733D02*
X106968Y-50433D01*
X106939Y-50476D01*
X106911Y-50504D01*
X106882Y-50518D01*
X107468Y-50433D02*
X107497Y-50433D01*
X107525Y-50447D01*
X107539Y-50461D01*
X107554Y-50490D01*
X107568Y-50547D01*
X107568Y-50618D01*
X107554Y-50676D01*
X107539Y-50704D01*
X107525Y-50718D01*
X107497Y-50733D01*
X107468Y-50733D01*
X107439Y-50718D01*
X107425Y-50704D01*
X107411Y-50676D01*
X107397Y-50618D01*
X107397Y-50547D01*
X107411Y-50490D01*
X107425Y-50461D01*
X107439Y-50447D01*
X107468Y-50433D01*
X107682Y-50461D02*
X107697Y-50447D01*
X107725Y-50433D01*
X107797Y-50433D01*
X107825Y-50447D01*
X107839Y-50461D01*
X107854Y-50490D01*
X107854Y-50518D01*
X107839Y-50561D01*
X107668Y-50733D01*
X107854Y-50733D01*
X108197Y-50418D02*
X107939Y-50804D01*
X108282Y-50461D02*
X108297Y-50447D01*
X108325Y-50433D01*
X108397Y-50433D01*
X108425Y-50447D01*
X108439Y-50461D01*
X108454Y-50490D01*
X108454Y-50518D01*
X108439Y-50561D01*
X108268Y-50733D01*
X108454Y-50733D01*
X108639Y-50433D02*
X108668Y-50433D01*
X108697Y-50447D01*
X108711Y-50461D01*
X108725Y-50490D01*
X108739Y-50547D01*
X108739Y-50618D01*
X108725Y-50676D01*
X108711Y-50704D01*
X108697Y-50718D01*
X108668Y-50733D01*
X108639Y-50733D01*
X108611Y-50718D01*
X108597Y-50704D01*
X108582Y-50676D01*
X108568Y-50618D01*
X108568Y-50547D01*
X108582Y-50490D01*
X108597Y-50461D01*
X108611Y-50447D01*
X108639Y-50433D01*
X109082Y-50418D02*
X108825Y-50804D01*
X109339Y-50733D02*
X109168Y-50733D01*
X109254Y-50733D02*
X109254Y-50433D01*
X109225Y-50476D01*
X109197Y-50504D01*
X109168Y-50518D01*
X109611Y-50433D02*
X109468Y-50433D01*
X109454Y-50576D01*
X109468Y-50561D01*
X109497Y-50547D01*
X109568Y-50547D01*
X109597Y-50561D01*
X109611Y-50576D01*
X109625Y-50604D01*
X109625Y-50676D01*
X109611Y-50704D01*
X109597Y-50718D01*
X109568Y-50733D01*
X109497Y-50733D01*
X109468Y-50718D01*
X109454Y-50704D01*
X104997Y-50903D02*
X105097Y-51203D01*
X105197Y-50903D01*
X105468Y-51174D02*
X105454Y-51188D01*
X105411Y-51203D01*
X105382Y-51203D01*
X105339Y-51188D01*
X105311Y-51160D01*
X105297Y-51131D01*
X105282Y-51074D01*
X105282Y-51031D01*
X105297Y-50974D01*
X105311Y-50946D01*
X105339Y-50917D01*
X105382Y-50903D01*
X105411Y-50903D01*
X105454Y-50917D01*
X105468Y-50931D01*
X105597Y-50903D02*
X105597Y-51146D01*
X105611Y-51174D01*
X105625Y-51188D01*
X105654Y-51203D01*
X105711Y-51203D01*
X105739Y-51188D01*
X105754Y-51174D01*
X105768Y-51146D01*
X105768Y-50903D01*
X106239Y-51046D02*
X106282Y-51060D01*
X106297Y-51074D01*
X106311Y-51103D01*
X106311Y-51146D01*
X106297Y-51174D01*
X106282Y-51188D01*
X106254Y-51203D01*
X106139Y-51203D01*
X106139Y-50903D01*
X106239Y-50903D01*
X106268Y-50917D01*
X106282Y-50931D01*
X106297Y-50960D01*
X106297Y-50988D01*
X106282Y-51017D01*
X106268Y-51031D01*
X106239Y-51046D01*
X106139Y-51046D01*
X106439Y-51088D02*
X106668Y-51088D01*
X106811Y-51203D02*
X106811Y-50903D01*
X106982Y-51203D01*
X106982Y-50903D01*
X107125Y-51046D02*
X107225Y-51046D01*
X107268Y-51203D02*
X107125Y-51203D01*
X107125Y-50903D01*
X107268Y-50903D01*
X107768Y-51203D02*
X107625Y-51203D01*
X107625Y-50903D01*
X107997Y-51203D02*
X107997Y-51046D01*
X107982Y-51017D01*
X107954Y-51003D01*
X107897Y-51003D01*
X107868Y-51017D01*
X107997Y-51188D02*
X107968Y-51203D01*
X107897Y-51203D01*
X107868Y-51188D01*
X107854Y-51160D01*
X107854Y-51131D01*
X107868Y-51103D01*
X107897Y-51088D01*
X107968Y-51088D01*
X107997Y-51074D01*
X108139Y-51203D02*
X108139Y-50903D01*
X108139Y-51017D02*
X108168Y-51003D01*
X108225Y-51003D01*
X108254Y-51017D01*
X108268Y-51031D01*
X108282Y-51060D01*
X108282Y-51146D01*
X108268Y-51174D01*
X108254Y-51188D01*
X108225Y-51203D01*
X108168Y-51203D01*
X108139Y-51188D01*
G54D10*
X108191Y-52497D02*
X108211Y-52497D01*
X108191Y-52497D02*
X108172Y-52497D01*
X108191Y-53285D02*
X108211Y-53285D01*
X108191Y-53285D02*
X108172Y-53285D01*
X108506Y-52891D02*
X108506Y-52832D01*
X108506Y-52891D02*
X108506Y-52950D01*
X107876Y-52891D02*
X107876Y-52832D01*
X107876Y-52891D02*
X107876Y-52950D01*
G54D12*
X109784Y-54129D02*
G75*
G03X109843Y-54070I0J59D01*
G74*
G01*
X109784Y-53519D02*
X109784Y-54070D01*
X109784Y-54070D02*
X109430Y-54070D01*
X109430Y-54070D02*
X109430Y-53519D01*
X109430Y-53519D02*
X109784Y-53519D01*
G54D11*
X113021Y-54903D02*
X112121Y-54903D01*
X112121Y-54903D02*
X112121Y-54403D01*
X112121Y-54403D02*
X113021Y-54403D01*
X113021Y-54403D02*
X113021Y-54903D01*
G54D13*
X112750Y-54342D02*
X112950Y-54342D01*
X112950Y-54342D02*
X112950Y-54042D01*
X112950Y-54042D02*
X112750Y-54042D01*
X112550Y-54342D02*
X112350Y-54342D01*
X112350Y-54342D02*
X112350Y-54042D01*
X112350Y-54042D02*
X112550Y-54042D01*
X113597Y-51917D02*
X113797Y-51917D01*
X113797Y-51917D02*
X113797Y-51617D01*
X113797Y-51617D02*
X113597Y-51617D01*
X113397Y-51917D02*
X113197Y-51917D01*
X113197Y-51917D02*
X113197Y-51617D01*
X113197Y-51617D02*
X113397Y-51617D01*
X112490Y-51909D02*
X112690Y-51909D01*
X112690Y-51909D02*
X112690Y-51609D01*
X112690Y-51609D02*
X112490Y-51609D01*
X112290Y-51909D02*
X112090Y-51909D01*
X112090Y-51909D02*
X112090Y-51609D01*
X112090Y-51609D02*
X112290Y-51609D01*
X111497Y-53541D02*
X111497Y-53341D01*
X111497Y-53341D02*
X111197Y-53341D01*
X111197Y-53341D02*
X111197Y-53541D01*
X111497Y-53741D02*
X111497Y-53941D01*
X111497Y-53941D02*
X111197Y-53941D01*
X111197Y-53941D02*
X111197Y-53741D01*
X111833Y-54413D02*
X112033Y-54413D01*
X112033Y-54413D02*
X112033Y-54113D01*
X112033Y-54113D02*
X111833Y-54113D01*
X111633Y-54413D02*
X111433Y-54413D01*
X111433Y-54413D02*
X111433Y-54113D01*
X111433Y-54113D02*
X111633Y-54113D01*
X112791Y-51713D02*
X112791Y-51913D01*
X112791Y-51913D02*
X113091Y-51913D01*
X113091Y-51913D02*
X113091Y-51713D01*
X112791Y-51513D02*
X112791Y-51313D01*
X112791Y-51313D02*
X113091Y-51313D01*
X113091Y-51313D02*
X113091Y-51513D01*
X113829Y-54043D02*
X114029Y-54043D01*
X114029Y-54043D02*
X114029Y-53743D01*
X114029Y-53743D02*
X113829Y-53743D01*
X113629Y-54043D02*
X113429Y-54043D01*
X113429Y-54043D02*
X113429Y-53743D01*
X113429Y-53743D02*
X113629Y-53743D01*
X113924Y-52287D02*
X113924Y-52087D01*
X113924Y-52087D02*
X113624Y-52087D01*
X113624Y-52087D02*
X113624Y-52287D01*
X113924Y-52487D02*
X113924Y-52687D01*
X113924Y-52687D02*
X113624Y-52687D01*
X113624Y-52687D02*
X113624Y-52487D01*
X109090Y-51631D02*
X109090Y-51831D01*
X109090Y-51831D02*
X109390Y-51831D01*
X109390Y-51831D02*
X109390Y-51631D01*
X109090Y-51431D02*
X109090Y-51231D01*
X109090Y-51231D02*
X109390Y-51231D01*
X109390Y-51231D02*
X109390Y-51431D01*
X108692Y-52438D02*
X108692Y-52638D01*
X108692Y-52638D02*
X108992Y-52638D01*
X108992Y-52638D02*
X108992Y-52438D01*
X108692Y-52238D02*
X108692Y-52038D01*
X108692Y-52038D02*
X108992Y-52038D01*
X108992Y-52038D02*
X108992Y-52238D01*
X108099Y-53465D02*
X107899Y-53465D01*
X107899Y-53465D02*
X107899Y-53765D01*
X107899Y-53765D02*
X108099Y-53765D01*
X108299Y-53465D02*
X108499Y-53465D01*
X108499Y-53465D02*
X108499Y-53765D01*
X108499Y-53765D02*
X108299Y-53765D01*
X108272Y-52313D02*
X108472Y-52313D01*
X108472Y-52313D02*
X108472Y-52013D01*
X108472Y-52013D02*
X108272Y-52013D01*
X108072Y-52313D02*
X107872Y-52313D01*
X107872Y-52313D02*
X107872Y-52013D01*
X107872Y-52013D02*
X108072Y-52013D01*
X110521Y-53710D02*
X110521Y-53510D01*
X110521Y-53510D02*
X110221Y-53510D01*
X110221Y-53510D02*
X110221Y-53710D01*
X110521Y-53910D02*
X110521Y-54110D01*
X110521Y-54110D02*
X110221Y-54110D01*
X110221Y-54110D02*
X110221Y-53910D01*
X110475Y-51574D02*
X110275Y-51574D01*
X110275Y-51574D02*
X110275Y-51874D01*
X110275Y-51874D02*
X110475Y-51874D01*
X110675Y-51574D02*
X110875Y-51574D01*
X110875Y-51574D02*
X110875Y-51874D01*
X110875Y-51874D02*
X110675Y-51874D01*
X109013Y-53624D02*
X109013Y-53424D01*
X109013Y-53424D02*
X108713Y-53424D01*
X108713Y-53424D02*
X108713Y-53624D01*
X109013Y-53824D02*
X109013Y-54024D01*
X109013Y-54024D02*
X108713Y-54024D01*
X108713Y-54024D02*
X108713Y-53824D01*
X110150Y-53710D02*
X110150Y-53510D01*
X110150Y-53510D02*
X109850Y-53510D01*
X109850Y-53510D02*
X109850Y-53710D01*
X110150Y-53910D02*
X110150Y-54110D01*
X110150Y-54110D02*
X109850Y-54110D01*
X109850Y-54110D02*
X109850Y-53910D01*
G54D11*
X114112Y-51545D02*
X113212Y-51545D01*
X113212Y-51545D02*
X113212Y-51045D01*
X113212Y-51045D02*
X114112Y-51045D01*
X114112Y-51045D02*
X114112Y-51545D01*
G54D13*
X111135Y-53545D02*
X111135Y-53345D01*
X111135Y-53345D02*
X110835Y-53345D01*
X110835Y-53345D02*
X110835Y-53545D01*
X111135Y-53745D02*
X111135Y-53945D01*
X111135Y-53945D02*
X110835Y-53945D01*
X110835Y-53945D02*
X110835Y-53745D01*
X112486Y-51531D02*
X112686Y-51531D01*
X112686Y-51531D02*
X112686Y-51231D01*
X112686Y-51231D02*
X112486Y-51231D01*
X112286Y-51531D02*
X112086Y-51531D01*
X112086Y-51531D02*
X112086Y-51231D01*
X112086Y-51231D02*
X112286Y-51231D01*
X114234Y-53535D02*
X114434Y-53535D01*
X114434Y-53535D02*
X114434Y-53235D01*
X114434Y-53235D02*
X114234Y-53235D01*
X114034Y-53535D02*
X113834Y-53535D01*
X113834Y-53535D02*
X113834Y-53235D01*
X113834Y-53235D02*
X114034Y-53235D01*
X114038Y-52810D02*
X113838Y-52810D01*
X113838Y-52810D02*
X113838Y-53110D01*
X113838Y-53110D02*
X114038Y-53110D01*
X114238Y-52810D02*
X114438Y-52810D01*
X114438Y-52810D02*
X114438Y-53110D01*
X114438Y-53110D02*
X114238Y-53110D01*
X114232Y-54801D02*
X114432Y-54801D01*
X114432Y-54801D02*
X114432Y-54501D01*
X114432Y-54501D02*
X114232Y-54501D01*
X114032Y-54801D02*
X113832Y-54801D01*
X113832Y-54801D02*
X113832Y-54501D01*
X113832Y-54501D02*
X114032Y-54501D01*
G54D10*
X104899Y-54083D02*
X106789Y-54083D01*
X106789Y-54083D02*
X106789Y-54871D01*
X106750Y-54871D02*
X104899Y-54871D01*
X104899Y-54871D02*
X104899Y-54083D01*
X106789Y-54871D02*
X106750Y-54871D01*
G54D13*
X107265Y-54638D02*
X107465Y-54638D01*
X107465Y-54638D02*
X107465Y-54338D01*
X107465Y-54338D02*
X107265Y-54338D01*
X107065Y-54638D02*
X106865Y-54638D01*
X106865Y-54638D02*
X106865Y-54338D01*
X106865Y-54338D02*
X107065Y-54338D01*
X107645Y-54411D02*
X107645Y-54611D01*
X107645Y-54611D02*
X107945Y-54611D01*
X107945Y-54611D02*
X107945Y-54411D01*
X107645Y-54211D02*
X107645Y-54011D01*
X107645Y-54011D02*
X107945Y-54011D01*
X107945Y-54011D02*
X107945Y-54211D01*
X108525Y-54638D02*
X108725Y-54638D01*
X108725Y-54638D02*
X108725Y-54338D01*
X108725Y-54338D02*
X108525Y-54338D01*
X108325Y-54638D02*
X108125Y-54638D01*
X108125Y-54638D02*
X108125Y-54338D01*
X108125Y-54338D02*
X108325Y-54338D01*
G54D14*
X116618Y-50240D02*
X115618Y-50240D01*
X115618Y-55240D02*
X116618Y-55240D01*
X116618Y-50240D02*
X116618Y-55240D01*
X115618Y-55240D02*
X115618Y-50240D01*
G54D15*
X116846Y-53271D02*
X117846Y-53271D01*
X117846Y-53271D02*
X117846Y-55271D01*
X117846Y-55271D02*
X116846Y-55271D01*
X116846Y-55271D02*
X116846Y-53271D01*
G54D10*
X109082Y-53377D02*
X109082Y-51960D01*
X109082Y-51960D02*
X110657Y-51960D01*
X110657Y-51960D02*
X110657Y-53377D01*
X110657Y-53377D02*
X109082Y-53377D01*
G54D12*
X109575Y-53082D02*
G75*
G03X109575Y-53082I-83J0D01*
G74*
G01*
G54D10*
X112976Y-53371D02*
G75*
G03X112976Y-53371I-88J0D01*
G74*
G01*
X113321Y-52230D02*
X113203Y-52230D01*
X113321Y-52230D02*
X113321Y-52348D01*
X111747Y-52230D02*
X111865Y-52230D01*
X111747Y-52230D02*
X111747Y-52348D01*
X111747Y-53804D02*
X111747Y-53686D01*
X111747Y-53804D02*
X111865Y-53804D01*
X113321Y-53804D02*
X113321Y-53686D01*
X113321Y-53804D02*
X113203Y-53804D01*
X107382Y-53082D02*
X107618Y-52925D01*
X107382Y-52925D02*
X107618Y-53082D01*
X107618Y-52711D02*
X107618Y-52846D01*
X107618Y-52779D02*
X107382Y-52779D01*
X107415Y-52801D01*
X107438Y-52824D01*
X107449Y-52846D01*
X109303Y-54255D02*
X109336Y-54266D01*
X109348Y-54277D01*
X109359Y-54300D01*
X109359Y-54333D01*
X109348Y-54356D01*
X109336Y-54367D01*
X109314Y-54378D01*
X109224Y-54378D01*
X109224Y-54142D01*
X109303Y-54142D01*
X109325Y-54153D01*
X109336Y-54165D01*
X109348Y-54187D01*
X109348Y-54210D01*
X109336Y-54232D01*
X109325Y-54243D01*
X109303Y-54255D01*
X109224Y-54255D01*
X109584Y-54378D02*
X109449Y-54378D01*
X109516Y-54378D02*
X109516Y-54142D01*
X109494Y-54176D01*
X109471Y-54198D01*
X109449Y-54210D01*
G54D16*
X113240Y-54748D02*
X113180Y-54652D01*
X113137Y-54748D02*
X113137Y-54548D01*
X113206Y-54548D01*
X113223Y-54557D01*
X113232Y-54567D01*
X113240Y-54586D01*
X113240Y-54614D01*
X113232Y-54633D01*
X113223Y-54643D01*
X113206Y-54652D01*
X113137Y-54652D01*
X113412Y-54748D02*
X113309Y-54748D01*
X113360Y-54748D02*
X113360Y-54548D01*
X113343Y-54576D01*
X113326Y-54595D01*
X113309Y-54605D01*
G54D13*
X113148Y-54237D02*
X113142Y-54243D01*
X113125Y-54250D01*
X113114Y-54250D01*
X113096Y-54243D01*
X113085Y-54230D01*
X113079Y-54217D01*
X113074Y-54191D01*
X113074Y-54171D01*
X113079Y-54145D01*
X113085Y-54132D01*
X113096Y-54119D01*
X113114Y-54112D01*
X113125Y-54112D01*
X113142Y-54119D01*
X113148Y-54125D01*
X113256Y-54112D02*
X113199Y-54112D01*
X113194Y-54178D01*
X113199Y-54171D01*
X113211Y-54165D01*
X113239Y-54165D01*
X113251Y-54171D01*
X113256Y-54178D01*
X113262Y-54191D01*
X113262Y-54224D01*
X113256Y-54237D01*
X113251Y-54243D01*
X113239Y-54250D01*
X113211Y-54250D01*
X113199Y-54243D01*
X113194Y-54237D01*
X113937Y-51822D02*
X113931Y-51828D01*
X113914Y-51835D01*
X113903Y-51835D01*
X113886Y-51828D01*
X113874Y-51815D01*
X113869Y-51802D01*
X113863Y-51776D01*
X113863Y-51756D01*
X113869Y-51730D01*
X113874Y-51716D01*
X113886Y-51703D01*
X113903Y-51697D01*
X113914Y-51697D01*
X113931Y-51703D01*
X113937Y-51710D01*
X113977Y-51697D02*
X114051Y-51697D01*
X114011Y-51749D01*
X114029Y-51749D01*
X114040Y-51756D01*
X114046Y-51762D01*
X114051Y-51776D01*
X114051Y-51808D01*
X114046Y-51822D01*
X114040Y-51828D01*
X114029Y-51835D01*
X113994Y-51835D01*
X113983Y-51828D01*
X113977Y-51822D01*
X111902Y-51822D02*
X111896Y-51828D01*
X111879Y-51835D01*
X111867Y-51835D01*
X111850Y-51828D01*
X111839Y-51815D01*
X111833Y-51802D01*
X111827Y-51776D01*
X111827Y-51756D01*
X111833Y-51730D01*
X111839Y-51716D01*
X111850Y-51703D01*
X111867Y-51697D01*
X111879Y-51697D01*
X111896Y-51703D01*
X111902Y-51710D01*
X111942Y-51697D02*
X112022Y-51697D01*
X111970Y-51835D01*
X111404Y-53151D02*
X111411Y-53157D01*
X111418Y-53174D01*
X111418Y-53186D01*
X111411Y-53203D01*
X111398Y-53214D01*
X111385Y-53220D01*
X111358Y-53226D01*
X111339Y-53226D01*
X111312Y-53220D01*
X111299Y-53214D01*
X111286Y-53203D01*
X111280Y-53186D01*
X111280Y-53174D01*
X111286Y-53157D01*
X111293Y-53151D01*
X111418Y-53037D02*
X111418Y-53106D01*
X111418Y-53071D02*
X111280Y-53071D01*
X111299Y-53083D01*
X111312Y-53094D01*
X111319Y-53106D01*
X111280Y-52963D02*
X111280Y-52951D01*
X111286Y-52940D01*
X111293Y-52934D01*
X111306Y-52929D01*
X111332Y-52923D01*
X111365Y-52923D01*
X111391Y-52929D01*
X111404Y-52934D01*
X111411Y-52940D01*
X111418Y-52951D01*
X111418Y-52963D01*
X111411Y-52974D01*
X111404Y-52980D01*
X111391Y-52986D01*
X111365Y-52991D01*
X111332Y-52991D01*
X111306Y-52986D01*
X111293Y-52980D01*
X111286Y-52974D01*
X111280Y-52963D01*
X111713Y-54660D02*
X111707Y-54667D01*
X111690Y-54673D01*
X111678Y-54673D01*
X111661Y-54667D01*
X111650Y-54654D01*
X111644Y-54640D01*
X111638Y-54614D01*
X111638Y-54594D01*
X111644Y-54568D01*
X111650Y-54555D01*
X111661Y-54542D01*
X111678Y-54535D01*
X111690Y-54535D01*
X111707Y-54542D01*
X111713Y-54548D01*
X111770Y-54673D02*
X111793Y-54673D01*
X111804Y-54667D01*
X111810Y-54660D01*
X111821Y-54640D01*
X111827Y-54614D01*
X111827Y-54562D01*
X111821Y-54548D01*
X111816Y-54542D01*
X111804Y-54535D01*
X111781Y-54535D01*
X111770Y-54542D01*
X111764Y-54548D01*
X111758Y-54562D01*
X111758Y-54594D01*
X111764Y-54608D01*
X111770Y-54614D01*
X111781Y-54621D01*
X111804Y-54621D01*
X111816Y-54614D01*
X111821Y-54608D01*
X111827Y-54594D01*
X112906Y-51196D02*
X112900Y-51202D01*
X112883Y-51209D01*
X112871Y-51209D01*
X112854Y-51202D01*
X112843Y-51189D01*
X112837Y-51176D01*
X112831Y-51150D01*
X112831Y-51130D01*
X112837Y-51104D01*
X112843Y-51090D01*
X112854Y-51077D01*
X112871Y-51071D01*
X112883Y-51071D01*
X112900Y-51077D01*
X112906Y-51084D01*
X112974Y-51130D02*
X112963Y-51123D01*
X112957Y-51117D01*
X112951Y-51104D01*
X112951Y-51097D01*
X112957Y-51084D01*
X112963Y-51077D01*
X112974Y-51071D01*
X112997Y-51071D01*
X113009Y-51077D01*
X113014Y-51084D01*
X113020Y-51097D01*
X113020Y-51104D01*
X113014Y-51117D01*
X113009Y-51123D01*
X112997Y-51130D01*
X112974Y-51130D01*
X112963Y-51136D01*
X112957Y-51143D01*
X112951Y-51156D01*
X112951Y-51182D01*
X112957Y-51196D01*
X112963Y-51202D01*
X112974Y-51209D01*
X112997Y-51209D01*
X113009Y-51202D01*
X113014Y-51196D01*
X113020Y-51182D01*
X113020Y-51156D01*
X113014Y-51143D01*
X113009Y-51136D01*
X112997Y-51130D01*
X114220Y-53956D02*
X114214Y-53962D01*
X114197Y-53969D01*
X114185Y-53969D01*
X114168Y-53962D01*
X114157Y-53949D01*
X114151Y-53936D01*
X114145Y-53910D01*
X114145Y-53890D01*
X114151Y-53864D01*
X114157Y-53850D01*
X114168Y-53837D01*
X114185Y-53831D01*
X114197Y-53831D01*
X114214Y-53837D01*
X114220Y-53844D01*
X114334Y-53969D02*
X114265Y-53969D01*
X114300Y-53969D02*
X114300Y-53831D01*
X114288Y-53850D01*
X114277Y-53864D01*
X114265Y-53870D01*
X114126Y-52224D02*
X114132Y-52230D01*
X114139Y-52247D01*
X114139Y-52258D01*
X114132Y-52275D01*
X114119Y-52287D01*
X114106Y-52293D01*
X114080Y-52298D01*
X114060Y-52298D01*
X114034Y-52293D01*
X114021Y-52287D01*
X114008Y-52275D01*
X114001Y-52258D01*
X114001Y-52247D01*
X114008Y-52230D01*
X114014Y-52224D01*
X114014Y-52178D02*
X114008Y-52173D01*
X114001Y-52161D01*
X114001Y-52133D01*
X114008Y-52121D01*
X114014Y-52115D01*
X114027Y-52110D01*
X114040Y-52110D01*
X114060Y-52115D01*
X114139Y-52184D01*
X114139Y-52110D01*
X108952Y-51466D02*
X108958Y-51472D01*
X108965Y-51489D01*
X108965Y-51501D01*
X108958Y-51518D01*
X108945Y-51529D01*
X108932Y-51535D01*
X108906Y-51541D01*
X108886Y-51541D01*
X108860Y-51535D01*
X108847Y-51529D01*
X108833Y-51518D01*
X108827Y-51501D01*
X108827Y-51489D01*
X108833Y-51472D01*
X108840Y-51466D01*
X108965Y-51352D02*
X108965Y-51421D01*
X108965Y-51386D02*
X108827Y-51386D01*
X108847Y-51398D01*
X108860Y-51409D01*
X108866Y-51421D01*
X108886Y-51284D02*
X108879Y-51295D01*
X108873Y-51301D01*
X108860Y-51306D01*
X108853Y-51306D01*
X108840Y-51301D01*
X108833Y-51295D01*
X108827Y-51284D01*
X108827Y-51261D01*
X108833Y-51249D01*
X108840Y-51244D01*
X108853Y-51238D01*
X108860Y-51238D01*
X108873Y-51244D01*
X108879Y-51249D01*
X108886Y-51261D01*
X108886Y-51284D01*
X108893Y-51295D01*
X108899Y-51301D01*
X108912Y-51306D01*
X108939Y-51306D01*
X108952Y-51301D01*
X108958Y-51295D01*
X108965Y-51284D01*
X108965Y-51261D01*
X108958Y-51249D01*
X108952Y-51244D01*
X108939Y-51238D01*
X108912Y-51238D01*
X108899Y-51244D01*
X108893Y-51249D01*
X108886Y-51261D01*
X108564Y-51920D02*
X108558Y-51927D01*
X108541Y-51933D01*
X108530Y-51933D01*
X108513Y-51927D01*
X108501Y-51914D01*
X108496Y-51900D01*
X108490Y-51874D01*
X108490Y-51854D01*
X108496Y-51828D01*
X108501Y-51815D01*
X108513Y-51802D01*
X108530Y-51795D01*
X108541Y-51795D01*
X108558Y-51802D01*
X108564Y-51808D01*
X108678Y-51933D02*
X108610Y-51933D01*
X108644Y-51933D02*
X108644Y-51795D01*
X108633Y-51815D01*
X108621Y-51828D01*
X108610Y-51835D01*
X108781Y-51795D02*
X108758Y-51795D01*
X108747Y-51802D01*
X108741Y-51808D01*
X108730Y-51828D01*
X108724Y-51854D01*
X108724Y-51907D01*
X108730Y-51920D01*
X108736Y-51927D01*
X108747Y-51933D01*
X108770Y-51933D01*
X108781Y-51927D01*
X108787Y-51920D01*
X108793Y-51907D01*
X108793Y-51874D01*
X108787Y-51861D01*
X108781Y-51854D01*
X108770Y-51848D01*
X108747Y-51848D01*
X108736Y-51854D01*
X108730Y-51861D01*
X108724Y-51874D01*
X107568Y-53676D02*
X107562Y-53683D01*
X107545Y-53689D01*
X107534Y-53689D01*
X107517Y-53683D01*
X107505Y-53670D01*
X107499Y-53656D01*
X107494Y-53630D01*
X107494Y-53610D01*
X107499Y-53584D01*
X107505Y-53571D01*
X107517Y-53558D01*
X107534Y-53551D01*
X107545Y-53551D01*
X107562Y-53558D01*
X107568Y-53564D01*
X107682Y-53689D02*
X107614Y-53689D01*
X107648Y-53689D02*
X107648Y-53551D01*
X107637Y-53571D01*
X107625Y-53584D01*
X107614Y-53591D01*
X107785Y-53597D02*
X107785Y-53689D01*
X107757Y-53545D02*
X107728Y-53643D01*
X107802Y-53643D01*
X107919Y-51912D02*
X107914Y-51919D01*
X107897Y-51925D01*
X107885Y-51925D01*
X107868Y-51919D01*
X107857Y-51906D01*
X107851Y-51892D01*
X107845Y-51866D01*
X107845Y-51846D01*
X107851Y-51820D01*
X107857Y-51807D01*
X107868Y-51794D01*
X107885Y-51787D01*
X107897Y-51787D01*
X107914Y-51794D01*
X107919Y-51800D01*
X108034Y-51925D02*
X107965Y-51925D01*
X107999Y-51925D02*
X107999Y-51787D01*
X107988Y-51807D01*
X107977Y-51820D01*
X107965Y-51827D01*
X108142Y-51787D02*
X108085Y-51787D01*
X108079Y-51853D01*
X108085Y-51846D01*
X108097Y-51840D01*
X108125Y-51840D01*
X108137Y-51846D01*
X108142Y-51853D01*
X108148Y-51866D01*
X108148Y-51899D01*
X108142Y-51912D01*
X108137Y-51919D01*
X108125Y-51925D01*
X108097Y-51925D01*
X108085Y-51919D01*
X108079Y-51912D01*
X110305Y-54322D02*
X110300Y-54328D01*
X110282Y-54335D01*
X110271Y-54335D01*
X110254Y-54328D01*
X110242Y-54315D01*
X110237Y-54302D01*
X110231Y-54276D01*
X110231Y-54256D01*
X110237Y-54230D01*
X110242Y-54216D01*
X110254Y-54203D01*
X110271Y-54197D01*
X110282Y-54197D01*
X110300Y-54203D01*
X110305Y-54210D01*
X110420Y-54335D02*
X110351Y-54335D01*
X110385Y-54335D02*
X110385Y-54197D01*
X110374Y-54216D01*
X110362Y-54230D01*
X110351Y-54236D01*
X110460Y-54197D02*
X110540Y-54197D01*
X110488Y-54335D01*
X110497Y-51467D02*
X110491Y-51474D01*
X110474Y-51481D01*
X110463Y-51481D01*
X110446Y-51474D01*
X110434Y-51461D01*
X110429Y-51448D01*
X110423Y-51421D01*
X110423Y-51402D01*
X110429Y-51375D01*
X110434Y-51362D01*
X110446Y-51349D01*
X110463Y-51343D01*
X110474Y-51343D01*
X110491Y-51349D01*
X110497Y-51356D01*
X110611Y-51481D02*
X110543Y-51481D01*
X110577Y-51481D02*
X110577Y-51343D01*
X110566Y-51362D01*
X110554Y-51375D01*
X110543Y-51382D01*
X110657Y-51356D02*
X110663Y-51349D01*
X110674Y-51343D01*
X110703Y-51343D01*
X110714Y-51349D01*
X110720Y-51356D01*
X110726Y-51369D01*
X110726Y-51382D01*
X110720Y-51402D01*
X110651Y-51481D01*
X110726Y-51481D01*
X108912Y-53226D02*
X108919Y-53232D01*
X108925Y-53249D01*
X108925Y-53261D01*
X108919Y-53278D01*
X108906Y-53289D01*
X108893Y-53295D01*
X108866Y-53301D01*
X108847Y-53301D01*
X108820Y-53295D01*
X108807Y-53289D01*
X108794Y-53278D01*
X108787Y-53261D01*
X108787Y-53249D01*
X108794Y-53232D01*
X108801Y-53226D01*
X108925Y-53112D02*
X108925Y-53181D01*
X108925Y-53146D02*
X108787Y-53146D01*
X108807Y-53158D01*
X108820Y-53169D01*
X108827Y-53181D01*
X108787Y-53072D02*
X108787Y-52998D01*
X108840Y-53038D01*
X108840Y-53021D01*
X108847Y-53009D01*
X108853Y-53003D01*
X108866Y-52998D01*
X108899Y-52998D01*
X108912Y-53003D01*
X108919Y-53009D01*
X108925Y-53021D01*
X108925Y-53055D01*
X108919Y-53066D01*
X108912Y-53072D01*
X109912Y-54322D02*
X109906Y-54328D01*
X109889Y-54335D01*
X109877Y-54335D01*
X109860Y-54328D01*
X109849Y-54315D01*
X109843Y-54302D01*
X109837Y-54276D01*
X109837Y-54256D01*
X109843Y-54230D01*
X109849Y-54216D01*
X109860Y-54203D01*
X109877Y-54197D01*
X109889Y-54197D01*
X109906Y-54203D01*
X109912Y-54210D01*
X110026Y-54335D02*
X109957Y-54335D01*
X109992Y-54335D02*
X109992Y-54197D01*
X109980Y-54216D01*
X109969Y-54230D01*
X109957Y-54236D01*
X110083Y-54335D02*
X110106Y-54335D01*
X110117Y-54328D01*
X110123Y-54322D01*
X110134Y-54302D01*
X110140Y-54276D01*
X110140Y-54223D01*
X110134Y-54210D01*
X110129Y-54203D01*
X110117Y-54197D01*
X110094Y-54197D01*
X110083Y-54203D01*
X110077Y-54210D01*
X110072Y-54223D01*
X110072Y-54256D01*
X110077Y-54269D01*
X110083Y-54276D01*
X110094Y-54282D01*
X110117Y-54282D01*
X110129Y-54276D01*
X110134Y-54269D01*
X110140Y-54256D01*
G54D16*
X113623Y-50876D02*
X113614Y-50886D01*
X113589Y-50895D01*
X113572Y-50895D01*
X113546Y-50886D01*
X113529Y-50867D01*
X113520Y-50848D01*
X113512Y-50810D01*
X113512Y-50781D01*
X113520Y-50743D01*
X113529Y-50724D01*
X113546Y-50705D01*
X113572Y-50695D01*
X113589Y-50695D01*
X113614Y-50705D01*
X113623Y-50714D01*
X113777Y-50762D02*
X113777Y-50895D01*
X113734Y-50686D02*
X113692Y-50829D01*
X113803Y-50829D01*
G54D13*
X111034Y-53151D02*
X111041Y-53157D01*
X111047Y-53174D01*
X111047Y-53186D01*
X111041Y-53203D01*
X111028Y-53214D01*
X111015Y-53220D01*
X110988Y-53226D01*
X110969Y-53226D01*
X110942Y-53220D01*
X110929Y-53214D01*
X110916Y-53203D01*
X110909Y-53186D01*
X110909Y-53174D01*
X110916Y-53157D01*
X110923Y-53151D01*
X111047Y-53037D02*
X111047Y-53106D01*
X111047Y-53071D02*
X110909Y-53071D01*
X110929Y-53083D01*
X110942Y-53094D01*
X110949Y-53106D01*
X111047Y-52923D02*
X111047Y-52991D01*
X111047Y-52957D02*
X110909Y-52957D01*
X110929Y-52969D01*
X110942Y-52980D01*
X110949Y-52991D01*
X111909Y-51424D02*
X111903Y-51431D01*
X111886Y-51437D01*
X111874Y-51437D01*
X111857Y-51431D01*
X111846Y-51418D01*
X111840Y-51404D01*
X111834Y-51378D01*
X111834Y-51358D01*
X111840Y-51332D01*
X111846Y-51319D01*
X111857Y-51306D01*
X111874Y-51299D01*
X111886Y-51299D01*
X111903Y-51306D01*
X111909Y-51312D01*
X112011Y-51299D02*
X111989Y-51299D01*
X111977Y-51306D01*
X111971Y-51312D01*
X111960Y-51332D01*
X111954Y-51358D01*
X111954Y-51411D01*
X111960Y-51424D01*
X111966Y-51431D01*
X111977Y-51437D01*
X112000Y-51437D01*
X112011Y-51431D01*
X112017Y-51424D01*
X112023Y-51411D01*
X112023Y-51378D01*
X112017Y-51365D01*
X112011Y-51358D01*
X112000Y-51352D01*
X111977Y-51352D01*
X111966Y-51358D01*
X111960Y-51365D01*
X111954Y-51378D01*
X114590Y-53457D02*
X114550Y-53391D01*
X114521Y-53457D02*
X114521Y-53319D01*
X114567Y-53319D01*
X114578Y-53326D01*
X114584Y-53332D01*
X114590Y-53345D01*
X114590Y-53365D01*
X114584Y-53378D01*
X114578Y-53385D01*
X114567Y-53391D01*
X114521Y-53391D01*
X114635Y-53332D02*
X114641Y-53326D01*
X114653Y-53319D01*
X114681Y-53319D01*
X114693Y-53326D01*
X114698Y-53332D01*
X114704Y-53345D01*
X114704Y-53358D01*
X114698Y-53378D01*
X114630Y-53457D01*
X114704Y-53457D01*
X114598Y-53016D02*
X114558Y-52950D01*
X114529Y-53016D02*
X114529Y-52878D01*
X114575Y-52878D01*
X114586Y-52885D01*
X114592Y-52891D01*
X114598Y-52904D01*
X114598Y-52924D01*
X114592Y-52937D01*
X114586Y-52944D01*
X114575Y-52950D01*
X114529Y-52950D01*
X114638Y-52878D02*
X114712Y-52878D01*
X114672Y-52931D01*
X114689Y-52931D01*
X114700Y-52937D01*
X114706Y-52944D01*
X114712Y-52957D01*
X114712Y-52990D01*
X114706Y-53003D01*
X114700Y-53009D01*
X114689Y-53016D01*
X114655Y-53016D01*
X114643Y-53009D01*
X114638Y-53003D01*
X114121Y-54402D02*
X114081Y-54336D01*
X114053Y-54402D02*
X114053Y-54264D01*
X114098Y-54264D01*
X114110Y-54270D01*
X114116Y-54277D01*
X114121Y-54290D01*
X114121Y-54310D01*
X114116Y-54323D01*
X114110Y-54330D01*
X114098Y-54336D01*
X114053Y-54336D01*
X114224Y-54310D02*
X114224Y-54402D01*
X114196Y-54257D02*
X114167Y-54356D01*
X114241Y-54356D01*
X107420Y-54886D02*
X107363Y-54886D01*
X107363Y-54748D01*
X107455Y-54761D02*
X107460Y-54755D01*
X107472Y-54748D01*
X107500Y-54748D01*
X107512Y-54755D01*
X107518Y-54761D01*
X107523Y-54774D01*
X107523Y-54787D01*
X107518Y-54807D01*
X107449Y-54886D01*
X107523Y-54886D01*
X107859Y-54815D02*
X107859Y-54872D01*
X107721Y-54872D01*
X107859Y-54712D02*
X107859Y-54780D01*
X107859Y-54746D02*
X107721Y-54746D01*
X107740Y-54758D01*
X107753Y-54769D01*
X107760Y-54780D01*
X108332Y-54900D02*
X108326Y-54907D01*
X108309Y-54914D01*
X108298Y-54914D01*
X108280Y-54907D01*
X108269Y-54894D01*
X108263Y-54881D01*
X108258Y-54854D01*
X108258Y-54835D01*
X108263Y-54808D01*
X108269Y-54795D01*
X108280Y-54782D01*
X108298Y-54776D01*
X108309Y-54776D01*
X108326Y-54782D01*
X108332Y-54789D01*
X108378Y-54789D02*
X108383Y-54782D01*
X108395Y-54776D01*
X108423Y-54776D01*
X108435Y-54782D01*
X108440Y-54789D01*
X108446Y-54802D01*
X108446Y-54815D01*
X108440Y-54835D01*
X108372Y-54914D01*
X108446Y-54914D01*
X108520Y-54776D02*
X108532Y-54776D01*
X108543Y-54782D01*
X108549Y-54789D01*
X108555Y-54802D01*
X108560Y-54828D01*
X108560Y-54861D01*
X108555Y-54887D01*
X108549Y-54900D01*
X108543Y-54907D01*
X108532Y-54914D01*
X108520Y-54914D01*
X108509Y-54907D01*
X108503Y-54900D01*
X108498Y-54887D01*
X108492Y-54861D01*
X108492Y-54828D01*
X108498Y-54802D01*
X108503Y-54789D01*
X108509Y-54782D01*
X108520Y-54776D01*
G54D17*
X115362Y-54625D02*
X114962Y-54625D01*
X114962Y-54473D01*
X114981Y-54435D01*
X115000Y-54416D01*
X115038Y-54397D01*
X115096Y-54397D01*
X115134Y-54416D01*
X115153Y-54435D01*
X115172Y-54473D01*
X115172Y-54625D01*
X115000Y-54244D02*
X114981Y-54225D01*
X114962Y-54187D01*
X114962Y-54092D01*
X114981Y-54054D01*
X115000Y-54035D01*
X115038Y-54016D01*
X115076Y-54016D01*
X115134Y-54035D01*
X115362Y-54264D01*
X115362Y-54016D01*
G54D11*
X117210Y-53136D02*
X117210Y-52936D01*
X117286Y-52936D01*
X117305Y-52945D01*
X117315Y-52955D01*
X117324Y-52974D01*
X117324Y-53002D01*
X117315Y-53021D01*
X117305Y-53031D01*
X117286Y-53040D01*
X117210Y-53040D01*
X117515Y-53136D02*
X117401Y-53136D01*
X117458Y-53136D02*
X117458Y-52936D01*
X117439Y-52964D01*
X117420Y-52983D01*
X117401Y-52993D01*
G54D10*
X109616Y-51819D02*
X109934Y-51819D01*
X109972Y-51800D01*
X109991Y-51782D01*
X110009Y-51744D01*
X110009Y-51669D01*
X109991Y-51632D01*
X109972Y-51613D01*
X109934Y-51594D01*
X109616Y-51594D01*
X109653Y-51425D02*
X109634Y-51407D01*
X109616Y-51369D01*
X109616Y-51275D01*
X109634Y-51238D01*
X109653Y-51219D01*
X109691Y-51200D01*
X109728Y-51200D01*
X109784Y-51219D01*
X110009Y-51444D01*
X110009Y-51200D01*
X112215Y-52836D02*
X112215Y-53155D01*
X112234Y-53192D01*
X112253Y-53211D01*
X112290Y-53230D01*
X112365Y-53230D01*
X112403Y-53211D01*
X112422Y-53192D01*
X112440Y-53155D01*
X112440Y-52836D01*
X112834Y-53230D02*
X112609Y-53230D01*
X112721Y-53230D02*
X112721Y-52836D01*
X112684Y-52892D01*
X112646Y-52930D01*
X112609Y-52949D01*
M02*
