G04 (created by PCBNEW (2013-07-07 BZR 4022)-stable) date 2/20/2015 11:24:40 AM*
%MOIN*%
G04 Gerber Fmt 3.4, Leading zero omitted, Abs format*
%FSLAX34Y34*%
G01*
G70*
G90*
G04 APERTURE LIST*
%ADD10C,0.00590551*%
%ADD11R,0.0314961X0.0354331*%
%ADD12C,0.00866142*%
%ADD13R,0.025X0.045*%
%ADD14R,0.0157X0.0236*%
%ADD15R,0.0236X0.0157*%
%ADD16R,0.0314961X0.0629921*%
%ADD17R,0.06X0.06*%
%ADD18C,0.06*%
%ADD19C,0.00629921*%
%ADD20O,0.0314961X0.00787402*%
%ADD21O,0.00787402X0.0314961*%
G04 APERTURE END LIST*
G54D10*
G54D11*
X107975Y-53167D03*
X107975Y-52615D03*
X108408Y-53167D03*
X108408Y-52615D03*
G54D12*
X109686Y-53598D03*
X109686Y-53991D03*
X109686Y-53795D03*
X109528Y-53598D03*
X109528Y-53991D03*
G54D13*
X112871Y-54653D03*
X112271Y-54653D03*
G54D14*
X112827Y-54192D03*
X112473Y-54192D03*
X113674Y-51767D03*
X113320Y-51767D03*
X112567Y-51759D03*
X112213Y-51759D03*
G54D15*
X111347Y-53464D03*
X111347Y-53818D03*
G54D14*
X111910Y-54263D03*
X111556Y-54263D03*
G54D15*
X112941Y-51790D03*
X112941Y-51436D03*
G54D14*
X113906Y-53893D03*
X113552Y-53893D03*
G54D15*
X113774Y-52210D03*
X113774Y-52564D03*
X109240Y-51708D03*
X109240Y-51354D03*
X108842Y-52515D03*
X108842Y-52161D03*
G54D14*
X108022Y-53615D03*
X108376Y-53615D03*
X108349Y-52163D03*
X107995Y-52163D03*
G54D15*
X110371Y-53633D03*
X110371Y-53987D03*
G54D14*
X110398Y-51724D03*
X110752Y-51724D03*
G54D15*
X108863Y-53547D03*
X108863Y-53901D03*
X110000Y-53633D03*
X110000Y-53987D03*
G54D13*
X113962Y-51295D03*
X113362Y-51295D03*
G54D15*
X110985Y-53468D03*
X110985Y-53822D03*
G54D14*
X112563Y-51381D03*
X112209Y-51381D03*
X114311Y-53385D03*
X113957Y-53385D03*
X113961Y-52960D03*
X114315Y-52960D03*
X114309Y-54651D03*
X113955Y-54651D03*
G54D16*
X106513Y-54477D03*
X105175Y-54477D03*
G54D14*
X107342Y-54488D03*
X106988Y-54488D03*
G54D15*
X107795Y-54488D03*
X107795Y-54134D03*
G54D14*
X108602Y-54488D03*
X108248Y-54488D03*
G54D17*
X116118Y-50740D03*
G54D18*
X116118Y-51740D03*
X116118Y-52740D03*
X116118Y-53740D03*
X116118Y-54740D03*
G54D17*
X117346Y-53771D03*
G54D18*
X117346Y-54771D03*
G54D19*
X109374Y-52830D03*
X109216Y-52830D03*
X110476Y-52830D03*
X110476Y-52673D03*
X110161Y-52515D03*
X110476Y-52515D03*
X109216Y-52988D03*
X109216Y-53145D03*
X109216Y-53303D03*
X109374Y-53303D03*
X109531Y-53303D03*
X109688Y-53303D03*
X109846Y-53303D03*
X110003Y-53303D03*
X110318Y-53145D03*
X110318Y-52988D03*
X109688Y-52358D03*
X109374Y-52200D03*
X109531Y-52200D03*
X110318Y-52200D03*
X110161Y-52043D03*
X110476Y-52358D03*
X110476Y-52200D03*
X110476Y-52988D03*
X110476Y-53145D03*
G54D20*
X111747Y-52623D03*
X111747Y-52781D03*
X111747Y-53568D03*
X111747Y-53411D03*
X111747Y-53253D03*
X111747Y-52938D03*
X111747Y-53096D03*
G54D21*
X113085Y-52230D03*
X112928Y-52230D03*
X112770Y-52230D03*
X111983Y-52230D03*
X112140Y-52230D03*
X112298Y-52230D03*
X112455Y-52230D03*
X112613Y-52230D03*
X112613Y-53804D03*
X112455Y-53804D03*
X112298Y-53804D03*
X112140Y-53804D03*
X111983Y-53804D03*
X112770Y-53804D03*
X112928Y-53804D03*
X113085Y-53804D03*
G54D20*
X113321Y-53096D03*
X113321Y-52938D03*
X113321Y-53253D03*
X113321Y-53411D03*
X113321Y-53568D03*
X113321Y-52781D03*
X113321Y-52623D03*
X113321Y-52466D03*
M02*
