G04 (created by PCBNEW (2013-07-07 BZR 4022)-stable) date 2/20/2015 11:24:38 AM*
%MOIN*%
G04 Gerber Fmt 3.4, Leading zero omitted, Abs format*
%FSLAX34Y34*%
G01*
G70*
G90*
G04 APERTURE LIST*
%ADD10C,0.00590551*%
%ADD11R,0.155906X0.155906*%
%ADD12R,0.125197X0.125197*%
%ADD13R,0.06X0.06*%
%ADD14C,0.06*%
%ADD15C,0.02*%
%ADD16C,0.006*%
%ADD17C,0.018*%
%ADD18C,0.0181102*%
%ADD19C,0.001*%
G04 APERTURE END LIST*
G54D10*
G54D11*
X110940Y-51673D03*
G54D12*
X106996Y-51673D03*
X114885Y-51673D03*
G54D13*
X116118Y-50740D03*
G54D14*
X116118Y-51740D03*
X116118Y-52740D03*
X116118Y-53740D03*
X116118Y-54740D03*
G54D13*
X117346Y-53771D03*
G54D14*
X117346Y-54771D03*
G54D15*
X109756Y-52665D03*
X112345Y-53403D03*
X109473Y-53818D03*
X110193Y-53999D03*
X112717Y-52925D03*
X109925Y-52200D03*
X108863Y-53547D03*
X112548Y-52676D03*
X112178Y-53149D03*
G54D16*
X112345Y-53403D02*
X112347Y-53405D01*
X110193Y-53999D02*
X110189Y-53995D01*
G54D17*
X106996Y-51673D02*
X106996Y-50834D01*
X114885Y-50732D02*
X114885Y-51673D01*
X114358Y-50204D02*
X114885Y-50732D01*
X107625Y-50204D02*
X114358Y-50204D01*
X106996Y-50834D02*
X107625Y-50204D01*
X114885Y-51673D02*
X114885Y-52988D01*
X114885Y-52988D02*
X115161Y-53263D01*
X113984Y-51657D02*
X114870Y-51657D01*
X114870Y-51657D02*
X114885Y-51673D01*
G54D18*
X113984Y-51657D02*
X113149Y-52492D01*
X112548Y-52676D02*
X112551Y-52676D01*
X112736Y-52492D02*
X113149Y-52492D01*
X112551Y-52676D02*
X112736Y-52492D01*
G54D17*
X106996Y-51673D02*
X108161Y-51673D01*
X108161Y-51673D02*
X109188Y-52700D01*
X109925Y-52200D02*
X109688Y-52200D01*
X109688Y-52200D02*
X109188Y-52700D01*
G54D18*
X109188Y-52700D02*
X109188Y-53221D01*
X108863Y-53547D02*
X109188Y-53221D01*
X116838Y-53263D02*
X117346Y-53771D01*
X115161Y-53263D02*
X116838Y-53263D01*
X115153Y-53263D02*
X115161Y-53263D01*
X112548Y-52676D02*
X112425Y-52676D01*
X112178Y-52924D02*
X112178Y-53149D01*
X112425Y-52676D02*
X112178Y-52924D01*
G54D16*
X112548Y-52676D02*
X112544Y-52673D01*
X112148Y-53119D02*
X112178Y-53149D01*
G54D10*
G36*
X118006Y-55408D02*
X117853Y-55408D01*
X117853Y-54796D01*
X117848Y-54697D01*
X117824Y-54601D01*
X117805Y-54555D01*
X117729Y-54523D01*
X117594Y-54657D01*
X117594Y-54388D01*
X117562Y-54312D01*
X117469Y-54279D01*
X117371Y-54264D01*
X117272Y-54269D01*
X117176Y-54293D01*
X117130Y-54312D01*
X117098Y-54388D01*
X117346Y-54637D01*
X117594Y-54388D01*
X117594Y-54657D01*
X117480Y-54771D01*
X117729Y-55019D01*
X117805Y-54987D01*
X117838Y-54894D01*
X117853Y-54796D01*
X117853Y-55408D01*
X117594Y-55408D01*
X117594Y-55154D01*
X117346Y-54906D01*
X117212Y-55040D01*
X117212Y-54771D01*
X116963Y-54523D01*
X116887Y-54555D01*
X116854Y-54648D01*
X116839Y-54746D01*
X116844Y-54845D01*
X116868Y-54941D01*
X116887Y-54987D01*
X116963Y-55019D01*
X117212Y-54771D01*
X117212Y-55040D01*
X117098Y-55154D01*
X117130Y-55230D01*
X117223Y-55264D01*
X117321Y-55278D01*
X117420Y-55273D01*
X117516Y-55249D01*
X117562Y-55230D01*
X117594Y-55154D01*
X117594Y-55408D01*
X116501Y-55408D01*
X116501Y-54702D01*
X116487Y-54628D01*
X116458Y-54559D01*
X116416Y-54496D01*
X116363Y-54443D01*
X116301Y-54400D01*
X116232Y-54371D01*
X116158Y-54356D01*
X116083Y-54356D01*
X116009Y-54370D01*
X115939Y-54398D01*
X115876Y-54439D01*
X115822Y-54492D01*
X115780Y-54554D01*
X115750Y-54623D01*
X115734Y-54697D01*
X115733Y-54772D01*
X115747Y-54846D01*
X115775Y-54916D01*
X115815Y-54979D01*
X115868Y-55033D01*
X115929Y-55076D01*
X115998Y-55106D01*
X116072Y-55123D01*
X116147Y-55124D01*
X116221Y-55111D01*
X116291Y-55084D01*
X116355Y-55044D01*
X116410Y-54992D01*
X116453Y-54930D01*
X116483Y-54861D01*
X116500Y-54788D01*
X116501Y-54702D01*
X116501Y-55408D01*
X111925Y-55408D01*
X111925Y-52434D01*
X111925Y-50912D01*
X111925Y-50872D01*
X111917Y-50832D01*
X111901Y-50795D01*
X111879Y-50762D01*
X111850Y-50734D01*
X111817Y-50711D01*
X111780Y-50696D01*
X111740Y-50688D01*
X111087Y-50688D01*
X111035Y-50739D01*
X111035Y-51578D01*
X111874Y-51578D01*
X111925Y-51526D01*
X111925Y-50912D01*
X111925Y-52434D01*
X111925Y-51819D01*
X111874Y-51768D01*
X111035Y-51768D01*
X111035Y-52606D01*
X111087Y-52657D01*
X111740Y-52657D01*
X111780Y-52649D01*
X111817Y-52634D01*
X111850Y-52612D01*
X111879Y-52584D01*
X111901Y-52550D01*
X111917Y-52513D01*
X111925Y-52474D01*
X111925Y-52434D01*
X111925Y-55408D01*
X107308Y-55408D01*
X107308Y-52382D01*
X107630Y-52382D01*
X107646Y-52379D01*
X107661Y-52373D01*
X107675Y-52364D01*
X107686Y-52352D01*
X107696Y-52339D01*
X107702Y-52324D01*
X107705Y-52308D01*
X107705Y-52291D01*
X107705Y-51846D01*
X108089Y-51846D01*
X109014Y-52772D01*
X109014Y-53149D01*
X108782Y-53381D01*
X108777Y-53383D01*
X108747Y-53403D01*
X108721Y-53428D01*
X108701Y-53458D01*
X108687Y-53491D01*
X108679Y-53526D01*
X108679Y-53562D01*
X108685Y-53598D01*
X108698Y-53631D01*
X108718Y-53661D01*
X108743Y-53687D01*
X108773Y-53708D01*
X108806Y-53722D01*
X108841Y-53730D01*
X108877Y-53731D01*
X108912Y-53725D01*
X108946Y-53712D01*
X108976Y-53692D01*
X109002Y-53667D01*
X109023Y-53638D01*
X109027Y-53628D01*
X109312Y-53344D01*
X109322Y-53332D01*
X109332Y-53319D01*
X109333Y-53319D01*
X109333Y-53318D01*
X109341Y-53304D01*
X109349Y-53290D01*
X109349Y-53289D01*
X109349Y-53288D01*
X109354Y-53273D01*
X109359Y-53257D01*
X109359Y-53256D01*
X109359Y-53255D01*
X109361Y-53239D01*
X109363Y-53223D01*
X109363Y-53222D01*
X109363Y-53222D01*
X109363Y-53222D01*
X109363Y-53221D01*
X109363Y-52772D01*
X109760Y-52374D01*
X109863Y-52374D01*
X109868Y-52376D01*
X109903Y-52384D01*
X109939Y-52384D01*
X109956Y-52381D01*
X109956Y-52434D01*
X109956Y-52474D01*
X109964Y-52513D01*
X109980Y-52550D01*
X110002Y-52584D01*
X110031Y-52612D01*
X110064Y-52634D01*
X110101Y-52649D01*
X110141Y-52657D01*
X110794Y-52657D01*
X110845Y-52606D01*
X110845Y-51768D01*
X110845Y-51578D01*
X110845Y-50739D01*
X110794Y-50688D01*
X110141Y-50688D01*
X110101Y-50696D01*
X110064Y-50711D01*
X110031Y-50734D01*
X110002Y-50762D01*
X109980Y-50795D01*
X109964Y-50832D01*
X109956Y-50872D01*
X109956Y-50912D01*
X109956Y-51526D01*
X110007Y-51578D01*
X110845Y-51578D01*
X110845Y-51768D01*
X110007Y-51768D01*
X109956Y-51819D01*
X109956Y-52019D01*
X109944Y-52017D01*
X109908Y-52016D01*
X109873Y-52023D01*
X109864Y-52027D01*
X109688Y-52027D01*
X109672Y-52028D01*
X109657Y-52030D01*
X109656Y-52030D01*
X109655Y-52030D01*
X109639Y-52034D01*
X109624Y-52039D01*
X109623Y-52039D01*
X109622Y-52040D01*
X109608Y-52047D01*
X109594Y-52055D01*
X109593Y-52055D01*
X109592Y-52056D01*
X109580Y-52066D01*
X109567Y-52076D01*
X109566Y-52077D01*
X109566Y-52077D01*
X109566Y-52077D01*
X109566Y-52077D01*
X109188Y-52455D01*
X108284Y-51550D01*
X108271Y-51540D01*
X108259Y-51529D01*
X108258Y-51529D01*
X108258Y-51528D01*
X108243Y-51521D01*
X108229Y-51513D01*
X108228Y-51513D01*
X108228Y-51512D01*
X108212Y-51508D01*
X108197Y-51503D01*
X108196Y-51503D01*
X108195Y-51502D01*
X108179Y-51501D01*
X108163Y-51499D01*
X108162Y-51499D01*
X108162Y-51499D01*
X108161Y-51499D01*
X108161Y-51499D01*
X107705Y-51499D01*
X107705Y-51039D01*
X107702Y-51022D01*
X107696Y-51007D01*
X107687Y-50994D01*
X107675Y-50982D01*
X107662Y-50973D01*
X107646Y-50966D01*
X107630Y-50963D01*
X107614Y-50963D01*
X107169Y-50963D01*
X107169Y-50906D01*
X107697Y-50378D01*
X114286Y-50378D01*
X114712Y-50804D01*
X114712Y-50963D01*
X114251Y-50963D01*
X114235Y-50966D01*
X114220Y-50972D01*
X114206Y-50982D01*
X114195Y-50993D01*
X114185Y-51007D01*
X114179Y-51022D01*
X114176Y-51038D01*
X114176Y-51054D01*
X114176Y-51483D01*
X113991Y-51483D01*
X113986Y-51483D01*
X113952Y-51486D01*
X113919Y-51495D01*
X113889Y-51511D01*
X113862Y-51532D01*
X113861Y-51534D01*
X113077Y-52317D01*
X112736Y-52317D01*
X112720Y-52319D01*
X112704Y-52320D01*
X112703Y-52321D01*
X112702Y-52321D01*
X112686Y-52325D01*
X112671Y-52330D01*
X112670Y-52330D01*
X112669Y-52330D01*
X112655Y-52338D01*
X112641Y-52345D01*
X112640Y-52346D01*
X112639Y-52346D01*
X112627Y-52357D01*
X112614Y-52367D01*
X112613Y-52368D01*
X112613Y-52368D01*
X112613Y-52368D01*
X112612Y-52368D01*
X112479Y-52502D01*
X112425Y-52502D01*
X112409Y-52504D01*
X112393Y-52505D01*
X112392Y-52505D01*
X112391Y-52505D01*
X112376Y-52510D01*
X112360Y-52515D01*
X112359Y-52515D01*
X112358Y-52515D01*
X112344Y-52523D01*
X112330Y-52530D01*
X112329Y-52531D01*
X112328Y-52531D01*
X112316Y-52541D01*
X112303Y-52552D01*
X112302Y-52553D01*
X112302Y-52553D01*
X112302Y-52553D01*
X112302Y-52553D01*
X112054Y-52800D01*
X112044Y-52813D01*
X112034Y-52825D01*
X112033Y-52826D01*
X112033Y-52827D01*
X112025Y-52841D01*
X112017Y-52855D01*
X112017Y-52856D01*
X112017Y-52857D01*
X112012Y-52872D01*
X112007Y-52887D01*
X112007Y-52888D01*
X112007Y-52889D01*
X112005Y-52905D01*
X112003Y-52921D01*
X112003Y-52923D01*
X112003Y-52923D01*
X112003Y-52923D01*
X112003Y-52924D01*
X112003Y-53089D01*
X112002Y-53093D01*
X111994Y-53128D01*
X111994Y-53164D01*
X112000Y-53200D01*
X112013Y-53233D01*
X112033Y-53264D01*
X112058Y-53290D01*
X112088Y-53310D01*
X112121Y-53325D01*
X112156Y-53332D01*
X112192Y-53333D01*
X112227Y-53327D01*
X112261Y-53314D01*
X112291Y-53294D01*
X112317Y-53270D01*
X112338Y-53240D01*
X112353Y-53207D01*
X112361Y-53172D01*
X112361Y-53131D01*
X112354Y-53096D01*
X112352Y-53090D01*
X112352Y-52996D01*
X112495Y-52853D01*
X112526Y-52860D01*
X112562Y-52861D01*
X112597Y-52854D01*
X112631Y-52841D01*
X112661Y-52822D01*
X112687Y-52797D01*
X112708Y-52768D01*
X112710Y-52764D01*
X112808Y-52666D01*
X113149Y-52666D01*
X113165Y-52664D01*
X113181Y-52663D01*
X113182Y-52663D01*
X113183Y-52663D01*
X113198Y-52658D01*
X113214Y-52653D01*
X113215Y-52653D01*
X113216Y-52653D01*
X113230Y-52645D01*
X113244Y-52638D01*
X113245Y-52637D01*
X113246Y-52637D01*
X113258Y-52627D01*
X113271Y-52617D01*
X113272Y-52615D01*
X113272Y-52615D01*
X113272Y-52615D01*
X113272Y-52615D01*
X114056Y-51831D01*
X114176Y-51831D01*
X114176Y-52307D01*
X114179Y-52323D01*
X114185Y-52338D01*
X114194Y-52352D01*
X114206Y-52364D01*
X114219Y-52373D01*
X114234Y-52379D01*
X114251Y-52382D01*
X114267Y-52383D01*
X114712Y-52382D01*
X114712Y-52988D01*
X114713Y-53004D01*
X114715Y-53020D01*
X114715Y-53021D01*
X114715Y-53021D01*
X114720Y-53037D01*
X114724Y-53052D01*
X114724Y-53053D01*
X114725Y-53054D01*
X114732Y-53068D01*
X114740Y-53082D01*
X114740Y-53083D01*
X114741Y-53084D01*
X114751Y-53096D01*
X114761Y-53109D01*
X114762Y-53110D01*
X114762Y-53110D01*
X114762Y-53110D01*
X114762Y-53111D01*
X115003Y-53351D01*
X115007Y-53359D01*
X115029Y-53385D01*
X115055Y-53407D01*
X115084Y-53423D01*
X115117Y-53434D01*
X115151Y-53438D01*
X115153Y-53438D01*
X115161Y-53438D01*
X115878Y-53438D01*
X115876Y-53439D01*
X115822Y-53492D01*
X115780Y-53554D01*
X115750Y-53623D01*
X115734Y-53697D01*
X115733Y-53772D01*
X115747Y-53846D01*
X115775Y-53916D01*
X115815Y-53979D01*
X115868Y-54033D01*
X115929Y-54076D01*
X115998Y-54106D01*
X116072Y-54123D01*
X116147Y-54124D01*
X116221Y-54111D01*
X116291Y-54084D01*
X116355Y-54044D01*
X116410Y-53992D01*
X116453Y-53930D01*
X116483Y-53861D01*
X116500Y-53788D01*
X116501Y-53702D01*
X116487Y-53628D01*
X116458Y-53559D01*
X116416Y-53496D01*
X116363Y-53443D01*
X116356Y-53438D01*
X116766Y-53438D01*
X116962Y-53634D01*
X116962Y-54079D01*
X116965Y-54095D01*
X116972Y-54111D01*
X116981Y-54124D01*
X116992Y-54136D01*
X117006Y-54145D01*
X117021Y-54152D01*
X117037Y-54155D01*
X117054Y-54155D01*
X117654Y-54155D01*
X117670Y-54152D01*
X117685Y-54145D01*
X117699Y-54136D01*
X117711Y-54125D01*
X117720Y-54111D01*
X117726Y-54096D01*
X117730Y-54080D01*
X117730Y-54064D01*
X117730Y-53463D01*
X117727Y-53447D01*
X117720Y-53432D01*
X117711Y-53418D01*
X117700Y-53406D01*
X117686Y-53397D01*
X117671Y-53391D01*
X117655Y-53387D01*
X117638Y-53387D01*
X117209Y-53387D01*
X116961Y-53140D01*
X116949Y-53130D01*
X116937Y-53119D01*
X116936Y-53119D01*
X116935Y-53118D01*
X116921Y-53111D01*
X116907Y-53103D01*
X116906Y-53103D01*
X116905Y-53102D01*
X116890Y-53098D01*
X116874Y-53093D01*
X116873Y-53093D01*
X116873Y-53092D01*
X116857Y-53091D01*
X116841Y-53089D01*
X116839Y-53089D01*
X116839Y-53089D01*
X116839Y-53089D01*
X116838Y-53089D01*
X116501Y-53089D01*
X116501Y-51032D01*
X116501Y-50431D01*
X116498Y-50415D01*
X116492Y-50400D01*
X116483Y-50386D01*
X116471Y-50375D01*
X116458Y-50366D01*
X116442Y-50359D01*
X116426Y-50356D01*
X116410Y-50356D01*
X115809Y-50356D01*
X115793Y-50359D01*
X115778Y-50365D01*
X115764Y-50374D01*
X115753Y-50386D01*
X115744Y-50400D01*
X115737Y-50415D01*
X115734Y-50431D01*
X115734Y-50447D01*
X115734Y-51048D01*
X115737Y-51064D01*
X115743Y-51079D01*
X115752Y-51093D01*
X115764Y-51104D01*
X115778Y-51114D01*
X115793Y-51120D01*
X115809Y-51123D01*
X115825Y-51123D01*
X116426Y-51123D01*
X116442Y-51120D01*
X116457Y-51114D01*
X116471Y-51105D01*
X116482Y-51093D01*
X116492Y-51080D01*
X116498Y-51065D01*
X116501Y-51048D01*
X116501Y-51032D01*
X116501Y-53089D01*
X116278Y-53089D01*
X116291Y-53084D01*
X116355Y-53044D01*
X116410Y-52992D01*
X116453Y-52930D01*
X116483Y-52861D01*
X116500Y-52788D01*
X116501Y-52702D01*
X116501Y-51702D01*
X116487Y-51628D01*
X116458Y-51559D01*
X116416Y-51496D01*
X116363Y-51443D01*
X116301Y-51400D01*
X116232Y-51371D01*
X116158Y-51356D01*
X116083Y-51356D01*
X116009Y-51370D01*
X115939Y-51398D01*
X115876Y-51439D01*
X115822Y-51492D01*
X115780Y-51554D01*
X115750Y-51623D01*
X115734Y-51697D01*
X115733Y-51772D01*
X115747Y-51846D01*
X115775Y-51916D01*
X115815Y-51979D01*
X115868Y-52033D01*
X115929Y-52076D01*
X115998Y-52106D01*
X116072Y-52123D01*
X116147Y-52124D01*
X116221Y-52111D01*
X116291Y-52084D01*
X116355Y-52044D01*
X116410Y-51992D01*
X116453Y-51930D01*
X116483Y-51861D01*
X116500Y-51788D01*
X116501Y-51702D01*
X116501Y-52702D01*
X116487Y-52628D01*
X116458Y-52559D01*
X116416Y-52496D01*
X116363Y-52443D01*
X116301Y-52400D01*
X116232Y-52371D01*
X116158Y-52356D01*
X116083Y-52356D01*
X116009Y-52370D01*
X115939Y-52398D01*
X115876Y-52439D01*
X115822Y-52492D01*
X115780Y-52554D01*
X115750Y-52623D01*
X115734Y-52697D01*
X115733Y-52772D01*
X115747Y-52846D01*
X115775Y-52916D01*
X115815Y-52979D01*
X115868Y-53033D01*
X115929Y-53076D01*
X115959Y-53089D01*
X115232Y-53089D01*
X115059Y-52916D01*
X115059Y-52382D01*
X115520Y-52382D01*
X115536Y-52379D01*
X115551Y-52373D01*
X115564Y-52364D01*
X115576Y-52352D01*
X115585Y-52339D01*
X115592Y-52324D01*
X115595Y-52308D01*
X115595Y-52291D01*
X115595Y-51039D01*
X115592Y-51022D01*
X115586Y-51007D01*
X115577Y-50994D01*
X115565Y-50982D01*
X115551Y-50973D01*
X115536Y-50966D01*
X115520Y-50963D01*
X115504Y-50963D01*
X115059Y-50963D01*
X115059Y-50732D01*
X115058Y-50716D01*
X115056Y-50700D01*
X115056Y-50699D01*
X115056Y-50698D01*
X115051Y-50683D01*
X115047Y-50667D01*
X115046Y-50666D01*
X115046Y-50666D01*
X115038Y-50651D01*
X115031Y-50637D01*
X115030Y-50636D01*
X115030Y-50636D01*
X115020Y-50623D01*
X115010Y-50611D01*
X115009Y-50609D01*
X115009Y-50609D01*
X115009Y-50609D01*
X115008Y-50609D01*
X114481Y-50081D01*
X114468Y-50071D01*
X114456Y-50061D01*
X114455Y-50060D01*
X114454Y-50060D01*
X114440Y-50052D01*
X114426Y-50045D01*
X114425Y-50044D01*
X114425Y-50044D01*
X114409Y-50039D01*
X114394Y-50034D01*
X114393Y-50034D01*
X114392Y-50034D01*
X114376Y-50032D01*
X114360Y-50031D01*
X114358Y-50030D01*
X114358Y-50030D01*
X114358Y-50030D01*
X114358Y-50030D01*
X107625Y-50030D01*
X107609Y-50032D01*
X107594Y-50033D01*
X107593Y-50034D01*
X107592Y-50034D01*
X107576Y-50038D01*
X107561Y-50043D01*
X107560Y-50043D01*
X107559Y-50044D01*
X107545Y-50051D01*
X107531Y-50059D01*
X107530Y-50059D01*
X107529Y-50060D01*
X107517Y-50070D01*
X107504Y-50080D01*
X107503Y-50081D01*
X107503Y-50081D01*
X107503Y-50081D01*
X107503Y-50081D01*
X106873Y-50711D01*
X106863Y-50724D01*
X106852Y-50736D01*
X106852Y-50737D01*
X106851Y-50737D01*
X106844Y-50752D01*
X106836Y-50766D01*
X106836Y-50767D01*
X106835Y-50767D01*
X106830Y-50783D01*
X106826Y-50798D01*
X106826Y-50799D01*
X106825Y-50800D01*
X106824Y-50816D01*
X106822Y-50832D01*
X106822Y-50834D01*
X106822Y-50834D01*
X106822Y-50834D01*
X106822Y-50834D01*
X106822Y-50963D01*
X106361Y-50963D01*
X106345Y-50966D01*
X106330Y-50972D01*
X106316Y-50982D01*
X106305Y-50993D01*
X106296Y-51007D01*
X106289Y-51022D01*
X106286Y-51038D01*
X106286Y-51054D01*
X106286Y-52307D01*
X106289Y-52323D01*
X106295Y-52338D01*
X106304Y-52352D01*
X106313Y-52361D01*
X104827Y-52361D01*
X104827Y-50000D01*
X104827Y-49709D01*
X116825Y-49709D01*
X116825Y-50000D01*
X116825Y-52755D01*
X116826Y-52765D01*
X116827Y-52775D01*
X116827Y-52775D01*
X116827Y-52775D01*
X116830Y-52785D01*
X116833Y-52794D01*
X116833Y-52794D01*
X116833Y-52795D01*
X116838Y-52803D01*
X116842Y-52812D01*
X116842Y-52812D01*
X116842Y-52813D01*
X116849Y-52820D01*
X116855Y-52828D01*
X116855Y-52828D01*
X116855Y-52828D01*
X116863Y-52834D01*
X116870Y-52841D01*
X116871Y-52841D01*
X116871Y-52841D01*
X116879Y-52846D01*
X116888Y-52850D01*
X116888Y-52851D01*
X116889Y-52851D01*
X116898Y-52854D01*
X116907Y-52857D01*
X116907Y-52857D01*
X116908Y-52857D01*
X116918Y-52858D01*
X116927Y-52859D01*
X116928Y-52859D01*
X116928Y-52859D01*
X116928Y-52859D01*
X116929Y-52859D01*
X118006Y-52859D01*
X118006Y-55408D01*
X118006Y-55408D01*
G37*
G54D19*
X118006Y-55408D02*
X117853Y-55408D01*
X117853Y-54796D01*
X117848Y-54697D01*
X117824Y-54601D01*
X117805Y-54555D01*
X117729Y-54523D01*
X117594Y-54657D01*
X117594Y-54388D01*
X117562Y-54312D01*
X117469Y-54279D01*
X117371Y-54264D01*
X117272Y-54269D01*
X117176Y-54293D01*
X117130Y-54312D01*
X117098Y-54388D01*
X117346Y-54637D01*
X117594Y-54388D01*
X117594Y-54657D01*
X117480Y-54771D01*
X117729Y-55019D01*
X117805Y-54987D01*
X117838Y-54894D01*
X117853Y-54796D01*
X117853Y-55408D01*
X117594Y-55408D01*
X117594Y-55154D01*
X117346Y-54906D01*
X117212Y-55040D01*
X117212Y-54771D01*
X116963Y-54523D01*
X116887Y-54555D01*
X116854Y-54648D01*
X116839Y-54746D01*
X116844Y-54845D01*
X116868Y-54941D01*
X116887Y-54987D01*
X116963Y-55019D01*
X117212Y-54771D01*
X117212Y-55040D01*
X117098Y-55154D01*
X117130Y-55230D01*
X117223Y-55264D01*
X117321Y-55278D01*
X117420Y-55273D01*
X117516Y-55249D01*
X117562Y-55230D01*
X117594Y-55154D01*
X117594Y-55408D01*
X116501Y-55408D01*
X116501Y-54702D01*
X116487Y-54628D01*
X116458Y-54559D01*
X116416Y-54496D01*
X116363Y-54443D01*
X116301Y-54400D01*
X116232Y-54371D01*
X116158Y-54356D01*
X116083Y-54356D01*
X116009Y-54370D01*
X115939Y-54398D01*
X115876Y-54439D01*
X115822Y-54492D01*
X115780Y-54554D01*
X115750Y-54623D01*
X115734Y-54697D01*
X115733Y-54772D01*
X115747Y-54846D01*
X115775Y-54916D01*
X115815Y-54979D01*
X115868Y-55033D01*
X115929Y-55076D01*
X115998Y-55106D01*
X116072Y-55123D01*
X116147Y-55124D01*
X116221Y-55111D01*
X116291Y-55084D01*
X116355Y-55044D01*
X116410Y-54992D01*
X116453Y-54930D01*
X116483Y-54861D01*
X116500Y-54788D01*
X116501Y-54702D01*
X116501Y-55408D01*
X111925Y-55408D01*
X111925Y-52434D01*
X111925Y-50912D01*
X111925Y-50872D01*
X111917Y-50832D01*
X111901Y-50795D01*
X111879Y-50762D01*
X111850Y-50734D01*
X111817Y-50711D01*
X111780Y-50696D01*
X111740Y-50688D01*
X111087Y-50688D01*
X111035Y-50739D01*
X111035Y-51578D01*
X111874Y-51578D01*
X111925Y-51526D01*
X111925Y-50912D01*
X111925Y-52434D01*
X111925Y-51819D01*
X111874Y-51768D01*
X111035Y-51768D01*
X111035Y-52606D01*
X111087Y-52657D01*
X111740Y-52657D01*
X111780Y-52649D01*
X111817Y-52634D01*
X111850Y-52612D01*
X111879Y-52584D01*
X111901Y-52550D01*
X111917Y-52513D01*
X111925Y-52474D01*
X111925Y-52434D01*
X111925Y-55408D01*
X107308Y-55408D01*
X107308Y-52382D01*
X107630Y-52382D01*
X107646Y-52379D01*
X107661Y-52373D01*
X107675Y-52364D01*
X107686Y-52352D01*
X107696Y-52339D01*
X107702Y-52324D01*
X107705Y-52308D01*
X107705Y-52291D01*
X107705Y-51846D01*
X108089Y-51846D01*
X109014Y-52772D01*
X109014Y-53149D01*
X108782Y-53381D01*
X108777Y-53383D01*
X108747Y-53403D01*
X108721Y-53428D01*
X108701Y-53458D01*
X108687Y-53491D01*
X108679Y-53526D01*
X108679Y-53562D01*
X108685Y-53598D01*
X108698Y-53631D01*
X108718Y-53661D01*
X108743Y-53687D01*
X108773Y-53708D01*
X108806Y-53722D01*
X108841Y-53730D01*
X108877Y-53731D01*
X108912Y-53725D01*
X108946Y-53712D01*
X108976Y-53692D01*
X109002Y-53667D01*
X109023Y-53638D01*
X109027Y-53628D01*
X109312Y-53344D01*
X109322Y-53332D01*
X109332Y-53319D01*
X109333Y-53319D01*
X109333Y-53318D01*
X109341Y-53304D01*
X109349Y-53290D01*
X109349Y-53289D01*
X109349Y-53288D01*
X109354Y-53273D01*
X109359Y-53257D01*
X109359Y-53256D01*
X109359Y-53255D01*
X109361Y-53239D01*
X109363Y-53223D01*
X109363Y-53222D01*
X109363Y-53222D01*
X109363Y-53222D01*
X109363Y-53221D01*
X109363Y-52772D01*
X109760Y-52374D01*
X109863Y-52374D01*
X109868Y-52376D01*
X109903Y-52384D01*
X109939Y-52384D01*
X109956Y-52381D01*
X109956Y-52434D01*
X109956Y-52474D01*
X109964Y-52513D01*
X109980Y-52550D01*
X110002Y-52584D01*
X110031Y-52612D01*
X110064Y-52634D01*
X110101Y-52649D01*
X110141Y-52657D01*
X110794Y-52657D01*
X110845Y-52606D01*
X110845Y-51768D01*
X110845Y-51578D01*
X110845Y-50739D01*
X110794Y-50688D01*
X110141Y-50688D01*
X110101Y-50696D01*
X110064Y-50711D01*
X110031Y-50734D01*
X110002Y-50762D01*
X109980Y-50795D01*
X109964Y-50832D01*
X109956Y-50872D01*
X109956Y-50912D01*
X109956Y-51526D01*
X110007Y-51578D01*
X110845Y-51578D01*
X110845Y-51768D01*
X110007Y-51768D01*
X109956Y-51819D01*
X109956Y-52019D01*
X109944Y-52017D01*
X109908Y-52016D01*
X109873Y-52023D01*
X109864Y-52027D01*
X109688Y-52027D01*
X109672Y-52028D01*
X109657Y-52030D01*
X109656Y-52030D01*
X109655Y-52030D01*
X109639Y-52034D01*
X109624Y-52039D01*
X109623Y-52039D01*
X109622Y-52040D01*
X109608Y-52047D01*
X109594Y-52055D01*
X109593Y-52055D01*
X109592Y-52056D01*
X109580Y-52066D01*
X109567Y-52076D01*
X109566Y-52077D01*
X109566Y-52077D01*
X109566Y-52077D01*
X109566Y-52077D01*
X109188Y-52455D01*
X108284Y-51550D01*
X108271Y-51540D01*
X108259Y-51529D01*
X108258Y-51529D01*
X108258Y-51528D01*
X108243Y-51521D01*
X108229Y-51513D01*
X108228Y-51513D01*
X108228Y-51512D01*
X108212Y-51508D01*
X108197Y-51503D01*
X108196Y-51503D01*
X108195Y-51502D01*
X108179Y-51501D01*
X108163Y-51499D01*
X108162Y-51499D01*
X108162Y-51499D01*
X108161Y-51499D01*
X108161Y-51499D01*
X107705Y-51499D01*
X107705Y-51039D01*
X107702Y-51022D01*
X107696Y-51007D01*
X107687Y-50994D01*
X107675Y-50982D01*
X107662Y-50973D01*
X107646Y-50966D01*
X107630Y-50963D01*
X107614Y-50963D01*
X107169Y-50963D01*
X107169Y-50906D01*
X107697Y-50378D01*
X114286Y-50378D01*
X114712Y-50804D01*
X114712Y-50963D01*
X114251Y-50963D01*
X114235Y-50966D01*
X114220Y-50972D01*
X114206Y-50982D01*
X114195Y-50993D01*
X114185Y-51007D01*
X114179Y-51022D01*
X114176Y-51038D01*
X114176Y-51054D01*
X114176Y-51483D01*
X113991Y-51483D01*
X113986Y-51483D01*
X113952Y-51486D01*
X113919Y-51495D01*
X113889Y-51511D01*
X113862Y-51532D01*
X113861Y-51534D01*
X113077Y-52317D01*
X112736Y-52317D01*
X112720Y-52319D01*
X112704Y-52320D01*
X112703Y-52321D01*
X112702Y-52321D01*
X112686Y-52325D01*
X112671Y-52330D01*
X112670Y-52330D01*
X112669Y-52330D01*
X112655Y-52338D01*
X112641Y-52345D01*
X112640Y-52346D01*
X112639Y-52346D01*
X112627Y-52357D01*
X112614Y-52367D01*
X112613Y-52368D01*
X112613Y-52368D01*
X112613Y-52368D01*
X112612Y-52368D01*
X112479Y-52502D01*
X112425Y-52502D01*
X112409Y-52504D01*
X112393Y-52505D01*
X112392Y-52505D01*
X112391Y-52505D01*
X112376Y-52510D01*
X112360Y-52515D01*
X112359Y-52515D01*
X112358Y-52515D01*
X112344Y-52523D01*
X112330Y-52530D01*
X112329Y-52531D01*
X112328Y-52531D01*
X112316Y-52541D01*
X112303Y-52552D01*
X112302Y-52553D01*
X112302Y-52553D01*
X112302Y-52553D01*
X112302Y-52553D01*
X112054Y-52800D01*
X112044Y-52813D01*
X112034Y-52825D01*
X112033Y-52826D01*
X112033Y-52827D01*
X112025Y-52841D01*
X112017Y-52855D01*
X112017Y-52856D01*
X112017Y-52857D01*
X112012Y-52872D01*
X112007Y-52887D01*
X112007Y-52888D01*
X112007Y-52889D01*
X112005Y-52905D01*
X112003Y-52921D01*
X112003Y-52923D01*
X112003Y-52923D01*
X112003Y-52923D01*
X112003Y-52924D01*
X112003Y-53089D01*
X112002Y-53093D01*
X111994Y-53128D01*
X111994Y-53164D01*
X112000Y-53200D01*
X112013Y-53233D01*
X112033Y-53264D01*
X112058Y-53290D01*
X112088Y-53310D01*
X112121Y-53325D01*
X112156Y-53332D01*
X112192Y-53333D01*
X112227Y-53327D01*
X112261Y-53314D01*
X112291Y-53294D01*
X112317Y-53270D01*
X112338Y-53240D01*
X112353Y-53207D01*
X112361Y-53172D01*
X112361Y-53131D01*
X112354Y-53096D01*
X112352Y-53090D01*
X112352Y-52996D01*
X112495Y-52853D01*
X112526Y-52860D01*
X112562Y-52861D01*
X112597Y-52854D01*
X112631Y-52841D01*
X112661Y-52822D01*
X112687Y-52797D01*
X112708Y-52768D01*
X112710Y-52764D01*
X112808Y-52666D01*
X113149Y-52666D01*
X113165Y-52664D01*
X113181Y-52663D01*
X113182Y-52663D01*
X113183Y-52663D01*
X113198Y-52658D01*
X113214Y-52653D01*
X113215Y-52653D01*
X113216Y-52653D01*
X113230Y-52645D01*
X113244Y-52638D01*
X113245Y-52637D01*
X113246Y-52637D01*
X113258Y-52627D01*
X113271Y-52617D01*
X113272Y-52615D01*
X113272Y-52615D01*
X113272Y-52615D01*
X113272Y-52615D01*
X114056Y-51831D01*
X114176Y-51831D01*
X114176Y-52307D01*
X114179Y-52323D01*
X114185Y-52338D01*
X114194Y-52352D01*
X114206Y-52364D01*
X114219Y-52373D01*
X114234Y-52379D01*
X114251Y-52382D01*
X114267Y-52383D01*
X114712Y-52382D01*
X114712Y-52988D01*
X114713Y-53004D01*
X114715Y-53020D01*
X114715Y-53021D01*
X114715Y-53021D01*
X114720Y-53037D01*
X114724Y-53052D01*
X114724Y-53053D01*
X114725Y-53054D01*
X114732Y-53068D01*
X114740Y-53082D01*
X114740Y-53083D01*
X114741Y-53084D01*
X114751Y-53096D01*
X114761Y-53109D01*
X114762Y-53110D01*
X114762Y-53110D01*
X114762Y-53110D01*
X114762Y-53111D01*
X115003Y-53351D01*
X115007Y-53359D01*
X115029Y-53385D01*
X115055Y-53407D01*
X115084Y-53423D01*
X115117Y-53434D01*
X115151Y-53438D01*
X115153Y-53438D01*
X115161Y-53438D01*
X115878Y-53438D01*
X115876Y-53439D01*
X115822Y-53492D01*
X115780Y-53554D01*
X115750Y-53623D01*
X115734Y-53697D01*
X115733Y-53772D01*
X115747Y-53846D01*
X115775Y-53916D01*
X115815Y-53979D01*
X115868Y-54033D01*
X115929Y-54076D01*
X115998Y-54106D01*
X116072Y-54123D01*
X116147Y-54124D01*
X116221Y-54111D01*
X116291Y-54084D01*
X116355Y-54044D01*
X116410Y-53992D01*
X116453Y-53930D01*
X116483Y-53861D01*
X116500Y-53788D01*
X116501Y-53702D01*
X116487Y-53628D01*
X116458Y-53559D01*
X116416Y-53496D01*
X116363Y-53443D01*
X116356Y-53438D01*
X116766Y-53438D01*
X116962Y-53634D01*
X116962Y-54079D01*
X116965Y-54095D01*
X116972Y-54111D01*
X116981Y-54124D01*
X116992Y-54136D01*
X117006Y-54145D01*
X117021Y-54152D01*
X117037Y-54155D01*
X117054Y-54155D01*
X117654Y-54155D01*
X117670Y-54152D01*
X117685Y-54145D01*
X117699Y-54136D01*
X117711Y-54125D01*
X117720Y-54111D01*
X117726Y-54096D01*
X117730Y-54080D01*
X117730Y-54064D01*
X117730Y-53463D01*
X117727Y-53447D01*
X117720Y-53432D01*
X117711Y-53418D01*
X117700Y-53406D01*
X117686Y-53397D01*
X117671Y-53391D01*
X117655Y-53387D01*
X117638Y-53387D01*
X117209Y-53387D01*
X116961Y-53140D01*
X116949Y-53130D01*
X116937Y-53119D01*
X116936Y-53119D01*
X116935Y-53118D01*
X116921Y-53111D01*
X116907Y-53103D01*
X116906Y-53103D01*
X116905Y-53102D01*
X116890Y-53098D01*
X116874Y-53093D01*
X116873Y-53093D01*
X116873Y-53092D01*
X116857Y-53091D01*
X116841Y-53089D01*
X116839Y-53089D01*
X116839Y-53089D01*
X116839Y-53089D01*
X116838Y-53089D01*
X116501Y-53089D01*
X116501Y-51032D01*
X116501Y-50431D01*
X116498Y-50415D01*
X116492Y-50400D01*
X116483Y-50386D01*
X116471Y-50375D01*
X116458Y-50366D01*
X116442Y-50359D01*
X116426Y-50356D01*
X116410Y-50356D01*
X115809Y-50356D01*
X115793Y-50359D01*
X115778Y-50365D01*
X115764Y-50374D01*
X115753Y-50386D01*
X115744Y-50400D01*
X115737Y-50415D01*
X115734Y-50431D01*
X115734Y-50447D01*
X115734Y-51048D01*
X115737Y-51064D01*
X115743Y-51079D01*
X115752Y-51093D01*
X115764Y-51104D01*
X115778Y-51114D01*
X115793Y-51120D01*
X115809Y-51123D01*
X115825Y-51123D01*
X116426Y-51123D01*
X116442Y-51120D01*
X116457Y-51114D01*
X116471Y-51105D01*
X116482Y-51093D01*
X116492Y-51080D01*
X116498Y-51065D01*
X116501Y-51048D01*
X116501Y-51032D01*
X116501Y-53089D01*
X116278Y-53089D01*
X116291Y-53084D01*
X116355Y-53044D01*
X116410Y-52992D01*
X116453Y-52930D01*
X116483Y-52861D01*
X116500Y-52788D01*
X116501Y-52702D01*
X116501Y-51702D01*
X116487Y-51628D01*
X116458Y-51559D01*
X116416Y-51496D01*
X116363Y-51443D01*
X116301Y-51400D01*
X116232Y-51371D01*
X116158Y-51356D01*
X116083Y-51356D01*
X116009Y-51370D01*
X115939Y-51398D01*
X115876Y-51439D01*
X115822Y-51492D01*
X115780Y-51554D01*
X115750Y-51623D01*
X115734Y-51697D01*
X115733Y-51772D01*
X115747Y-51846D01*
X115775Y-51916D01*
X115815Y-51979D01*
X115868Y-52033D01*
X115929Y-52076D01*
X115998Y-52106D01*
X116072Y-52123D01*
X116147Y-52124D01*
X116221Y-52111D01*
X116291Y-52084D01*
X116355Y-52044D01*
X116410Y-51992D01*
X116453Y-51930D01*
X116483Y-51861D01*
X116500Y-51788D01*
X116501Y-51702D01*
X116501Y-52702D01*
X116487Y-52628D01*
X116458Y-52559D01*
X116416Y-52496D01*
X116363Y-52443D01*
X116301Y-52400D01*
X116232Y-52371D01*
X116158Y-52356D01*
X116083Y-52356D01*
X116009Y-52370D01*
X115939Y-52398D01*
X115876Y-52439D01*
X115822Y-52492D01*
X115780Y-52554D01*
X115750Y-52623D01*
X115734Y-52697D01*
X115733Y-52772D01*
X115747Y-52846D01*
X115775Y-52916D01*
X115815Y-52979D01*
X115868Y-53033D01*
X115929Y-53076D01*
X115959Y-53089D01*
X115232Y-53089D01*
X115059Y-52916D01*
X115059Y-52382D01*
X115520Y-52382D01*
X115536Y-52379D01*
X115551Y-52373D01*
X115564Y-52364D01*
X115576Y-52352D01*
X115585Y-52339D01*
X115592Y-52324D01*
X115595Y-52308D01*
X115595Y-52291D01*
X115595Y-51039D01*
X115592Y-51022D01*
X115586Y-51007D01*
X115577Y-50994D01*
X115565Y-50982D01*
X115551Y-50973D01*
X115536Y-50966D01*
X115520Y-50963D01*
X115504Y-50963D01*
X115059Y-50963D01*
X115059Y-50732D01*
X115058Y-50716D01*
X115056Y-50700D01*
X115056Y-50699D01*
X115056Y-50698D01*
X115051Y-50683D01*
X115047Y-50667D01*
X115046Y-50666D01*
X115046Y-50666D01*
X115038Y-50651D01*
X115031Y-50637D01*
X115030Y-50636D01*
X115030Y-50636D01*
X115020Y-50623D01*
X115010Y-50611D01*
X115009Y-50609D01*
X115009Y-50609D01*
X115009Y-50609D01*
X115008Y-50609D01*
X114481Y-50081D01*
X114468Y-50071D01*
X114456Y-50061D01*
X114455Y-50060D01*
X114454Y-50060D01*
X114440Y-50052D01*
X114426Y-50045D01*
X114425Y-50044D01*
X114425Y-50044D01*
X114409Y-50039D01*
X114394Y-50034D01*
X114393Y-50034D01*
X114392Y-50034D01*
X114376Y-50032D01*
X114360Y-50031D01*
X114358Y-50030D01*
X114358Y-50030D01*
X114358Y-50030D01*
X114358Y-50030D01*
X107625Y-50030D01*
X107609Y-50032D01*
X107594Y-50033D01*
X107593Y-50034D01*
X107592Y-50034D01*
X107576Y-50038D01*
X107561Y-50043D01*
X107560Y-50043D01*
X107559Y-50044D01*
X107545Y-50051D01*
X107531Y-50059D01*
X107530Y-50059D01*
X107529Y-50060D01*
X107517Y-50070D01*
X107504Y-50080D01*
X107503Y-50081D01*
X107503Y-50081D01*
X107503Y-50081D01*
X107503Y-50081D01*
X106873Y-50711D01*
X106863Y-50724D01*
X106852Y-50736D01*
X106852Y-50737D01*
X106851Y-50737D01*
X106844Y-50752D01*
X106836Y-50766D01*
X106836Y-50767D01*
X106835Y-50767D01*
X106830Y-50783D01*
X106826Y-50798D01*
X106826Y-50799D01*
X106825Y-50800D01*
X106824Y-50816D01*
X106822Y-50832D01*
X106822Y-50834D01*
X106822Y-50834D01*
X106822Y-50834D01*
X106822Y-50834D01*
X106822Y-50963D01*
X106361Y-50963D01*
X106345Y-50966D01*
X106330Y-50972D01*
X106316Y-50982D01*
X106305Y-50993D01*
X106296Y-51007D01*
X106289Y-51022D01*
X106286Y-51038D01*
X106286Y-51054D01*
X106286Y-52307D01*
X106289Y-52323D01*
X106295Y-52338D01*
X106304Y-52352D01*
X106313Y-52361D01*
X104827Y-52361D01*
X104827Y-50000D01*
X104827Y-49709D01*
X116825Y-49709D01*
X116825Y-50000D01*
X116825Y-52755D01*
X116826Y-52765D01*
X116827Y-52775D01*
X116827Y-52775D01*
X116827Y-52775D01*
X116830Y-52785D01*
X116833Y-52794D01*
X116833Y-52794D01*
X116833Y-52795D01*
X116838Y-52803D01*
X116842Y-52812D01*
X116842Y-52812D01*
X116842Y-52813D01*
X116849Y-52820D01*
X116855Y-52828D01*
X116855Y-52828D01*
X116855Y-52828D01*
X116863Y-52834D01*
X116870Y-52841D01*
X116871Y-52841D01*
X116871Y-52841D01*
X116879Y-52846D01*
X116888Y-52850D01*
X116888Y-52851D01*
X116889Y-52851D01*
X116898Y-52854D01*
X116907Y-52857D01*
X116907Y-52857D01*
X116908Y-52857D01*
X116918Y-52858D01*
X116927Y-52859D01*
X116928Y-52859D01*
X116928Y-52859D01*
X116928Y-52859D01*
X116929Y-52859D01*
X118006Y-52859D01*
X118006Y-55408D01*
M02*
