<?xml version="1.0" standalone="no"?>
 <!DOCTYPE svg PUBLIC "-//W3C//DTD SVG 1.1//EN" 
 "http://www.w3.org/Graphics/SVG/1.1/DTD/svg11.dtd"> 
<svg xmlns="http://www.w3.org/2000/svg" version="1.1" 
    width="41.9989cm" height="29.7002cm" viewBox="0 0 165350 116930 ">
<title>SVG Picture created as emg_circuit_2_ext_amp-F_Cu.svg date 2015/04/13 22:01:02 </title>
  <desc>Picture generated by PCBNEW </desc>
<g style="fill:#000000; fill-opacity:1;stroke:#000000; stroke-opacity:1;
stroke-linecap:round; stroke-linejoin:round; "
 transform="translate(0 0) scale(1 1)">
</g>
<g style="fill:#000000; fill-opacity:0.0; 
stroke:#000000; stroke-width:39.3701; stroke-opacity:1; 
stroke-linecap:round; stroke-linejoin:round;">
<path d="M4000 4000
L161350 4000
L161350 112930
L4000 112930
L4000 4000
" />
<path d="M4700 4700
L160650 4700
L160650 112230
L4700 112230
L4700 4700
" />
<path d="M26470 4000
L26470 4700
" />
<path d="M15382 4552
L15097 4552
" />
<path d="M15240 4552
L15240 4052
L15192 4123
L15144 4171
L15097 4195
" />
<path d="M26470 112930
L26470 112230
" />
<path d="M15382 112782
L15097 112782
" />
<path d="M15240 112782
L15240 112282
L15192 112353
L15144 112401
L15097 112425
" />
<path d="M48940 4000
L48940 4700
" />
<path d="M37567 4100
L37590 4076
L37638 4052
L37757 4052
L37805 4076
L37829 4100
L37852 4147
L37852 4195
L37829 4266
L37543 4552
L37852 4552
" />
<path d="M48940 112930
L48940 112230
" />
<path d="M37567 112330
L37590 112306
L37638 112282
L37757 112282
L37805 112306
L37829 112330
L37852 112377
L37852 112425
L37829 112496
L37543 112782
L37852 112782
" />
<path d="M71410 4000
L71410 4700
" />
<path d="M60013 4052
L60322 4052
L60156 4242
L60227 4242
L60275 4266
L60299 4290
L60322 4338
L60322 4457
L60299 4504
L60275 4528
L60227 4552
L60084 4552
L60037 4528
L60013 4504
" />
<path d="M71410 112930
L71410 112230
" />
<path d="M60013 112282
L60322 112282
L60156 112472
L60227 112472
L60275 112496
L60299 112520
L60322 112568
L60322 112687
L60299 112734
L60275 112758
L60227 112782
L60084 112782
L60037 112758
L60013 112734
" />
<path d="M93880 4000
L93880 4700
" />
<path d="M82745 4219
L82745 4552
" />
<path d="M82626 4028
L82507 4385
L82816 4385
" />
<path d="M93880 112930
L93880 112230
" />
<path d="M82745 112449
L82745 112782
" />
<path d="M82626 112258
L82507 112615
L82816 112615
" />
<path d="M116350 4000
L116350 4700
" />
<path d="M105239 4052
L105000 4052
L104977 4290
L105000 4266
L105048 4242
L105167 4242
L105215 4266
L105239 4290
L105262 4338
L105262 4457
L105239 4504
L105215 4528
L105167 4552
L105048 4552
L105000 4528
L104977 4504
" />
<path d="M116350 112930
L116350 112230
" />
<path d="M105239 112282
L105000 112282
L104977 112520
L105000 112496
L105048 112472
L105167 112472
L105215 112496
L105239 112520
L105262 112568
L105262 112687
L105239 112734
L105215 112758
L105167 112782
L105048 112782
L105000 112758
L104977 112734
" />
<path d="M138820 4000
L138820 4700
" />
<path d="M127685 4052
L127590 4052
L127542 4076
L127518 4100
L127470 4171
L127447 4266
L127447 4457
L127470 4504
L127494 4528
L127542 4552
L127637 4552
L127685 4528
L127709 4504
L127732 4457
L127732 4338
L127709 4290
L127685 4266
L127637 4242
L127542 4242
L127494 4266
L127470 4290
L127447 4338
" />
<path d="M138820 112930
L138820 112230
" />
<path d="M127685 112282
L127590 112282
L127542 112306
L127518 112330
L127470 112401
L127447 112496
L127447 112687
L127470 112734
L127494 112758
L127542 112782
L127637 112782
L127685 112758
L127709 112734
L127732 112687
L127732 112568
L127709 112520
L127685 112496
L127637 112472
L127542 112472
L127494 112496
L127470 112520
L127447 112568
" />
<path d="M149893 4052
L150226 4052
L150012 4552
" />
<path d="M149893 112282
L150226 112282
L150012 112782
" />
<path d="M4000 25780
L4700 25780
" />
<path d="M4230 14949
L4469 14949
" />
<path d="M4183 15092
L4350 14592
L4516 15092
" />
<path d="M161350 25780
L160650 25780
" />
<path d="M160880 14949
L161119 14949
" />
<path d="M160833 15092
L161000 14592
L161166 15092
" />
<path d="M4000 47560
L4700 47560
" />
<path d="M4385 36610
L4457 36634
L4480 36658
L4504 36705
L4504 36777
L4480 36824
L4457 36848
L4409 36872
L4219 36872
L4219 36372
L4385 36372
L4433 36396
L4457 36420
L4480 36467
L4480 36515
L4457 36562
L4433 36586
L4385 36610
L4219 36610
" />
<path d="M161350 47560
L160650 47560
" />
<path d="M161035 36610
L161107 36634
L161130 36658
L161154 36705
L161154 36777
L161130 36824
L161107 36848
L161059 36872
L160869 36872
L160869 36372
L161035 36372
L161083 36396
L161107 36420
L161130 36467
L161130 36515
L161107 36562
L161083 36586
L161035 36610
L160869 36610
" />
<path d="M4000 69340
L4700 69340
" />
<path d="M4504 58604
L4480 58628
L4409 58652
L4361 58652
L4290 58628
L4242 58580
L4219 58533
L4195 58438
L4195 58366
L4219 58271
L4242 58223
L4290 58176
L4361 58152
L4409 58152
L4480 58176
L4504 58200
" />
<path d="M161350 69340
L160650 69340
" />
<path d="M161154 58604
L161130 58628
L161059 58652
L161011 58652
L160940 58628
L160892 58580
L160869 58533
L160845 58438
L160845 58366
L160869 58271
L160892 58223
L160940 58176
L161011 58152
L161059 58152
L161130 58176
L161154 58200
" />
<path d="M4000 91120
L4700 91120
" />
<path d="M4219 80432
L4219 79932
L4338 79932
L4409 79956
L4457 80003
L4480 80051
L4504 80146
L4504 80218
L4480 80313
L4457 80360
L4409 80408
L4338 80432
L4219 80432
" />
<path d="M161350 91120
L160650 91120
" />
<path d="M160869 80432
L160869 79932
L160988 79932
L161059 79956
L161107 80003
L161130 80051
L161154 80146
L161154 80218
L161130 80313
L161107 80360
L161059 80408
L160988 80432
L160869 80432
" />
<path d="M4242 101950
L4409 101950
" />
<path d="M4480 102212
L4242 102212
L4242 101712
L4480 101712
" />
<path d="M160892 101950
L161059 101950
" />
<path d="M161130 102212
L160892 102212
L160892 101712
L161130 101712
" />
<path d="M127800 110672
L127875 110072
L128017 110072
L128100 110101
L128150 110158
L128171 110215
L128185 110330
L128175 110415
L128132 110530
L128096 110587
L128032 110644
L127942 110672
L127800 110672
" />
<path d="M128657 110672
L128696 110358
L128675 110301
L128621 110272
L128507 110272
L128446 110301
" />
<path d="M128660 110644
L128600 110672
L128457 110672
L128403 110644
L128382 110587
L128389 110530
L128425 110472
L128485 110444
L128628 110444
L128689 110415
" />
<path d="M128907 110272
L129135 110272
" />
<path d="M129017 110072
L128953 110587
L128975 110644
L129028 110672
L129085 110672
" />
<path d="M129517 110644
L129457 110672
L129342 110672
L129289 110644
L129267 110587
L129296 110358
L129332 110301
L129392 110272
L129507 110272
L129560 110301
L129582 110358
L129575 110415
L129282 110472
" />
<path d="M129807 110615
L129832 110644
L129800 110672
L129775 110644
L129807 110615
L129800 110672
" />
<path d="M129846 110301
L129871 110330
L129839 110358
L129814 110330
L129846 110301
L129839 110358
" />
<path d="M119392 111872
L119392 111272
" />
<path d="M119735 111872
L119478 111530
" />
<path d="M119735 111272
L119392 111615
" />
<path d="M119992 111872
L119992 111472
" />
<path d="M119992 111272
L119964 111301
L119992 111330
L120021 111301
L119992 111272
L119992 111330
" />
<path d="M120621 111815
L120592 111844
L120507 111872
L120450 111872
L120364 111844
L120307 111787
L120278 111730
L120250 111615
L120250 111530
L120278 111415
L120307 111358
L120364 111301
L120450 111272
L120507 111272
L120592 111301
L120621 111330
" />
<path d="M121135 111872
L121135 111558
L121107 111501
L121050 111472
L120935 111472
L120878 111501
" />
<path d="M121135 111844
L121078 111872
L120935 111872
L120878 111844
L120850 111787
L120850 111730
L120878 111672
L120935 111644
L121078 111644
L121135 111615
" />
<path d="M121678 111872
L121678 111272
" />
<path d="M121678 111844
L121621 111872
L121507 111872
L121450 111844
L121421 111815
L121392 111758
L121392 111587
L121421 111530
L121450 111501
L121507 111472
L121621 111472
L121678 111501
" />
<path d="M122421 111558
L122621 111558
" />
<path d="M122707 111872
L122421 111872
L122421 111272
L122707 111272
" />
<path d="M122964 111815
L122992 111844
L122964 111872
L122935 111844
L122964 111815
L122964 111872
" />
<path d="M123249 111872
L123249 111272
L123392 111272
L123478 111301
L123535 111358
L123564 111415
L123592 111530
L123592 111615
L123564 111730
L123535 111787
L123478 111844
L123392 111872
L123249 111872
" />
<path d="M123849 111815
L123878 111844
L123849 111872
L123821 111844
L123849 111815
L123849 111872
" />
<path d="M124107 111701
L124392 111701
" />
<path d="M124049 111872
L124249 111272
L124449 111872
" />
<path d="M124649 111815
L124678 111844
L124649 111872
L124621 111844
L124649 111815
L124649 111872
" />
<path d="M152942 110672
L152778 110387
" />
<path d="M152600 110672
L152675 110072
L152903 110072
L152957 110101
L152982 110130
L153003 110187
L152992 110272
L152957 110330
L152925 110358
L152864 110387
L152635 110387
" />
<path d="M153432 110644
L153371 110672
L153257 110672
L153203 110644
L153182 110587
L153210 110358
L153246 110301
L153307 110272
L153421 110272
L153475 110301
L153496 110358
L153489 110415
L153196 110472
" />
<path d="M153707 110272
L153800 110672
L153992 110272
" />
<path d="M154178 110615
L154203 110644
L154171 110672
L154146 110644
L154178 110615
L154171 110672
" />
<path d="M154217 110301
L154242 110330
L154210 110358
L154185 110330
L154217 110301
L154210 110358
" />
<path d="M119364 110644
L119450 110672
L119592 110672
L119650 110644
L119678 110615
L119707 110558
L119707 110501
L119678 110444
L119650 110415
L119592 110387
L119478 110358
L119421 110330
L119392 110301
L119364 110244
L119364 110187
L119392 110130
L119421 110101
L119478 110072
L119621 110072
L119707 110101
" />
<path d="M119964 110672
L119964 110272
" />
<path d="M119964 110072
L119935 110101
L119964 110130
L119992 110101
L119964 110072
L119964 110130
" />
<path d="M120192 110272
L120507 110272
L120192 110672
L120507 110672
" />
<path d="M120964 110644
L120907 110672
L120792 110672
L120735 110644
L120707 110587
L120707 110358
L120735 110301
L120792 110272
L120907 110272
L120964 110301
L120992 110358
L120992 110415
L120707 110472
" />
<path d="M121250 110615
L121278 110644
L121250 110672
L121221 110644
L121250 110615
L121250 110672
" />
<path d="M121250 110301
L121278 110330
L121250 110358
L121221 110330
L121250 110301
L121250 110358
" />
<path d="M121964 110501
L122250 110501
" />
<path d="M121907 110672
L122107 110072
L122307 110672
" />
<path d="M122450 110072
L122821 110072
L122621 110301
L122707 110301
L122764 110330
L122792 110358
L122821 110415
L122821 110558
L122792 110615
L122764 110644
L122707 110672
L122535 110672
L122478 110644
L122450 110615
" />
<path d="M152592 111872
L152592 111272
" />
<path d="M153135 111872
L153135 111272
" />
<path d="M153135 111844
L153078 111872
L152964 111872
L152907 111844
L152878 111815
L152850 111758
L152850 111587
L152878 111530
L152907 111501
L152964 111472
L153078 111472
L153135 111501
" />
<path d="M153421 111815
L153450 111844
L153421 111872
L153392 111844
L153421 111815
L153421 111872
" />
<path d="M153421 111501
L153450 111530
L153421 111558
L153392 111530
L153421 111501
L153421 111558
" />
<path d="M154478 111872
L154135 111872
" />
<path d="M154307 111872
L154307 111272
L154249 111358
L154192 111415
L154135 111444
" />
<path d="M155164 111244
L154650 112015
" />
<path d="M155678 111872
L155335 111872
" />
<path d="M155507 111872
L155507 111272
L155449 111358
L155392 111415
L155335 111444
" />
<path d="M119389 108872
L119732 108872
" />
<path d="M119485 109472
L119560 108872
" />
<path d="M119857 109472
L119907 109072
" />
<path d="M119932 108872
L119900 108901
L119925 108930
L119957 108901
L119932 108872
L119925 108930
" />
<path d="M120107 109072
L120335 109072
" />
<path d="M120217 108872
L120153 109387
L120175 109444
L120228 109472
L120285 109472
" />
<path d="M120571 109472
L120517 109444
L120496 109387
L120560 108872
" />
<path d="M121032 109444
L120971 109472
L120857 109472
L120803 109444
L120782 109387
L120810 109158
L120846 109101
L120907 109072
L121021 109072
L121075 109101
L121096 109158
L121089 109215
L120796 109272
" />
<path d="M121321 109415
L121346 109444
L121314 109472
L121289 109444
L121321 109415
L121314 109472
" />
<path d="M121360 109101
L121385 109130
L121353 109158
L121328 109130
L121360 109101
L121353 109158
" />
<path d="M119592 106758
L119392 106758
" />
<path d="M119392 107072
L119392 106472
L119678 106472
" />
<path d="M119907 107072
L119907 106672
" />
<path d="M119907 106472
L119878 106501
L119907 106530
L119935 106501
L119907 106472
L119907 106530
" />
<path d="M120278 107072
L120221 107044
L120192 106987
L120192 106472
" />
<path d="M120735 107044
L120678 107072
L120564 107072
L120507 107044
L120478 106987
L120478 106758
L120507 106701
L120564 106672
L120678 106672
L120735 106701
L120764 106758
L120764 106815
L120478 106872
" />
<path d="M121021 107015
L121050 107044
L121021 107072
L120992 107044
L121021 107015
L121021 107072
" />
<path d="M121021 106701
L121050 106730
L121021 106758
L120992 106730
L121021 106701
L121021 106758
" />
<path d="M121992 107044
L121935 107072
L121821 107072
L121764 107044
L121735 106987
L121735 106758
L121764 106701
L121821 106672
L121935 106672
L121992 106701
L122021 106758
L122021 106815
L121735 106872
" />
<path d="M122278 107072
L122278 106672
" />
<path d="M122278 106730
L122307 106701
L122364 106672
L122450 106672
L122507 106701
L122535 106758
L122535 107072
" />
<path d="M122535 106758
L122564 106701
L122621 106672
L122707 106672
L122764 106701
L122792 106758
L122792 107072
" />
<path d="M123335 106672
L123335 107158
L123307 107215
L123278 107244
L123221 107272
L123135 107272
L123078 107244
" />
<path d="M123335 107044
L123278 107072
L123164 107072
L123107 107044
L123078 107015
L123050 106958
L123050 106787
L123078 106730
L123107 106701
L123164 106672
L123278 106672
L123335 106701
" />
<path d="M123478 107130
L123935 107130
" />
<path d="M124335 107044
L124278 107072
L124164 107072
L124107 107044
L124078 107015
L124050 106958
L124050 106787
L124078 106730
L124107 106701
L124164 106672
L124278 106672
L124335 106701
" />
<path d="M124592 107072
L124592 106672
" />
<path d="M124592 106472
L124564 106501
L124592 106530
L124621 106501
L124592 106472
L124592 106530
" />
<path d="M124878 107072
L124878 106672
" />
<path d="M124878 106787
L124907 106730
L124935 106701
L124992 106672
L125050 106672
" />
<path d="M125507 107044
L125450 107072
L125335 107072
L125278 107044
L125250 107015
L125221 106958
L125221 106787
L125250 106730
L125278 106701
L125335 106672
L125450 106672
L125507 106701
" />
<path d="M126021 106672
L126021 107072
" />
<path d="M125764 106672
L125764 106987
L125792 107044
L125850 107072
L125935 107072
L125992 107044
L126021 107015
" />
<path d="M126307 107072
L126307 106672
" />
<path d="M126307 106472
L126278 106501
L126307 106530
L126335 106501
L126307 106472
L126307 106530
" />
<path d="M126507 106672
L126735 106672
" />
<path d="M126592 106472
L126592 106987
L126621 107044
L126678 107072
L126735 107072
" />
<path d="M126792 107130
L127250 107130
" />
<path d="M127364 106530
L127392 106501
L127450 106472
L127592 106472
L127650 106501
L127678 106530
L127707 106587
L127707 106644
L127678 106730
L127335 107072
L127707 107072
" />
<path d="M127821 107130
L128278 107130
" />
<path d="M128650 107044
L128592 107072
L128478 107072
L128421 107044
L128392 106987
L128392 106758
L128421 106701
L128478 106672
L128592 106672
L128650 106701
L128678 106758
L128678 106815
L128392 106872
" />
<path d="M128878 107072
L129192 106672
" />
<path d="M128878 106672
L129192 107072
" />
<path d="M129335 106672
L129564 106672
" />
<path d="M129421 106472
L129421 106987
L129450 107044
L129507 107072
L129564 107072
" />
<path d="M129621 107130
L130078 107130
" />
<path d="M130478 107072
L130478 106758
L130450 106701
L130392 106672
L130278 106672
L130221 106701
" />
<path d="M130478 107044
L130421 107072
L130278 107072
L130221 107044
L130192 106987
L130192 106930
L130221 106872
L130278 106844
L130421 106844
L130478 106815
" />
<path d="M130764 107072
L130764 106672
" />
<path d="M130764 106730
L130792 106701
L130850 106672
L130935 106672
L130992 106701
L131021 106758
L131021 107072
" />
<path d="M131021 106758
L131050 106701
L131107 106672
L131192 106672
L131250 106701
L131278 106758
L131278 107072
" />
<path d="M131564 106672
L131564 107272
" />
<path d="M131564 106701
L131621 106672
L131735 106672
L131792 106701
L131821 106730
L131850 106787
L131850 106958
L131821 107015
L131792 107044
L131735 107072
L131621 107072
L131564 107044
" />
<path d="M132107 107015
L132135 107044
L132107 107072
L132078 107044
L132107 107015
L132107 107072
" />
<path d="M132392 107072
L132392 106472
" />
<path d="M132450 106844
L132621 107072
" />
<path d="M132621 106672
L132392 106901
" />
<path d="M132878 107072
L132878 106672
" />
<path d="M132878 106472
L132850 106501
L132878 106530
L132907 106501
L132878 106472
L132878 106530
" />
<path d="M133421 107044
L133364 107072
L133250 107072
L133192 107044
L133164 107015
L133135 106958
L133135 106787
L133164 106730
L133192 106701
L133250 106672
L133364 106672
L133421 106701
" />
<path d="M133935 107072
L133935 106758
L133907 106701
L133850 106672
L133735 106672
L133678 106701
" />
<path d="M133935 107044
L133878 107072
L133735 107072
L133678 107044
L133650 106987
L133650 106930
L133678 106872
L133735 106844
L133878 106844
L133935 106815
" />
<path d="M134478 107072
L134478 106472
" />
<path d="M134478 107044
L134421 107072
L134307 107072
L134250 107044
L134221 107015
L134192 106958
L134192 106787
L134221 106730
L134250 106701
L134307 106672
L134421 106672
L134478 106701
" />
<path d="M134621 107130
L135078 107130
" />
<path d="M135221 106672
L135221 107272
" />
<path d="M135221 106701
L135278 106672
L135392 106672
L135450 106701
L135478 106730
L135507 106787
L135507 106958
L135478 107015
L135450 107044
L135392 107072
L135278 107072
L135221 107044
" />
<path d="M136021 107044
L135964 107072
L135850 107072
L135792 107044
L135764 107015
L135735 106958
L135735 106787
L135764 106730
L135792 106701
L135850 106672
L135964 106672
L136021 106701
" />
<path d="M136278 107072
L136278 106472
" />
<path d="M136278 106701
L136335 106672
L136450 106672
L136507 106701
L136535 106730
L136564 106787
L136564 106958
L136535 107015
L136507 107044
L136450 107072
L136335 107072
L136278 107044
" />
<path d="M119364 108244
L119450 108272
L119592 108272
L119650 108244
L119678 108215
L119707 108158
L119707 108101
L119678 108044
L119650 108015
L119592 107987
L119478 107958
L119421 107930
L119392 107901
L119364 107844
L119364 107787
L119392 107730
L119421 107701
L119478 107672
L119621 107672
L119707 107701
" />
<path d="M119964 108272
L119964 107672
" />
<path d="M120221 108272
L120221 107958
L120192 107901
L120135 107872
L120050 107872
L119992 107901
L119964 107930
" />
<path d="M120735 108244
L120678 108272
L120564 108272
L120507 108244
L120478 108187
L120478 107958
L120507 107901
L120564 107872
L120678 107872
L120735 107901
L120764 107958
L120764 108015
L120478 108072
" />
<path d="M121250 108244
L121192 108272
L121078 108272
L121021 108244
L120992 108187
L120992 107958
L121021 107901
L121078 107872
L121192 107872
L121250 107901
L121278 107958
L121278 108015
L120992 108072
" />
<path d="M121450 107872
L121678 107872
" />
<path d="M121535 107672
L121535 108187
L121564 108244
L121621 108272
L121678 108272
" />
<path d="M121878 108215
L121907 108244
L121878 108272
L121850 108244
L121878 108215
L121878 108272
" />
<path d="M121878 107901
L121907 107930
L121878 107958
L121850 107930
L121878 107901
L121878 107958
" />
<path d="M118650 106230
L118650 112230
" />
<path d="M118650 106230
L160650 106230
" />
<path d="M118650 106230
L160650 106230
" />
<path d="M118650 108630
L160650 108630
" />
<path d="M151850 109830
L151850 112230
" />
<path d="M118650 111030
L160650 111030
" />
<path d="M118650 109830
L160650 109830
" />
<path d="M125250 109830
L125250 111030
" />
</g>
<g style="fill:#FFFF00; fill-opacity:0.0; 
stroke:#FFFF00; stroke-width:39.3701; stroke-opacity:1; 
stroke-linecap:round; stroke-linejoin:round;">
<path d="M104688 55444
L116893 55444
" />
<path d="M104688 49527
L104688 55444
" />
<path d="M116893 52283
L116893 55444
" />
<path d="M118074 52283
L116893 52283
" />
<path d="M118074 52283
L118074 49527
" />
<path d="M104688 49527
L118074 49527
" />
</g>
<g style="fill:#9F0000; fill-opacity:0.0; 
stroke:#9F0000; stroke-width:78.7402; stroke-opacity:1; 
stroke-linecap:round; stroke-linejoin:round;">
<path d="M109527 51692
L109527 51535
" />
<path d="M109685 51692
L109685 51535
" />
<path d="M109370 51692
L109370 51535
" />
<path d="M109842 51692
L109842 51535
" />
<path d="M110000 51692
L110000 51535
" />
<path d="M109212 51692
L109212 51535
" />
<path d="M109055 51692
L109055 51535
" />
<path d="M108897 51692
L108897 51535
" />
<path d="M110157 51692
L110157 51535
" />
<path d="M110314 51692
L110314 51535
" />
<path d="M108582 51692
L108582 51535
" />
<path d="M108740 51692
L108740 51535
" />
<path d="M108582 53976
L108582 53818
" />
<path d="M110157 53976
L110157 53818
" />
<path d="M110000 53976
L110000 53818
" />
<path d="M109842 53976
L109842 53818
" />
<path d="M108740 53976
L108740 53818
" />
<path d="M108897 53976
L108897 53818
" />
<path d="M109055 53976
L109055 53818
" />
<path d="M109685 53976
L109685 53818
" />
<path d="M110314 53976
L110314 53818
" />
<path d="M109212 53976
L109212 53818
" />
<path d="M109527 53976
L109527 53818
" />
<path d="M109370 53976
L109370 53818
" />
<path d="M110511 52047
L110669 52047
" />
<path d="M110511 51889
L110669 51889
" />
<path d="M110511 53622
L110669 53622
" />
<path d="M110511 53464
L110669 53464
" />
<path d="M110511 52204
L110669 52204
" />
<path d="M110511 52362
L110669 52362
" />
<path d="M110511 52519
L110669 52519
" />
<path d="M110511 53307
L110669 53307
" />
<path d="M110511 53149
L110669 53149
" />
<path d="M110511 52677
L110669 52677
" />
<path d="M110511 52992
L110669 52992
" />
<path d="M110511 52834
L110669 52834
" />
<path d="M108228 52519
L108385 52519
" />
<path d="M108228 52677
L108385 52677
" />
<path d="M108228 52362
L108385 52362
" />
<path d="M108228 52834
L108385 52834
" />
<path d="M108228 52992
L108385 52992
" />
<path d="M108228 52204
L108385 52204
" />
<path d="M108228 52047
L108385 52047
" />
<path d="M108228 51889
L108385 51889
" />
<path d="M108228 53149
L108385 53149
" />
<path d="M108228 53307
L108385 53307
" />
<path d="M108228 53464
L108385 53464
" />
<path d="M108228 53622
L108385 53622
" />
</g>
<g style="fill:#9F0000; fill-opacity:0.0; 
stroke:#9F0000; stroke-width:39.3701; stroke-opacity:1; 
stroke-linecap:round; stroke-linejoin:round;">
</g>
<g style="fill:#9F0000; fill-opacity:1.0; 
stroke:#9F0000; stroke-width:39.3701; stroke-opacity:1; 
stroke-linecap:round; stroke-linejoin:round;">
<polyline style="fill-rule:evenodd;"
points="106456,52716
106456,52440
106771,52440
106771,52716
106456,52716
" /> 
<polyline style="fill-rule:evenodd;"
points="107007,52716
107007,52440
107322,52440
107322,52716
107007,52716
" /> 
<polyline style="fill-rule:evenodd;"
points="106456,53149
106456,52874
106771,52874
106771,53149
106456,53149
" /> 
<polyline style="fill-rule:evenodd;"
points="107007,53149
107007,52874
107322,52874
107322,53149
107007,53149
" /> 
<polyline style="fill-rule:evenodd;"
points="113503,53838
113503,54035
113385,54035
113385,53838
113503,53838
" /> 
<polyline style="fill-rule:evenodd;"
points="113149,53838
113149,54035
113031,54035
113031,53838
113149,53838
" /> 
<polyline style="fill-rule:evenodd;"
points="114362,51354
114362,51550
114245,51550
114245,51354
114362,51354
" /> 
<polyline style="fill-rule:evenodd;"
points="114008,51354
114008,51550
113891,51550
113891,51354
114008,51354
" /> 
<polyline style="fill-rule:evenodd;"
points="113256,51346
113256,51543
113138,51543
113138,51346
113256,51346
" /> 
<polyline style="fill-rule:evenodd;"
points="112902,51346
112902,51543
112784,51543
112784,51346
112902,51346
" /> 
<polyline style="fill-rule:evenodd;"
points="111870,53150
112066,53150
112066,53267
111870,53267
111870,53150
" /> 
<polyline style="fill-rule:evenodd;"
points="111870,53504
112066,53504
112066,53621
111870,53621
111870,53504
" /> 
<polyline style="fill-rule:evenodd;"
points="112599,53850
112599,54046
112481,54046
112481,53850
112599,53850
" /> 
<polyline style="fill-rule:evenodd;"
points="112245,53850
112245,54046
112127,54046
112127,53850
112245,53850
" /> 
<polyline style="fill-rule:evenodd;"
points="114595,53480
114595,53676
114477,53676
114477,53480
114595,53480
" /> 
<polyline style="fill-rule:evenodd;"
points="114241,53480
114241,53676
114123,53676
114123,53480
114241,53480
" /> 
<polyline style="fill-rule:evenodd;"
points="114306,51836
114502,51836
114502,51954
114306,51954
114306,51836
" /> 
<polyline style="fill-rule:evenodd;"
points="114306,52190
114502,52190
114502,52308
114306,52308
114306,52190
" /> 
<polyline style="fill-rule:evenodd;"
points="107972,51653
107775,51653
107775,51535
107972,51535
107972,51653
" /> 
<polyline style="fill-rule:evenodd;"
points="107972,51299
107775,51299
107775,51181
107972,51181
107972,51299
" /> 
<polyline style="fill-rule:evenodd;"
points="107815,52323
108011,52323
108011,52440
107815,52440
107815,52323
" /> 
<polyline style="fill-rule:evenodd;"
points="107815,52677
108011,52677
108011,52794
107815,52794
107815,52677
" /> 
<polyline style="fill-rule:evenodd;"
points="106122,52598
106318,52598
106318,52716
106122,52716
106122,52598
" /> 
<polyline style="fill-rule:evenodd;"
points="106122,52952
106318,52952
106318,53070
106122,53070
106122,52952
" /> 
<polyline style="fill-rule:evenodd;"
points="107657,53031
107460,53031
107460,52913
107657,52913
107657,53031
" /> 
<polyline style="fill-rule:evenodd;"
points="107657,52677
107460,52677
107460,52559
107657,52559
107657,52677
" /> 
<polyline style="fill-rule:evenodd;"
points="110079,51121
110079,50925
110196,50925
110196,51121
110079,51121
" /> 
<polyline style="fill-rule:evenodd;"
points="110433,51121
110433,50925
110550,50925
110550,51121
110433,51121
" /> 
<polyline style="fill-rule:evenodd;"
points="110236,54389
110236,54193
110354,54193
110354,54389
110236,54389
" /> 
<polyline style="fill-rule:evenodd;"
points="110590,54389
110590,54193
110708,54193
110708,54389
110590,54389
" /> 
<polyline style="fill-rule:evenodd;"
points="107842,53917
108039,53917
108039,54035
107842,54035
107842,53917
" /> 
<polyline style="fill-rule:evenodd;"
points="107842,54271
108039,54271
108039,54389
107842,54389
107842,54271
" /> 
<polyline style="fill-rule:evenodd;"
points="109901,51101
109704,51101
109704,50984
109901,50984
109901,51101
" /> 
<polyline style="fill-rule:evenodd;"
points="109901,50747
109704,50747
109704,50630
109901,50630
109901,50747
" /> 
<polyline style="fill-rule:evenodd;"
points="114697,50774
114697,51185
114487,51185
114487,50774
114697,50774
" /> 
<polyline style="fill-rule:evenodd;"
points="114097,50774
114097,51185
113887,51185
113887,50774
114097,50774
" /> 
<polyline style="fill-rule:evenodd;"
points="113252,50968
113252,51165
113134,51165
113134,50968
113252,50968
" /> 
<polyline style="fill-rule:evenodd;"
points="112898,50968
112898,51165
112780,51165
112780,50968
112898,50968
" /> 
<polyline style="fill-rule:evenodd;"
points="115000,52972
115000,53168
114882,53168
114882,52972
115000,52972
" /> 
<polyline style="fill-rule:evenodd;"
points="114646,52972
114646,53168
114528,53168
114528,52972
114646,52972
" /> 
<polyline style="fill-rule:evenodd;"
points="114532,52743
114532,52547
114650,52547
114650,52743
114532,52743
" /> 
<polyline style="fill-rule:evenodd;"
points="114886,52743
114886,52547
115004,52547
115004,52743
114886,52743
" /> 
<polyline style="fill-rule:evenodd;"
points="115275,53956
115275,54153
115157,54153
115157,53956
115275,53956
" /> 
<polyline style="fill-rule:evenodd;"
points="114921,53956
114921,54153
114803,54153
114803,53956
114921,53956
" /> 
<polyline style="fill-rule:evenodd;"
points="106730,49969
106730,50560
106454,50560
106454,49969
106730,49969
" /> 
<polyline style="fill-rule:evenodd;"
points="105391,49969
105391,50560
105116,50560
105116,49969
105391,49969
" /> 
<polyline style="fill-rule:evenodd;"
points="107479,50177
107479,50373
107362,50373
107362,50177
107479,50177
" /> 
<polyline style="fill-rule:evenodd;"
points="107125,50177
107125,50373
107008,50373
107008,50177
107125,50177
" /> 
<polyline style="fill-rule:evenodd;"
points="107775,50197
107972,50197
107972,50314
107775,50314
107775,50197
" /> 
<polyline style="fill-rule:evenodd;"
points="107775,50551
107972,50551
107972,50668
107775,50668
107775,50551
" /> 
<polyline style="fill-rule:evenodd;"
points="108739,50177
108739,50373
108622,50373
108622,50177
108739,50177
" /> 
<polyline style="fill-rule:evenodd;"
points="108385,50177
108385,50373
108268,50373
108268,50177
108385,50177
" /> 
</g>
<g style="fill:#7F7F00; fill-opacity:1.0; 
stroke:#7F7F00; stroke-width:39.3701; stroke-opacity:1; 
stroke-linecap:round; stroke-linejoin:round;">
<polyline style="fill-rule:evenodd;"
points="115995,50144
116555,50144
116555,50705
115995,50705
115995,50144
" /> 
<circle cx="116276" cy="51425.2" r="280.315" /> 
<circle cx="116276" cy="52425.2" r="280.315" /> 
<circle cx="116276" cy="53425.2" r="280.315" /> 
<circle cx="116276" cy="54425.2" r="280.315" /> 
<polyline style="fill-rule:evenodd;"
points="116995,50144
117555,50144
117555,50705
116995,50705
116995,50144
" /> 
<circle cx="117276" cy="51425.2" r="280.315" /> 
</g>
<g style="fill:#9F0000; fill-opacity:1.0; 
stroke:#9F0000; stroke-width:78.7402; stroke-opacity:1; 
stroke-linecap:round; stroke-linejoin:round;">
<path d="M112495 52308
L112258 52308
" />
<path d="M112495 52466
L112258 52466
" />
<path d="M112495 53253
L112258 53253
" />
<path d="M112495 53096
L112258 53096
" />
<path d="M112495 52938
L112258 52938
" />
<path d="M112495 52623
L112258 52623
" />
<path d="M112495 52781
L112258 52781
" />
<path d="M113715 52033
L113715 51797
" />
<path d="M113558 52033
L113558 51797
" />
<path d="M113400 52033
L113400 51797
" />
<path d="M112613 52033
L112613 51797
" />
<path d="M112770 52033
L112770 51797
" />
<path d="M112928 52033
L112928 51797
" />
<path d="M113085 52033
L113085 51797
" />
<path d="M113243 52033
L113243 51797
" />
<path d="M113243 53608
L113243 53371
" />
<path d="M113085 53608
L113085 53371
" />
<path d="M112928 53608
L112928 53371
" />
<path d="M112770 53608
L112770 53371
" />
<path d="M112613 53608
L112613 53371
" />
<path d="M113400 53608
L113400 53371
" />
<path d="M113558 53608
L113558 53371
" />
<path d="M113715 53608
L113715 53371
" />
<path d="M114069 52781
L113833 52781
" />
<path d="M114069 52623
L113833 52623
" />
<path d="M114069 52938
L113833 52938
" />
<path d="M114069 53096
L113833 53096
" />
<path d="M114069 53253
L113833 53253
" />
<path d="M114069 52466
L113833 52466
" />
<path d="M114069 52308
L113833 52308
" />
<path d="M114069 52151
L113833 52151
" />
</g>
<g style="fill:#9F0000; fill-opacity:1.0; 
stroke:#9F0000; stroke-width:39.3701; stroke-opacity:1; 
stroke-linecap:round; stroke-linejoin:round;">
<polyline style="fill-rule:evenodd;"
points="108495,54244
108906,54244
108906,54454
108495,54454
108495,54244
" /> 
<polyline style="fill-rule:evenodd;"
points="108495,54844
108906,54844
108906,55054
108495,55054
108495,54844
" /> 
<polyline style="fill-rule:evenodd;"
points="108275,54850
108275,55047
108157,55047
108157,54850
108275,54850
" /> 
<polyline style="fill-rule:evenodd;"
points="107921,54850
107921,55047
107803,55047
107803,54850
107921,54850
" /> 
<polyline style="fill-rule:evenodd;"
points="109035,51043
109212,51043
109212,51082
109035,51082
109035,51043
" /> 
<polyline style="fill-rule:evenodd;"
points="109370,51043
109547,51043
109547,51082
109370,51082
109370,51043
" /> 
<polyline style="fill-rule:evenodd;"
points="109370,50866
109547,50866
109547,50905
109370,50905
109370,50866
" /> 
<polyline style="fill-rule:evenodd;"
points="109370,51220
109547,51220
109547,51259
109370,51259
109370,51220
" /> 
<polyline style="fill-rule:evenodd;"
points="109035,50866
109212,50866
109212,50905
109035,50905
109035,50866
" /> 
<polyline style="fill-rule:evenodd;"
points="109035,51220
109212,51220
109212,51259
109035,51259
109035,51220
" /> 
<polyline style="fill-rule:evenodd;"
points="113503,54232
113503,54429
113385,54429
113385,54232
113503,54232
" /> 
<polyline style="fill-rule:evenodd;"
points="113149,54232
113149,54429
113031,54429
113031,54232
113149,54232
" /> 
<polyline style="fill-rule:evenodd;"
points="113464,51219
113700,51219
113700,51495
113464,51495
113464,51219
" /> 
<polyline style="fill-rule:evenodd;"
points="113464,50787
113700,50787
113700,51063
113464,51063
113464,50787
" /> 
<polyline style="fill-rule:evenodd;"
points="107599,55043
107188,55043
107188,54832
107599,54832
107599,55043
" /> 
<polyline style="fill-rule:evenodd;"
points="107599,54443
107188,54443
107188,54232
107599,54232
107599,54443
" /> 
<polyline style="fill-rule:evenodd;"
points="111212,53216
111622,53216
111622,53427
111212,53427
111212,53216
" /> 
<polyline style="fill-rule:evenodd;"
points="111212,53816
111622,53816
111622,54027
111212,54027
111212,53816
" /> 
</g>
<g style="fill:#BFBFBF; fill-opacity:1.0; 
stroke:#BFBFBF; stroke-width:39.3701; stroke-opacity:1; 
stroke-linecap:round; stroke-linejoin:round;">
<circle cx="109843" cy="52795.3" r="80.315" /> 
<circle cx="112975" cy="53088.4" r="80.315" /> 
<circle cx="113347" cy="52610" r="80.315" /> 
<circle cx="108689" cy="51944.9" r="80.315" /> 
<circle cx="107390" cy="54645.7" r="80.315" /> 
<circle cx="112808" cy="52834.4" r="80.315" /> 
<circle cx="108740" cy="53425.2" r="80.315" /> 
<circle cx="113178" cy="52362" r="80.315" /> 
</g>
<g style="fill:#9F0000; fill-opacity:1.0; 
stroke:#9F0000; stroke-width:60; stroke-opacity:1; 
stroke-linecap:round; stroke-linejoin:round;">
<path d="M109370 51614
L109370 51328
" />
<path d="M109370 51328
L109458 51240
" />
<path d="M109212 51614
L109212 51328
" />
<path d="M109212 51328
L109124 51240
" />
<path d="M108740 53897
L108740 54310
" />
<path d="M108740 54310
L108700 54349
" />
<path d="M108307 52204
L107952 52204
" />
<path d="M107913 52244
L107913 52382
" />
<path d="M107952 52204
L107913 52244
" />
<path d="M109685 51614
L109685 51496
" />
<path d="M110137 51043
L110137 51023
" />
<path d="M109685 51496
L110137 51043
" />
<path d="M114945 52645
L115543 52645
" />
<path d="M115763 52425
L116275 52425
" />
<path d="M115543 52645
L115763 52425
" />
<path d="M114941 53070
L114941 53642
" />
<path d="M115133 54425
L116275 54425
" />
<path d="M115039 54330
L115133 54425
" />
<path d="M115039 53740
L115039 54330
" />
<path d="M114941 53642
L115039 53740
" />
<path d="M113951 52938
L114455 52938
" />
<path d="M114455 52938
L114587 53070
" />
<path d="M113951 52781
L114455 52781
" />
<path d="M114455 52781
L114591 52645
" />
<path d="M109124 50885
L109124 50840
" />
</g>
<g style="fill:#9F0000; fill-opacity:1.0; 
stroke:#9F0000; stroke-width:180; stroke-opacity:1; 
stroke-linecap:round; stroke-linejoin:round;">
<path d="M108937 50275
L109124 50462
" />
<path d="M108937 50275
L108680 50275
" />
<path d="M109124 50462
L109124 50840
" />
</g>
<g style="fill:#9F0000; fill-opacity:1.0; 
stroke:#9F0000; stroke-width:60; stroke-opacity:1; 
stroke-linecap:round; stroke-linejoin:round;">
<path d="M115216 54055
L115645 54055
" />
<path d="M115645 54055
L116275 53425
" />
<path d="M113090 53937
L113090 54330
" />
<path d="M113085 53489
L113085 53859
" />
<path d="M113085 53859
L113103 53877
" />
<path d="M113444 53937
L113858 53937
" />
<path d="M113976 54055
L114862 54055
" />
<path d="M113858 53937
L113976 54055
" />
<path d="M113444 53937
L113444 54330
" />
<path d="M113400 53489
L113400 53820
" />
<path d="M113400 53820
L113457 53877
" />
<path d="M110590 52834
L111850 52834
" />
<path d="M111850 52834
L111903 52781
" />
<path d="M111903 52781
L112376 52781
" />
<path d="M110590 52519
L111732 52519
" />
<path d="M111732 52519
L111785 52466
" />
<path d="M111785 52466
L112376 52466
" />
<path d="M110590 52677
L111771 52677
" />
<path d="M111771 52677
L111825 52623
" />
<path d="M111825 52623
L112376 52623
" />
<path d="M110590 52362
L111692 52362
" />
<path d="M111692 52362
L111746 52308
" />
<path d="M111746 52308
L112376 52308
" />
<path d="M110590 51889
L110787 51889
" />
<path d="M115771 49921
L116275 50425
" />
<path d="M112755 49921
L115771 49921
" />
<path d="M110787 51889
L112755 49921
" />
<path d="M116275 51425
L116267 51425
" />
<path d="M110866 52047
L110590 52047
" />
<path d="M112834 50078
L110866 52047
" />
<path d="M115472 50078
L112834 50078
" />
<path d="M115629 50236
L115472 50078
" />
<path d="M115629 50787
L115629 50236
" />
<path d="M116267 51425
L115629 50787
" />
<path d="M113400 51915
L113400 51647
" />
<path d="M113400 51647
L113571 51476
" />
<path d="M112928 53489
L112928 53706
" />
<path d="M112686 53948
L112540 53948
" />
<path d="M112928 53706
L112686 53948
" />
<path d="M109803 51043
L109803 51181
" />
<path d="M109527 51456
L109527 51614
" />
<path d="M109803 51181
L109527 51456
" />
<path d="M109458 51062
L109783 51062
" />
<path d="M109783 51062
L109803 51043
" />
<path d="M114303 51452
L114497 51452
" />
<path d="M114592 51357
L114592 50980
" />
<path d="M114497 51452
L114592 51357
" />
<path d="M113715 51915
L113798 51915
" />
<path d="M114303 51625
L114303 51452
" />
<path d="M114225 51704
L114303 51625
" />
<path d="M114008 51704
L114225 51704
" />
<path d="M113798 51915
L114008 51704
" />
<path d="M108307 51889
L107874 51889
" />
<path d="M106712 53011
L106614 53011
" />
<path d="M106889 52834
L106712 53011
" />
<path d="M106889 52362
L106889 52834
" />
<path d="M106968 52283
L106889 52362
" />
<path d="M107244 52283
L106968 52283
" />
<path d="M107480 52047
L107244 52283
" />
<path d="M107716 52047
L107480 52047
" />
<path d="M107874 51889
L107716 52047
" />
<path d="M106220 53011
L106614 53011
" />
<path d="M106614 53011
L106614 53011
" />
<path d="M108307 52047
L107913 52047
" />
<path d="M107539 52204
L107165 52578
" />
<path d="M107755 52204
L107539 52204
" />
<path d="M107913 52047
L107755 52204
" />
<path d="M107559 52618
L107204 52618
" />
<path d="M107204 52618
L107165 52578
" />
<path d="M110590 52992
L111929 52992
" />
<path d="M111929 52992
L111982 52938
" />
<path d="M111982 52938
L112376 52938
" />
<path d="M112770 51915
L112770 52071
" />
<path d="M111614 52204
L110590 52204
" />
<path d="M111653 52165
L111614 52204
" />
<path d="M112677 52165
L111653 52165
" />
<path d="M112770 52071
L112677 52165
" />
<path d="M109055 51614
L109055 51850
" />
</g>
<g style="fill:#9F0000; fill-opacity:1.0; 
stroke:#9F0000; stroke-width:180; stroke-opacity:1; 
stroke-linecap:round; stroke-linejoin:round;">
<path d="M109409 52795
L109842 52795
" />
<path d="M109055 52440
L109409 52795
" />
<path d="M109055 51850
L109055 52440
" />
</g>
<g style="fill:#9F0000; fill-opacity:1.0; 
stroke:#9F0000; stroke-width:60; stroke-opacity:1; 
stroke-linecap:round; stroke-linejoin:round;">
<path d="M111417 53922
L111609 53922
" />
<path d="M111609 53922
L111968 53562
" />
<path d="M106220 52657
L106535 52657
" />
<path d="M106535 52657
L106614 52578
" />
<path d="M107559 52972
L107204 52972
" />
<path d="M107204 52972
L107165 53011
" />
<path d="M107940 54330
L107400 54330
" />
<path d="M107400 54330
L107393 54337
" />
<path d="M109124 51062
L108937 51062
" />
<path d="M108897 51102
L108897 51614
" />
<path d="M108937 51062
L108897 51102
" />
<path d="M108897 51614
L109055 51614
" />
<path d="M110590 53622
L110590 54232
" />
<path d="M110590 54232
L110649 54291
" />
<path d="M109803 50689
L109547 50689
" />
<path d="M109458 50777
L109458 50885
" />
<path d="M109547 50689
L109458 50777
" />
<path d="M112376 53253
L112514 53253
" />
<path d="M112532 53236
L112827 53236
" />
<path d="M112514 53253
L112532 53236
" />
<path d="M112975 53088
L112827 53236
" />
<path d="M112186 53948
L112186 53751
" />
<path d="M112268 53668
L112268 53503
" />
<path d="M112186 53751
L112268 53668
" />
<path d="M112376 53395
L112376 53253
" />
<path d="M112268 53503
L112376 53395
" />
<path d="M113558 51915
L113558 52399
" />
<path d="M113085 52131
L112977 52239
" />
<path d="M112977 52239
L112977 52472
" />
<path d="M112977 52472
L113115 52610
" />
<path d="M113115 52610
L113347 52610
" />
<path d="M113085 52131
L113085 51915
" />
<path d="M113558 52399
L113347 52610
" />
<path d="M112843 51444
L112689 51444
" />
<path d="M112613 51521
L112613 51915
" />
<path d="M112689 51444
L112613 51521
" />
<path d="M112839 51066
L112839 51440
" />
</g>
<g style="fill:#9F0000; fill-opacity:1.0; 
stroke:#9F0000; stroke-width:20; stroke-opacity:1; 
stroke-linecap:round; stroke-linejoin:round;">
<path d="M112839 51440
L112843 51444
" />
</g>
<g style="fill:#9F0000; fill-opacity:1.0; 
stroke:#9F0000; stroke-width:60; stroke-opacity:1; 
stroke-linecap:round; stroke-linejoin:round;">
<path d="M113085 51915
L113085 51726
" />
<path d="M113085 51726
L112843 51484
" />
</g>
<g style="fill:#9F0000; fill-opacity:1.0; 
stroke:#9F0000; stroke-width:20; stroke-opacity:1; 
stroke-linecap:round; stroke-linejoin:round;">
<path d="M112843 51484
L112843 51444
" />
</g>
<g style="fill:#9F0000; fill-opacity:1.0; 
stroke:#9F0000; stroke-width:60; stroke-opacity:1; 
stroke-linecap:round; stroke-linejoin:round;">
<path d="M113558 51915
L113558 51690
" />
<path d="M113949 51586
L113949 51452
" />
<path d="M113878 51657
L113949 51586
" />
<path d="M113591 51657
L113878 51657
" />
<path d="M113558 51690
L113591 51657
" />
<path d="M113951 53253
L113951 53517
" />
<path d="M114012 53578
L114182 53578
" />
<path d="M113951 53517
L114012 53578
" />
<path d="M114404 51895
L114109 51895
" />
<path d="M113951 52052
L113951 52151
" />
<path d="M114109 51895
L113951 52052
" />
<path d="M113951 52308
L114345 52308
" />
</g>
<g style="fill:#9F0000; fill-opacity:1.0; 
stroke:#9F0000; stroke-width:20; stroke-opacity:1; 
stroke-linecap:round; stroke-linejoin:round;">
<path d="M114345 52308
L114404 52249
" />
</g>
<g style="fill:#9F0000; fill-opacity:1.0; 
stroke:#9F0000; stroke-width:60; stroke-opacity:1; 
stroke-linecap:round; stroke-linejoin:round;">
<path d="M113951 53096
L114187 53096
" />
<path d="M114536 53444
L114536 53578
" />
<path d="M114187 53096
L114536 53444
" />
</g>
<g style="fill:#9F0000; fill-opacity:1.0; 
stroke:#9F0000; stroke-width:181.102; stroke-opacity:1; 
stroke-linecap:round; stroke-linejoin:round;">
<path d="M107874 50275
L107421 50275
" />
<path d="M107421 50275
L107421 50275
" />
<path d="M108326 50275
L107874 50275
" />
<path d="M107874 50275
L107874 50275
" />
</g>
<g style="fill:#9F0000; fill-opacity:1.0; 
stroke:#9F0000; stroke-width:60; stroke-opacity:1; 
stroke-linecap:round; stroke-linejoin:round;">
<path d="M108700 54949
L108217 54949
" />
<path d="M108217 54949
L108216 54948
" />
</g>
<g style="fill:#9F0000; fill-opacity:1.0; 
stroke:#9F0000; stroke-width:181.102; stroke-opacity:1; 
stroke-linecap:round; stroke-linejoin:round;">
<path d="M107067 50275
L106603 50275
" />
<path d="M106603 50275
L106592 50264
" />
</g>
<g style="fill:#9F0000; fill-opacity:1.0; 
stroke:#9F0000; stroke-width:60; stroke-opacity:1; 
stroke-linecap:round; stroke-linejoin:round;">
<path d="M108740 51893
L108688 51944
" />
<path d="M108740 51614
L108740 51893
" />
<path d="M107393 54649
L107389 54645
" />
<path d="M107393 54649
L107393 54937
" />
<path d="M107862 54948
L107404 54948
" />
<path d="M107404 54948
L107393 54937
" />
<path d="M108582 51614
L107893 51614
" />
<path d="M107893 51614
L107874 51594
" />
<path d="M108740 51614
L108582 51614
" />
<path d="M110314 53897
L110314 53582
" />
<path d="M110157 53425
L108740 53425
" />
<path d="M110314 53582
L110157 53425
" />
<path d="M108582 53582
L108740 53425
" />
<path d="M108582 53582
L108582 53897
" />
<path d="M111968 53208
L111530 53208
" />
<path d="M111530 53208
L111417 53322
" />
<path d="M112376 53096
L112081 53096
" />
<path d="M112081 53096
L111968 53208
" />
<path d="M108582 53897
L108019 53897
" />
<path d="M108019 53897
L107940 53976
" />
<path d="M110314 53897
L110314 54271
" />
<path d="M110314 54271
L110295 54291
" />
<path d="M112928 51915
L112928 52096
" />
<path d="M112851 52791
L112808 52834
" />
<path d="M112851 52173
L112851 52791
" />
<path d="M112928 52096
L112851 52173
" />
<path d="M112770 52797
L112808 52834
" />
<path d="M112808 52834
L112804 52834
" />
<path d="M112376 53096
L112636 53096
" />
<path d="M112636 53096
L112705 53027
" />
<path d="M112705 53027
L112705 52932
" />
<path d="M112705 52932
L112804 52834
" />
<path d="M112804 52834
L113558 52834
" />
<path d="M113243 51915
L113243 52297
" />
<path d="M113243 52297
L113178 52362
" />
<path d="M113662 52466
L113662 52623
" />
<path d="M113193 51066
L113193 51440
" />
</g>
<g style="fill:#9F0000; fill-opacity:1.0; 
stroke:#9F0000; stroke-width:20; stroke-opacity:1; 
stroke-linecap:round; stroke-linejoin:round;">
<path d="M113193 51440
L113197 51444
" />
</g>
<g style="fill:#9F0000; fill-opacity:1.0; 
stroke:#9F0000; stroke-width:60; stroke-opacity:1; 
stroke-linecap:round; stroke-linejoin:round;">
<path d="M113243 51915
L113243 51706
" />
<path d="M113197 51661
L113197 51444
" />
<path d="M113243 51706
L113197 51661
" />
<path d="M113558 53489
L113558 53115
" />
<path d="M113558 53115
L113558 52834
" />
<path d="M113558 52834
L113558 52718
" />
<path d="M113558 52718
L113652 52623
" />
</g>
<g style="fill:#9F0000; fill-opacity:1.0; 
stroke:#9F0000; stroke-width:20; stroke-opacity:1; 
stroke-linecap:round; stroke-linejoin:round;">
<path d="M113652 52623
L113662 52623
" />
</g>
<g style="fill:#9F0000; fill-opacity:1.0; 
stroke:#9F0000; stroke-width:60; stroke-opacity:1; 
stroke-linecap:round; stroke-linejoin:round;">
<path d="M113662 52623
L113951 52623
" />
<path d="M113951 52466
L113662 52466
" />
<path d="M113951 52623
L113951 52466
" />
<path d="M113715 53489
L113558 53489
" />
</g>
<g style="fill:#9F0000; fill-opacity:1.0; 
stroke:#9F0000; stroke-width:39.3701; stroke-opacity:1; 
stroke-linecap:round; stroke-linejoin:round;">
<polyline style="fill-rule:evenodd;"
points="113120,51993
113105,51993
113105,52018
113065,52018
113065,51993
113051,51993
113051,51836
113065,51836
113065,51812
113105,51812
113105,51836
113120,51836
113120,51993
" /> 
</g>
<g style="fill:#9F0000; fill-opacity:0.0; 
stroke:#9F0000; stroke-width:10; stroke-opacity:1; 
stroke-linecap:round; stroke-linejoin:round;">
<polyline fill="none;"
points="113120,51993
113105,51993
113105,52018
113065,52018
113065,51993
113051,51993
113051,51836
113065,51836
113065,51812
113105,51812
113105,51836
113120,51836
113120,51993
" /> 
</g>
<g style="fill:#9F0000; fill-opacity:1.0; 
stroke:#9F0000; stroke-width:39.3701; stroke-opacity:1; 
stroke-linecap:round; stroke-linejoin:round;">
<polyline style="fill-rule:evenodd;"
points="113444,53252
113400,53244
113353,53253
113321,53274
113290,53253
113243,53244
113195,53253
113164,53274
113132,53253
113085,53244
113038,53253
113006,53274
112975,53253
112928,53244
112881,53253
112849,53274
112817,53253
112770,53244
112739,53250
112739,53158
112735,53158
112786,53107
112810,53070
112810,53070
112819,53027
112819,53018
112844,53018
112912,52990
112954,52948
113444,52948
113444,53115
113444,53252
" /> 
</g>
<g style="fill:#9F0000; fill-opacity:0.0; 
stroke:#9F0000; stroke-width:10; stroke-opacity:1; 
stroke-linecap:round; stroke-linejoin:round;">
<polyline fill="none;"
points="113444,53252
113400,53244
113353,53253
113321,53274
113290,53253
113243,53244
113195,53253
113164,53274
113132,53253
113085,53244
113038,53253
113006,53274
112975,53253
112928,53244
112881,53253
112849,53274
112817,53253
112770,53244
112739,53250
112739,53158
112735,53158
112786,53107
112810,53070
112810,53070
112819,53027
112819,53018
112844,53018
112912,52990
112954,52948
113444,52948
113444,53115
113444,53252
" /> 
</g>
<g style="fill:#9F0000; fill-opacity:1.0; 
stroke:#9F0000; stroke-width:39.3701; stroke-opacity:1; 
stroke-linecap:round; stroke-linejoin:round;">
<polyline style="fill-rule:evenodd;"
points="113736,52230
113715,52261
113705,52308
113714,52352
113662,52352
113618,52361
113581,52385
113557,52422
113548,52466
113548,52566
113477,52637
113452,52674
113444,52718
113444,52720
112965,52720
112965,52251
112988,52267
112990,52267
112990,52277
113014,52277
112994,52325
112994,52398
113022,52465
113073,52517
113141,52545
113214,52545
113282,52517
113333,52466
113361,52398
113361,52325
113354,52308
113356,52297
113356,52179
113378,52212
113461,52267
113500,52270
113538,52225
113538,51993
113523,51993
113523,51836
113538,51836
113538,51812
113577,51812
113577,51836
113592,51836
113592,51993
113577,51993
113577,52225
113615,52270
113654,52267
113728,52218
113736,52230
" /> 
</g>
<g style="fill:#9F0000; fill-opacity:0.0; 
stroke:#9F0000; stroke-width:10; stroke-opacity:1; 
stroke-linecap:round; stroke-linejoin:round;">
<polyline fill="none;"
points="113736,52230
113715,52261
113705,52308
113714,52352
113662,52352
113618,52361
113581,52385
113557,52422
113548,52466
113548,52566
113477,52637
113452,52674
113444,52718
113444,52720
112965,52720
112965,52251
112988,52267
112990,52267
112990,52277
113014,52277
112994,52325
112994,52398
113022,52465
113073,52517
113141,52545
113214,52545
113282,52517
113333,52466
113361,52398
113361,52325
113354,52308
113356,52297
113356,52179
113378,52212
113461,52267
113500,52270
113538,52225
113538,51993
113523,51993
113523,51836
113538,51836
113538,51812
113577,51812
113577,51836
113592,51836
113592,51993
113577,51993
113577,52225
113615,52270
113654,52267
113728,52218
113736,52230
" /> 
</g>
<g style="fill:#9F0000; fill-opacity:1.0; 
stroke:#9F0000; stroke-width:39.3701; stroke-opacity:1; 
stroke-linecap:round; stroke-linejoin:round;">
<polyline style="fill-rule:evenodd;"
points="117971,52180
117789,52180
117789,51450
117760,51252
117740,51204
117663,51171
117659,51175
117659,50708
117659,50108
117646,50077
117623,50054
117592,50041
117559,50041
116959,50041
116928,50054
116904,50077
116891,50108
116891,50141
116891,50741
116904,50772
116928,50796
116958,50808
116992,50808
117592,50808
117622,50796
117646,50772
117659,50741
117659,50708
117659,51175
117529,51305
117529,51037
117496,50959
117301,50910
117102,50940
117054,50959
117021,51037
117275,51290
117529,51037
117529,51305
117409,51425
117663,51678
117740,51645
117789,51450
117789,52180
117529,52180
117529,51813
117275,51559
117141,51693
117141,51425
116887,51171
116810,51204
116761,51399
116790,51598
116810,51645
116887,51678
117141,51425
117141,51693
117021,51813
117054,51890
117249,51939
117448,51910
117496,51890
117529,51813
117529,52180
116893,52180
116854,52187
116820,52210
116798,52243
116790,52283
116790,55341
116659,55341
116659,54349
116601,54208
116493,54100
116352,54041
116199,54041
116058,54099
115950,54207
115907,54311
115180,54311
115153,54283
115153,54256
115154,54256
115311,54256
115342,54244
115365,54220
115378,54189
115378,54168
115645,54168
115689,54160
115689,54160
115726,54135
116095,53765
116198,53808
116351,53809
116492,53750
116600,53642
116659,53501
116659,53349
116659,52349
116601,52208
116493,52100
116352,52041
116199,52041
116058,52099
115950,52207
115907,52311
115763,52311
115720,52320
115683,52344
115496,52531
115107,52531
115107,52510
115095,52480
115071,52456
115040,52443
115007,52443
114850,52443
114819,52456
114796,52479
114783,52510
114783,52544
114783,52780
114796,52810
114819,52834
114850,52847
114883,52847
115040,52847
115071,52834
115095,52810
115107,52780
115107,52759
115543,52759
115587,52750
115587,52750
115623,52725
115810,52538
115907,52538
115950,52642
116057,52750
116198,52808
116351,52809
116492,52750
116600,52642
116659,52501
116659,52349
116659,53349
116601,53208
116493,53100
116352,53041
116199,53041
116058,53099
115950,53207
115891,53348
115891,53501
115934,53605
115598,53941
115378,53941
115378,53920
115365,53889
115342,53866
115311,53853
115278,53853
115153,53853
115153,53740
115153,53740
115144,53696
115144,53696
115136,53684
115119,53659
115119,53659
115055,53595
115055,53264
115067,53259
115091,53236
115103,53205
115104,53172
115104,52936
115091,52905
115067,52881
115036,52868
115003,52868
114846,52868
114815,52881
114792,52905
114779,52935
114779,52969
114779,53205
114792,53236
114815,53259
114828,53264
114828,53642
114836,53686
114861,53722
114925,53787
114925,53853
114924,53853
114767,53853
114736,53866
114712,53889
114700,53920
114700,53941
114023,53941
113938,53856
113901,53831
113858,53823
113606,53823
113606,53802
113594,53771
113570,53748
113539,53735
113514,53735
113514,53727
113558,53735
113605,53726
113636,53705
113668,53726
113715,53735
113762,53726
113802,53699
113829,53659
113838,53612
113838,53520
113846,53561
113871,53597
113932,53658
113969,53683
113969,53683
114012,53692
114019,53692
114019,53713
114032,53743
114056,53767
114087,53780
114120,53780
114277,53780
114308,53767
114331,53744
114344,53713
114344,53679
114344,53443
114331,53413
114308,53389
114277,53376
114244,53376
114087,53376
114065,53385
114065,53376
114074,53376
114121,53367
114161,53340
114188,53300
114195,53264
114374,53443
114374,53443
114373,53477
114373,53713
114386,53743
114410,53767
114441,53780
114474,53780
114631,53780
114662,53767
114685,53744
114698,53713
114698,53679
114698,53443
114685,53413
114662,53389
114631,53376
114625,53376
114616,53364
114525,53272
114525,53272
114682,53272
114713,53259
114737,53236
114749,53205
114750,53172
114750,52936
114737,52905
114713,52881
114682,52868
114649,52868
114546,52868
114537,52860
114550,52847
114686,52847
114717,52834
114741,52810
114753,52780
114753,52746
114753,52510
114741,52480
114717,52456
114686,52443
114653,52443
114496,52443
114465,52456
114442,52479
114429,52510
114429,52544
114429,52646
114408,52667
114189,52667
114197,52623
114188,52576
114167,52545
114188,52513
114197,52466
114189,52422
114345,52422
114388,52413
114391,52411
114539,52411
114569,52399
114593,52375
114606,52344
114606,52311
114606,52154
114593,52123
114570,52100
114539,52087
114505,52087
114269,52087
114239,52100
114215,52123
114202,52154
114202,52187
114202,52195
114189,52195
114197,52151
114188,52104
114161,52064
114125,52040
114156,52009
114210,52009
114215,52021
114239,52045
114269,52057
114303,52057
114539,52057
114569,52045
114593,52021
114606,51990
114606,51957
114606,51800
114593,51769
114570,51746
114539,51733
114505,51733
114357,51733
114384,51706
114384,51706
114400,51681
114409,51669
114409,51669
114413,51648
114429,51641
114453,51618
114466,51587
114466,51566
114497,51566
114540,51557
114540,51557
114577,51532
114672,51437
114672,51437
114689,51413
114697,51400
114697,51400
114706,51357
114706,51357
114706,51288
114733,51288
114764,51276
114788,51252
114801,51221
114801,51188
114801,50738
114788,50707
114764,50684
114734,50671
114700,50671
114450,50671
114419,50684
114396,50707
114383,50738
114383,50771
114383,51221
114395,51250
114365,51250
114320,51250
114322,51246
114322,51164
114322,50795
114322,50714
114291,50638
114233,50581
114157,50550
114106,50550
114054,50601
114054,50885
114271,50885
114322,50833
114322,50795
114322,51164
114322,51126
114271,51075
114054,51075
114054,51129
114040,51129
113989,51180
113989,51393
114028,51393
114028,51511
113989,51511
113989,51555
113910,51555
113910,51511
113871,51511
113871,51410
113878,51410
113895,51393
113910,51393
113910,51377
113929,51358
113929,51075
113929,50885
113929,50601
113878,50550
113826,50550
113777,50570
113761,50563
113679,50563
113702,50563
113651,50614
113651,50846
113675,50846
113713,50885
113929,50885
113929,51075
113925,51075
113925,51055
113873,51004
113651,51004
113651,51028
113513,51028
113513,51004
113479,51004
113479,50846
113513,50846
113513,50614
113462,50563
113485,50563
113404,50563
113328,50594
113271,50652
113240,50727
113240,50795
113275,50830
113240,50830
113240,50864
113105,50864
113091,50832
113034,50774
112958,50743
112930,50743
112878,50794
112878,51007
112918,51007
112918,51125
112878,51125
112878,51338
112882,51342
112882,51385
112922,51385
112922,51503
112882,51503
112882,51547
112804,51547
112804,51503
112804,51385
112804,51172
112800,51168
112800,51125
112800,51007
112800,50794
112749,50743
112720,50743
112645,50774
112587,50832
112556,50907
112556,50989
112556,50956
112607,51007
112800,51007
112800,51125
112757,51125
112753,51121
112724,51121
112714,51125
112607,51125
112556,51176
112556,51144
112556,51225
112570,51260
112560,51285
112560,51367
112560,51334
112611,51385
112710,51385
112720,51389
112749,51389
112753,51385
112804,51385
112804,51503
112611,51503
112562,51552
112560,51552
112560,51522
112560,51552
112518,51552
112518,51562
112516,51562
112434,51617
112378,51699
112359,51796
112413,51836
112593,51836
112593,51812
112632,51812
112632,51836
112647,51836
112647,51993
112632,51993
112632,52018
112593,52018
112593,51993
112413,51993
112359,52033
112363,52051
111653,52051
111610,52060
111573,52084
111567,52090
110983,52090
112881,50192
115425,50192
115516,50283
115516,50787
115524,50830
115549,50867
115932,51250
115891,51348
115891,51501
115950,51642
116057,51750
116198,51808
116351,51809
116492,51750
116600,51642
116659,51501
116659,51349
116601,51208
116493,51100
116352,51041
116199,51041
116090,51086
115743,50740
115743,50236
115735,50192
115735,50192
115710,50155
115589,50035
115724,50035
115891,50202
115891,50741
115904,50772
115928,50796
115958,50808
115992,50808
116592,50808
116622,50796
116646,50772
116659,50741
116659,50708
116659,50108
116646,50077
116623,50054
116592,50041
116559,50041
116052,50041
115852,49840
115815,49816
115771,49807
112755,49807
112712,49816
112700,49824
112675,49840
110775,51740
110775,51101
110775,50946
110775,50864
110744,50789
110686,50731
110611,50700
110582,50700
110531,50751
110531,50964
110724,50964
110775,50913
110775,50946
110775,51101
110775,51133
110724,51082
110531,51082
110531,51295
110582,51346
110611,51346
110686,51315
110744,51257
110775,51182
110775,51101
110775,51740
110740,51776
110720,51776
110673,51766
110507,51766
110460,51776
110420,51802
110394,51842
110384,51889
110394,51936
110415,51968
110394,52000
110384,52047
110394,52094
110415,52125
110394,52157
110384,52204
110394,52251
110415,52283
110394,52315
110384,52362
110394,52409
110415,52440
110394,52472
110384,52519
110394,52566
110415,52598
110394,52630
110384,52677
110394,52724
110415,52755
110394,52787
110384,52834
110394,52881
110415,52913
110394,52945
110384,52992
110394,53039
110415,53070
110394,53102
110384,53149
110394,53196
110415,53228
110394,53259
110384,53307
110394,53354
110415,53385
110406,53399
110399,53401
110340,53447
110237,53344
110201,53320
110157,53311
108886,53311
108844,53269
108776,53241
108703,53241
108636,53269
108584,53320
108556,53388
108556,53448
108506,53498
108512,53464
108503,53417
108482,53385
108503,53354
108512,53307
108503,53259
108482,53228
108503,53196
108512,53149
108503,53102
108482,53070
108503,53039
108512,52992
108503,52945
108482,52913
108503,52881
108512,52834
108503,52787
108482,52755
108503,52724
108512,52677
108503,52630
108482,52598
108503,52566
108512,52519
108503,52472
108482,52440
108503,52409
108512,52362
108503,52315
108482,52283
108503,52251
108512,52204
108503,52157
108482,52125
108503,52094
108512,52047
108503,52000
108482,51968
108503,51936
108505,51928
108505,51981
108533,52048
108584,52100
108652,52128
108725,52128
108792,52100
108844,52049
108872,51981
108872,51908
108867,51896
108877,51885
108877,51860
108894,51880
108931,51901
108955,51930
108974,51928
108976,51927
108978,51928
108997,51930
109021,51901
109058,51880
109074,51860
109074,51885
109112,51930
109131,51928
109216,51880
109275,51805
109277,51798
109291,51789
109322,51810
109370,51819
109417,51810
109448,51789
109480,51810
109527,51819
109574,51810
109606,51789
109637,51810
109685,51819
109732,51810
109763,51789
109795,51810
109842,51819
109889,51810
109921,51789
109952,51810
110000,51819
110047,51810
110078,51789
110110,51810
110157,51819
110204,51810
110236,51789
110267,51810
110314,51819
110362,51810
110402,51783
110428,51743
110438,51696
110438,51531
110428,51484
110402,51444
110362,51417
110314,51408
110267,51417
110236,51438
110204,51417
110157,51408
110110,51417
110078,51438
110047,51417
110000,51408
109952,51417
109921,51438
109910,51431
110116,51225
110226,51225
110239,51257
110297,51315
110372,51346
110401,51346
110452,51295
110452,51082
110413,51082
110413,50964
110452,50964
110452,50751
110401,50700
110372,50700
110297,50731
110239,50789
110226,50821
110199,50821
110120,50821
110126,50808
110126,50570
110095,50494
110037,50436
109962,50405
109880,50405
109913,50405
109862,50456
109862,50649
110074,50649
110126,50598
110126,50570
110126,50808
110126,50779
110074,50728
109862,50728
109862,50767
109756,50767
109744,50738
109744,50728
109738,50728
109683,50672
109628,50649
109744,50649
109744,50456
109692,50405
109725,50405
109644,50405
109568,50436
109511,50494
109480,50570
109480,50598
109531,50649
109555,50649
109512,50692
109512,50746
109480,50779
109480,50808
109511,50883
109533,50905
109512,50905
109512,50925
109413,50925
109406,50907
109404,50906
109404,50905
109404,50905
109364,50866
109404,50866
109404,50692
109353,50641
109390,50641
109309,50641
109297,50646
109297,50462
109286,50407
109284,50396
109284,50396
109246,50339
109246,50339
109059,50152
109003,50115
108937,50101
108822,50101
108806,50086
108776,50073
108742,50073
108585,50073
108555,50086
108531,50110
108518,50140
108518,50174
108518,50217
108507,50275
108518,50333
108518,50410
108531,50440
108554,50464
108585,50477
108619,50477
108776,50477
108806,50464
108822,50449
108865,50449
108950,50534
108950,50793
108944,50798
108932,50829
108932,50836
108899,50849
108841,50907
108810,50983
108810,50992
108861,51043
109069,51043
109069,51023
109169,51023
109176,51041
109178,51042
109178,51043
109178,51043
109217,51082
109178,51082
109178,51102
109069,51102
109069,51082
108861,51082
108810,51133
108810,51142
108841,51218
108899,51276
108931,51289
108931,51296
108940,51315
108931,51326
108894,51347
108877,51368
108877,51343
108840,51297
108820,51300
108736,51347
108676,51423
108675,51429
108661,51438
108629,51417
108582,51408
108535,51417
108495,51444
108468,51484
108465,51500
108089,51500
108108,51492
108165,51434
108197,51359
108197,51121
108197,50729
108197,50700
108145,50649
107933,50649
107933,50842
107984,50893
107951,50893
108032,50893
108108,50862
108165,50804
108197,50729
108197,51121
108165,51045
108108,50988
108032,50956
107951,50956
107984,50956
107933,51008
107933,51201
108145,51201
108197,51149
108197,51121
108197,51359
108197,51330
108145,51279
107933,51279
107933,51318
107815,51318
107815,51279
107815,51201
107815,51008
107815,50842
107815,50649
107602,50649
107551,50700
107550,50729
107582,50804
107639,50862
107715,50893
107796,50893
107763,50893
107815,50842
107815,51008
107763,50956
107796,50956
107715,50956
107639,50988
107582,51045
107550,51121
107551,51149
107602,51201
107815,51201
107815,51279
107602,51279
107551,51330
107550,51359
107582,51434
107639,51492
107672,51506
107672,51532
107672,51689
107684,51720
107708,51743
107739,51756
107772,51756
108008,51756
108039,51743
108055,51727
108465,51727
108468,51743
108495,51783
108535,51810
108558,51815
108533,51840
108512,51889
108512,51889
108503,51842
108476,51802
108436,51776
108389,51766
108224,51766
108177,51776
107874,51776
107830,51784
107793,51809
107669,51933
107480,51933
107436,51942
107399,51966
107196,52169
106968,52169
106924,52178
106912,52186
106888,52203
106862,52228
106831,52216
106754,52216
106702,52267
106702,52500
106717,52500
106717,52657
106702,52657
106702,52681
106543,52681
106543,52538
106525,52495
106525,52267
106474,52216
106396,52216
106321,52247
106263,52304
106232,52380
106231,52461
106232,52448
106279,52496
106279,52618
106492,52618
106543,52567
106543,52538
106543,52681
106525,52681
106525,52657
106283,52657
106232,52708
106231,52695
106232,52736
106161,52736
106161,52696
106161,52618
106161,52425
106110,52374
106143,52374
106061,52374
105986,52405
105928,52463
105897,52538
105897,52567
105948,52618
106161,52618
106161,52696
105948,52696
105897,52748
105897,52776
105928,52852
105986,52909
106018,52923
106018,52949
106018,53106
106031,53137
106054,53161
106085,53173
106119,53173
106353,53173
106353,53185
106365,53216
106389,53240
106420,53253
106453,53253
106800,53253
106814,53285
106872,53343
106947,53374
107025,53374
107076,53323
107076,53090
107062,53090
107062,52933
107076,52933
107076,52908
107253,52908
107253,52933
107496,52933
107496,52933
107500,52933
107500,52929
107535,52893
107547,52893
107547,52894
107547,52893
107606,52893
107618,52922
107618,52933
107623,52933
107679,52988
107735,53011
107618,53011
107618,53204
107669,53255
107636,53255
107718,53255
107793,53224
107850,53166
107882,53091
107882,53062
107830,53011
107811,53011
107854,52968
107854,52909
107882,52881
107882,52853
107854,52786
107854,52775
107848,52775
107810,52737
107810,52696
107854,52696
107854,52657
107972,52657
107972,52696
108016,52696
108016,52775
107972,52775
107972,52968
108023,53019
107990,53019
108072,53019
108104,53006
108110,53039
108131,53070
108110,53102
108101,53149
108110,53196
108131,53228
108110,53259
108101,53307
108110,53354
108131,53385
108110,53417
108101,53464
108110,53511
108131,53543
108110,53574
108101,53622
108110,53669
108137,53709
108177,53735
108224,53745
108389,53745
108436,53735
108468,53714
108468,53767
108465,53783
108019,53783
107976,53792
107964,53800
107943,53814
107806,53814
107775,53827
107751,53850
107739,53881
107739,53914
107739,54043
107734,54039
107659,54007
107578,54007
107547,54007
107547,53128
107547,53141
107500,53094
107500,53011
107287,53011
107236,53062
107236,53091
107253,53134
107253,53323
107305,53374
107383,53374
107458,53343
107516,53285
107547,53210
107547,53128
107547,54007
107539,54007
107488,54059
107488,54275
107653,54275
107669,54291
107881,54291
107881,54252
107999,54252
107999,54291
108212,54291
108263,54240
108263,54211
108232,54136
108175,54078
108142,54064
108142,54038
108142,54011
108465,54011
108468,54027
108495,54067
108535,54094
108582,54103
108626,54094
108626,54140
108459,54140
108428,54153
108404,54177
108392,54207
108392,54241
108392,54491
108404,54521
108428,54545
108459,54558
108492,54558
108942,54558
108973,54545
108996,54522
109009,54491
109009,54458
109009,54208
108996,54177
108973,54153
108942,54140
108909,54140
108853,54140
108853,54094
108897,54103
108944,54094
108976,54072
109008,54094
109055,54103
109102,54094
109133,54072
109165,54094
109212,54103
109259,54094
109291,54072
109322,54094
109370,54103
109417,54094
109448,54072
109480,54094
109527,54103
109574,54094
109606,54072
109637,54094
109685,54103
109732,54094
109763,54072
109795,54094
109842,54103
109889,54094
109921,54072
109952,54094
110000,54103
110047,54094
110078,54072
110110,54094
110157,54103
110175,54099
110169,54102
110145,54125
110133,54156
110133,54189
110133,54425
110145,54456
110169,54480
110200,54493
110233,54493
110383,54493
110397,54525
110454,54583
110530,54614
110558,54614
110610,54563
110610,54350
110570,54350
110570,54232
110610,54232
110610,54019
110558,53968
110530,53968
110454,53999
110429,54025
110438,53980
110438,53853
110492,53868
110531,53817
110531,53641
110487,53641
110487,53602
110531,53602
110531,53587
110649,53587
110649,53602
110861,53602
110906,53564
110904,53545
110857,53461
110781,53401
110775,53399
110765,53385
110786,53354
110796,53307
110786,53259
110765,53228
110786,53196
110796,53149
110787,53105
111483,53105
111474,53111
111472,53113
111175,53113
111144,53126
111121,53149
111108,53180
111108,53213
111108,53463
111121,53494
111144,53517
111175,53530
111208,53530
111658,53530
111689,53518
111690,53517
111696,53523
111909,53523
111909,53484
112027,53484
112027,53523
112240,53523
112256,53507
112258,53507
112264,53499
112291,53472
112291,53462
112298,53453
112298,53273
112274,53273
112274,53234
112298,53234
112298,53219
112455,53219
112455,53234
112479,53234
112479,53273
112455,53273
112455,53453
112490,53500
112490,53612
112499,53659
112526,53699
112566,53726
112613,53735
112660,53726
112691,53705
112723,53726
112743,53730
112689,53783
112689,53783
112666,53759
112635,53746
112602,53746
112451,53746
112438,53714
112380,53656
112305,53625
112276,53625
112263,53625
112240,53602
112027,53602
112027,53641
111909,53641
111909,53602
111707,53602
111683,53592
111601,53592
111563,53592
111512,53643
111512,53859
111796,53859
111809,53846
111809,53846
111891,53846
111858,53846
111873,53831
111873,53846
111902,53846
111902,53871
111902,53846
111910,53846
111953,53889
112146,53889
112146,53845
112225,53845
112225,53889
112264,53889
112264,54007
112225,54007
112225,54220
112276,54271
112305,54271
112380,54240
112438,54182
112451,54150
112478,54150
112635,54150
112666,54137
112689,54114
112702,54083
112702,54059
112729,54053
112729,54053
112766,54029
112928,53867
112928,54071
112941,54102
112964,54125
112976,54131
112976,54136
112964,54141
112941,54165
112928,54195
112928,54229
112928,54465
112941,54496
112964,54519
112995,54532
113028,54532
113185,54532
113216,54519
113240,54496
113252,54465
113252,54432
113252,54196
113240,54165
113216,54141
113204,54136
113204,54131
113216,54126
113240,54102
113252,54071
113252,54038
113252,53802
113240,53771
113216,53748
113199,53740
113199,53727
113243,53735
113286,53727
113286,53791
113282,53802
113282,53835
113282,54071
113295,54102
113318,54125
113330,54131
113330,54136
113318,54141
113295,54165
113282,54195
113282,54229
113282,54465
113295,54496
113318,54519
113349,54532
113382,54532
113539,54532
113570,54519
113594,54496
113606,54465
113606,54432
113606,54196
113594,54165
113570,54141
113558,54136
113558,54131
113570,54126
113594,54102
113606,54071
113606,54050
113811,54050
113895,54135
113932,54160
113932,54160
113976,54168
114700,54168
114700,54189
114712,54220
114736,54244
114767,54256
114800,54256
114925,54256
114925,54330
114934,54374
114958,54411
115053,54505
115090,54530
115090,54530
115133,54538
115907,54538
115950,54642
116057,54750
116198,54808
116351,54809
116492,54750
116600,54642
116659,54501
116659,54349
116659,55341
112146,55341
112146,54220
112146,54007
111953,54007
111902,54058
111902,54026
111902,54107
111934,54182
111991,54240
112067,54271
112095,54271
112146,54220
112146,55341
111847,55341
111847,54087
111847,54035
111796,53984
111512,53984
111512,54200
111563,54252
111601,54252
111683,54252
111758,54220
111816,54163
111847,54087
111847,55341
111322,55341
111322,54200
111322,53984
111322,53859
111322,53643
111271,53592
111232,53592
111151,53592
111076,53623
111018,53681
110987,53756
110987,53808
111038,53859
111322,53859
111322,53984
111038,53984
110987,54035
110987,54087
111018,54163
111076,54220
111151,54252
111232,54252
111271,54252
111322,54200
111322,55341
110932,55341
110932,54368
110932,54213
110932,54132
110906,54069
110906,53679
110861,53641
110649,53641
110649,53817
110688,53868
110781,53842
110857,53782
110904,53698
110906,53679
110906,54069
110901,54057
110843,53999
110768,53968
110739,53968
110688,54019
110688,54232
110881,54232
110932,54181
110932,54213
110932,54368
110932,54401
110881,54350
110688,54350
110688,54563
110739,54614
110768,54614
110843,54583
110901,54525
110932,54450
110932,54368
110932,55341
109009,55341
109009,55058
109009,54808
108996,54777
108973,54753
108942,54740
108909,54740
108459,54740
108428,54753
108404,54777
108392,54807
108392,54835
108378,54835
108378,54814
108365,54783
108342,54759
108311,54747
108278,54747
108263,54747
108263,54449
108263,54421
108212,54369
107999,54369
107999,54562
108051,54614
108018,54614
108099,54614
108175,54582
108232,54525
108263,54449
108263,54747
108121,54747
108090,54759
108066,54783
108054,54814
108054,54847
108054,55083
108066,55114
108090,55137
108121,55150
108154,55150
108311,55150
108342,55137
108365,55114
108378,55083
108378,55063
108392,55063
108392,55091
108404,55121
108428,55145
108459,55158
108492,55158
108942,55158
108973,55145
108996,55122
109009,55091
109009,55058
109009,55341
108024,55341
108024,55050
108024,54814
108011,54783
107988,54759
107957,54747
107924,54747
107767,54747
107736,54759
107712,54783
107702,54808
107702,54796
107689,54765
107666,54741
107635,54729
107602,54729
107554,54729
107573,54682
107573,54667
107578,54667
107659,54667
107734,54636
107764,54606
107781,54614
107863,54614
107830,54614
107881,54562
107881,54369
107669,54369
107638,54400
107488,54400
107488,54440
107298,54440
107298,54400
107298,54275
107298,54059
107247,54007
107209,54007
107127,54007
107052,54039
106994,54096
106963,54172
106963,54224
107014,54275
107298,54275
107298,54400
107014,54400
106963,54451
106963,54503
106994,54578
107052,54636
107127,54667
107206,54667
107205,54682
107225,54729
107152,54729
107121,54741
107097,54765
107084,54796
107084,54829
107084,55079
107097,55110
107121,55133
107151,55146
107185,55146
107635,55146
107666,55133
107689,55110
107700,55084
107712,55114
107736,55137
107767,55150
107800,55150
107957,55150
107988,55137
108011,55114
108024,55083
108024,55050
108024,55341
104792,55341
104792,51697
107406,51697
107406,50477
107516,50477
107546,50464
107561,50449
107568,50449
107550,50490
107551,50519
107602,50570
107815,50570
107815,50531
107933,50531
107933,50570
108145,50570
108197,50519
108197,50490
108180,50449
108186,50449
108200,50464
108231,50477
108265,50477
108422,50477
108452,50464
108476,50441
108489,50410
108489,50377
108489,50336
108501,50275
108489,50215
108489,50141
108476,50110
108452,50086
108422,50073
108388,50073
108231,50073
108201,50086
108186,50101
108026,50101
108008,50093
107975,50093
107739,50093
107721,50101
107561,50101
107547,50086
107516,50073
107483,50073
107406,50073
107406,49630
117971,49630
117971,52180
" /> 
</g>
<g style="fill:#9F0000; fill-opacity:0.0; 
stroke:#9F0000; stroke-width:10; stroke-opacity:1; 
stroke-linecap:round; stroke-linejoin:round;">
<polyline fill="none;"
points="117971,52180
117789,52180
117789,51450
117760,51252
117740,51204
117663,51171
117659,51175
117659,50708
117659,50108
117646,50077
117623,50054
117592,50041
117559,50041
116959,50041
116928,50054
116904,50077
116891,50108
116891,50141
116891,50741
116904,50772
116928,50796
116958,50808
116992,50808
117592,50808
117622,50796
117646,50772
117659,50741
117659,50708
117659,51175
117529,51305
117529,51037
117496,50959
117301,50910
117102,50940
117054,50959
117021,51037
117275,51290
117529,51037
117529,51305
117409,51425
117663,51678
117740,51645
117789,51450
117789,52180
117529,52180
117529,51813
117275,51559
117141,51693
117141,51425
116887,51171
116810,51204
116761,51399
116790,51598
116810,51645
116887,51678
117141,51425
117141,51693
117021,51813
117054,51890
117249,51939
117448,51910
117496,51890
117529,51813
117529,52180
116893,52180
116854,52187
116820,52210
116798,52243
116790,52283
116790,55341
116659,55341
116659,54349
116601,54208
116493,54100
116352,54041
116199,54041
116058,54099
115950,54207
115907,54311
115180,54311
115153,54283
115153,54256
115154,54256
115311,54256
115342,54244
115365,54220
115378,54189
115378,54168
115645,54168
115689,54160
115689,54160
115726,54135
116095,53765
116198,53808
116351,53809
116492,53750
116600,53642
116659,53501
116659,53349
116659,52349
116601,52208
116493,52100
116352,52041
116199,52041
116058,52099
115950,52207
115907,52311
115763,52311
115720,52320
115683,52344
115496,52531
115107,52531
115107,52510
115095,52480
115071,52456
115040,52443
115007,52443
114850,52443
114819,52456
114796,52479
114783,52510
114783,52544
114783,52780
114796,52810
114819,52834
114850,52847
114883,52847
115040,52847
115071,52834
115095,52810
115107,52780
115107,52759
115543,52759
115587,52750
115587,52750
115623,52725
115810,52538
115907,52538
115950,52642
116057,52750
116198,52808
116351,52809
116492,52750
116600,52642
116659,52501
116659,52349
116659,53349
116601,53208
116493,53100
116352,53041
116199,53041
116058,53099
115950,53207
115891,53348
115891,53501
115934,53605
115598,53941
115378,53941
115378,53920
115365,53889
115342,53866
115311,53853
115278,53853
115153,53853
115153,53740
115153,53740
115144,53696
115144,53696
115136,53684
115119,53659
115119,53659
115055,53595
115055,53264
115067,53259
115091,53236
115103,53205
115104,53172
115104,52936
115091,52905
115067,52881
115036,52868
115003,52868
114846,52868
114815,52881
114792,52905
114779,52935
114779,52969
114779,53205
114792,53236
114815,53259
114828,53264
114828,53642
114836,53686
114861,53722
114925,53787
114925,53853
114924,53853
114767,53853
114736,53866
114712,53889
114700,53920
114700,53941
114023,53941
113938,53856
113901,53831
113858,53823
113606,53823
113606,53802
113594,53771
113570,53748
113539,53735
113514,53735
113514,53727
113558,53735
113605,53726
113636,53705
113668,53726
113715,53735
113762,53726
113802,53699
113829,53659
113838,53612
113838,53520
113846,53561
113871,53597
113932,53658
113969,53683
113969,53683
114012,53692
114019,53692
114019,53713
114032,53743
114056,53767
114087,53780
114120,53780
114277,53780
114308,53767
114331,53744
114344,53713
114344,53679
114344,53443
114331,53413
114308,53389
114277,53376
114244,53376
114087,53376
114065,53385
114065,53376
114074,53376
114121,53367
114161,53340
114188,53300
114195,53264
114374,53443
114374,53443
114373,53477
114373,53713
114386,53743
114410,53767
114441,53780
114474,53780
114631,53780
114662,53767
114685,53744
114698,53713
114698,53679
114698,53443
114685,53413
114662,53389
114631,53376
114625,53376
114616,53364
114525,53272
114525,53272
114682,53272
114713,53259
114737,53236
114749,53205
114750,53172
114750,52936
114737,52905
114713,52881
114682,52868
114649,52868
114546,52868
114537,52860
114550,52847
114686,52847
114717,52834
114741,52810
114753,52780
114753,52746
114753,52510
114741,52480
114717,52456
114686,52443
114653,52443
114496,52443
114465,52456
114442,52479
114429,52510
114429,52544
114429,52646
114408,52667
114189,52667
114197,52623
114188,52576
114167,52545
114188,52513
114197,52466
114189,52422
114345,52422
114388,52413
114391,52411
114539,52411
114569,52399
114593,52375
114606,52344
114606,52311
114606,52154
114593,52123
114570,52100
114539,52087
114505,52087
114269,52087
114239,52100
114215,52123
114202,52154
114202,52187
114202,52195
114189,52195
114197,52151
114188,52104
114161,52064
114125,52040
114156,52009
114210,52009
114215,52021
114239,52045
114269,52057
114303,52057
114539,52057
114569,52045
114593,52021
114606,51990
114606,51957
114606,51800
114593,51769
114570,51746
114539,51733
114505,51733
114357,51733
114384,51706
114384,51706
114400,51681
114409,51669
114409,51669
114413,51648
114429,51641
114453,51618
114466,51587
114466,51566
114497,51566
114540,51557
114540,51557
114577,51532
114672,51437
114672,51437
114689,51413
114697,51400
114697,51400
114706,51357
114706,51357
114706,51288
114733,51288
114764,51276
114788,51252
114801,51221
114801,51188
114801,50738
114788,50707
114764,50684
114734,50671
114700,50671
114450,50671
114419,50684
114396,50707
114383,50738
114383,50771
114383,51221
114395,51250
114365,51250
114320,51250
114322,51246
114322,51164
114322,50795
114322,50714
114291,50638
114233,50581
114157,50550
114106,50550
114054,50601
114054,50885
114271,50885
114322,50833
114322,50795
114322,51164
114322,51126
114271,51075
114054,51075
114054,51129
114040,51129
113989,51180
113989,51393
114028,51393
114028,51511
113989,51511
113989,51555
113910,51555
113910,51511
113871,51511
113871,51410
113878,51410
113895,51393
113910,51393
113910,51377
113929,51358
113929,51075
113929,50885
113929,50601
113878,50550
113826,50550
113777,50570
113761,50563
113679,50563
113702,50563
113651,50614
113651,50846
113675,50846
113713,50885
113929,50885
113929,51075
113925,51075
113925,51055
113873,51004
113651,51004
113651,51028
113513,51028
113513,51004
113479,51004
113479,50846
113513,50846
113513,50614
113462,50563
113485,50563
113404,50563
113328,50594
113271,50652
113240,50727
113240,50795
113275,50830
113240,50830
113240,50864
113105,50864
113091,50832
113034,50774
112958,50743
112930,50743
112878,50794
112878,51007
112918,51007
112918,51125
112878,51125
112878,51338
112882,51342
112882,51385
112922,51385
112922,51503
112882,51503
112882,51547
112804,51547
112804,51503
112804,51385
112804,51172
112800,51168
112800,51125
112800,51007
112800,50794
112749,50743
112720,50743
112645,50774
112587,50832
112556,50907
112556,50989
112556,50956
112607,51007
112800,51007
112800,51125
112757,51125
112753,51121
112724,51121
112714,51125
112607,51125
112556,51176
112556,51144
112556,51225
112570,51260
112560,51285
112560,51367
112560,51334
112611,51385
112710,51385
112720,51389
112749,51389
112753,51385
112804,51385
112804,51503
112611,51503
112562,51552
112560,51552
112560,51522
112560,51552
112518,51552
112518,51562
112516,51562
112434,51617
112378,51699
112359,51796
112413,51836
112593,51836
112593,51812
112632,51812
112632,51836
112647,51836
112647,51993
112632,51993
112632,52018
112593,52018
112593,51993
112413,51993
112359,52033
112363,52051
111653,52051
111610,52060
111573,52084
111567,52090
110983,52090
112881,50192
115425,50192
115516,50283
115516,50787
115524,50830
115549,50867
115932,51250
115891,51348
115891,51501
115950,51642
116057,51750
116198,51808
116351,51809
116492,51750
116600,51642
116659,51501
116659,51349
116601,51208
116493,51100
116352,51041
116199,51041
116090,51086
115743,50740
115743,50236
115735,50192
115735,50192
115710,50155
115589,50035
115724,50035
115891,50202
115891,50741
115904,50772
115928,50796
115958,50808
115992,50808
116592,50808
116622,50796
116646,50772
116659,50741
116659,50708
116659,50108
116646,50077
116623,50054
116592,50041
116559,50041
116052,50041
115852,49840
115815,49816
115771,49807
112755,49807
112712,49816
112700,49824
112675,49840
110775,51740
110775,51101
110775,50946
110775,50864
110744,50789
110686,50731
110611,50700
110582,50700
110531,50751
110531,50964
110724,50964
110775,50913
110775,50946
110775,51101
110775,51133
110724,51082
110531,51082
110531,51295
110582,51346
110611,51346
110686,51315
110744,51257
110775,51182
110775,51101
110775,51740
110740,51776
110720,51776
110673,51766
110507,51766
110460,51776
110420,51802
110394,51842
110384,51889
110394,51936
110415,51968
110394,52000
110384,52047
110394,52094
110415,52125
110394,52157
110384,52204
110394,52251
110415,52283
110394,52315
110384,52362
110394,52409
110415,52440
110394,52472
110384,52519
110394,52566
110415,52598
110394,52630
110384,52677
110394,52724
110415,52755
110394,52787
110384,52834
110394,52881
110415,52913
110394,52945
110384,52992
110394,53039
110415,53070
110394,53102
110384,53149
110394,53196
110415,53228
110394,53259
110384,53307
110394,53354
110415,53385
110406,53399
110399,53401
110340,53447
110237,53344
110201,53320
110157,53311
108886,53311
108844,53269
108776,53241
108703,53241
108636,53269
108584,53320
108556,53388
108556,53448
108506,53498
108512,53464
108503,53417
108482,53385
108503,53354
108512,53307
108503,53259
108482,53228
108503,53196
108512,53149
108503,53102
108482,53070
108503,53039
108512,52992
108503,52945
108482,52913
108503,52881
108512,52834
108503,52787
108482,52755
108503,52724
108512,52677
108503,52630
108482,52598
108503,52566
108512,52519
108503,52472
108482,52440
108503,52409
108512,52362
108503,52315
108482,52283
108503,52251
108512,52204
108503,52157
108482,52125
108503,52094
108512,52047
108503,52000
108482,51968
108503,51936
108505,51928
108505,51981
108533,52048
108584,52100
108652,52128
108725,52128
108792,52100
108844,52049
108872,51981
108872,51908
108867,51896
108877,51885
108877,51860
108894,51880
108931,51901
108955,51930
108974,51928
108976,51927
108978,51928
108997,51930
109021,51901
109058,51880
109074,51860
109074,51885
109112,51930
109131,51928
109216,51880
109275,51805
109277,51798
109291,51789
109322,51810
109370,51819
109417,51810
109448,51789
109480,51810
109527,51819
109574,51810
109606,51789
109637,51810
109685,51819
109732,51810
109763,51789
109795,51810
109842,51819
109889,51810
109921,51789
109952,51810
110000,51819
110047,51810
110078,51789
110110,51810
110157,51819
110204,51810
110236,51789
110267,51810
110314,51819
110362,51810
110402,51783
110428,51743
110438,51696
110438,51531
110428,51484
110402,51444
110362,51417
110314,51408
110267,51417
110236,51438
110204,51417
110157,51408
110110,51417
110078,51438
110047,51417
110000,51408
109952,51417
109921,51438
109910,51431
110116,51225
110226,51225
110239,51257
110297,51315
110372,51346
110401,51346
110452,51295
110452,51082
110413,51082
110413,50964
110452,50964
110452,50751
110401,50700
110372,50700
110297,50731
110239,50789
110226,50821
110199,50821
110120,50821
110126,50808
110126,50570
110095,50494
110037,50436
109962,50405
109880,50405
109913,50405
109862,50456
109862,50649
110074,50649
110126,50598
110126,50570
110126,50808
110126,50779
110074,50728
109862,50728
109862,50767
109756,50767
109744,50738
109744,50728
109738,50728
109683,50672
109628,50649
109744,50649
109744,50456
109692,50405
109725,50405
109644,50405
109568,50436
109511,50494
109480,50570
109480,50598
109531,50649
109555,50649
109512,50692
109512,50746
109480,50779
109480,50808
109511,50883
109533,50905
109512,50905
109512,50925
109413,50925
109406,50907
109404,50906
109404,50905
109404,50905
109364,50866
109404,50866
109404,50692
109353,50641
109390,50641
109309,50641
109297,50646
109297,50462
109286,50407
109284,50396
109284,50396
109246,50339
109246,50339
109059,50152
109003,50115
108937,50101
108822,50101
108806,50086
108776,50073
108742,50073
108585,50073
108555,50086
108531,50110
108518,50140
108518,50174
108518,50217
108507,50275
108518,50333
108518,50410
108531,50440
108554,50464
108585,50477
108619,50477
108776,50477
108806,50464
108822,50449
108865,50449
108950,50534
108950,50793
108944,50798
108932,50829
108932,50836
108899,50849
108841,50907
108810,50983
108810,50992
108861,51043
109069,51043
109069,51023
109169,51023
109176,51041
109178,51042
109178,51043
109178,51043
109217,51082
109178,51082
109178,51102
109069,51102
109069,51082
108861,51082
108810,51133
108810,51142
108841,51218
108899,51276
108931,51289
108931,51296
108940,51315
108931,51326
108894,51347
108877,51368
108877,51343
108840,51297
108820,51300
108736,51347
108676,51423
108675,51429
108661,51438
108629,51417
108582,51408
108535,51417
108495,51444
108468,51484
108465,51500
108089,51500
108108,51492
108165,51434
108197,51359
108197,51121
108197,50729
108197,50700
108145,50649
107933,50649
107933,50842
107984,50893
107951,50893
108032,50893
108108,50862
108165,50804
108197,50729
108197,51121
108165,51045
108108,50988
108032,50956
107951,50956
107984,50956
107933,51008
107933,51201
108145,51201
108197,51149
108197,51121
108197,51359
108197,51330
108145,51279
107933,51279
107933,51318
107815,51318
107815,51279
107815,51201
107815,51008
107815,50842
107815,50649
107602,50649
107551,50700
107550,50729
107582,50804
107639,50862
107715,50893
107796,50893
107763,50893
107815,50842
107815,51008
107763,50956
107796,50956
107715,50956
107639,50988
107582,51045
107550,51121
107551,51149
107602,51201
107815,51201
107815,51279
107602,51279
107551,51330
107550,51359
107582,51434
107639,51492
107672,51506
107672,51532
107672,51689
107684,51720
107708,51743
107739,51756
107772,51756
108008,51756
108039,51743
108055,51727
108465,51727
108468,51743
108495,51783
108535,51810
108558,51815
108533,51840
108512,51889
108512,51889
108503,51842
108476,51802
108436,51776
108389,51766
108224,51766
108177,51776
107874,51776
107830,51784
107793,51809
107669,51933
107480,51933
107436,51942
107399,51966
107196,52169
106968,52169
106924,52178
106912,52186
106888,52203
106862,52228
106831,52216
106754,52216
106702,52267
106702,52500
106717,52500
106717,52657
106702,52657
106702,52681
106543,52681
106543,52538
106525,52495
106525,52267
106474,52216
106396,52216
106321,52247
106263,52304
106232,52380
106231,52461
106232,52448
106279,52496
106279,52618
106492,52618
106543,52567
106543,52538
106543,52681
106525,52681
106525,52657
106283,52657
106232,52708
106231,52695
106232,52736
106161,52736
106161,52696
106161,52618
106161,52425
106110,52374
106143,52374
106061,52374
105986,52405
105928,52463
105897,52538
105897,52567
105948,52618
106161,52618
106161,52696
105948,52696
105897,52748
105897,52776
105928,52852
105986,52909
106018,52923
106018,52949
106018,53106
106031,53137
106054,53161
106085,53173
106119,53173
106353,53173
106353,53185
106365,53216
106389,53240
106420,53253
106453,53253
106800,53253
106814,53285
106872,53343
106947,53374
107025,53374
107076,53323
107076,53090
107062,53090
107062,52933
107076,52933
107076,52908
107253,52908
107253,52933
107496,52933
107496,52933
107500,52933
107500,52929
107535,52893
107547,52893
107547,52894
107547,52893
107606,52893
107618,52922
107618,52933
107623,52933
107679,52988
107735,53011
107618,53011
107618,53204
107669,53255
107636,53255
107718,53255
107793,53224
107850,53166
107882,53091
107882,53062
107830,53011
107811,53011
107854,52968
107854,52909
107882,52881
107882,52853
107854,52786
107854,52775
107848,52775
107810,52737
107810,52696
107854,52696
107854,52657
107972,52657
107972,52696
108016,52696
108016,52775
107972,52775
107972,52968
108023,53019
107990,53019
108072,53019
108104,53006
108110,53039
108131,53070
108110,53102
108101,53149
108110,53196
108131,53228
108110,53259
108101,53307
108110,53354
108131,53385
108110,53417
108101,53464
108110,53511
108131,53543
108110,53574
108101,53622
108110,53669
108137,53709
108177,53735
108224,53745
108389,53745
108436,53735
108468,53714
108468,53767
108465,53783
108019,53783
107976,53792
107964,53800
107943,53814
107806,53814
107775,53827
107751,53850
107739,53881
107739,53914
107739,54043
107734,54039
107659,54007
107578,54007
107547,54007
107547,53128
107547,53141
107500,53094
107500,53011
107287,53011
107236,53062
107236,53091
107253,53134
107253,53323
107305,53374
107383,53374
107458,53343
107516,53285
107547,53210
107547,53128
107547,54007
107539,54007
107488,54059
107488,54275
107653,54275
107669,54291
107881,54291
107881,54252
107999,54252
107999,54291
108212,54291
108263,54240
108263,54211
108232,54136
108175,54078
108142,54064
108142,54038
108142,54011
108465,54011
108468,54027
108495,54067
108535,54094
108582,54103
108626,54094
108626,54140
108459,54140
108428,54153
108404,54177
108392,54207
108392,54241
108392,54491
108404,54521
108428,54545
108459,54558
108492,54558
108942,54558
108973,54545
108996,54522
109009,54491
109009,54458
109009,54208
108996,54177
108973,54153
108942,54140
108909,54140
108853,54140
108853,54094
108897,54103
108944,54094
108976,54072
109008,54094
109055,54103
109102,54094
109133,54072
109165,54094
109212,54103
109259,54094
109291,54072
109322,54094
109370,54103
109417,54094
109448,54072
109480,54094
109527,54103
109574,54094
109606,54072
109637,54094
109685,54103
109732,54094
109763,54072
109795,54094
109842,54103
109889,54094
109921,54072
109952,54094
110000,54103
110047,54094
110078,54072
110110,54094
110157,54103
110175,54099
110169,54102
110145,54125
110133,54156
110133,54189
110133,54425
110145,54456
110169,54480
110200,54493
110233,54493
110383,54493
110397,54525
110454,54583
110530,54614
110558,54614
110610,54563
110610,54350
110570,54350
110570,54232
110610,54232
110610,54019
110558,53968
110530,53968
110454,53999
110429,54025
110438,53980
110438,53853
110492,53868
110531,53817
110531,53641
110487,53641
110487,53602
110531,53602
110531,53587
110649,53587
110649,53602
110861,53602
110906,53564
110904,53545
110857,53461
110781,53401
110775,53399
110765,53385
110786,53354
110796,53307
110786,53259
110765,53228
110786,53196
110796,53149
110787,53105
111483,53105
111474,53111
111472,53113
111175,53113
111144,53126
111121,53149
111108,53180
111108,53213
111108,53463
111121,53494
111144,53517
111175,53530
111208,53530
111658,53530
111689,53518
111690,53517
111696,53523
111909,53523
111909,53484
112027,53484
112027,53523
112240,53523
112256,53507
112258,53507
112264,53499
112291,53472
112291,53462
112298,53453
112298,53273
112274,53273
112274,53234
112298,53234
112298,53219
112455,53219
112455,53234
112479,53234
112479,53273
112455,53273
112455,53453
112490,53500
112490,53612
112499,53659
112526,53699
112566,53726
112613,53735
112660,53726
112691,53705
112723,53726
112743,53730
112689,53783
112689,53783
112666,53759
112635,53746
112602,53746
112451,53746
112438,53714
112380,53656
112305,53625
112276,53625
112263,53625
112240,53602
112027,53602
112027,53641
111909,53641
111909,53602
111707,53602
111683,53592
111601,53592
111563,53592
111512,53643
111512,53859
111796,53859
111809,53846
111809,53846
111891,53846
111858,53846
111873,53831
111873,53846
111902,53846
111902,53871
111902,53846
111910,53846
111953,53889
112146,53889
112146,53845
112225,53845
112225,53889
112264,53889
112264,54007
112225,54007
112225,54220
112276,54271
112305,54271
112380,54240
112438,54182
112451,54150
112478,54150
112635,54150
112666,54137
112689,54114
112702,54083
112702,54059
112729,54053
112729,54053
112766,54029
112928,53867
112928,54071
112941,54102
112964,54125
112976,54131
112976,54136
112964,54141
112941,54165
112928,54195
112928,54229
112928,54465
112941,54496
112964,54519
112995,54532
113028,54532
113185,54532
113216,54519
113240,54496
113252,54465
113252,54432
113252,54196
113240,54165
113216,54141
113204,54136
113204,54131
113216,54126
113240,54102
113252,54071
113252,54038
113252,53802
113240,53771
113216,53748
113199,53740
113199,53727
113243,53735
113286,53727
113286,53791
113282,53802
113282,53835
113282,54071
113295,54102
113318,54125
113330,54131
113330,54136
113318,54141
113295,54165
113282,54195
113282,54229
113282,54465
113295,54496
113318,54519
113349,54532
113382,54532
113539,54532
113570,54519
113594,54496
113606,54465
113606,54432
113606,54196
113594,54165
113570,54141
113558,54136
113558,54131
113570,54126
113594,54102
113606,54071
113606,54050
113811,54050
113895,54135
113932,54160
113932,54160
113976,54168
114700,54168
114700,54189
114712,54220
114736,54244
114767,54256
114800,54256
114925,54256
114925,54330
114934,54374
114958,54411
115053,54505
115090,54530
115090,54530
115133,54538
115907,54538
115950,54642
116057,54750
116198,54808
116351,54809
116492,54750
116600,54642
116659,54501
116659,54349
116659,55341
112146,55341
112146,54220
112146,54007
111953,54007
111902,54058
111902,54026
111902,54107
111934,54182
111991,54240
112067,54271
112095,54271
112146,54220
112146,55341
111847,55341
111847,54087
111847,54035
111796,53984
111512,53984
111512,54200
111563,54252
111601,54252
111683,54252
111758,54220
111816,54163
111847,54087
111847,55341
111322,55341
111322,54200
111322,53984
111322,53859
111322,53643
111271,53592
111232,53592
111151,53592
111076,53623
111018,53681
110987,53756
110987,53808
111038,53859
111322,53859
111322,53984
111038,53984
110987,54035
110987,54087
111018,54163
111076,54220
111151,54252
111232,54252
111271,54252
111322,54200
111322,55341
110932,55341
110932,54368
110932,54213
110932,54132
110906,54069
110906,53679
110861,53641
110649,53641
110649,53817
110688,53868
110781,53842
110857,53782
110904,53698
110906,53679
110906,54069
110901,54057
110843,53999
110768,53968
110739,53968
110688,54019
110688,54232
110881,54232
110932,54181
110932,54213
110932,54368
110932,54401
110881,54350
110688,54350
110688,54563
110739,54614
110768,54614
110843,54583
110901,54525
110932,54450
110932,54368
110932,55341
109009,55341
109009,55058
109009,54808
108996,54777
108973,54753
108942,54740
108909,54740
108459,54740
108428,54753
108404,54777
108392,54807
108392,54835
108378,54835
108378,54814
108365,54783
108342,54759
108311,54747
108278,54747
108263,54747
108263,54449
108263,54421
108212,54369
107999,54369
107999,54562
108051,54614
108018,54614
108099,54614
108175,54582
108232,54525
108263,54449
108263,54747
108121,54747
108090,54759
108066,54783
108054,54814
108054,54847
108054,55083
108066,55114
108090,55137
108121,55150
108154,55150
108311,55150
108342,55137
108365,55114
108378,55083
108378,55063
108392,55063
108392,55091
108404,55121
108428,55145
108459,55158
108492,55158
108942,55158
108973,55145
108996,55122
109009,55091
109009,55058
109009,55341
108024,55341
108024,55050
108024,54814
108011,54783
107988,54759
107957,54747
107924,54747
107767,54747
107736,54759
107712,54783
107702,54808
107702,54796
107689,54765
107666,54741
107635,54729
107602,54729
107554,54729
107573,54682
107573,54667
107578,54667
107659,54667
107734,54636
107764,54606
107781,54614
107863,54614
107830,54614
107881,54562
107881,54369
107669,54369
107638,54400
107488,54400
107488,54440
107298,54440
107298,54400
107298,54275
107298,54059
107247,54007
107209,54007
107127,54007
107052,54039
106994,54096
106963,54172
106963,54224
107014,54275
107298,54275
107298,54400
107014,54400
106963,54451
106963,54503
106994,54578
107052,54636
107127,54667
107206,54667
107205,54682
107225,54729
107152,54729
107121,54741
107097,54765
107084,54796
107084,54829
107084,55079
107097,55110
107121,55133
107151,55146
107185,55146
107635,55146
107666,55133
107689,55110
107700,55084
107712,55114
107736,55137
107767,55150
107800,55150
107957,55150
107988,55137
108011,55114
108024,55083
108024,55050
108024,55341
104792,55341
104792,51697
107406,51697
107406,50477
107516,50477
107546,50464
107561,50449
107568,50449
107550,50490
107551,50519
107602,50570
107815,50570
107815,50531
107933,50531
107933,50570
108145,50570
108197,50519
108197,50490
108180,50449
108186,50449
108200,50464
108231,50477
108265,50477
108422,50477
108452,50464
108476,50441
108489,50410
108489,50377
108489,50336
108501,50275
108489,50215
108489,50141
108476,50110
108452,50086
108422,50073
108388,50073
108231,50073
108201,50086
108186,50101
108026,50101
108008,50093
107975,50093
107739,50093
107721,50101
107561,50101
107547,50086
107516,50073
107483,50073
107406,50073
107406,49630
117971,49630
117971,52180
" /> 
</g>
<g style="fill:#FFFFFF; fill-opacity:0.0; 
stroke:#FFFFFF; stroke-width:39.3701; stroke-opacity:1; 
stroke-linecap:round; stroke-linejoin:round;">
</g>
<g style="fill:#FFFFFF; fill-opacity:1.0; 
stroke:#FFFFFF; stroke-width:39.3701; stroke-opacity:1; 
stroke-linecap:round; stroke-linejoin:round;">
<circle cx="109843" cy="52795.3" r="45.315" /> 
<circle cx="112975" cy="53088.4" r="45.315" /> 
<circle cx="113347" cy="52610" r="45.315" /> 
<circle cx="108689" cy="51944.9" r="45.315" /> 
<circle cx="107390" cy="54645.7" r="45.315" /> 
<circle cx="112808" cy="52834.4" r="45.315" /> 
<circle cx="108740" cy="53425.2" r="45.315" /> 
<circle cx="113178" cy="52362" r="45.315" /> 
<circle cx="116276" cy="50425.2" r="180.315" /> 
<circle cx="116276" cy="51425.2" r="180.315" /> 
<circle cx="116276" cy="52425.2" r="180.315" /> 
<circle cx="116276" cy="53425.2" r="180.315" /> 
<circle cx="116276" cy="54425.2" r="180.315" /> 
<circle cx="117276" cy="50425.2" r="180.315" /> 
<circle cx="117276" cy="51425.2" r="180.315" /> 
</g> 
</svg>
