G04 (created by PCBNEW (2013-07-07 BZR 4022)-stable) date 3/16/2015 2:43:42 PM*
%MOIN*%
G04 Gerber Fmt 3.4, Leading zero omitted, Abs format*
%FSLAX34Y34*%
G01*
G70*
G90*
G04 APERTURE LIST*
%ADD10C,0.00590551*%
%ADD11R,0.155906X0.155906*%
%ADD12R,0.125197X0.125197*%
%ADD13R,0.06X0.06*%
%ADD14C,0.06*%
%ADD15C,0.02*%
%ADD16C,0.018*%
%ADD17C,0.001*%
G04 APERTURE END LIST*
G54D10*
G54D11*
X109842Y-53779D03*
G54D12*
X105897Y-53779D03*
X113787Y-53779D03*
G54D13*
X116275Y-50425D03*
G54D14*
X116275Y-51425D03*
X116275Y-52425D03*
X116275Y-53425D03*
X116275Y-54425D03*
G54D13*
X117275Y-50425D03*
G54D14*
X117275Y-51425D03*
G54D15*
X109842Y-52795D03*
X112975Y-53088D03*
X113347Y-52610D03*
X108688Y-51944D03*
X107389Y-54645D03*
X112808Y-52834D03*
X108740Y-53425D03*
X113178Y-52362D03*
G54D16*
X109842Y-52795D02*
X109842Y-53779D01*
X108688Y-51944D02*
X108527Y-51944D01*
X107389Y-54019D02*
X107389Y-54645D01*
X108307Y-53102D02*
X107389Y-54019D01*
X108307Y-52165D02*
X108307Y-53102D01*
X108527Y-51944D02*
X108307Y-52165D01*
X117275Y-50425D02*
X117275Y-50440D01*
X115393Y-52173D02*
X113787Y-53779D01*
X115393Y-51484D02*
X115393Y-52173D01*
X115952Y-50925D02*
X115393Y-51484D01*
X116791Y-50925D02*
X115952Y-50925D01*
X117275Y-50440D02*
X116791Y-50925D01*
X108740Y-53425D02*
X108740Y-52677D01*
X108740Y-52677D02*
X108976Y-52440D01*
X108976Y-52440D02*
X112414Y-52440D01*
X112414Y-52440D02*
X112808Y-52834D01*
X112808Y-52834D02*
X112637Y-52834D01*
X112637Y-52834D02*
X112440Y-53031D01*
X112440Y-53031D02*
X112440Y-53503D01*
X112440Y-53503D02*
X112716Y-53779D01*
X112716Y-53779D02*
X113787Y-53779D01*
X105897Y-53779D02*
X105897Y-54637D01*
X105897Y-54637D02*
X106220Y-54960D01*
X106220Y-54960D02*
X107834Y-54960D01*
X107834Y-54960D02*
X108307Y-54488D01*
X108307Y-54488D02*
X108307Y-53858D01*
X108307Y-53858D02*
X108740Y-53425D01*
G54D10*
G36*
X117971Y-52180D02*
X117789Y-52180D01*
X117789Y-51450D01*
X117760Y-51252D01*
X117740Y-51204D01*
X117663Y-51171D01*
X117659Y-51175D01*
X117659Y-50708D01*
X117659Y-50108D01*
X117646Y-50077D01*
X117623Y-50054D01*
X117592Y-50041D01*
X117559Y-50041D01*
X116959Y-50041D01*
X116928Y-50054D01*
X116904Y-50077D01*
X116891Y-50108D01*
X116891Y-50141D01*
X116891Y-50578D01*
X116719Y-50751D01*
X116655Y-50751D01*
X116659Y-50741D01*
X116659Y-50708D01*
X116659Y-50108D01*
X116646Y-50077D01*
X116623Y-50054D01*
X116592Y-50041D01*
X116559Y-50041D01*
X115959Y-50041D01*
X115928Y-50054D01*
X115904Y-50077D01*
X115891Y-50108D01*
X115891Y-50141D01*
X115891Y-50741D01*
X115900Y-50761D01*
X115886Y-50764D01*
X115829Y-50802D01*
X115270Y-51361D01*
X115233Y-51417D01*
X115219Y-51484D01*
X115219Y-52101D01*
X114251Y-53069D01*
X113361Y-53069D01*
X113361Y-52325D01*
X113334Y-52258D01*
X113282Y-52206D01*
X113214Y-52178D01*
X113141Y-52178D01*
X113074Y-52206D01*
X113022Y-52257D01*
X112994Y-52325D01*
X112994Y-52398D01*
X113022Y-52465D01*
X113073Y-52517D01*
X113141Y-52545D01*
X113214Y-52545D01*
X113282Y-52517D01*
X113333Y-52466D01*
X113361Y-52398D01*
X113361Y-52325D01*
X113361Y-53069D01*
X113144Y-53069D01*
X113114Y-53082D01*
X113090Y-53106D01*
X113077Y-53136D01*
X113077Y-53170D01*
X113077Y-53605D01*
X112788Y-53605D01*
X112614Y-53431D01*
X112614Y-53103D01*
X112709Y-53008D01*
X112747Y-53008D01*
X112771Y-53018D01*
X112844Y-53018D01*
X112912Y-52990D01*
X112963Y-52938D01*
X112991Y-52871D01*
X112991Y-52798D01*
X112963Y-52730D01*
X112912Y-52678D01*
X112888Y-52668D01*
X112537Y-52318D01*
X112481Y-52280D01*
X112414Y-52267D01*
X108976Y-52267D01*
X108909Y-52280D01*
X108853Y-52318D01*
X108617Y-52554D01*
X108579Y-52610D01*
X108566Y-52677D01*
X108566Y-53353D01*
X108184Y-53735D01*
X108146Y-53791D01*
X108133Y-53858D01*
X108133Y-54416D01*
X107762Y-54786D01*
X107508Y-54786D01*
X107545Y-54749D01*
X107573Y-54682D01*
X107573Y-54609D01*
X107563Y-54585D01*
X107563Y-54091D01*
X108429Y-53225D01*
X108429Y-53225D01*
X108455Y-53187D01*
X108467Y-53168D01*
X108467Y-53168D01*
X108480Y-53102D01*
X108480Y-53102D01*
X108480Y-52237D01*
X108599Y-52118D01*
X108628Y-52118D01*
X108652Y-52128D01*
X108725Y-52128D01*
X108792Y-52100D01*
X108844Y-52049D01*
X108872Y-51981D01*
X108872Y-51908D01*
X108844Y-51840D01*
X108793Y-51789D01*
X108725Y-51761D01*
X108652Y-51761D01*
X108628Y-51771D01*
X108527Y-51771D01*
X108461Y-51784D01*
X108442Y-51796D01*
X108404Y-51822D01*
X108184Y-52042D01*
X108146Y-52098D01*
X108133Y-52165D01*
X108133Y-53030D01*
X107266Y-53896D01*
X107229Y-53953D01*
X107216Y-54019D01*
X107216Y-54584D01*
X107206Y-54608D01*
X107205Y-54682D01*
X107233Y-54749D01*
X107271Y-54786D01*
X106292Y-54786D01*
X106071Y-54565D01*
X106071Y-54489D01*
X106540Y-54489D01*
X106570Y-54476D01*
X106594Y-54453D01*
X106607Y-54422D01*
X106607Y-54388D01*
X106607Y-53136D01*
X106594Y-53106D01*
X106571Y-53082D01*
X106540Y-53069D01*
X106507Y-53069D01*
X105255Y-53069D01*
X105224Y-53082D01*
X105200Y-53106D01*
X105187Y-53136D01*
X105187Y-53170D01*
X105187Y-54422D01*
X105200Y-54452D01*
X105224Y-54476D01*
X105254Y-54489D01*
X105288Y-54489D01*
X105723Y-54489D01*
X105723Y-54637D01*
X105737Y-54704D01*
X105774Y-54760D01*
X106097Y-55083D01*
X106153Y-55121D01*
X106220Y-55134D01*
X107834Y-55134D01*
X107901Y-55121D01*
X107957Y-55083D01*
X108429Y-54611D01*
X108467Y-54554D01*
X108467Y-54554D01*
X108469Y-54543D01*
X108480Y-54488D01*
X108480Y-54488D01*
X108480Y-53930D01*
X108820Y-53590D01*
X108844Y-53581D01*
X108857Y-53567D01*
X108857Y-53633D01*
X108909Y-53684D01*
X109747Y-53684D01*
X109747Y-52846D01*
X109696Y-52795D01*
X109022Y-52794D01*
X108947Y-52826D01*
X108913Y-52859D01*
X108913Y-52749D01*
X109048Y-52614D01*
X112342Y-52614D01*
X112477Y-52749D01*
X112318Y-52908D01*
X112280Y-52965D01*
X112267Y-53031D01*
X112267Y-53503D01*
X112280Y-53570D01*
X112318Y-53626D01*
X112593Y-53902D01*
X112593Y-53902D01*
X112650Y-53940D01*
X112650Y-53940D01*
X112661Y-53942D01*
X112716Y-53953D01*
X113077Y-53953D01*
X113077Y-54422D01*
X113090Y-54452D01*
X113113Y-54476D01*
X113144Y-54489D01*
X113178Y-54489D01*
X114429Y-54489D01*
X114460Y-54476D01*
X114484Y-54453D01*
X114497Y-54422D01*
X114497Y-54388D01*
X114497Y-53315D01*
X115516Y-52296D01*
X115554Y-52239D01*
X115554Y-52239D01*
X115556Y-52228D01*
X115567Y-52173D01*
X115567Y-52173D01*
X115567Y-51556D01*
X116024Y-51098D01*
X116060Y-51098D01*
X116058Y-51099D01*
X115950Y-51207D01*
X115891Y-51348D01*
X115891Y-51501D01*
X115950Y-51642D01*
X116057Y-51750D01*
X116198Y-51808D01*
X116351Y-51809D01*
X116492Y-51750D01*
X116600Y-51642D01*
X116659Y-51501D01*
X116659Y-51349D01*
X116601Y-51208D01*
X116493Y-51100D01*
X116490Y-51098D01*
X116791Y-51098D01*
X116857Y-51085D01*
X116914Y-51048D01*
X117153Y-50808D01*
X117592Y-50808D01*
X117622Y-50796D01*
X117646Y-50772D01*
X117659Y-50741D01*
X117659Y-50708D01*
X117659Y-51175D01*
X117529Y-51305D01*
X117529Y-51037D01*
X117496Y-50959D01*
X117301Y-50910D01*
X117102Y-50940D01*
X117054Y-50959D01*
X117021Y-51037D01*
X117275Y-51290D01*
X117529Y-51037D01*
X117529Y-51305D01*
X117409Y-51425D01*
X117663Y-51678D01*
X117740Y-51645D01*
X117789Y-51450D01*
X117789Y-52180D01*
X117529Y-52180D01*
X117529Y-51813D01*
X117275Y-51559D01*
X117141Y-51693D01*
X117141Y-51425D01*
X116887Y-51171D01*
X116810Y-51204D01*
X116761Y-51399D01*
X116790Y-51598D01*
X116810Y-51645D01*
X116887Y-51678D01*
X117141Y-51425D01*
X117141Y-51693D01*
X117021Y-51813D01*
X117054Y-51890D01*
X117249Y-51939D01*
X117448Y-51910D01*
X117496Y-51890D01*
X117529Y-51813D01*
X117529Y-52180D01*
X116893Y-52180D01*
X116854Y-52187D01*
X116820Y-52210D01*
X116798Y-52243D01*
X116790Y-52283D01*
X116790Y-55341D01*
X116659Y-55341D01*
X116659Y-54349D01*
X116659Y-53349D01*
X116659Y-52349D01*
X116601Y-52208D01*
X116493Y-52100D01*
X116352Y-52041D01*
X116199Y-52041D01*
X116058Y-52099D01*
X115950Y-52207D01*
X115891Y-52348D01*
X115891Y-52501D01*
X115950Y-52642D01*
X116057Y-52750D01*
X116198Y-52808D01*
X116351Y-52809D01*
X116492Y-52750D01*
X116600Y-52642D01*
X116659Y-52501D01*
X116659Y-52349D01*
X116659Y-53349D01*
X116601Y-53208D01*
X116493Y-53100D01*
X116352Y-53041D01*
X116199Y-53041D01*
X116058Y-53099D01*
X115950Y-53207D01*
X115891Y-53348D01*
X115891Y-53501D01*
X115950Y-53642D01*
X116057Y-53750D01*
X116198Y-53808D01*
X116351Y-53809D01*
X116492Y-53750D01*
X116600Y-53642D01*
X116659Y-53501D01*
X116659Y-53349D01*
X116659Y-54349D01*
X116601Y-54208D01*
X116493Y-54100D01*
X116352Y-54041D01*
X116199Y-54041D01*
X116058Y-54099D01*
X115950Y-54207D01*
X115891Y-54348D01*
X115891Y-54501D01*
X115950Y-54642D01*
X116057Y-54750D01*
X116198Y-54808D01*
X116351Y-54809D01*
X116492Y-54750D01*
X116600Y-54642D01*
X116659Y-54501D01*
X116659Y-54349D01*
X116659Y-55341D01*
X110827Y-55341D01*
X110827Y-54518D01*
X110827Y-53040D01*
X110827Y-52959D01*
X110795Y-52883D01*
X110738Y-52826D01*
X110662Y-52794D01*
X109988Y-52795D01*
X109937Y-52846D01*
X109937Y-53684D01*
X110775Y-53684D01*
X110827Y-53633D01*
X110827Y-53040D01*
X110827Y-54518D01*
X110827Y-53925D01*
X110775Y-53874D01*
X109937Y-53874D01*
X109937Y-54712D01*
X109988Y-54764D01*
X110662Y-54764D01*
X110738Y-54732D01*
X110795Y-54675D01*
X110827Y-54600D01*
X110827Y-54518D01*
X110827Y-55341D01*
X109747Y-55341D01*
X109747Y-54712D01*
X109747Y-53874D01*
X108909Y-53874D01*
X108857Y-53925D01*
X108857Y-54518D01*
X108858Y-54600D01*
X108889Y-54675D01*
X108947Y-54732D01*
X109022Y-54764D01*
X109696Y-54764D01*
X109747Y-54712D01*
X109747Y-55341D01*
X104792Y-55341D01*
X104792Y-51697D01*
X107406Y-51697D01*
X107406Y-49630D01*
X117971Y-49630D01*
X117971Y-52180D01*
X117971Y-52180D01*
G37*
G54D17*
X117971Y-52180D02*
X117789Y-52180D01*
X117789Y-51450D01*
X117760Y-51252D01*
X117740Y-51204D01*
X117663Y-51171D01*
X117659Y-51175D01*
X117659Y-50708D01*
X117659Y-50108D01*
X117646Y-50077D01*
X117623Y-50054D01*
X117592Y-50041D01*
X117559Y-50041D01*
X116959Y-50041D01*
X116928Y-50054D01*
X116904Y-50077D01*
X116891Y-50108D01*
X116891Y-50141D01*
X116891Y-50578D01*
X116719Y-50751D01*
X116655Y-50751D01*
X116659Y-50741D01*
X116659Y-50708D01*
X116659Y-50108D01*
X116646Y-50077D01*
X116623Y-50054D01*
X116592Y-50041D01*
X116559Y-50041D01*
X115959Y-50041D01*
X115928Y-50054D01*
X115904Y-50077D01*
X115891Y-50108D01*
X115891Y-50141D01*
X115891Y-50741D01*
X115900Y-50761D01*
X115886Y-50764D01*
X115829Y-50802D01*
X115270Y-51361D01*
X115233Y-51417D01*
X115219Y-51484D01*
X115219Y-52101D01*
X114251Y-53069D01*
X113361Y-53069D01*
X113361Y-52325D01*
X113334Y-52258D01*
X113282Y-52206D01*
X113214Y-52178D01*
X113141Y-52178D01*
X113074Y-52206D01*
X113022Y-52257D01*
X112994Y-52325D01*
X112994Y-52398D01*
X113022Y-52465D01*
X113073Y-52517D01*
X113141Y-52545D01*
X113214Y-52545D01*
X113282Y-52517D01*
X113333Y-52466D01*
X113361Y-52398D01*
X113361Y-52325D01*
X113361Y-53069D01*
X113144Y-53069D01*
X113114Y-53082D01*
X113090Y-53106D01*
X113077Y-53136D01*
X113077Y-53170D01*
X113077Y-53605D01*
X112788Y-53605D01*
X112614Y-53431D01*
X112614Y-53103D01*
X112709Y-53008D01*
X112747Y-53008D01*
X112771Y-53018D01*
X112844Y-53018D01*
X112912Y-52990D01*
X112963Y-52938D01*
X112991Y-52871D01*
X112991Y-52798D01*
X112963Y-52730D01*
X112912Y-52678D01*
X112888Y-52668D01*
X112537Y-52318D01*
X112481Y-52280D01*
X112414Y-52267D01*
X108976Y-52267D01*
X108909Y-52280D01*
X108853Y-52318D01*
X108617Y-52554D01*
X108579Y-52610D01*
X108566Y-52677D01*
X108566Y-53353D01*
X108184Y-53735D01*
X108146Y-53791D01*
X108133Y-53858D01*
X108133Y-54416D01*
X107762Y-54786D01*
X107508Y-54786D01*
X107545Y-54749D01*
X107573Y-54682D01*
X107573Y-54609D01*
X107563Y-54585D01*
X107563Y-54091D01*
X108429Y-53225D01*
X108429Y-53225D01*
X108455Y-53187D01*
X108467Y-53168D01*
X108467Y-53168D01*
X108480Y-53102D01*
X108480Y-53102D01*
X108480Y-52237D01*
X108599Y-52118D01*
X108628Y-52118D01*
X108652Y-52128D01*
X108725Y-52128D01*
X108792Y-52100D01*
X108844Y-52049D01*
X108872Y-51981D01*
X108872Y-51908D01*
X108844Y-51840D01*
X108793Y-51789D01*
X108725Y-51761D01*
X108652Y-51761D01*
X108628Y-51771D01*
X108527Y-51771D01*
X108461Y-51784D01*
X108442Y-51796D01*
X108404Y-51822D01*
X108184Y-52042D01*
X108146Y-52098D01*
X108133Y-52165D01*
X108133Y-53030D01*
X107266Y-53896D01*
X107229Y-53953D01*
X107216Y-54019D01*
X107216Y-54584D01*
X107206Y-54608D01*
X107205Y-54682D01*
X107233Y-54749D01*
X107271Y-54786D01*
X106292Y-54786D01*
X106071Y-54565D01*
X106071Y-54489D01*
X106540Y-54489D01*
X106570Y-54476D01*
X106594Y-54453D01*
X106607Y-54422D01*
X106607Y-54388D01*
X106607Y-53136D01*
X106594Y-53106D01*
X106571Y-53082D01*
X106540Y-53069D01*
X106507Y-53069D01*
X105255Y-53069D01*
X105224Y-53082D01*
X105200Y-53106D01*
X105187Y-53136D01*
X105187Y-53170D01*
X105187Y-54422D01*
X105200Y-54452D01*
X105224Y-54476D01*
X105254Y-54489D01*
X105288Y-54489D01*
X105723Y-54489D01*
X105723Y-54637D01*
X105737Y-54704D01*
X105774Y-54760D01*
X106097Y-55083D01*
X106153Y-55121D01*
X106220Y-55134D01*
X107834Y-55134D01*
X107901Y-55121D01*
X107957Y-55083D01*
X108429Y-54611D01*
X108467Y-54554D01*
X108467Y-54554D01*
X108469Y-54543D01*
X108480Y-54488D01*
X108480Y-54488D01*
X108480Y-53930D01*
X108820Y-53590D01*
X108844Y-53581D01*
X108857Y-53567D01*
X108857Y-53633D01*
X108909Y-53684D01*
X109747Y-53684D01*
X109747Y-52846D01*
X109696Y-52795D01*
X109022Y-52794D01*
X108947Y-52826D01*
X108913Y-52859D01*
X108913Y-52749D01*
X109048Y-52614D01*
X112342Y-52614D01*
X112477Y-52749D01*
X112318Y-52908D01*
X112280Y-52965D01*
X112267Y-53031D01*
X112267Y-53503D01*
X112280Y-53570D01*
X112318Y-53626D01*
X112593Y-53902D01*
X112593Y-53902D01*
X112650Y-53940D01*
X112650Y-53940D01*
X112661Y-53942D01*
X112716Y-53953D01*
X113077Y-53953D01*
X113077Y-54422D01*
X113090Y-54452D01*
X113113Y-54476D01*
X113144Y-54489D01*
X113178Y-54489D01*
X114429Y-54489D01*
X114460Y-54476D01*
X114484Y-54453D01*
X114497Y-54422D01*
X114497Y-54388D01*
X114497Y-53315D01*
X115516Y-52296D01*
X115554Y-52239D01*
X115554Y-52239D01*
X115556Y-52228D01*
X115567Y-52173D01*
X115567Y-52173D01*
X115567Y-51556D01*
X116024Y-51098D01*
X116060Y-51098D01*
X116058Y-51099D01*
X115950Y-51207D01*
X115891Y-51348D01*
X115891Y-51501D01*
X115950Y-51642D01*
X116057Y-51750D01*
X116198Y-51808D01*
X116351Y-51809D01*
X116492Y-51750D01*
X116600Y-51642D01*
X116659Y-51501D01*
X116659Y-51349D01*
X116601Y-51208D01*
X116493Y-51100D01*
X116490Y-51098D01*
X116791Y-51098D01*
X116857Y-51085D01*
X116914Y-51048D01*
X117153Y-50808D01*
X117592Y-50808D01*
X117622Y-50796D01*
X117646Y-50772D01*
X117659Y-50741D01*
X117659Y-50708D01*
X117659Y-51175D01*
X117529Y-51305D01*
X117529Y-51037D01*
X117496Y-50959D01*
X117301Y-50910D01*
X117102Y-50940D01*
X117054Y-50959D01*
X117021Y-51037D01*
X117275Y-51290D01*
X117529Y-51037D01*
X117529Y-51305D01*
X117409Y-51425D01*
X117663Y-51678D01*
X117740Y-51645D01*
X117789Y-51450D01*
X117789Y-52180D01*
X117529Y-52180D01*
X117529Y-51813D01*
X117275Y-51559D01*
X117141Y-51693D01*
X117141Y-51425D01*
X116887Y-51171D01*
X116810Y-51204D01*
X116761Y-51399D01*
X116790Y-51598D01*
X116810Y-51645D01*
X116887Y-51678D01*
X117141Y-51425D01*
X117141Y-51693D01*
X117021Y-51813D01*
X117054Y-51890D01*
X117249Y-51939D01*
X117448Y-51910D01*
X117496Y-51890D01*
X117529Y-51813D01*
X117529Y-52180D01*
X116893Y-52180D01*
X116854Y-52187D01*
X116820Y-52210D01*
X116798Y-52243D01*
X116790Y-52283D01*
X116790Y-55341D01*
X116659Y-55341D01*
X116659Y-54349D01*
X116659Y-53349D01*
X116659Y-52349D01*
X116601Y-52208D01*
X116493Y-52100D01*
X116352Y-52041D01*
X116199Y-52041D01*
X116058Y-52099D01*
X115950Y-52207D01*
X115891Y-52348D01*
X115891Y-52501D01*
X115950Y-52642D01*
X116057Y-52750D01*
X116198Y-52808D01*
X116351Y-52809D01*
X116492Y-52750D01*
X116600Y-52642D01*
X116659Y-52501D01*
X116659Y-52349D01*
X116659Y-53349D01*
X116601Y-53208D01*
X116493Y-53100D01*
X116352Y-53041D01*
X116199Y-53041D01*
X116058Y-53099D01*
X115950Y-53207D01*
X115891Y-53348D01*
X115891Y-53501D01*
X115950Y-53642D01*
X116057Y-53750D01*
X116198Y-53808D01*
X116351Y-53809D01*
X116492Y-53750D01*
X116600Y-53642D01*
X116659Y-53501D01*
X116659Y-53349D01*
X116659Y-54349D01*
X116601Y-54208D01*
X116493Y-54100D01*
X116352Y-54041D01*
X116199Y-54041D01*
X116058Y-54099D01*
X115950Y-54207D01*
X115891Y-54348D01*
X115891Y-54501D01*
X115950Y-54642D01*
X116057Y-54750D01*
X116198Y-54808D01*
X116351Y-54809D01*
X116492Y-54750D01*
X116600Y-54642D01*
X116659Y-54501D01*
X116659Y-54349D01*
X116659Y-55341D01*
X110827Y-55341D01*
X110827Y-54518D01*
X110827Y-53040D01*
X110827Y-52959D01*
X110795Y-52883D01*
X110738Y-52826D01*
X110662Y-52794D01*
X109988Y-52795D01*
X109937Y-52846D01*
X109937Y-53684D01*
X110775Y-53684D01*
X110827Y-53633D01*
X110827Y-53040D01*
X110827Y-54518D01*
X110827Y-53925D01*
X110775Y-53874D01*
X109937Y-53874D01*
X109937Y-54712D01*
X109988Y-54764D01*
X110662Y-54764D01*
X110738Y-54732D01*
X110795Y-54675D01*
X110827Y-54600D01*
X110827Y-54518D01*
X110827Y-55341D01*
X109747Y-55341D01*
X109747Y-54712D01*
X109747Y-53874D01*
X108909Y-53874D01*
X108857Y-53925D01*
X108857Y-54518D01*
X108858Y-54600D01*
X108889Y-54675D01*
X108947Y-54732D01*
X109022Y-54764D01*
X109696Y-54764D01*
X109747Y-54712D01*
X109747Y-55341D01*
X104792Y-55341D01*
X104792Y-51697D01*
X107406Y-51697D01*
X107406Y-49630D01*
X117971Y-49630D01*
X117971Y-52180D01*
M02*
