G04 (created by PCBNEW (2013-07-07 BZR 4022)-stable) date 3/16/2015 2:43:42 PM*
%MOIN*%
G04 Gerber Fmt 3.4, Leading zero omitted, Abs format*
%FSLAX34Y34*%
G01*
G70*
G90*
G04 APERTURE LIST*
%ADD10C,0.00590551*%
%ADD11O,0.00787402X0.023622*%
%ADD12O,0.023622X0.00787402*%
%ADD13R,0.0354331X0.0314961*%
%ADD14R,0.0157X0.0236*%
%ADD15R,0.0236X0.0157*%
%ADD16R,0.025X0.045*%
%ADD17R,0.0314961X0.0629921*%
%ADD18R,0.06X0.06*%
%ADD19C,0.06*%
%ADD20O,0.0314961X0.00787402*%
%ADD21O,0.00787402X0.0314961*%
%ADD22R,0.045X0.025*%
%ADD23R,0.0216535X0.00787402*%
%ADD24R,0.0275X0.0315*%
%ADD25C,0.02*%
%ADD26C,0.006*%
%ADD27C,0.018*%
%ADD28C,0.002*%
%ADD29C,0.0181102*%
%ADD30C,0.001*%
G04 APERTURE END LIST*
G54D10*
G54D11*
X109527Y-51614D03*
X109685Y-51614D03*
X109370Y-51614D03*
X109842Y-51614D03*
X110000Y-51614D03*
X109212Y-51614D03*
X109055Y-51614D03*
X108897Y-51614D03*
X110157Y-51614D03*
X110314Y-51614D03*
X108582Y-51614D03*
X108740Y-51614D03*
X108582Y-53897D03*
X110157Y-53897D03*
X110000Y-53897D03*
X109842Y-53897D03*
X108740Y-53897D03*
X108897Y-53897D03*
X109055Y-53897D03*
X109685Y-53897D03*
X110314Y-53897D03*
X109212Y-53897D03*
X109527Y-53897D03*
X109370Y-53897D03*
G54D12*
X110590Y-52047D03*
X110590Y-51889D03*
X110590Y-53622D03*
X110590Y-53464D03*
X110590Y-52204D03*
X110590Y-52362D03*
X110590Y-52519D03*
X110590Y-53307D03*
X110590Y-53149D03*
X110590Y-52677D03*
X110590Y-52992D03*
X110590Y-52834D03*
X108307Y-52519D03*
X108307Y-52677D03*
X108307Y-52362D03*
X108307Y-52834D03*
X108307Y-52992D03*
X108307Y-52204D03*
X108307Y-52047D03*
X108307Y-51889D03*
X108307Y-53149D03*
X108307Y-53307D03*
X108307Y-53464D03*
X108307Y-53622D03*
G54D13*
X106614Y-52578D03*
X107165Y-52578D03*
X106614Y-53011D03*
X107165Y-53011D03*
G54D14*
X113444Y-53937D03*
X113090Y-53937D03*
X114303Y-51452D03*
X113949Y-51452D03*
X113197Y-51444D03*
X112843Y-51444D03*
G54D15*
X111968Y-53208D03*
X111968Y-53562D03*
G54D14*
X112540Y-53948D03*
X112186Y-53948D03*
X114536Y-53578D03*
X114182Y-53578D03*
G54D15*
X114404Y-51895D03*
X114404Y-52249D03*
X107874Y-51594D03*
X107874Y-51240D03*
X107913Y-52382D03*
X107913Y-52736D03*
X106220Y-52657D03*
X106220Y-53011D03*
X107559Y-52972D03*
X107559Y-52618D03*
G54D14*
X110137Y-51023D03*
X110491Y-51023D03*
X110295Y-54291D03*
X110649Y-54291D03*
G54D15*
X107940Y-53976D03*
X107940Y-54330D03*
X109803Y-51043D03*
X109803Y-50689D03*
G54D16*
X114592Y-50980D03*
X113992Y-50980D03*
G54D14*
X113193Y-51066D03*
X112839Y-51066D03*
X114941Y-53070D03*
X114587Y-53070D03*
X114591Y-52645D03*
X114945Y-52645D03*
X115216Y-54055D03*
X114862Y-54055D03*
G54D17*
X106592Y-50264D03*
X105253Y-50264D03*
G54D14*
X107421Y-50275D03*
X107067Y-50275D03*
G54D15*
X107874Y-50256D03*
X107874Y-50610D03*
G54D14*
X108680Y-50275D03*
X108326Y-50275D03*
G54D18*
X116275Y-50425D03*
G54D19*
X116275Y-51425D03*
X116275Y-52425D03*
X116275Y-53425D03*
X116275Y-54425D03*
G54D18*
X117275Y-50425D03*
G54D19*
X117275Y-51425D03*
G54D20*
X112376Y-52308D03*
X112376Y-52466D03*
X112376Y-53253D03*
X112376Y-53096D03*
X112376Y-52938D03*
X112376Y-52623D03*
X112376Y-52781D03*
G54D21*
X113715Y-51915D03*
X113558Y-51915D03*
X113400Y-51915D03*
X112613Y-51915D03*
X112770Y-51915D03*
X112928Y-51915D03*
X113085Y-51915D03*
X113243Y-51915D03*
X113243Y-53489D03*
X113085Y-53489D03*
X112928Y-53489D03*
X112770Y-53489D03*
X112613Y-53489D03*
X113400Y-53489D03*
X113558Y-53489D03*
X113715Y-53489D03*
G54D20*
X113951Y-52781D03*
X113951Y-52623D03*
X113951Y-52938D03*
X113951Y-53096D03*
X113951Y-53253D03*
X113951Y-52466D03*
X113951Y-52308D03*
X113951Y-52151D03*
G54D22*
X108700Y-54349D03*
X108700Y-54949D03*
G54D14*
X108216Y-54948D03*
X107862Y-54948D03*
G54D23*
X109124Y-51062D03*
X109458Y-51062D03*
X109458Y-50885D03*
X109458Y-51240D03*
X109124Y-50885D03*
X109124Y-51240D03*
G54D14*
X113444Y-54330D03*
X113090Y-54330D03*
G54D24*
X113582Y-51357D03*
X113582Y-50925D03*
G54D22*
X107393Y-54937D03*
X107393Y-54337D03*
X111417Y-53322D03*
X111417Y-53922D03*
G54D25*
X109842Y-52795D03*
X112975Y-53088D03*
X113347Y-52610D03*
X108688Y-51944D03*
X107389Y-54645D03*
X112808Y-52834D03*
X108740Y-53425D03*
X113178Y-52362D03*
G54D26*
X109370Y-51614D02*
X109370Y-51328D01*
X109370Y-51328D02*
X109458Y-51240D01*
X109212Y-51614D02*
X109212Y-51328D01*
X109212Y-51328D02*
X109124Y-51240D01*
X108740Y-53897D02*
X108740Y-54310D01*
X108740Y-54310D02*
X108700Y-54349D01*
X108307Y-52204D02*
X107952Y-52204D01*
X107913Y-52244D02*
X107913Y-52382D01*
X107952Y-52204D02*
X107913Y-52244D01*
X109685Y-51614D02*
X109685Y-51496D01*
X110137Y-51043D02*
X110137Y-51023D01*
X109685Y-51496D02*
X110137Y-51043D01*
X114945Y-52645D02*
X115543Y-52645D01*
X115763Y-52425D02*
X116275Y-52425D01*
X115543Y-52645D02*
X115763Y-52425D01*
X114941Y-53070D02*
X114941Y-53642D01*
X115133Y-54425D02*
X116275Y-54425D01*
X115039Y-54330D02*
X115133Y-54425D01*
X115039Y-53740D02*
X115039Y-54330D01*
X114941Y-53642D02*
X115039Y-53740D01*
X113951Y-52938D02*
X114455Y-52938D01*
X114455Y-52938D02*
X114587Y-53070D01*
X113951Y-52781D02*
X114455Y-52781D01*
X114455Y-52781D02*
X114591Y-52645D01*
X109124Y-50885D02*
X109124Y-50840D01*
G54D27*
X108937Y-50275D02*
X109124Y-50462D01*
X108937Y-50275D02*
X108680Y-50275D01*
X109124Y-50462D02*
X109124Y-50840D01*
G54D26*
X115216Y-54055D02*
X115645Y-54055D01*
X115645Y-54055D02*
X116275Y-53425D01*
X113090Y-53937D02*
X113090Y-54330D01*
X113085Y-53489D02*
X113085Y-53859D01*
X113085Y-53859D02*
X113103Y-53877D01*
X113444Y-53937D02*
X113858Y-53937D01*
X113976Y-54055D02*
X114862Y-54055D01*
X113858Y-53937D02*
X113976Y-54055D01*
X113444Y-53937D02*
X113444Y-54330D01*
X113400Y-53489D02*
X113400Y-53820D01*
X113400Y-53820D02*
X113457Y-53877D01*
X110590Y-52834D02*
X111850Y-52834D01*
X111850Y-52834D02*
X111903Y-52781D01*
X111903Y-52781D02*
X112376Y-52781D01*
X110590Y-52519D02*
X111732Y-52519D01*
X111732Y-52519D02*
X111785Y-52466D01*
X111785Y-52466D02*
X112376Y-52466D01*
X110590Y-52677D02*
X111771Y-52677D01*
X111771Y-52677D02*
X111825Y-52623D01*
X111825Y-52623D02*
X112376Y-52623D01*
X110590Y-52362D02*
X111692Y-52362D01*
X111692Y-52362D02*
X111746Y-52308D01*
X111746Y-52308D02*
X112376Y-52308D01*
X110590Y-51889D02*
X110787Y-51889D01*
X115771Y-49921D02*
X116275Y-50425D01*
X112755Y-49921D02*
X115771Y-49921D01*
X110787Y-51889D02*
X112755Y-49921D01*
X116275Y-51425D02*
X116267Y-51425D01*
X110866Y-52047D02*
X110590Y-52047D01*
X112834Y-50078D02*
X110866Y-52047D01*
X115472Y-50078D02*
X112834Y-50078D01*
X115629Y-50236D02*
X115472Y-50078D01*
X115629Y-50787D02*
X115629Y-50236D01*
X116267Y-51425D02*
X115629Y-50787D01*
X113400Y-51915D02*
X113400Y-51647D01*
X113400Y-51647D02*
X113571Y-51476D01*
X112928Y-53489D02*
X112928Y-53706D01*
X112686Y-53948D02*
X112540Y-53948D01*
X112928Y-53706D02*
X112686Y-53948D01*
X109803Y-51043D02*
X109803Y-51181D01*
X109527Y-51456D02*
X109527Y-51614D01*
X109803Y-51181D02*
X109527Y-51456D01*
X109458Y-51062D02*
X109783Y-51062D01*
X109783Y-51062D02*
X109803Y-51043D01*
X114303Y-51452D02*
X114497Y-51452D01*
X114592Y-51357D02*
X114592Y-50980D01*
X114497Y-51452D02*
X114592Y-51357D01*
X113715Y-51915D02*
X113798Y-51915D01*
X114303Y-51625D02*
X114303Y-51452D01*
X114225Y-51704D02*
X114303Y-51625D01*
X114008Y-51704D02*
X114225Y-51704D01*
X113798Y-51915D02*
X114008Y-51704D01*
X108307Y-51889D02*
X107874Y-51889D01*
X106712Y-53011D02*
X106614Y-53011D01*
X106889Y-52834D02*
X106712Y-53011D01*
X106889Y-52362D02*
X106889Y-52834D01*
X106968Y-52283D02*
X106889Y-52362D01*
X107244Y-52283D02*
X106968Y-52283D01*
X107480Y-52047D02*
X107244Y-52283D01*
X107716Y-52047D02*
X107480Y-52047D01*
X107874Y-51889D02*
X107716Y-52047D01*
X106220Y-53011D02*
X106614Y-53011D01*
X106614Y-53011D02*
X106614Y-53011D01*
X108307Y-52047D02*
X107913Y-52047D01*
X107539Y-52204D02*
X107165Y-52578D01*
X107755Y-52204D02*
X107539Y-52204D01*
X107913Y-52047D02*
X107755Y-52204D01*
X107559Y-52618D02*
X107204Y-52618D01*
X107204Y-52618D02*
X107165Y-52578D01*
X110590Y-52992D02*
X111929Y-52992D01*
X111929Y-52992D02*
X111982Y-52938D01*
X111982Y-52938D02*
X112376Y-52938D01*
X112770Y-51915D02*
X112770Y-52071D01*
X111614Y-52204D02*
X110590Y-52204D01*
X111653Y-52165D02*
X111614Y-52204D01*
X112677Y-52165D02*
X111653Y-52165D01*
X112770Y-52071D02*
X112677Y-52165D01*
X109055Y-51614D02*
X109055Y-51850D01*
G54D27*
X109409Y-52795D02*
X109842Y-52795D01*
X109055Y-52440D02*
X109409Y-52795D01*
X109055Y-51850D02*
X109055Y-52440D01*
G54D26*
X111417Y-53922D02*
X111609Y-53922D01*
X111609Y-53922D02*
X111968Y-53562D01*
X106220Y-52657D02*
X106535Y-52657D01*
X106535Y-52657D02*
X106614Y-52578D01*
X107559Y-52972D02*
X107204Y-52972D01*
X107204Y-52972D02*
X107165Y-53011D01*
X107940Y-54330D02*
X107400Y-54330D01*
X107400Y-54330D02*
X107393Y-54337D01*
X109124Y-51062D02*
X108937Y-51062D01*
X108897Y-51102D02*
X108897Y-51614D01*
X108937Y-51062D02*
X108897Y-51102D01*
X108897Y-51614D02*
X109055Y-51614D01*
X110590Y-53622D02*
X110590Y-54232D01*
X110590Y-54232D02*
X110649Y-54291D01*
X109803Y-50689D02*
X109547Y-50689D01*
X109458Y-50777D02*
X109458Y-50885D01*
X109547Y-50689D02*
X109458Y-50777D01*
X112376Y-53253D02*
X112514Y-53253D01*
X112532Y-53236D02*
X112827Y-53236D01*
X112514Y-53253D02*
X112532Y-53236D01*
X112975Y-53088D02*
X112827Y-53236D01*
X112186Y-53948D02*
X112186Y-53751D01*
X112268Y-53668D02*
X112268Y-53503D01*
X112186Y-53751D02*
X112268Y-53668D01*
X112376Y-53395D02*
X112376Y-53253D01*
X112268Y-53503D02*
X112376Y-53395D01*
X113558Y-51915D02*
X113558Y-52399D01*
X113085Y-52131D02*
X112977Y-52239D01*
X112977Y-52239D02*
X112977Y-52472D01*
X112977Y-52472D02*
X113115Y-52610D01*
X113115Y-52610D02*
X113347Y-52610D01*
X113085Y-52131D02*
X113085Y-51915D01*
X113558Y-52399D02*
X113347Y-52610D01*
X112843Y-51444D02*
X112689Y-51444D01*
X112613Y-51521D02*
X112613Y-51915D01*
X112689Y-51444D02*
X112613Y-51521D01*
X112839Y-51066D02*
X112839Y-51440D01*
G54D28*
X112839Y-51440D02*
X112843Y-51444D01*
G54D26*
X113085Y-51915D02*
X113085Y-51726D01*
X113085Y-51726D02*
X112843Y-51484D01*
G54D28*
X112843Y-51484D02*
X112843Y-51444D01*
G54D26*
X113558Y-51915D02*
X113558Y-51690D01*
X113949Y-51586D02*
X113949Y-51452D01*
X113878Y-51657D02*
X113949Y-51586D01*
X113591Y-51657D02*
X113878Y-51657D01*
X113558Y-51690D02*
X113591Y-51657D01*
X113951Y-53253D02*
X113951Y-53517D01*
X114012Y-53578D02*
X114182Y-53578D01*
X113951Y-53517D02*
X114012Y-53578D01*
X114404Y-51895D02*
X114109Y-51895D01*
X113951Y-52052D02*
X113951Y-52151D01*
X114109Y-51895D02*
X113951Y-52052D01*
X113951Y-52308D02*
X114345Y-52308D01*
G54D28*
X114345Y-52308D02*
X114404Y-52249D01*
G54D26*
X113951Y-53096D02*
X114187Y-53096D01*
X114536Y-53444D02*
X114536Y-53578D01*
X114187Y-53096D02*
X114536Y-53444D01*
G54D29*
X107874Y-50275D02*
X107421Y-50275D01*
X107421Y-50275D02*
X107421Y-50275D01*
X108326Y-50275D02*
X107874Y-50275D01*
X107874Y-50275D02*
X107874Y-50275D01*
G54D26*
X108700Y-54949D02*
X108217Y-54949D01*
X108217Y-54949D02*
X108216Y-54948D01*
G54D29*
X107067Y-50275D02*
X106603Y-50275D01*
X106603Y-50275D02*
X106592Y-50264D01*
G54D26*
X108740Y-51893D02*
X108688Y-51944D01*
X108740Y-51614D02*
X108740Y-51893D01*
X107393Y-54649D02*
X107389Y-54645D01*
X107393Y-54649D02*
X107393Y-54937D01*
X107862Y-54948D02*
X107404Y-54948D01*
X107404Y-54948D02*
X107393Y-54937D01*
X108582Y-51614D02*
X107893Y-51614D01*
X107893Y-51614D02*
X107874Y-51594D01*
X108740Y-51614D02*
X108582Y-51614D01*
X110314Y-53897D02*
X110314Y-53582D01*
X110157Y-53425D02*
X108740Y-53425D01*
X110314Y-53582D02*
X110157Y-53425D01*
X108582Y-53582D02*
X108740Y-53425D01*
X108582Y-53582D02*
X108582Y-53897D01*
X111968Y-53208D02*
X111530Y-53208D01*
X111530Y-53208D02*
X111417Y-53322D01*
X112376Y-53096D02*
X112081Y-53096D01*
X112081Y-53096D02*
X111968Y-53208D01*
X108582Y-53897D02*
X108019Y-53897D01*
X108019Y-53897D02*
X107940Y-53976D01*
X110314Y-53897D02*
X110314Y-54271D01*
X110314Y-54271D02*
X110295Y-54291D01*
X112928Y-51915D02*
X112928Y-52096D01*
X112851Y-52791D02*
X112808Y-52834D01*
X112851Y-52173D02*
X112851Y-52791D01*
X112928Y-52096D02*
X112851Y-52173D01*
X112770Y-52797D02*
X112808Y-52834D01*
X112808Y-52834D02*
X112804Y-52834D01*
X112376Y-53096D02*
X112636Y-53096D01*
X112636Y-53096D02*
X112705Y-53027D01*
X112705Y-53027D02*
X112705Y-52932D01*
X112705Y-52932D02*
X112804Y-52834D01*
X112804Y-52834D02*
X113558Y-52834D01*
X113243Y-51915D02*
X113243Y-52297D01*
X113243Y-52297D02*
X113178Y-52362D01*
X113662Y-52466D02*
X113662Y-52623D01*
X113193Y-51066D02*
X113193Y-51440D01*
G54D28*
X113193Y-51440D02*
X113197Y-51444D01*
G54D26*
X113243Y-51915D02*
X113243Y-51706D01*
X113197Y-51661D02*
X113197Y-51444D01*
X113243Y-51706D02*
X113197Y-51661D01*
X113558Y-53489D02*
X113558Y-53115D01*
X113558Y-53115D02*
X113558Y-52834D01*
X113558Y-52834D02*
X113558Y-52718D01*
X113558Y-52718D02*
X113652Y-52623D01*
G54D28*
X113652Y-52623D02*
X113662Y-52623D01*
G54D26*
X113662Y-52623D02*
X113951Y-52623D01*
X113951Y-52466D02*
X113662Y-52466D01*
X113951Y-52623D02*
X113951Y-52466D01*
X113715Y-53489D02*
X113558Y-53489D01*
G54D10*
G36*
X113120Y-51993D02*
X113105Y-51993D01*
X113105Y-52018D01*
X113065Y-52018D01*
X113065Y-51993D01*
X113051Y-51993D01*
X113051Y-51836D01*
X113065Y-51836D01*
X113065Y-51812D01*
X113105Y-51812D01*
X113105Y-51836D01*
X113120Y-51836D01*
X113120Y-51993D01*
X113120Y-51993D01*
G37*
G54D30*
X113120Y-51993D02*
X113105Y-51993D01*
X113105Y-52018D01*
X113065Y-52018D01*
X113065Y-51993D01*
X113051Y-51993D01*
X113051Y-51836D01*
X113065Y-51836D01*
X113065Y-51812D01*
X113105Y-51812D01*
X113105Y-51836D01*
X113120Y-51836D01*
X113120Y-51993D01*
G54D10*
G36*
X113444Y-53252D02*
X113400Y-53244D01*
X113353Y-53253D01*
X113321Y-53274D01*
X113290Y-53253D01*
X113243Y-53244D01*
X113195Y-53253D01*
X113164Y-53274D01*
X113132Y-53253D01*
X113085Y-53244D01*
X113038Y-53253D01*
X113006Y-53274D01*
X112975Y-53253D01*
X112928Y-53244D01*
X112881Y-53253D01*
X112849Y-53274D01*
X112817Y-53253D01*
X112770Y-53244D01*
X112739Y-53250D01*
X112739Y-53158D01*
X112735Y-53158D01*
X112786Y-53107D01*
X112810Y-53070D01*
X112810Y-53070D01*
X112819Y-53027D01*
X112819Y-53018D01*
X112844Y-53018D01*
X112912Y-52990D01*
X112954Y-52948D01*
X113444Y-52948D01*
X113444Y-53115D01*
X113444Y-53252D01*
X113444Y-53252D01*
G37*
G54D30*
X113444Y-53252D02*
X113400Y-53244D01*
X113353Y-53253D01*
X113321Y-53274D01*
X113290Y-53253D01*
X113243Y-53244D01*
X113195Y-53253D01*
X113164Y-53274D01*
X113132Y-53253D01*
X113085Y-53244D01*
X113038Y-53253D01*
X113006Y-53274D01*
X112975Y-53253D01*
X112928Y-53244D01*
X112881Y-53253D01*
X112849Y-53274D01*
X112817Y-53253D01*
X112770Y-53244D01*
X112739Y-53250D01*
X112739Y-53158D01*
X112735Y-53158D01*
X112786Y-53107D01*
X112810Y-53070D01*
X112810Y-53070D01*
X112819Y-53027D01*
X112819Y-53018D01*
X112844Y-53018D01*
X112912Y-52990D01*
X112954Y-52948D01*
X113444Y-52948D01*
X113444Y-53115D01*
X113444Y-53252D01*
G54D10*
G36*
X113736Y-52230D02*
X113715Y-52261D01*
X113705Y-52308D01*
X113714Y-52352D01*
X113662Y-52352D01*
X113618Y-52361D01*
X113581Y-52385D01*
X113557Y-52422D01*
X113548Y-52466D01*
X113548Y-52566D01*
X113477Y-52637D01*
X113452Y-52674D01*
X113444Y-52718D01*
X113444Y-52720D01*
X112965Y-52720D01*
X112965Y-52251D01*
X112988Y-52267D01*
X112990Y-52267D01*
X112990Y-52277D01*
X113014Y-52277D01*
X112994Y-52325D01*
X112994Y-52398D01*
X113022Y-52465D01*
X113073Y-52517D01*
X113141Y-52545D01*
X113214Y-52545D01*
X113282Y-52517D01*
X113333Y-52466D01*
X113361Y-52398D01*
X113361Y-52325D01*
X113354Y-52308D01*
X113356Y-52297D01*
X113356Y-52179D01*
X113378Y-52212D01*
X113461Y-52267D01*
X113500Y-52270D01*
X113538Y-52225D01*
X113538Y-51993D01*
X113523Y-51993D01*
X113523Y-51836D01*
X113538Y-51836D01*
X113538Y-51812D01*
X113577Y-51812D01*
X113577Y-51836D01*
X113592Y-51836D01*
X113592Y-51993D01*
X113577Y-51993D01*
X113577Y-52225D01*
X113615Y-52270D01*
X113654Y-52267D01*
X113728Y-52218D01*
X113736Y-52230D01*
X113736Y-52230D01*
G37*
G54D30*
X113736Y-52230D02*
X113715Y-52261D01*
X113705Y-52308D01*
X113714Y-52352D01*
X113662Y-52352D01*
X113618Y-52361D01*
X113581Y-52385D01*
X113557Y-52422D01*
X113548Y-52466D01*
X113548Y-52566D01*
X113477Y-52637D01*
X113452Y-52674D01*
X113444Y-52718D01*
X113444Y-52720D01*
X112965Y-52720D01*
X112965Y-52251D01*
X112988Y-52267D01*
X112990Y-52267D01*
X112990Y-52277D01*
X113014Y-52277D01*
X112994Y-52325D01*
X112994Y-52398D01*
X113022Y-52465D01*
X113073Y-52517D01*
X113141Y-52545D01*
X113214Y-52545D01*
X113282Y-52517D01*
X113333Y-52466D01*
X113361Y-52398D01*
X113361Y-52325D01*
X113354Y-52308D01*
X113356Y-52297D01*
X113356Y-52179D01*
X113378Y-52212D01*
X113461Y-52267D01*
X113500Y-52270D01*
X113538Y-52225D01*
X113538Y-51993D01*
X113523Y-51993D01*
X113523Y-51836D01*
X113538Y-51836D01*
X113538Y-51812D01*
X113577Y-51812D01*
X113577Y-51836D01*
X113592Y-51836D01*
X113592Y-51993D01*
X113577Y-51993D01*
X113577Y-52225D01*
X113615Y-52270D01*
X113654Y-52267D01*
X113728Y-52218D01*
X113736Y-52230D01*
G54D10*
G36*
X117971Y-52180D02*
X117789Y-52180D01*
X117789Y-51450D01*
X117760Y-51252D01*
X117740Y-51204D01*
X117663Y-51171D01*
X117659Y-51175D01*
X117659Y-50708D01*
X117659Y-50108D01*
X117646Y-50077D01*
X117623Y-50054D01*
X117592Y-50041D01*
X117559Y-50041D01*
X116959Y-50041D01*
X116928Y-50054D01*
X116904Y-50077D01*
X116891Y-50108D01*
X116891Y-50141D01*
X116891Y-50741D01*
X116904Y-50772D01*
X116928Y-50796D01*
X116958Y-50808D01*
X116992Y-50808D01*
X117592Y-50808D01*
X117622Y-50796D01*
X117646Y-50772D01*
X117659Y-50741D01*
X117659Y-50708D01*
X117659Y-51175D01*
X117529Y-51305D01*
X117529Y-51037D01*
X117496Y-50959D01*
X117301Y-50910D01*
X117102Y-50940D01*
X117054Y-50959D01*
X117021Y-51037D01*
X117275Y-51290D01*
X117529Y-51037D01*
X117529Y-51305D01*
X117409Y-51425D01*
X117663Y-51678D01*
X117740Y-51645D01*
X117789Y-51450D01*
X117789Y-52180D01*
X117529Y-52180D01*
X117529Y-51813D01*
X117275Y-51559D01*
X117141Y-51693D01*
X117141Y-51425D01*
X116887Y-51171D01*
X116810Y-51204D01*
X116761Y-51399D01*
X116790Y-51598D01*
X116810Y-51645D01*
X116887Y-51678D01*
X117141Y-51425D01*
X117141Y-51693D01*
X117021Y-51813D01*
X117054Y-51890D01*
X117249Y-51939D01*
X117448Y-51910D01*
X117496Y-51890D01*
X117529Y-51813D01*
X117529Y-52180D01*
X116893Y-52180D01*
X116854Y-52187D01*
X116820Y-52210D01*
X116798Y-52243D01*
X116790Y-52283D01*
X116790Y-55341D01*
X116659Y-55341D01*
X116659Y-54349D01*
X116601Y-54208D01*
X116493Y-54100D01*
X116352Y-54041D01*
X116199Y-54041D01*
X116058Y-54099D01*
X115950Y-54207D01*
X115907Y-54311D01*
X115180Y-54311D01*
X115153Y-54283D01*
X115153Y-54256D01*
X115154Y-54256D01*
X115311Y-54256D01*
X115342Y-54244D01*
X115365Y-54220D01*
X115378Y-54189D01*
X115378Y-54168D01*
X115645Y-54168D01*
X115689Y-54160D01*
X115689Y-54160D01*
X115726Y-54135D01*
X116095Y-53765D01*
X116198Y-53808D01*
X116351Y-53809D01*
X116492Y-53750D01*
X116600Y-53642D01*
X116659Y-53501D01*
X116659Y-53349D01*
X116659Y-52349D01*
X116601Y-52208D01*
X116493Y-52100D01*
X116352Y-52041D01*
X116199Y-52041D01*
X116058Y-52099D01*
X115950Y-52207D01*
X115907Y-52311D01*
X115763Y-52311D01*
X115720Y-52320D01*
X115683Y-52344D01*
X115496Y-52531D01*
X115107Y-52531D01*
X115107Y-52510D01*
X115095Y-52480D01*
X115071Y-52456D01*
X115040Y-52443D01*
X115007Y-52443D01*
X114850Y-52443D01*
X114819Y-52456D01*
X114796Y-52479D01*
X114783Y-52510D01*
X114783Y-52544D01*
X114783Y-52780D01*
X114796Y-52810D01*
X114819Y-52834D01*
X114850Y-52847D01*
X114883Y-52847D01*
X115040Y-52847D01*
X115071Y-52834D01*
X115095Y-52810D01*
X115107Y-52780D01*
X115107Y-52759D01*
X115543Y-52759D01*
X115587Y-52750D01*
X115587Y-52750D01*
X115623Y-52725D01*
X115810Y-52538D01*
X115907Y-52538D01*
X115950Y-52642D01*
X116057Y-52750D01*
X116198Y-52808D01*
X116351Y-52809D01*
X116492Y-52750D01*
X116600Y-52642D01*
X116659Y-52501D01*
X116659Y-52349D01*
X116659Y-53349D01*
X116601Y-53208D01*
X116493Y-53100D01*
X116352Y-53041D01*
X116199Y-53041D01*
X116058Y-53099D01*
X115950Y-53207D01*
X115891Y-53348D01*
X115891Y-53501D01*
X115934Y-53605D01*
X115598Y-53941D01*
X115378Y-53941D01*
X115378Y-53920D01*
X115365Y-53889D01*
X115342Y-53866D01*
X115311Y-53853D01*
X115278Y-53853D01*
X115153Y-53853D01*
X115153Y-53740D01*
X115153Y-53740D01*
X115144Y-53696D01*
X115144Y-53696D01*
X115136Y-53684D01*
X115119Y-53659D01*
X115119Y-53659D01*
X115055Y-53595D01*
X115055Y-53264D01*
X115067Y-53259D01*
X115091Y-53236D01*
X115103Y-53205D01*
X115104Y-53172D01*
X115104Y-52936D01*
X115091Y-52905D01*
X115067Y-52881D01*
X115036Y-52868D01*
X115003Y-52868D01*
X114846Y-52868D01*
X114815Y-52881D01*
X114792Y-52905D01*
X114779Y-52935D01*
X114779Y-52969D01*
X114779Y-53205D01*
X114792Y-53236D01*
X114815Y-53259D01*
X114828Y-53264D01*
X114828Y-53642D01*
X114836Y-53686D01*
X114861Y-53722D01*
X114925Y-53787D01*
X114925Y-53853D01*
X114924Y-53853D01*
X114767Y-53853D01*
X114736Y-53866D01*
X114712Y-53889D01*
X114700Y-53920D01*
X114700Y-53941D01*
X114023Y-53941D01*
X113938Y-53856D01*
X113901Y-53831D01*
X113858Y-53823D01*
X113606Y-53823D01*
X113606Y-53802D01*
X113594Y-53771D01*
X113570Y-53748D01*
X113539Y-53735D01*
X113514Y-53735D01*
X113514Y-53727D01*
X113558Y-53735D01*
X113605Y-53726D01*
X113636Y-53705D01*
X113668Y-53726D01*
X113715Y-53735D01*
X113762Y-53726D01*
X113802Y-53699D01*
X113829Y-53659D01*
X113838Y-53612D01*
X113838Y-53520D01*
X113846Y-53561D01*
X113871Y-53597D01*
X113932Y-53658D01*
X113969Y-53683D01*
X113969Y-53683D01*
X114012Y-53692D01*
X114019Y-53692D01*
X114019Y-53713D01*
X114032Y-53743D01*
X114056Y-53767D01*
X114087Y-53780D01*
X114120Y-53780D01*
X114277Y-53780D01*
X114308Y-53767D01*
X114331Y-53744D01*
X114344Y-53713D01*
X114344Y-53679D01*
X114344Y-53443D01*
X114331Y-53413D01*
X114308Y-53389D01*
X114277Y-53376D01*
X114244Y-53376D01*
X114087Y-53376D01*
X114065Y-53385D01*
X114065Y-53376D01*
X114074Y-53376D01*
X114121Y-53367D01*
X114161Y-53340D01*
X114188Y-53300D01*
X114195Y-53264D01*
X114374Y-53443D01*
X114374Y-53443D01*
X114373Y-53477D01*
X114373Y-53713D01*
X114386Y-53743D01*
X114410Y-53767D01*
X114441Y-53780D01*
X114474Y-53780D01*
X114631Y-53780D01*
X114662Y-53767D01*
X114685Y-53744D01*
X114698Y-53713D01*
X114698Y-53679D01*
X114698Y-53443D01*
X114685Y-53413D01*
X114662Y-53389D01*
X114631Y-53376D01*
X114625Y-53376D01*
X114616Y-53364D01*
X114525Y-53272D01*
X114525Y-53272D01*
X114682Y-53272D01*
X114713Y-53259D01*
X114737Y-53236D01*
X114749Y-53205D01*
X114750Y-53172D01*
X114750Y-52936D01*
X114737Y-52905D01*
X114713Y-52881D01*
X114682Y-52868D01*
X114649Y-52868D01*
X114546Y-52868D01*
X114537Y-52860D01*
X114550Y-52847D01*
X114686Y-52847D01*
X114717Y-52834D01*
X114741Y-52810D01*
X114753Y-52780D01*
X114753Y-52746D01*
X114753Y-52510D01*
X114741Y-52480D01*
X114717Y-52456D01*
X114686Y-52443D01*
X114653Y-52443D01*
X114496Y-52443D01*
X114465Y-52456D01*
X114442Y-52479D01*
X114429Y-52510D01*
X114429Y-52544D01*
X114429Y-52646D01*
X114408Y-52667D01*
X114189Y-52667D01*
X114197Y-52623D01*
X114188Y-52576D01*
X114167Y-52545D01*
X114188Y-52513D01*
X114197Y-52466D01*
X114189Y-52422D01*
X114345Y-52422D01*
X114388Y-52413D01*
X114391Y-52411D01*
X114539Y-52411D01*
X114569Y-52399D01*
X114593Y-52375D01*
X114606Y-52344D01*
X114606Y-52311D01*
X114606Y-52154D01*
X114593Y-52123D01*
X114570Y-52100D01*
X114539Y-52087D01*
X114505Y-52087D01*
X114269Y-52087D01*
X114239Y-52100D01*
X114215Y-52123D01*
X114202Y-52154D01*
X114202Y-52187D01*
X114202Y-52195D01*
X114189Y-52195D01*
X114197Y-52151D01*
X114188Y-52104D01*
X114161Y-52064D01*
X114125Y-52040D01*
X114156Y-52009D01*
X114210Y-52009D01*
X114215Y-52021D01*
X114239Y-52045D01*
X114269Y-52057D01*
X114303Y-52057D01*
X114539Y-52057D01*
X114569Y-52045D01*
X114593Y-52021D01*
X114606Y-51990D01*
X114606Y-51957D01*
X114606Y-51800D01*
X114593Y-51769D01*
X114570Y-51746D01*
X114539Y-51733D01*
X114505Y-51733D01*
X114357Y-51733D01*
X114384Y-51706D01*
X114384Y-51706D01*
X114400Y-51681D01*
X114409Y-51669D01*
X114409Y-51669D01*
X114413Y-51648D01*
X114429Y-51641D01*
X114453Y-51618D01*
X114466Y-51587D01*
X114466Y-51566D01*
X114497Y-51566D01*
X114540Y-51557D01*
X114540Y-51557D01*
X114577Y-51532D01*
X114672Y-51437D01*
X114672Y-51437D01*
X114689Y-51413D01*
X114697Y-51400D01*
X114697Y-51400D01*
X114706Y-51357D01*
X114706Y-51357D01*
X114706Y-51288D01*
X114733Y-51288D01*
X114764Y-51276D01*
X114788Y-51252D01*
X114801Y-51221D01*
X114801Y-51188D01*
X114801Y-50738D01*
X114788Y-50707D01*
X114764Y-50684D01*
X114734Y-50671D01*
X114700Y-50671D01*
X114450Y-50671D01*
X114419Y-50684D01*
X114396Y-50707D01*
X114383Y-50738D01*
X114383Y-50771D01*
X114383Y-51221D01*
X114395Y-51250D01*
X114365Y-51250D01*
X114320Y-51250D01*
X114322Y-51246D01*
X114322Y-51164D01*
X114322Y-50795D01*
X114322Y-50714D01*
X114291Y-50638D01*
X114233Y-50581D01*
X114157Y-50550D01*
X114106Y-50550D01*
X114054Y-50601D01*
X114054Y-50885D01*
X114271Y-50885D01*
X114322Y-50833D01*
X114322Y-50795D01*
X114322Y-51164D01*
X114322Y-51126D01*
X114271Y-51075D01*
X114054Y-51075D01*
X114054Y-51129D01*
X114040Y-51129D01*
X113989Y-51180D01*
X113989Y-51393D01*
X114028Y-51393D01*
X114028Y-51511D01*
X113989Y-51511D01*
X113989Y-51555D01*
X113910Y-51555D01*
X113910Y-51511D01*
X113871Y-51511D01*
X113871Y-51410D01*
X113878Y-51410D01*
X113895Y-51393D01*
X113910Y-51393D01*
X113910Y-51377D01*
X113929Y-51358D01*
X113929Y-51075D01*
X113929Y-50885D01*
X113929Y-50601D01*
X113878Y-50550D01*
X113826Y-50550D01*
X113777Y-50570D01*
X113761Y-50563D01*
X113679Y-50563D01*
X113702Y-50563D01*
X113651Y-50614D01*
X113651Y-50846D01*
X113675Y-50846D01*
X113713Y-50885D01*
X113929Y-50885D01*
X113929Y-51075D01*
X113925Y-51075D01*
X113925Y-51055D01*
X113873Y-51004D01*
X113651Y-51004D01*
X113651Y-51028D01*
X113513Y-51028D01*
X113513Y-51004D01*
X113479Y-51004D01*
X113479Y-50846D01*
X113513Y-50846D01*
X113513Y-50614D01*
X113462Y-50563D01*
X113485Y-50563D01*
X113404Y-50563D01*
X113328Y-50594D01*
X113271Y-50652D01*
X113240Y-50727D01*
X113240Y-50795D01*
X113275Y-50830D01*
X113240Y-50830D01*
X113240Y-50864D01*
X113105Y-50864D01*
X113091Y-50832D01*
X113034Y-50774D01*
X112958Y-50743D01*
X112930Y-50743D01*
X112878Y-50794D01*
X112878Y-51007D01*
X112918Y-51007D01*
X112918Y-51125D01*
X112878Y-51125D01*
X112878Y-51338D01*
X112882Y-51342D01*
X112882Y-51385D01*
X112922Y-51385D01*
X112922Y-51503D01*
X112882Y-51503D01*
X112882Y-51547D01*
X112804Y-51547D01*
X112804Y-51503D01*
X112804Y-51385D01*
X112804Y-51172D01*
X112800Y-51168D01*
X112800Y-51125D01*
X112800Y-51007D01*
X112800Y-50794D01*
X112749Y-50743D01*
X112720Y-50743D01*
X112645Y-50774D01*
X112587Y-50832D01*
X112556Y-50907D01*
X112556Y-50989D01*
X112556Y-50956D01*
X112607Y-51007D01*
X112800Y-51007D01*
X112800Y-51125D01*
X112757Y-51125D01*
X112753Y-51121D01*
X112724Y-51121D01*
X112714Y-51125D01*
X112607Y-51125D01*
X112556Y-51176D01*
X112556Y-51144D01*
X112556Y-51225D01*
X112570Y-51260D01*
X112560Y-51285D01*
X112560Y-51367D01*
X112560Y-51334D01*
X112611Y-51385D01*
X112710Y-51385D01*
X112720Y-51389D01*
X112749Y-51389D01*
X112753Y-51385D01*
X112804Y-51385D01*
X112804Y-51503D01*
X112611Y-51503D01*
X112562Y-51552D01*
X112560Y-51552D01*
X112560Y-51522D01*
X112560Y-51552D01*
X112518Y-51552D01*
X112518Y-51562D01*
X112516Y-51562D01*
X112434Y-51617D01*
X112378Y-51699D01*
X112359Y-51796D01*
X112413Y-51836D01*
X112593Y-51836D01*
X112593Y-51812D01*
X112632Y-51812D01*
X112632Y-51836D01*
X112647Y-51836D01*
X112647Y-51993D01*
X112632Y-51993D01*
X112632Y-52018D01*
X112593Y-52018D01*
X112593Y-51993D01*
X112413Y-51993D01*
X112359Y-52033D01*
X112363Y-52051D01*
X111653Y-52051D01*
X111610Y-52060D01*
X111573Y-52084D01*
X111567Y-52090D01*
X110983Y-52090D01*
X112881Y-50192D01*
X115425Y-50192D01*
X115516Y-50283D01*
X115516Y-50787D01*
X115524Y-50830D01*
X115549Y-50867D01*
X115932Y-51250D01*
X115891Y-51348D01*
X115891Y-51501D01*
X115950Y-51642D01*
X116057Y-51750D01*
X116198Y-51808D01*
X116351Y-51809D01*
X116492Y-51750D01*
X116600Y-51642D01*
X116659Y-51501D01*
X116659Y-51349D01*
X116601Y-51208D01*
X116493Y-51100D01*
X116352Y-51041D01*
X116199Y-51041D01*
X116090Y-51086D01*
X115743Y-50740D01*
X115743Y-50236D01*
X115735Y-50192D01*
X115735Y-50192D01*
X115710Y-50155D01*
X115589Y-50035D01*
X115724Y-50035D01*
X115891Y-50202D01*
X115891Y-50741D01*
X115904Y-50772D01*
X115928Y-50796D01*
X115958Y-50808D01*
X115992Y-50808D01*
X116592Y-50808D01*
X116622Y-50796D01*
X116646Y-50772D01*
X116659Y-50741D01*
X116659Y-50708D01*
X116659Y-50108D01*
X116646Y-50077D01*
X116623Y-50054D01*
X116592Y-50041D01*
X116559Y-50041D01*
X116052Y-50041D01*
X115852Y-49840D01*
X115815Y-49816D01*
X115771Y-49807D01*
X112755Y-49807D01*
X112712Y-49816D01*
X112700Y-49824D01*
X112675Y-49840D01*
X110775Y-51740D01*
X110775Y-51101D01*
X110775Y-50946D01*
X110775Y-50864D01*
X110744Y-50789D01*
X110686Y-50731D01*
X110611Y-50700D01*
X110582Y-50700D01*
X110531Y-50751D01*
X110531Y-50964D01*
X110724Y-50964D01*
X110775Y-50913D01*
X110775Y-50946D01*
X110775Y-51101D01*
X110775Y-51133D01*
X110724Y-51082D01*
X110531Y-51082D01*
X110531Y-51295D01*
X110582Y-51346D01*
X110611Y-51346D01*
X110686Y-51315D01*
X110744Y-51257D01*
X110775Y-51182D01*
X110775Y-51101D01*
X110775Y-51740D01*
X110740Y-51776D01*
X110720Y-51776D01*
X110673Y-51766D01*
X110507Y-51766D01*
X110460Y-51776D01*
X110420Y-51802D01*
X110394Y-51842D01*
X110384Y-51889D01*
X110394Y-51936D01*
X110415Y-51968D01*
X110394Y-52000D01*
X110384Y-52047D01*
X110394Y-52094D01*
X110415Y-52125D01*
X110394Y-52157D01*
X110384Y-52204D01*
X110394Y-52251D01*
X110415Y-52283D01*
X110394Y-52315D01*
X110384Y-52362D01*
X110394Y-52409D01*
X110415Y-52440D01*
X110394Y-52472D01*
X110384Y-52519D01*
X110394Y-52566D01*
X110415Y-52598D01*
X110394Y-52630D01*
X110384Y-52677D01*
X110394Y-52724D01*
X110415Y-52755D01*
X110394Y-52787D01*
X110384Y-52834D01*
X110394Y-52881D01*
X110415Y-52913D01*
X110394Y-52945D01*
X110384Y-52992D01*
X110394Y-53039D01*
X110415Y-53070D01*
X110394Y-53102D01*
X110384Y-53149D01*
X110394Y-53196D01*
X110415Y-53228D01*
X110394Y-53259D01*
X110384Y-53307D01*
X110394Y-53354D01*
X110415Y-53385D01*
X110406Y-53399D01*
X110399Y-53401D01*
X110340Y-53447D01*
X110237Y-53344D01*
X110201Y-53320D01*
X110157Y-53311D01*
X108886Y-53311D01*
X108844Y-53269D01*
X108776Y-53241D01*
X108703Y-53241D01*
X108636Y-53269D01*
X108584Y-53320D01*
X108556Y-53388D01*
X108556Y-53448D01*
X108506Y-53498D01*
X108512Y-53464D01*
X108503Y-53417D01*
X108482Y-53385D01*
X108503Y-53354D01*
X108512Y-53307D01*
X108503Y-53259D01*
X108482Y-53228D01*
X108503Y-53196D01*
X108512Y-53149D01*
X108503Y-53102D01*
X108482Y-53070D01*
X108503Y-53039D01*
X108512Y-52992D01*
X108503Y-52945D01*
X108482Y-52913D01*
X108503Y-52881D01*
X108512Y-52834D01*
X108503Y-52787D01*
X108482Y-52755D01*
X108503Y-52724D01*
X108512Y-52677D01*
X108503Y-52630D01*
X108482Y-52598D01*
X108503Y-52566D01*
X108512Y-52519D01*
X108503Y-52472D01*
X108482Y-52440D01*
X108503Y-52409D01*
X108512Y-52362D01*
X108503Y-52315D01*
X108482Y-52283D01*
X108503Y-52251D01*
X108512Y-52204D01*
X108503Y-52157D01*
X108482Y-52125D01*
X108503Y-52094D01*
X108512Y-52047D01*
X108503Y-52000D01*
X108482Y-51968D01*
X108503Y-51936D01*
X108505Y-51928D01*
X108505Y-51981D01*
X108533Y-52048D01*
X108584Y-52100D01*
X108652Y-52128D01*
X108725Y-52128D01*
X108792Y-52100D01*
X108844Y-52049D01*
X108872Y-51981D01*
X108872Y-51908D01*
X108867Y-51896D01*
X108877Y-51885D01*
X108877Y-51860D01*
X108894Y-51880D01*
X108931Y-51901D01*
X108955Y-51930D01*
X108974Y-51928D01*
X108976Y-51927D01*
X108978Y-51928D01*
X108997Y-51930D01*
X109021Y-51901D01*
X109058Y-51880D01*
X109074Y-51860D01*
X109074Y-51885D01*
X109112Y-51930D01*
X109131Y-51928D01*
X109216Y-51880D01*
X109275Y-51805D01*
X109277Y-51798D01*
X109291Y-51789D01*
X109322Y-51810D01*
X109370Y-51819D01*
X109417Y-51810D01*
X109448Y-51789D01*
X109480Y-51810D01*
X109527Y-51819D01*
X109574Y-51810D01*
X109606Y-51789D01*
X109637Y-51810D01*
X109685Y-51819D01*
X109732Y-51810D01*
X109763Y-51789D01*
X109795Y-51810D01*
X109842Y-51819D01*
X109889Y-51810D01*
X109921Y-51789D01*
X109952Y-51810D01*
X110000Y-51819D01*
X110047Y-51810D01*
X110078Y-51789D01*
X110110Y-51810D01*
X110157Y-51819D01*
X110204Y-51810D01*
X110236Y-51789D01*
X110267Y-51810D01*
X110314Y-51819D01*
X110362Y-51810D01*
X110402Y-51783D01*
X110428Y-51743D01*
X110438Y-51696D01*
X110438Y-51531D01*
X110428Y-51484D01*
X110402Y-51444D01*
X110362Y-51417D01*
X110314Y-51408D01*
X110267Y-51417D01*
X110236Y-51438D01*
X110204Y-51417D01*
X110157Y-51408D01*
X110110Y-51417D01*
X110078Y-51438D01*
X110047Y-51417D01*
X110000Y-51408D01*
X109952Y-51417D01*
X109921Y-51438D01*
X109910Y-51431D01*
X110116Y-51225D01*
X110226Y-51225D01*
X110239Y-51257D01*
X110297Y-51315D01*
X110372Y-51346D01*
X110401Y-51346D01*
X110452Y-51295D01*
X110452Y-51082D01*
X110413Y-51082D01*
X110413Y-50964D01*
X110452Y-50964D01*
X110452Y-50751D01*
X110401Y-50700D01*
X110372Y-50700D01*
X110297Y-50731D01*
X110239Y-50789D01*
X110226Y-50821D01*
X110199Y-50821D01*
X110120Y-50821D01*
X110126Y-50808D01*
X110126Y-50570D01*
X110095Y-50494D01*
X110037Y-50436D01*
X109962Y-50405D01*
X109880Y-50405D01*
X109913Y-50405D01*
X109862Y-50456D01*
X109862Y-50649D01*
X110074Y-50649D01*
X110126Y-50598D01*
X110126Y-50570D01*
X110126Y-50808D01*
X110126Y-50779D01*
X110074Y-50728D01*
X109862Y-50728D01*
X109862Y-50767D01*
X109756Y-50767D01*
X109744Y-50738D01*
X109744Y-50728D01*
X109738Y-50728D01*
X109683Y-50672D01*
X109628Y-50649D01*
X109744Y-50649D01*
X109744Y-50456D01*
X109692Y-50405D01*
X109725Y-50405D01*
X109644Y-50405D01*
X109568Y-50436D01*
X109511Y-50494D01*
X109480Y-50570D01*
X109480Y-50598D01*
X109531Y-50649D01*
X109555Y-50649D01*
X109512Y-50692D01*
X109512Y-50746D01*
X109480Y-50779D01*
X109480Y-50808D01*
X109511Y-50883D01*
X109533Y-50905D01*
X109512Y-50905D01*
X109512Y-50925D01*
X109413Y-50925D01*
X109406Y-50907D01*
X109404Y-50906D01*
X109404Y-50905D01*
X109404Y-50905D01*
X109364Y-50866D01*
X109404Y-50866D01*
X109404Y-50692D01*
X109353Y-50641D01*
X109390Y-50641D01*
X109309Y-50641D01*
X109297Y-50646D01*
X109297Y-50462D01*
X109286Y-50407D01*
X109284Y-50396D01*
X109284Y-50396D01*
X109246Y-50339D01*
X109246Y-50339D01*
X109059Y-50152D01*
X109003Y-50115D01*
X108937Y-50101D01*
X108822Y-50101D01*
X108806Y-50086D01*
X108776Y-50073D01*
X108742Y-50073D01*
X108585Y-50073D01*
X108555Y-50086D01*
X108531Y-50110D01*
X108518Y-50140D01*
X108518Y-50174D01*
X108518Y-50217D01*
X108507Y-50275D01*
X108518Y-50333D01*
X108518Y-50410D01*
X108531Y-50440D01*
X108554Y-50464D01*
X108585Y-50477D01*
X108619Y-50477D01*
X108776Y-50477D01*
X108806Y-50464D01*
X108822Y-50449D01*
X108865Y-50449D01*
X108950Y-50534D01*
X108950Y-50793D01*
X108944Y-50798D01*
X108932Y-50829D01*
X108932Y-50836D01*
X108899Y-50849D01*
X108841Y-50907D01*
X108810Y-50983D01*
X108810Y-50992D01*
X108861Y-51043D01*
X109069Y-51043D01*
X109069Y-51023D01*
X109169Y-51023D01*
X109176Y-51041D01*
X109178Y-51042D01*
X109178Y-51043D01*
X109178Y-51043D01*
X109217Y-51082D01*
X109178Y-51082D01*
X109178Y-51102D01*
X109069Y-51102D01*
X109069Y-51082D01*
X108861Y-51082D01*
X108810Y-51133D01*
X108810Y-51142D01*
X108841Y-51218D01*
X108899Y-51276D01*
X108931Y-51289D01*
X108931Y-51296D01*
X108940Y-51315D01*
X108931Y-51326D01*
X108894Y-51347D01*
X108877Y-51368D01*
X108877Y-51343D01*
X108840Y-51297D01*
X108820Y-51300D01*
X108736Y-51347D01*
X108676Y-51423D01*
X108675Y-51429D01*
X108661Y-51438D01*
X108629Y-51417D01*
X108582Y-51408D01*
X108535Y-51417D01*
X108495Y-51444D01*
X108468Y-51484D01*
X108465Y-51500D01*
X108089Y-51500D01*
X108108Y-51492D01*
X108165Y-51434D01*
X108197Y-51359D01*
X108197Y-51121D01*
X108197Y-50729D01*
X108197Y-50700D01*
X108145Y-50649D01*
X107933Y-50649D01*
X107933Y-50842D01*
X107984Y-50893D01*
X107951Y-50893D01*
X108032Y-50893D01*
X108108Y-50862D01*
X108165Y-50804D01*
X108197Y-50729D01*
X108197Y-51121D01*
X108165Y-51045D01*
X108108Y-50988D01*
X108032Y-50956D01*
X107951Y-50956D01*
X107984Y-50956D01*
X107933Y-51008D01*
X107933Y-51201D01*
X108145Y-51201D01*
X108197Y-51149D01*
X108197Y-51121D01*
X108197Y-51359D01*
X108197Y-51330D01*
X108145Y-51279D01*
X107933Y-51279D01*
X107933Y-51318D01*
X107815Y-51318D01*
X107815Y-51279D01*
X107815Y-51201D01*
X107815Y-51008D01*
X107815Y-50842D01*
X107815Y-50649D01*
X107602Y-50649D01*
X107551Y-50700D01*
X107550Y-50729D01*
X107582Y-50804D01*
X107639Y-50862D01*
X107715Y-50893D01*
X107796Y-50893D01*
X107763Y-50893D01*
X107815Y-50842D01*
X107815Y-51008D01*
X107763Y-50956D01*
X107796Y-50956D01*
X107715Y-50956D01*
X107639Y-50988D01*
X107582Y-51045D01*
X107550Y-51121D01*
X107551Y-51149D01*
X107602Y-51201D01*
X107815Y-51201D01*
X107815Y-51279D01*
X107602Y-51279D01*
X107551Y-51330D01*
X107550Y-51359D01*
X107582Y-51434D01*
X107639Y-51492D01*
X107672Y-51506D01*
X107672Y-51532D01*
X107672Y-51689D01*
X107684Y-51720D01*
X107708Y-51743D01*
X107739Y-51756D01*
X107772Y-51756D01*
X108008Y-51756D01*
X108039Y-51743D01*
X108055Y-51727D01*
X108465Y-51727D01*
X108468Y-51743D01*
X108495Y-51783D01*
X108535Y-51810D01*
X108558Y-51815D01*
X108533Y-51840D01*
X108512Y-51889D01*
X108512Y-51889D01*
X108503Y-51842D01*
X108476Y-51802D01*
X108436Y-51776D01*
X108389Y-51766D01*
X108224Y-51766D01*
X108177Y-51776D01*
X107874Y-51776D01*
X107830Y-51784D01*
X107793Y-51809D01*
X107669Y-51933D01*
X107480Y-51933D01*
X107436Y-51942D01*
X107399Y-51966D01*
X107196Y-52169D01*
X106968Y-52169D01*
X106924Y-52178D01*
X106912Y-52186D01*
X106888Y-52203D01*
X106862Y-52228D01*
X106831Y-52216D01*
X106754Y-52216D01*
X106702Y-52267D01*
X106702Y-52500D01*
X106717Y-52500D01*
X106717Y-52657D01*
X106702Y-52657D01*
X106702Y-52681D01*
X106543Y-52681D01*
X106543Y-52538D01*
X106525Y-52495D01*
X106525Y-52267D01*
X106474Y-52216D01*
X106396Y-52216D01*
X106321Y-52247D01*
X106263Y-52304D01*
X106232Y-52380D01*
X106231Y-52461D01*
X106232Y-52448D01*
X106279Y-52496D01*
X106279Y-52618D01*
X106492Y-52618D01*
X106543Y-52567D01*
X106543Y-52538D01*
X106543Y-52681D01*
X106525Y-52681D01*
X106525Y-52657D01*
X106283Y-52657D01*
X106232Y-52708D01*
X106231Y-52695D01*
X106232Y-52736D01*
X106161Y-52736D01*
X106161Y-52696D01*
X106161Y-52618D01*
X106161Y-52425D01*
X106110Y-52374D01*
X106143Y-52374D01*
X106061Y-52374D01*
X105986Y-52405D01*
X105928Y-52463D01*
X105897Y-52538D01*
X105897Y-52567D01*
X105948Y-52618D01*
X106161Y-52618D01*
X106161Y-52696D01*
X105948Y-52696D01*
X105897Y-52748D01*
X105897Y-52776D01*
X105928Y-52852D01*
X105986Y-52909D01*
X106018Y-52923D01*
X106018Y-52949D01*
X106018Y-53106D01*
X106031Y-53137D01*
X106054Y-53161D01*
X106085Y-53173D01*
X106119Y-53173D01*
X106353Y-53173D01*
X106353Y-53185D01*
X106365Y-53216D01*
X106389Y-53240D01*
X106420Y-53253D01*
X106453Y-53253D01*
X106800Y-53253D01*
X106814Y-53285D01*
X106872Y-53343D01*
X106947Y-53374D01*
X107025Y-53374D01*
X107076Y-53323D01*
X107076Y-53090D01*
X107062Y-53090D01*
X107062Y-52933D01*
X107076Y-52933D01*
X107076Y-52908D01*
X107253Y-52908D01*
X107253Y-52933D01*
X107496Y-52933D01*
X107496Y-52933D01*
X107500Y-52933D01*
X107500Y-52929D01*
X107535Y-52893D01*
X107547Y-52893D01*
X107547Y-52894D01*
X107547Y-52893D01*
X107606Y-52893D01*
X107618Y-52922D01*
X107618Y-52933D01*
X107623Y-52933D01*
X107679Y-52988D01*
X107735Y-53011D01*
X107618Y-53011D01*
X107618Y-53204D01*
X107669Y-53255D01*
X107636Y-53255D01*
X107718Y-53255D01*
X107793Y-53224D01*
X107850Y-53166D01*
X107882Y-53091D01*
X107882Y-53062D01*
X107830Y-53011D01*
X107811Y-53011D01*
X107854Y-52968D01*
X107854Y-52909D01*
X107882Y-52881D01*
X107882Y-52853D01*
X107854Y-52786D01*
X107854Y-52775D01*
X107848Y-52775D01*
X107810Y-52737D01*
X107810Y-52696D01*
X107854Y-52696D01*
X107854Y-52657D01*
X107972Y-52657D01*
X107972Y-52696D01*
X108016Y-52696D01*
X108016Y-52775D01*
X107972Y-52775D01*
X107972Y-52968D01*
X108023Y-53019D01*
X107990Y-53019D01*
X108072Y-53019D01*
X108104Y-53006D01*
X108110Y-53039D01*
X108131Y-53070D01*
X108110Y-53102D01*
X108101Y-53149D01*
X108110Y-53196D01*
X108131Y-53228D01*
X108110Y-53259D01*
X108101Y-53307D01*
X108110Y-53354D01*
X108131Y-53385D01*
X108110Y-53417D01*
X108101Y-53464D01*
X108110Y-53511D01*
X108131Y-53543D01*
X108110Y-53574D01*
X108101Y-53622D01*
X108110Y-53669D01*
X108137Y-53709D01*
X108177Y-53735D01*
X108224Y-53745D01*
X108389Y-53745D01*
X108436Y-53735D01*
X108468Y-53714D01*
X108468Y-53767D01*
X108465Y-53783D01*
X108019Y-53783D01*
X107976Y-53792D01*
X107964Y-53800D01*
X107943Y-53814D01*
X107806Y-53814D01*
X107775Y-53827D01*
X107751Y-53850D01*
X107739Y-53881D01*
X107739Y-53914D01*
X107739Y-54043D01*
X107734Y-54039D01*
X107659Y-54007D01*
X107578Y-54007D01*
X107547Y-54007D01*
X107547Y-53128D01*
X107547Y-53141D01*
X107500Y-53094D01*
X107500Y-53011D01*
X107287Y-53011D01*
X107236Y-53062D01*
X107236Y-53091D01*
X107253Y-53134D01*
X107253Y-53323D01*
X107305Y-53374D01*
X107383Y-53374D01*
X107458Y-53343D01*
X107516Y-53285D01*
X107547Y-53210D01*
X107547Y-53128D01*
X107547Y-54007D01*
X107539Y-54007D01*
X107488Y-54059D01*
X107488Y-54275D01*
X107653Y-54275D01*
X107669Y-54291D01*
X107881Y-54291D01*
X107881Y-54252D01*
X107999Y-54252D01*
X107999Y-54291D01*
X108212Y-54291D01*
X108263Y-54240D01*
X108263Y-54211D01*
X108232Y-54136D01*
X108175Y-54078D01*
X108142Y-54064D01*
X108142Y-54038D01*
X108142Y-54011D01*
X108465Y-54011D01*
X108468Y-54027D01*
X108495Y-54067D01*
X108535Y-54094D01*
X108582Y-54103D01*
X108626Y-54094D01*
X108626Y-54140D01*
X108459Y-54140D01*
X108428Y-54153D01*
X108404Y-54177D01*
X108392Y-54207D01*
X108392Y-54241D01*
X108392Y-54491D01*
X108404Y-54521D01*
X108428Y-54545D01*
X108459Y-54558D01*
X108492Y-54558D01*
X108942Y-54558D01*
X108973Y-54545D01*
X108996Y-54522D01*
X109009Y-54491D01*
X109009Y-54458D01*
X109009Y-54208D01*
X108996Y-54177D01*
X108973Y-54153D01*
X108942Y-54140D01*
X108909Y-54140D01*
X108853Y-54140D01*
X108853Y-54094D01*
X108897Y-54103D01*
X108944Y-54094D01*
X108976Y-54072D01*
X109008Y-54094D01*
X109055Y-54103D01*
X109102Y-54094D01*
X109133Y-54072D01*
X109165Y-54094D01*
X109212Y-54103D01*
X109259Y-54094D01*
X109291Y-54072D01*
X109322Y-54094D01*
X109370Y-54103D01*
X109417Y-54094D01*
X109448Y-54072D01*
X109480Y-54094D01*
X109527Y-54103D01*
X109574Y-54094D01*
X109606Y-54072D01*
X109637Y-54094D01*
X109685Y-54103D01*
X109732Y-54094D01*
X109763Y-54072D01*
X109795Y-54094D01*
X109842Y-54103D01*
X109889Y-54094D01*
X109921Y-54072D01*
X109952Y-54094D01*
X110000Y-54103D01*
X110047Y-54094D01*
X110078Y-54072D01*
X110110Y-54094D01*
X110157Y-54103D01*
X110175Y-54099D01*
X110169Y-54102D01*
X110145Y-54125D01*
X110133Y-54156D01*
X110133Y-54189D01*
X110133Y-54425D01*
X110145Y-54456D01*
X110169Y-54480D01*
X110200Y-54493D01*
X110233Y-54493D01*
X110383Y-54493D01*
X110397Y-54525D01*
X110454Y-54583D01*
X110530Y-54614D01*
X110558Y-54614D01*
X110610Y-54563D01*
X110610Y-54350D01*
X110570Y-54350D01*
X110570Y-54232D01*
X110610Y-54232D01*
X110610Y-54019D01*
X110558Y-53968D01*
X110530Y-53968D01*
X110454Y-53999D01*
X110429Y-54025D01*
X110438Y-53980D01*
X110438Y-53853D01*
X110492Y-53868D01*
X110531Y-53817D01*
X110531Y-53641D01*
X110487Y-53641D01*
X110487Y-53602D01*
X110531Y-53602D01*
X110531Y-53587D01*
X110649Y-53587D01*
X110649Y-53602D01*
X110861Y-53602D01*
X110906Y-53564D01*
X110904Y-53545D01*
X110857Y-53461D01*
X110781Y-53401D01*
X110775Y-53399D01*
X110765Y-53385D01*
X110786Y-53354D01*
X110796Y-53307D01*
X110786Y-53259D01*
X110765Y-53228D01*
X110786Y-53196D01*
X110796Y-53149D01*
X110787Y-53105D01*
X111483Y-53105D01*
X111474Y-53111D01*
X111472Y-53113D01*
X111175Y-53113D01*
X111144Y-53126D01*
X111121Y-53149D01*
X111108Y-53180D01*
X111108Y-53213D01*
X111108Y-53463D01*
X111121Y-53494D01*
X111144Y-53517D01*
X111175Y-53530D01*
X111208Y-53530D01*
X111658Y-53530D01*
X111689Y-53518D01*
X111690Y-53517D01*
X111696Y-53523D01*
X111909Y-53523D01*
X111909Y-53484D01*
X112027Y-53484D01*
X112027Y-53523D01*
X112240Y-53523D01*
X112256Y-53507D01*
X112258Y-53507D01*
X112264Y-53499D01*
X112291Y-53472D01*
X112291Y-53462D01*
X112298Y-53453D01*
X112298Y-53273D01*
X112274Y-53273D01*
X112274Y-53234D01*
X112298Y-53234D01*
X112298Y-53219D01*
X112455Y-53219D01*
X112455Y-53234D01*
X112479Y-53234D01*
X112479Y-53273D01*
X112455Y-53273D01*
X112455Y-53453D01*
X112490Y-53500D01*
X112490Y-53612D01*
X112499Y-53659D01*
X112526Y-53699D01*
X112566Y-53726D01*
X112613Y-53735D01*
X112660Y-53726D01*
X112691Y-53705D01*
X112723Y-53726D01*
X112743Y-53730D01*
X112689Y-53783D01*
X112689Y-53783D01*
X112666Y-53759D01*
X112635Y-53746D01*
X112602Y-53746D01*
X112451Y-53746D01*
X112438Y-53714D01*
X112380Y-53656D01*
X112305Y-53625D01*
X112276Y-53625D01*
X112263Y-53625D01*
X112240Y-53602D01*
X112027Y-53602D01*
X112027Y-53641D01*
X111909Y-53641D01*
X111909Y-53602D01*
X111707Y-53602D01*
X111683Y-53592D01*
X111601Y-53592D01*
X111563Y-53592D01*
X111512Y-53643D01*
X111512Y-53859D01*
X111796Y-53859D01*
X111809Y-53846D01*
X111809Y-53846D01*
X111891Y-53846D01*
X111858Y-53846D01*
X111873Y-53831D01*
X111873Y-53846D01*
X111902Y-53846D01*
X111902Y-53871D01*
X111902Y-53846D01*
X111910Y-53846D01*
X111953Y-53889D01*
X112146Y-53889D01*
X112146Y-53845D01*
X112225Y-53845D01*
X112225Y-53889D01*
X112264Y-53889D01*
X112264Y-54007D01*
X112225Y-54007D01*
X112225Y-54220D01*
X112276Y-54271D01*
X112305Y-54271D01*
X112380Y-54240D01*
X112438Y-54182D01*
X112451Y-54150D01*
X112478Y-54150D01*
X112635Y-54150D01*
X112666Y-54137D01*
X112689Y-54114D01*
X112702Y-54083D01*
X112702Y-54059D01*
X112729Y-54053D01*
X112729Y-54053D01*
X112766Y-54029D01*
X112928Y-53867D01*
X112928Y-54071D01*
X112941Y-54102D01*
X112964Y-54125D01*
X112976Y-54131D01*
X112976Y-54136D01*
X112964Y-54141D01*
X112941Y-54165D01*
X112928Y-54195D01*
X112928Y-54229D01*
X112928Y-54465D01*
X112941Y-54496D01*
X112964Y-54519D01*
X112995Y-54532D01*
X113028Y-54532D01*
X113185Y-54532D01*
X113216Y-54519D01*
X113240Y-54496D01*
X113252Y-54465D01*
X113252Y-54432D01*
X113252Y-54196D01*
X113240Y-54165D01*
X113216Y-54141D01*
X113204Y-54136D01*
X113204Y-54131D01*
X113216Y-54126D01*
X113240Y-54102D01*
X113252Y-54071D01*
X113252Y-54038D01*
X113252Y-53802D01*
X113240Y-53771D01*
X113216Y-53748D01*
X113199Y-53740D01*
X113199Y-53727D01*
X113243Y-53735D01*
X113286Y-53727D01*
X113286Y-53791D01*
X113282Y-53802D01*
X113282Y-53835D01*
X113282Y-54071D01*
X113295Y-54102D01*
X113318Y-54125D01*
X113330Y-54131D01*
X113330Y-54136D01*
X113318Y-54141D01*
X113295Y-54165D01*
X113282Y-54195D01*
X113282Y-54229D01*
X113282Y-54465D01*
X113295Y-54496D01*
X113318Y-54519D01*
X113349Y-54532D01*
X113382Y-54532D01*
X113539Y-54532D01*
X113570Y-54519D01*
X113594Y-54496D01*
X113606Y-54465D01*
X113606Y-54432D01*
X113606Y-54196D01*
X113594Y-54165D01*
X113570Y-54141D01*
X113558Y-54136D01*
X113558Y-54131D01*
X113570Y-54126D01*
X113594Y-54102D01*
X113606Y-54071D01*
X113606Y-54050D01*
X113811Y-54050D01*
X113895Y-54135D01*
X113932Y-54160D01*
X113932Y-54160D01*
X113976Y-54168D01*
X114700Y-54168D01*
X114700Y-54189D01*
X114712Y-54220D01*
X114736Y-54244D01*
X114767Y-54256D01*
X114800Y-54256D01*
X114925Y-54256D01*
X114925Y-54330D01*
X114934Y-54374D01*
X114958Y-54411D01*
X115053Y-54505D01*
X115090Y-54530D01*
X115090Y-54530D01*
X115133Y-54538D01*
X115907Y-54538D01*
X115950Y-54642D01*
X116057Y-54750D01*
X116198Y-54808D01*
X116351Y-54809D01*
X116492Y-54750D01*
X116600Y-54642D01*
X116659Y-54501D01*
X116659Y-54349D01*
X116659Y-55341D01*
X112146Y-55341D01*
X112146Y-54220D01*
X112146Y-54007D01*
X111953Y-54007D01*
X111902Y-54058D01*
X111902Y-54026D01*
X111902Y-54107D01*
X111934Y-54182D01*
X111991Y-54240D01*
X112067Y-54271D01*
X112095Y-54271D01*
X112146Y-54220D01*
X112146Y-55341D01*
X111847Y-55341D01*
X111847Y-54087D01*
X111847Y-54035D01*
X111796Y-53984D01*
X111512Y-53984D01*
X111512Y-54200D01*
X111563Y-54252D01*
X111601Y-54252D01*
X111683Y-54252D01*
X111758Y-54220D01*
X111816Y-54163D01*
X111847Y-54087D01*
X111847Y-55341D01*
X111322Y-55341D01*
X111322Y-54200D01*
X111322Y-53984D01*
X111322Y-53859D01*
X111322Y-53643D01*
X111271Y-53592D01*
X111232Y-53592D01*
X111151Y-53592D01*
X111076Y-53623D01*
X111018Y-53681D01*
X110987Y-53756D01*
X110987Y-53808D01*
X111038Y-53859D01*
X111322Y-53859D01*
X111322Y-53984D01*
X111038Y-53984D01*
X110987Y-54035D01*
X110987Y-54087D01*
X111018Y-54163D01*
X111076Y-54220D01*
X111151Y-54252D01*
X111232Y-54252D01*
X111271Y-54252D01*
X111322Y-54200D01*
X111322Y-55341D01*
X110932Y-55341D01*
X110932Y-54368D01*
X110932Y-54213D01*
X110932Y-54132D01*
X110906Y-54069D01*
X110906Y-53679D01*
X110861Y-53641D01*
X110649Y-53641D01*
X110649Y-53817D01*
X110688Y-53868D01*
X110781Y-53842D01*
X110857Y-53782D01*
X110904Y-53698D01*
X110906Y-53679D01*
X110906Y-54069D01*
X110901Y-54057D01*
X110843Y-53999D01*
X110768Y-53968D01*
X110739Y-53968D01*
X110688Y-54019D01*
X110688Y-54232D01*
X110881Y-54232D01*
X110932Y-54181D01*
X110932Y-54213D01*
X110932Y-54368D01*
X110932Y-54401D01*
X110881Y-54350D01*
X110688Y-54350D01*
X110688Y-54563D01*
X110739Y-54614D01*
X110768Y-54614D01*
X110843Y-54583D01*
X110901Y-54525D01*
X110932Y-54450D01*
X110932Y-54368D01*
X110932Y-55341D01*
X109009Y-55341D01*
X109009Y-55058D01*
X109009Y-54808D01*
X108996Y-54777D01*
X108973Y-54753D01*
X108942Y-54740D01*
X108909Y-54740D01*
X108459Y-54740D01*
X108428Y-54753D01*
X108404Y-54777D01*
X108392Y-54807D01*
X108392Y-54835D01*
X108378Y-54835D01*
X108378Y-54814D01*
X108365Y-54783D01*
X108342Y-54759D01*
X108311Y-54747D01*
X108278Y-54747D01*
X108263Y-54747D01*
X108263Y-54449D01*
X108263Y-54421D01*
X108212Y-54369D01*
X107999Y-54369D01*
X107999Y-54562D01*
X108051Y-54614D01*
X108018Y-54614D01*
X108099Y-54614D01*
X108175Y-54582D01*
X108232Y-54525D01*
X108263Y-54449D01*
X108263Y-54747D01*
X108121Y-54747D01*
X108090Y-54759D01*
X108066Y-54783D01*
X108054Y-54814D01*
X108054Y-54847D01*
X108054Y-55083D01*
X108066Y-55114D01*
X108090Y-55137D01*
X108121Y-55150D01*
X108154Y-55150D01*
X108311Y-55150D01*
X108342Y-55137D01*
X108365Y-55114D01*
X108378Y-55083D01*
X108378Y-55063D01*
X108392Y-55063D01*
X108392Y-55091D01*
X108404Y-55121D01*
X108428Y-55145D01*
X108459Y-55158D01*
X108492Y-55158D01*
X108942Y-55158D01*
X108973Y-55145D01*
X108996Y-55122D01*
X109009Y-55091D01*
X109009Y-55058D01*
X109009Y-55341D01*
X108024Y-55341D01*
X108024Y-55050D01*
X108024Y-54814D01*
X108011Y-54783D01*
X107988Y-54759D01*
X107957Y-54747D01*
X107924Y-54747D01*
X107767Y-54747D01*
X107736Y-54759D01*
X107712Y-54783D01*
X107702Y-54808D01*
X107702Y-54796D01*
X107689Y-54765D01*
X107666Y-54741D01*
X107635Y-54729D01*
X107602Y-54729D01*
X107554Y-54729D01*
X107573Y-54682D01*
X107573Y-54667D01*
X107578Y-54667D01*
X107659Y-54667D01*
X107734Y-54636D01*
X107764Y-54606D01*
X107781Y-54614D01*
X107863Y-54614D01*
X107830Y-54614D01*
X107881Y-54562D01*
X107881Y-54369D01*
X107669Y-54369D01*
X107638Y-54400D01*
X107488Y-54400D01*
X107488Y-54440D01*
X107298Y-54440D01*
X107298Y-54400D01*
X107298Y-54275D01*
X107298Y-54059D01*
X107247Y-54007D01*
X107209Y-54007D01*
X107127Y-54007D01*
X107052Y-54039D01*
X106994Y-54096D01*
X106963Y-54172D01*
X106963Y-54224D01*
X107014Y-54275D01*
X107298Y-54275D01*
X107298Y-54400D01*
X107014Y-54400D01*
X106963Y-54451D01*
X106963Y-54503D01*
X106994Y-54578D01*
X107052Y-54636D01*
X107127Y-54667D01*
X107206Y-54667D01*
X107205Y-54682D01*
X107225Y-54729D01*
X107152Y-54729D01*
X107121Y-54741D01*
X107097Y-54765D01*
X107084Y-54796D01*
X107084Y-54829D01*
X107084Y-55079D01*
X107097Y-55110D01*
X107121Y-55133D01*
X107151Y-55146D01*
X107185Y-55146D01*
X107635Y-55146D01*
X107666Y-55133D01*
X107689Y-55110D01*
X107700Y-55084D01*
X107712Y-55114D01*
X107736Y-55137D01*
X107767Y-55150D01*
X107800Y-55150D01*
X107957Y-55150D01*
X107988Y-55137D01*
X108011Y-55114D01*
X108024Y-55083D01*
X108024Y-55050D01*
X108024Y-55341D01*
X104792Y-55341D01*
X104792Y-51697D01*
X107406Y-51697D01*
X107406Y-50477D01*
X107516Y-50477D01*
X107546Y-50464D01*
X107561Y-50449D01*
X107568Y-50449D01*
X107550Y-50490D01*
X107551Y-50519D01*
X107602Y-50570D01*
X107815Y-50570D01*
X107815Y-50531D01*
X107933Y-50531D01*
X107933Y-50570D01*
X108145Y-50570D01*
X108197Y-50519D01*
X108197Y-50490D01*
X108180Y-50449D01*
X108186Y-50449D01*
X108200Y-50464D01*
X108231Y-50477D01*
X108265Y-50477D01*
X108422Y-50477D01*
X108452Y-50464D01*
X108476Y-50441D01*
X108489Y-50410D01*
X108489Y-50377D01*
X108489Y-50336D01*
X108501Y-50275D01*
X108489Y-50215D01*
X108489Y-50141D01*
X108476Y-50110D01*
X108452Y-50086D01*
X108422Y-50073D01*
X108388Y-50073D01*
X108231Y-50073D01*
X108201Y-50086D01*
X108186Y-50101D01*
X108026Y-50101D01*
X108008Y-50093D01*
X107975Y-50093D01*
X107739Y-50093D01*
X107721Y-50101D01*
X107561Y-50101D01*
X107547Y-50086D01*
X107516Y-50073D01*
X107483Y-50073D01*
X107406Y-50073D01*
X107406Y-49630D01*
X117971Y-49630D01*
X117971Y-52180D01*
X117971Y-52180D01*
G37*
G54D30*
X117971Y-52180D02*
X117789Y-52180D01*
X117789Y-51450D01*
X117760Y-51252D01*
X117740Y-51204D01*
X117663Y-51171D01*
X117659Y-51175D01*
X117659Y-50708D01*
X117659Y-50108D01*
X117646Y-50077D01*
X117623Y-50054D01*
X117592Y-50041D01*
X117559Y-50041D01*
X116959Y-50041D01*
X116928Y-50054D01*
X116904Y-50077D01*
X116891Y-50108D01*
X116891Y-50141D01*
X116891Y-50741D01*
X116904Y-50772D01*
X116928Y-50796D01*
X116958Y-50808D01*
X116992Y-50808D01*
X117592Y-50808D01*
X117622Y-50796D01*
X117646Y-50772D01*
X117659Y-50741D01*
X117659Y-50708D01*
X117659Y-51175D01*
X117529Y-51305D01*
X117529Y-51037D01*
X117496Y-50959D01*
X117301Y-50910D01*
X117102Y-50940D01*
X117054Y-50959D01*
X117021Y-51037D01*
X117275Y-51290D01*
X117529Y-51037D01*
X117529Y-51305D01*
X117409Y-51425D01*
X117663Y-51678D01*
X117740Y-51645D01*
X117789Y-51450D01*
X117789Y-52180D01*
X117529Y-52180D01*
X117529Y-51813D01*
X117275Y-51559D01*
X117141Y-51693D01*
X117141Y-51425D01*
X116887Y-51171D01*
X116810Y-51204D01*
X116761Y-51399D01*
X116790Y-51598D01*
X116810Y-51645D01*
X116887Y-51678D01*
X117141Y-51425D01*
X117141Y-51693D01*
X117021Y-51813D01*
X117054Y-51890D01*
X117249Y-51939D01*
X117448Y-51910D01*
X117496Y-51890D01*
X117529Y-51813D01*
X117529Y-52180D01*
X116893Y-52180D01*
X116854Y-52187D01*
X116820Y-52210D01*
X116798Y-52243D01*
X116790Y-52283D01*
X116790Y-55341D01*
X116659Y-55341D01*
X116659Y-54349D01*
X116601Y-54208D01*
X116493Y-54100D01*
X116352Y-54041D01*
X116199Y-54041D01*
X116058Y-54099D01*
X115950Y-54207D01*
X115907Y-54311D01*
X115180Y-54311D01*
X115153Y-54283D01*
X115153Y-54256D01*
X115154Y-54256D01*
X115311Y-54256D01*
X115342Y-54244D01*
X115365Y-54220D01*
X115378Y-54189D01*
X115378Y-54168D01*
X115645Y-54168D01*
X115689Y-54160D01*
X115689Y-54160D01*
X115726Y-54135D01*
X116095Y-53765D01*
X116198Y-53808D01*
X116351Y-53809D01*
X116492Y-53750D01*
X116600Y-53642D01*
X116659Y-53501D01*
X116659Y-53349D01*
X116659Y-52349D01*
X116601Y-52208D01*
X116493Y-52100D01*
X116352Y-52041D01*
X116199Y-52041D01*
X116058Y-52099D01*
X115950Y-52207D01*
X115907Y-52311D01*
X115763Y-52311D01*
X115720Y-52320D01*
X115683Y-52344D01*
X115496Y-52531D01*
X115107Y-52531D01*
X115107Y-52510D01*
X115095Y-52480D01*
X115071Y-52456D01*
X115040Y-52443D01*
X115007Y-52443D01*
X114850Y-52443D01*
X114819Y-52456D01*
X114796Y-52479D01*
X114783Y-52510D01*
X114783Y-52544D01*
X114783Y-52780D01*
X114796Y-52810D01*
X114819Y-52834D01*
X114850Y-52847D01*
X114883Y-52847D01*
X115040Y-52847D01*
X115071Y-52834D01*
X115095Y-52810D01*
X115107Y-52780D01*
X115107Y-52759D01*
X115543Y-52759D01*
X115587Y-52750D01*
X115587Y-52750D01*
X115623Y-52725D01*
X115810Y-52538D01*
X115907Y-52538D01*
X115950Y-52642D01*
X116057Y-52750D01*
X116198Y-52808D01*
X116351Y-52809D01*
X116492Y-52750D01*
X116600Y-52642D01*
X116659Y-52501D01*
X116659Y-52349D01*
X116659Y-53349D01*
X116601Y-53208D01*
X116493Y-53100D01*
X116352Y-53041D01*
X116199Y-53041D01*
X116058Y-53099D01*
X115950Y-53207D01*
X115891Y-53348D01*
X115891Y-53501D01*
X115934Y-53605D01*
X115598Y-53941D01*
X115378Y-53941D01*
X115378Y-53920D01*
X115365Y-53889D01*
X115342Y-53866D01*
X115311Y-53853D01*
X115278Y-53853D01*
X115153Y-53853D01*
X115153Y-53740D01*
X115153Y-53740D01*
X115144Y-53696D01*
X115144Y-53696D01*
X115136Y-53684D01*
X115119Y-53659D01*
X115119Y-53659D01*
X115055Y-53595D01*
X115055Y-53264D01*
X115067Y-53259D01*
X115091Y-53236D01*
X115103Y-53205D01*
X115104Y-53172D01*
X115104Y-52936D01*
X115091Y-52905D01*
X115067Y-52881D01*
X115036Y-52868D01*
X115003Y-52868D01*
X114846Y-52868D01*
X114815Y-52881D01*
X114792Y-52905D01*
X114779Y-52935D01*
X114779Y-52969D01*
X114779Y-53205D01*
X114792Y-53236D01*
X114815Y-53259D01*
X114828Y-53264D01*
X114828Y-53642D01*
X114836Y-53686D01*
X114861Y-53722D01*
X114925Y-53787D01*
X114925Y-53853D01*
X114924Y-53853D01*
X114767Y-53853D01*
X114736Y-53866D01*
X114712Y-53889D01*
X114700Y-53920D01*
X114700Y-53941D01*
X114023Y-53941D01*
X113938Y-53856D01*
X113901Y-53831D01*
X113858Y-53823D01*
X113606Y-53823D01*
X113606Y-53802D01*
X113594Y-53771D01*
X113570Y-53748D01*
X113539Y-53735D01*
X113514Y-53735D01*
X113514Y-53727D01*
X113558Y-53735D01*
X113605Y-53726D01*
X113636Y-53705D01*
X113668Y-53726D01*
X113715Y-53735D01*
X113762Y-53726D01*
X113802Y-53699D01*
X113829Y-53659D01*
X113838Y-53612D01*
X113838Y-53520D01*
X113846Y-53561D01*
X113871Y-53597D01*
X113932Y-53658D01*
X113969Y-53683D01*
X113969Y-53683D01*
X114012Y-53692D01*
X114019Y-53692D01*
X114019Y-53713D01*
X114032Y-53743D01*
X114056Y-53767D01*
X114087Y-53780D01*
X114120Y-53780D01*
X114277Y-53780D01*
X114308Y-53767D01*
X114331Y-53744D01*
X114344Y-53713D01*
X114344Y-53679D01*
X114344Y-53443D01*
X114331Y-53413D01*
X114308Y-53389D01*
X114277Y-53376D01*
X114244Y-53376D01*
X114087Y-53376D01*
X114065Y-53385D01*
X114065Y-53376D01*
X114074Y-53376D01*
X114121Y-53367D01*
X114161Y-53340D01*
X114188Y-53300D01*
X114195Y-53264D01*
X114374Y-53443D01*
X114374Y-53443D01*
X114373Y-53477D01*
X114373Y-53713D01*
X114386Y-53743D01*
X114410Y-53767D01*
X114441Y-53780D01*
X114474Y-53780D01*
X114631Y-53780D01*
X114662Y-53767D01*
X114685Y-53744D01*
X114698Y-53713D01*
X114698Y-53679D01*
X114698Y-53443D01*
X114685Y-53413D01*
X114662Y-53389D01*
X114631Y-53376D01*
X114625Y-53376D01*
X114616Y-53364D01*
X114525Y-53272D01*
X114525Y-53272D01*
X114682Y-53272D01*
X114713Y-53259D01*
X114737Y-53236D01*
X114749Y-53205D01*
X114750Y-53172D01*
X114750Y-52936D01*
X114737Y-52905D01*
X114713Y-52881D01*
X114682Y-52868D01*
X114649Y-52868D01*
X114546Y-52868D01*
X114537Y-52860D01*
X114550Y-52847D01*
X114686Y-52847D01*
X114717Y-52834D01*
X114741Y-52810D01*
X114753Y-52780D01*
X114753Y-52746D01*
X114753Y-52510D01*
X114741Y-52480D01*
X114717Y-52456D01*
X114686Y-52443D01*
X114653Y-52443D01*
X114496Y-52443D01*
X114465Y-52456D01*
X114442Y-52479D01*
X114429Y-52510D01*
X114429Y-52544D01*
X114429Y-52646D01*
X114408Y-52667D01*
X114189Y-52667D01*
X114197Y-52623D01*
X114188Y-52576D01*
X114167Y-52545D01*
X114188Y-52513D01*
X114197Y-52466D01*
X114189Y-52422D01*
X114345Y-52422D01*
X114388Y-52413D01*
X114391Y-52411D01*
X114539Y-52411D01*
X114569Y-52399D01*
X114593Y-52375D01*
X114606Y-52344D01*
X114606Y-52311D01*
X114606Y-52154D01*
X114593Y-52123D01*
X114570Y-52100D01*
X114539Y-52087D01*
X114505Y-52087D01*
X114269Y-52087D01*
X114239Y-52100D01*
X114215Y-52123D01*
X114202Y-52154D01*
X114202Y-52187D01*
X114202Y-52195D01*
X114189Y-52195D01*
X114197Y-52151D01*
X114188Y-52104D01*
X114161Y-52064D01*
X114125Y-52040D01*
X114156Y-52009D01*
X114210Y-52009D01*
X114215Y-52021D01*
X114239Y-52045D01*
X114269Y-52057D01*
X114303Y-52057D01*
X114539Y-52057D01*
X114569Y-52045D01*
X114593Y-52021D01*
X114606Y-51990D01*
X114606Y-51957D01*
X114606Y-51800D01*
X114593Y-51769D01*
X114570Y-51746D01*
X114539Y-51733D01*
X114505Y-51733D01*
X114357Y-51733D01*
X114384Y-51706D01*
X114384Y-51706D01*
X114400Y-51681D01*
X114409Y-51669D01*
X114409Y-51669D01*
X114413Y-51648D01*
X114429Y-51641D01*
X114453Y-51618D01*
X114466Y-51587D01*
X114466Y-51566D01*
X114497Y-51566D01*
X114540Y-51557D01*
X114540Y-51557D01*
X114577Y-51532D01*
X114672Y-51437D01*
X114672Y-51437D01*
X114689Y-51413D01*
X114697Y-51400D01*
X114697Y-51400D01*
X114706Y-51357D01*
X114706Y-51357D01*
X114706Y-51288D01*
X114733Y-51288D01*
X114764Y-51276D01*
X114788Y-51252D01*
X114801Y-51221D01*
X114801Y-51188D01*
X114801Y-50738D01*
X114788Y-50707D01*
X114764Y-50684D01*
X114734Y-50671D01*
X114700Y-50671D01*
X114450Y-50671D01*
X114419Y-50684D01*
X114396Y-50707D01*
X114383Y-50738D01*
X114383Y-50771D01*
X114383Y-51221D01*
X114395Y-51250D01*
X114365Y-51250D01*
X114320Y-51250D01*
X114322Y-51246D01*
X114322Y-51164D01*
X114322Y-50795D01*
X114322Y-50714D01*
X114291Y-50638D01*
X114233Y-50581D01*
X114157Y-50550D01*
X114106Y-50550D01*
X114054Y-50601D01*
X114054Y-50885D01*
X114271Y-50885D01*
X114322Y-50833D01*
X114322Y-50795D01*
X114322Y-51164D01*
X114322Y-51126D01*
X114271Y-51075D01*
X114054Y-51075D01*
X114054Y-51129D01*
X114040Y-51129D01*
X113989Y-51180D01*
X113989Y-51393D01*
X114028Y-51393D01*
X114028Y-51511D01*
X113989Y-51511D01*
X113989Y-51555D01*
X113910Y-51555D01*
X113910Y-51511D01*
X113871Y-51511D01*
X113871Y-51410D01*
X113878Y-51410D01*
X113895Y-51393D01*
X113910Y-51393D01*
X113910Y-51377D01*
X113929Y-51358D01*
X113929Y-51075D01*
X113929Y-50885D01*
X113929Y-50601D01*
X113878Y-50550D01*
X113826Y-50550D01*
X113777Y-50570D01*
X113761Y-50563D01*
X113679Y-50563D01*
X113702Y-50563D01*
X113651Y-50614D01*
X113651Y-50846D01*
X113675Y-50846D01*
X113713Y-50885D01*
X113929Y-50885D01*
X113929Y-51075D01*
X113925Y-51075D01*
X113925Y-51055D01*
X113873Y-51004D01*
X113651Y-51004D01*
X113651Y-51028D01*
X113513Y-51028D01*
X113513Y-51004D01*
X113479Y-51004D01*
X113479Y-50846D01*
X113513Y-50846D01*
X113513Y-50614D01*
X113462Y-50563D01*
X113485Y-50563D01*
X113404Y-50563D01*
X113328Y-50594D01*
X113271Y-50652D01*
X113240Y-50727D01*
X113240Y-50795D01*
X113275Y-50830D01*
X113240Y-50830D01*
X113240Y-50864D01*
X113105Y-50864D01*
X113091Y-50832D01*
X113034Y-50774D01*
X112958Y-50743D01*
X112930Y-50743D01*
X112878Y-50794D01*
X112878Y-51007D01*
X112918Y-51007D01*
X112918Y-51125D01*
X112878Y-51125D01*
X112878Y-51338D01*
X112882Y-51342D01*
X112882Y-51385D01*
X112922Y-51385D01*
X112922Y-51503D01*
X112882Y-51503D01*
X112882Y-51547D01*
X112804Y-51547D01*
X112804Y-51503D01*
X112804Y-51385D01*
X112804Y-51172D01*
X112800Y-51168D01*
X112800Y-51125D01*
X112800Y-51007D01*
X112800Y-50794D01*
X112749Y-50743D01*
X112720Y-50743D01*
X112645Y-50774D01*
X112587Y-50832D01*
X112556Y-50907D01*
X112556Y-50989D01*
X112556Y-50956D01*
X112607Y-51007D01*
X112800Y-51007D01*
X112800Y-51125D01*
X112757Y-51125D01*
X112753Y-51121D01*
X112724Y-51121D01*
X112714Y-51125D01*
X112607Y-51125D01*
X112556Y-51176D01*
X112556Y-51144D01*
X112556Y-51225D01*
X112570Y-51260D01*
X112560Y-51285D01*
X112560Y-51367D01*
X112560Y-51334D01*
X112611Y-51385D01*
X112710Y-51385D01*
X112720Y-51389D01*
X112749Y-51389D01*
X112753Y-51385D01*
X112804Y-51385D01*
X112804Y-51503D01*
X112611Y-51503D01*
X112562Y-51552D01*
X112560Y-51552D01*
X112560Y-51522D01*
X112560Y-51552D01*
X112518Y-51552D01*
X112518Y-51562D01*
X112516Y-51562D01*
X112434Y-51617D01*
X112378Y-51699D01*
X112359Y-51796D01*
X112413Y-51836D01*
X112593Y-51836D01*
X112593Y-51812D01*
X112632Y-51812D01*
X112632Y-51836D01*
X112647Y-51836D01*
X112647Y-51993D01*
X112632Y-51993D01*
X112632Y-52018D01*
X112593Y-52018D01*
X112593Y-51993D01*
X112413Y-51993D01*
X112359Y-52033D01*
X112363Y-52051D01*
X111653Y-52051D01*
X111610Y-52060D01*
X111573Y-52084D01*
X111567Y-52090D01*
X110983Y-52090D01*
X112881Y-50192D01*
X115425Y-50192D01*
X115516Y-50283D01*
X115516Y-50787D01*
X115524Y-50830D01*
X115549Y-50867D01*
X115932Y-51250D01*
X115891Y-51348D01*
X115891Y-51501D01*
X115950Y-51642D01*
X116057Y-51750D01*
X116198Y-51808D01*
X116351Y-51809D01*
X116492Y-51750D01*
X116600Y-51642D01*
X116659Y-51501D01*
X116659Y-51349D01*
X116601Y-51208D01*
X116493Y-51100D01*
X116352Y-51041D01*
X116199Y-51041D01*
X116090Y-51086D01*
X115743Y-50740D01*
X115743Y-50236D01*
X115735Y-50192D01*
X115735Y-50192D01*
X115710Y-50155D01*
X115589Y-50035D01*
X115724Y-50035D01*
X115891Y-50202D01*
X115891Y-50741D01*
X115904Y-50772D01*
X115928Y-50796D01*
X115958Y-50808D01*
X115992Y-50808D01*
X116592Y-50808D01*
X116622Y-50796D01*
X116646Y-50772D01*
X116659Y-50741D01*
X116659Y-50708D01*
X116659Y-50108D01*
X116646Y-50077D01*
X116623Y-50054D01*
X116592Y-50041D01*
X116559Y-50041D01*
X116052Y-50041D01*
X115852Y-49840D01*
X115815Y-49816D01*
X115771Y-49807D01*
X112755Y-49807D01*
X112712Y-49816D01*
X112700Y-49824D01*
X112675Y-49840D01*
X110775Y-51740D01*
X110775Y-51101D01*
X110775Y-50946D01*
X110775Y-50864D01*
X110744Y-50789D01*
X110686Y-50731D01*
X110611Y-50700D01*
X110582Y-50700D01*
X110531Y-50751D01*
X110531Y-50964D01*
X110724Y-50964D01*
X110775Y-50913D01*
X110775Y-50946D01*
X110775Y-51101D01*
X110775Y-51133D01*
X110724Y-51082D01*
X110531Y-51082D01*
X110531Y-51295D01*
X110582Y-51346D01*
X110611Y-51346D01*
X110686Y-51315D01*
X110744Y-51257D01*
X110775Y-51182D01*
X110775Y-51101D01*
X110775Y-51740D01*
X110740Y-51776D01*
X110720Y-51776D01*
X110673Y-51766D01*
X110507Y-51766D01*
X110460Y-51776D01*
X110420Y-51802D01*
X110394Y-51842D01*
X110384Y-51889D01*
X110394Y-51936D01*
X110415Y-51968D01*
X110394Y-52000D01*
X110384Y-52047D01*
X110394Y-52094D01*
X110415Y-52125D01*
X110394Y-52157D01*
X110384Y-52204D01*
X110394Y-52251D01*
X110415Y-52283D01*
X110394Y-52315D01*
X110384Y-52362D01*
X110394Y-52409D01*
X110415Y-52440D01*
X110394Y-52472D01*
X110384Y-52519D01*
X110394Y-52566D01*
X110415Y-52598D01*
X110394Y-52630D01*
X110384Y-52677D01*
X110394Y-52724D01*
X110415Y-52755D01*
X110394Y-52787D01*
X110384Y-52834D01*
X110394Y-52881D01*
X110415Y-52913D01*
X110394Y-52945D01*
X110384Y-52992D01*
X110394Y-53039D01*
X110415Y-53070D01*
X110394Y-53102D01*
X110384Y-53149D01*
X110394Y-53196D01*
X110415Y-53228D01*
X110394Y-53259D01*
X110384Y-53307D01*
X110394Y-53354D01*
X110415Y-53385D01*
X110406Y-53399D01*
X110399Y-53401D01*
X110340Y-53447D01*
X110237Y-53344D01*
X110201Y-53320D01*
X110157Y-53311D01*
X108886Y-53311D01*
X108844Y-53269D01*
X108776Y-53241D01*
X108703Y-53241D01*
X108636Y-53269D01*
X108584Y-53320D01*
X108556Y-53388D01*
X108556Y-53448D01*
X108506Y-53498D01*
X108512Y-53464D01*
X108503Y-53417D01*
X108482Y-53385D01*
X108503Y-53354D01*
X108512Y-53307D01*
X108503Y-53259D01*
X108482Y-53228D01*
X108503Y-53196D01*
X108512Y-53149D01*
X108503Y-53102D01*
X108482Y-53070D01*
X108503Y-53039D01*
X108512Y-52992D01*
X108503Y-52945D01*
X108482Y-52913D01*
X108503Y-52881D01*
X108512Y-52834D01*
X108503Y-52787D01*
X108482Y-52755D01*
X108503Y-52724D01*
X108512Y-52677D01*
X108503Y-52630D01*
X108482Y-52598D01*
X108503Y-52566D01*
X108512Y-52519D01*
X108503Y-52472D01*
X108482Y-52440D01*
X108503Y-52409D01*
X108512Y-52362D01*
X108503Y-52315D01*
X108482Y-52283D01*
X108503Y-52251D01*
X108512Y-52204D01*
X108503Y-52157D01*
X108482Y-52125D01*
X108503Y-52094D01*
X108512Y-52047D01*
X108503Y-52000D01*
X108482Y-51968D01*
X108503Y-51936D01*
X108505Y-51928D01*
X108505Y-51981D01*
X108533Y-52048D01*
X108584Y-52100D01*
X108652Y-52128D01*
X108725Y-52128D01*
X108792Y-52100D01*
X108844Y-52049D01*
X108872Y-51981D01*
X108872Y-51908D01*
X108867Y-51896D01*
X108877Y-51885D01*
X108877Y-51860D01*
X108894Y-51880D01*
X108931Y-51901D01*
X108955Y-51930D01*
X108974Y-51928D01*
X108976Y-51927D01*
X108978Y-51928D01*
X108997Y-51930D01*
X109021Y-51901D01*
X109058Y-51880D01*
X109074Y-51860D01*
X109074Y-51885D01*
X109112Y-51930D01*
X109131Y-51928D01*
X109216Y-51880D01*
X109275Y-51805D01*
X109277Y-51798D01*
X109291Y-51789D01*
X109322Y-51810D01*
X109370Y-51819D01*
X109417Y-51810D01*
X109448Y-51789D01*
X109480Y-51810D01*
X109527Y-51819D01*
X109574Y-51810D01*
X109606Y-51789D01*
X109637Y-51810D01*
X109685Y-51819D01*
X109732Y-51810D01*
X109763Y-51789D01*
X109795Y-51810D01*
X109842Y-51819D01*
X109889Y-51810D01*
X109921Y-51789D01*
X109952Y-51810D01*
X110000Y-51819D01*
X110047Y-51810D01*
X110078Y-51789D01*
X110110Y-51810D01*
X110157Y-51819D01*
X110204Y-51810D01*
X110236Y-51789D01*
X110267Y-51810D01*
X110314Y-51819D01*
X110362Y-51810D01*
X110402Y-51783D01*
X110428Y-51743D01*
X110438Y-51696D01*
X110438Y-51531D01*
X110428Y-51484D01*
X110402Y-51444D01*
X110362Y-51417D01*
X110314Y-51408D01*
X110267Y-51417D01*
X110236Y-51438D01*
X110204Y-51417D01*
X110157Y-51408D01*
X110110Y-51417D01*
X110078Y-51438D01*
X110047Y-51417D01*
X110000Y-51408D01*
X109952Y-51417D01*
X109921Y-51438D01*
X109910Y-51431D01*
X110116Y-51225D01*
X110226Y-51225D01*
X110239Y-51257D01*
X110297Y-51315D01*
X110372Y-51346D01*
X110401Y-51346D01*
X110452Y-51295D01*
X110452Y-51082D01*
X110413Y-51082D01*
X110413Y-50964D01*
X110452Y-50964D01*
X110452Y-50751D01*
X110401Y-50700D01*
X110372Y-50700D01*
X110297Y-50731D01*
X110239Y-50789D01*
X110226Y-50821D01*
X110199Y-50821D01*
X110120Y-50821D01*
X110126Y-50808D01*
X110126Y-50570D01*
X110095Y-50494D01*
X110037Y-50436D01*
X109962Y-50405D01*
X109880Y-50405D01*
X109913Y-50405D01*
X109862Y-50456D01*
X109862Y-50649D01*
X110074Y-50649D01*
X110126Y-50598D01*
X110126Y-50570D01*
X110126Y-50808D01*
X110126Y-50779D01*
X110074Y-50728D01*
X109862Y-50728D01*
X109862Y-50767D01*
X109756Y-50767D01*
X109744Y-50738D01*
X109744Y-50728D01*
X109738Y-50728D01*
X109683Y-50672D01*
X109628Y-50649D01*
X109744Y-50649D01*
X109744Y-50456D01*
X109692Y-50405D01*
X109725Y-50405D01*
X109644Y-50405D01*
X109568Y-50436D01*
X109511Y-50494D01*
X109480Y-50570D01*
X109480Y-50598D01*
X109531Y-50649D01*
X109555Y-50649D01*
X109512Y-50692D01*
X109512Y-50746D01*
X109480Y-50779D01*
X109480Y-50808D01*
X109511Y-50883D01*
X109533Y-50905D01*
X109512Y-50905D01*
X109512Y-50925D01*
X109413Y-50925D01*
X109406Y-50907D01*
X109404Y-50906D01*
X109404Y-50905D01*
X109404Y-50905D01*
X109364Y-50866D01*
X109404Y-50866D01*
X109404Y-50692D01*
X109353Y-50641D01*
X109390Y-50641D01*
X109309Y-50641D01*
X109297Y-50646D01*
X109297Y-50462D01*
X109286Y-50407D01*
X109284Y-50396D01*
X109284Y-50396D01*
X109246Y-50339D01*
X109246Y-50339D01*
X109059Y-50152D01*
X109003Y-50115D01*
X108937Y-50101D01*
X108822Y-50101D01*
X108806Y-50086D01*
X108776Y-50073D01*
X108742Y-50073D01*
X108585Y-50073D01*
X108555Y-50086D01*
X108531Y-50110D01*
X108518Y-50140D01*
X108518Y-50174D01*
X108518Y-50217D01*
X108507Y-50275D01*
X108518Y-50333D01*
X108518Y-50410D01*
X108531Y-50440D01*
X108554Y-50464D01*
X108585Y-50477D01*
X108619Y-50477D01*
X108776Y-50477D01*
X108806Y-50464D01*
X108822Y-50449D01*
X108865Y-50449D01*
X108950Y-50534D01*
X108950Y-50793D01*
X108944Y-50798D01*
X108932Y-50829D01*
X108932Y-50836D01*
X108899Y-50849D01*
X108841Y-50907D01*
X108810Y-50983D01*
X108810Y-50992D01*
X108861Y-51043D01*
X109069Y-51043D01*
X109069Y-51023D01*
X109169Y-51023D01*
X109176Y-51041D01*
X109178Y-51042D01*
X109178Y-51043D01*
X109178Y-51043D01*
X109217Y-51082D01*
X109178Y-51082D01*
X109178Y-51102D01*
X109069Y-51102D01*
X109069Y-51082D01*
X108861Y-51082D01*
X108810Y-51133D01*
X108810Y-51142D01*
X108841Y-51218D01*
X108899Y-51276D01*
X108931Y-51289D01*
X108931Y-51296D01*
X108940Y-51315D01*
X108931Y-51326D01*
X108894Y-51347D01*
X108877Y-51368D01*
X108877Y-51343D01*
X108840Y-51297D01*
X108820Y-51300D01*
X108736Y-51347D01*
X108676Y-51423D01*
X108675Y-51429D01*
X108661Y-51438D01*
X108629Y-51417D01*
X108582Y-51408D01*
X108535Y-51417D01*
X108495Y-51444D01*
X108468Y-51484D01*
X108465Y-51500D01*
X108089Y-51500D01*
X108108Y-51492D01*
X108165Y-51434D01*
X108197Y-51359D01*
X108197Y-51121D01*
X108197Y-50729D01*
X108197Y-50700D01*
X108145Y-50649D01*
X107933Y-50649D01*
X107933Y-50842D01*
X107984Y-50893D01*
X107951Y-50893D01*
X108032Y-50893D01*
X108108Y-50862D01*
X108165Y-50804D01*
X108197Y-50729D01*
X108197Y-51121D01*
X108165Y-51045D01*
X108108Y-50988D01*
X108032Y-50956D01*
X107951Y-50956D01*
X107984Y-50956D01*
X107933Y-51008D01*
X107933Y-51201D01*
X108145Y-51201D01*
X108197Y-51149D01*
X108197Y-51121D01*
X108197Y-51359D01*
X108197Y-51330D01*
X108145Y-51279D01*
X107933Y-51279D01*
X107933Y-51318D01*
X107815Y-51318D01*
X107815Y-51279D01*
X107815Y-51201D01*
X107815Y-51008D01*
X107815Y-50842D01*
X107815Y-50649D01*
X107602Y-50649D01*
X107551Y-50700D01*
X107550Y-50729D01*
X107582Y-50804D01*
X107639Y-50862D01*
X107715Y-50893D01*
X107796Y-50893D01*
X107763Y-50893D01*
X107815Y-50842D01*
X107815Y-51008D01*
X107763Y-50956D01*
X107796Y-50956D01*
X107715Y-50956D01*
X107639Y-50988D01*
X107582Y-51045D01*
X107550Y-51121D01*
X107551Y-51149D01*
X107602Y-51201D01*
X107815Y-51201D01*
X107815Y-51279D01*
X107602Y-51279D01*
X107551Y-51330D01*
X107550Y-51359D01*
X107582Y-51434D01*
X107639Y-51492D01*
X107672Y-51506D01*
X107672Y-51532D01*
X107672Y-51689D01*
X107684Y-51720D01*
X107708Y-51743D01*
X107739Y-51756D01*
X107772Y-51756D01*
X108008Y-51756D01*
X108039Y-51743D01*
X108055Y-51727D01*
X108465Y-51727D01*
X108468Y-51743D01*
X108495Y-51783D01*
X108535Y-51810D01*
X108558Y-51815D01*
X108533Y-51840D01*
X108512Y-51889D01*
X108512Y-51889D01*
X108503Y-51842D01*
X108476Y-51802D01*
X108436Y-51776D01*
X108389Y-51766D01*
X108224Y-51766D01*
X108177Y-51776D01*
X107874Y-51776D01*
X107830Y-51784D01*
X107793Y-51809D01*
X107669Y-51933D01*
X107480Y-51933D01*
X107436Y-51942D01*
X107399Y-51966D01*
X107196Y-52169D01*
X106968Y-52169D01*
X106924Y-52178D01*
X106912Y-52186D01*
X106888Y-52203D01*
X106862Y-52228D01*
X106831Y-52216D01*
X106754Y-52216D01*
X106702Y-52267D01*
X106702Y-52500D01*
X106717Y-52500D01*
X106717Y-52657D01*
X106702Y-52657D01*
X106702Y-52681D01*
X106543Y-52681D01*
X106543Y-52538D01*
X106525Y-52495D01*
X106525Y-52267D01*
X106474Y-52216D01*
X106396Y-52216D01*
X106321Y-52247D01*
X106263Y-52304D01*
X106232Y-52380D01*
X106231Y-52461D01*
X106232Y-52448D01*
X106279Y-52496D01*
X106279Y-52618D01*
X106492Y-52618D01*
X106543Y-52567D01*
X106543Y-52538D01*
X106543Y-52681D01*
X106525Y-52681D01*
X106525Y-52657D01*
X106283Y-52657D01*
X106232Y-52708D01*
X106231Y-52695D01*
X106232Y-52736D01*
X106161Y-52736D01*
X106161Y-52696D01*
X106161Y-52618D01*
X106161Y-52425D01*
X106110Y-52374D01*
X106143Y-52374D01*
X106061Y-52374D01*
X105986Y-52405D01*
X105928Y-52463D01*
X105897Y-52538D01*
X105897Y-52567D01*
X105948Y-52618D01*
X106161Y-52618D01*
X106161Y-52696D01*
X105948Y-52696D01*
X105897Y-52748D01*
X105897Y-52776D01*
X105928Y-52852D01*
X105986Y-52909D01*
X106018Y-52923D01*
X106018Y-52949D01*
X106018Y-53106D01*
X106031Y-53137D01*
X106054Y-53161D01*
X106085Y-53173D01*
X106119Y-53173D01*
X106353Y-53173D01*
X106353Y-53185D01*
X106365Y-53216D01*
X106389Y-53240D01*
X106420Y-53253D01*
X106453Y-53253D01*
X106800Y-53253D01*
X106814Y-53285D01*
X106872Y-53343D01*
X106947Y-53374D01*
X107025Y-53374D01*
X107076Y-53323D01*
X107076Y-53090D01*
X107062Y-53090D01*
X107062Y-52933D01*
X107076Y-52933D01*
X107076Y-52908D01*
X107253Y-52908D01*
X107253Y-52933D01*
X107496Y-52933D01*
X107496Y-52933D01*
X107500Y-52933D01*
X107500Y-52929D01*
X107535Y-52893D01*
X107547Y-52893D01*
X107547Y-52894D01*
X107547Y-52893D01*
X107606Y-52893D01*
X107618Y-52922D01*
X107618Y-52933D01*
X107623Y-52933D01*
X107679Y-52988D01*
X107735Y-53011D01*
X107618Y-53011D01*
X107618Y-53204D01*
X107669Y-53255D01*
X107636Y-53255D01*
X107718Y-53255D01*
X107793Y-53224D01*
X107850Y-53166D01*
X107882Y-53091D01*
X107882Y-53062D01*
X107830Y-53011D01*
X107811Y-53011D01*
X107854Y-52968D01*
X107854Y-52909D01*
X107882Y-52881D01*
X107882Y-52853D01*
X107854Y-52786D01*
X107854Y-52775D01*
X107848Y-52775D01*
X107810Y-52737D01*
X107810Y-52696D01*
X107854Y-52696D01*
X107854Y-52657D01*
X107972Y-52657D01*
X107972Y-52696D01*
X108016Y-52696D01*
X108016Y-52775D01*
X107972Y-52775D01*
X107972Y-52968D01*
X108023Y-53019D01*
X107990Y-53019D01*
X108072Y-53019D01*
X108104Y-53006D01*
X108110Y-53039D01*
X108131Y-53070D01*
X108110Y-53102D01*
X108101Y-53149D01*
X108110Y-53196D01*
X108131Y-53228D01*
X108110Y-53259D01*
X108101Y-53307D01*
X108110Y-53354D01*
X108131Y-53385D01*
X108110Y-53417D01*
X108101Y-53464D01*
X108110Y-53511D01*
X108131Y-53543D01*
X108110Y-53574D01*
X108101Y-53622D01*
X108110Y-53669D01*
X108137Y-53709D01*
X108177Y-53735D01*
X108224Y-53745D01*
X108389Y-53745D01*
X108436Y-53735D01*
X108468Y-53714D01*
X108468Y-53767D01*
X108465Y-53783D01*
X108019Y-53783D01*
X107976Y-53792D01*
X107964Y-53800D01*
X107943Y-53814D01*
X107806Y-53814D01*
X107775Y-53827D01*
X107751Y-53850D01*
X107739Y-53881D01*
X107739Y-53914D01*
X107739Y-54043D01*
X107734Y-54039D01*
X107659Y-54007D01*
X107578Y-54007D01*
X107547Y-54007D01*
X107547Y-53128D01*
X107547Y-53141D01*
X107500Y-53094D01*
X107500Y-53011D01*
X107287Y-53011D01*
X107236Y-53062D01*
X107236Y-53091D01*
X107253Y-53134D01*
X107253Y-53323D01*
X107305Y-53374D01*
X107383Y-53374D01*
X107458Y-53343D01*
X107516Y-53285D01*
X107547Y-53210D01*
X107547Y-53128D01*
X107547Y-54007D01*
X107539Y-54007D01*
X107488Y-54059D01*
X107488Y-54275D01*
X107653Y-54275D01*
X107669Y-54291D01*
X107881Y-54291D01*
X107881Y-54252D01*
X107999Y-54252D01*
X107999Y-54291D01*
X108212Y-54291D01*
X108263Y-54240D01*
X108263Y-54211D01*
X108232Y-54136D01*
X108175Y-54078D01*
X108142Y-54064D01*
X108142Y-54038D01*
X108142Y-54011D01*
X108465Y-54011D01*
X108468Y-54027D01*
X108495Y-54067D01*
X108535Y-54094D01*
X108582Y-54103D01*
X108626Y-54094D01*
X108626Y-54140D01*
X108459Y-54140D01*
X108428Y-54153D01*
X108404Y-54177D01*
X108392Y-54207D01*
X108392Y-54241D01*
X108392Y-54491D01*
X108404Y-54521D01*
X108428Y-54545D01*
X108459Y-54558D01*
X108492Y-54558D01*
X108942Y-54558D01*
X108973Y-54545D01*
X108996Y-54522D01*
X109009Y-54491D01*
X109009Y-54458D01*
X109009Y-54208D01*
X108996Y-54177D01*
X108973Y-54153D01*
X108942Y-54140D01*
X108909Y-54140D01*
X108853Y-54140D01*
X108853Y-54094D01*
X108897Y-54103D01*
X108944Y-54094D01*
X108976Y-54072D01*
X109008Y-54094D01*
X109055Y-54103D01*
X109102Y-54094D01*
X109133Y-54072D01*
X109165Y-54094D01*
X109212Y-54103D01*
X109259Y-54094D01*
X109291Y-54072D01*
X109322Y-54094D01*
X109370Y-54103D01*
X109417Y-54094D01*
X109448Y-54072D01*
X109480Y-54094D01*
X109527Y-54103D01*
X109574Y-54094D01*
X109606Y-54072D01*
X109637Y-54094D01*
X109685Y-54103D01*
X109732Y-54094D01*
X109763Y-54072D01*
X109795Y-54094D01*
X109842Y-54103D01*
X109889Y-54094D01*
X109921Y-54072D01*
X109952Y-54094D01*
X110000Y-54103D01*
X110047Y-54094D01*
X110078Y-54072D01*
X110110Y-54094D01*
X110157Y-54103D01*
X110175Y-54099D01*
X110169Y-54102D01*
X110145Y-54125D01*
X110133Y-54156D01*
X110133Y-54189D01*
X110133Y-54425D01*
X110145Y-54456D01*
X110169Y-54480D01*
X110200Y-54493D01*
X110233Y-54493D01*
X110383Y-54493D01*
X110397Y-54525D01*
X110454Y-54583D01*
X110530Y-54614D01*
X110558Y-54614D01*
X110610Y-54563D01*
X110610Y-54350D01*
X110570Y-54350D01*
X110570Y-54232D01*
X110610Y-54232D01*
X110610Y-54019D01*
X110558Y-53968D01*
X110530Y-53968D01*
X110454Y-53999D01*
X110429Y-54025D01*
X110438Y-53980D01*
X110438Y-53853D01*
X110492Y-53868D01*
X110531Y-53817D01*
X110531Y-53641D01*
X110487Y-53641D01*
X110487Y-53602D01*
X110531Y-53602D01*
X110531Y-53587D01*
X110649Y-53587D01*
X110649Y-53602D01*
X110861Y-53602D01*
X110906Y-53564D01*
X110904Y-53545D01*
X110857Y-53461D01*
X110781Y-53401D01*
X110775Y-53399D01*
X110765Y-53385D01*
X110786Y-53354D01*
X110796Y-53307D01*
X110786Y-53259D01*
X110765Y-53228D01*
X110786Y-53196D01*
X110796Y-53149D01*
X110787Y-53105D01*
X111483Y-53105D01*
X111474Y-53111D01*
X111472Y-53113D01*
X111175Y-53113D01*
X111144Y-53126D01*
X111121Y-53149D01*
X111108Y-53180D01*
X111108Y-53213D01*
X111108Y-53463D01*
X111121Y-53494D01*
X111144Y-53517D01*
X111175Y-53530D01*
X111208Y-53530D01*
X111658Y-53530D01*
X111689Y-53518D01*
X111690Y-53517D01*
X111696Y-53523D01*
X111909Y-53523D01*
X111909Y-53484D01*
X112027Y-53484D01*
X112027Y-53523D01*
X112240Y-53523D01*
X112256Y-53507D01*
X112258Y-53507D01*
X112264Y-53499D01*
X112291Y-53472D01*
X112291Y-53462D01*
X112298Y-53453D01*
X112298Y-53273D01*
X112274Y-53273D01*
X112274Y-53234D01*
X112298Y-53234D01*
X112298Y-53219D01*
X112455Y-53219D01*
X112455Y-53234D01*
X112479Y-53234D01*
X112479Y-53273D01*
X112455Y-53273D01*
X112455Y-53453D01*
X112490Y-53500D01*
X112490Y-53612D01*
X112499Y-53659D01*
X112526Y-53699D01*
X112566Y-53726D01*
X112613Y-53735D01*
X112660Y-53726D01*
X112691Y-53705D01*
X112723Y-53726D01*
X112743Y-53730D01*
X112689Y-53783D01*
X112689Y-53783D01*
X112666Y-53759D01*
X112635Y-53746D01*
X112602Y-53746D01*
X112451Y-53746D01*
X112438Y-53714D01*
X112380Y-53656D01*
X112305Y-53625D01*
X112276Y-53625D01*
X112263Y-53625D01*
X112240Y-53602D01*
X112027Y-53602D01*
X112027Y-53641D01*
X111909Y-53641D01*
X111909Y-53602D01*
X111707Y-53602D01*
X111683Y-53592D01*
X111601Y-53592D01*
X111563Y-53592D01*
X111512Y-53643D01*
X111512Y-53859D01*
X111796Y-53859D01*
X111809Y-53846D01*
X111809Y-53846D01*
X111891Y-53846D01*
X111858Y-53846D01*
X111873Y-53831D01*
X111873Y-53846D01*
X111902Y-53846D01*
X111902Y-53871D01*
X111902Y-53846D01*
X111910Y-53846D01*
X111953Y-53889D01*
X112146Y-53889D01*
X112146Y-53845D01*
X112225Y-53845D01*
X112225Y-53889D01*
X112264Y-53889D01*
X112264Y-54007D01*
X112225Y-54007D01*
X112225Y-54220D01*
X112276Y-54271D01*
X112305Y-54271D01*
X112380Y-54240D01*
X112438Y-54182D01*
X112451Y-54150D01*
X112478Y-54150D01*
X112635Y-54150D01*
X112666Y-54137D01*
X112689Y-54114D01*
X112702Y-54083D01*
X112702Y-54059D01*
X112729Y-54053D01*
X112729Y-54053D01*
X112766Y-54029D01*
X112928Y-53867D01*
X112928Y-54071D01*
X112941Y-54102D01*
X112964Y-54125D01*
X112976Y-54131D01*
X112976Y-54136D01*
X112964Y-54141D01*
X112941Y-54165D01*
X112928Y-54195D01*
X112928Y-54229D01*
X112928Y-54465D01*
X112941Y-54496D01*
X112964Y-54519D01*
X112995Y-54532D01*
X113028Y-54532D01*
X113185Y-54532D01*
X113216Y-54519D01*
X113240Y-54496D01*
X113252Y-54465D01*
X113252Y-54432D01*
X113252Y-54196D01*
X113240Y-54165D01*
X113216Y-54141D01*
X113204Y-54136D01*
X113204Y-54131D01*
X113216Y-54126D01*
X113240Y-54102D01*
X113252Y-54071D01*
X113252Y-54038D01*
X113252Y-53802D01*
X113240Y-53771D01*
X113216Y-53748D01*
X113199Y-53740D01*
X113199Y-53727D01*
X113243Y-53735D01*
X113286Y-53727D01*
X113286Y-53791D01*
X113282Y-53802D01*
X113282Y-53835D01*
X113282Y-54071D01*
X113295Y-54102D01*
X113318Y-54125D01*
X113330Y-54131D01*
X113330Y-54136D01*
X113318Y-54141D01*
X113295Y-54165D01*
X113282Y-54195D01*
X113282Y-54229D01*
X113282Y-54465D01*
X113295Y-54496D01*
X113318Y-54519D01*
X113349Y-54532D01*
X113382Y-54532D01*
X113539Y-54532D01*
X113570Y-54519D01*
X113594Y-54496D01*
X113606Y-54465D01*
X113606Y-54432D01*
X113606Y-54196D01*
X113594Y-54165D01*
X113570Y-54141D01*
X113558Y-54136D01*
X113558Y-54131D01*
X113570Y-54126D01*
X113594Y-54102D01*
X113606Y-54071D01*
X113606Y-54050D01*
X113811Y-54050D01*
X113895Y-54135D01*
X113932Y-54160D01*
X113932Y-54160D01*
X113976Y-54168D01*
X114700Y-54168D01*
X114700Y-54189D01*
X114712Y-54220D01*
X114736Y-54244D01*
X114767Y-54256D01*
X114800Y-54256D01*
X114925Y-54256D01*
X114925Y-54330D01*
X114934Y-54374D01*
X114958Y-54411D01*
X115053Y-54505D01*
X115090Y-54530D01*
X115090Y-54530D01*
X115133Y-54538D01*
X115907Y-54538D01*
X115950Y-54642D01*
X116057Y-54750D01*
X116198Y-54808D01*
X116351Y-54809D01*
X116492Y-54750D01*
X116600Y-54642D01*
X116659Y-54501D01*
X116659Y-54349D01*
X116659Y-55341D01*
X112146Y-55341D01*
X112146Y-54220D01*
X112146Y-54007D01*
X111953Y-54007D01*
X111902Y-54058D01*
X111902Y-54026D01*
X111902Y-54107D01*
X111934Y-54182D01*
X111991Y-54240D01*
X112067Y-54271D01*
X112095Y-54271D01*
X112146Y-54220D01*
X112146Y-55341D01*
X111847Y-55341D01*
X111847Y-54087D01*
X111847Y-54035D01*
X111796Y-53984D01*
X111512Y-53984D01*
X111512Y-54200D01*
X111563Y-54252D01*
X111601Y-54252D01*
X111683Y-54252D01*
X111758Y-54220D01*
X111816Y-54163D01*
X111847Y-54087D01*
X111847Y-55341D01*
X111322Y-55341D01*
X111322Y-54200D01*
X111322Y-53984D01*
X111322Y-53859D01*
X111322Y-53643D01*
X111271Y-53592D01*
X111232Y-53592D01*
X111151Y-53592D01*
X111076Y-53623D01*
X111018Y-53681D01*
X110987Y-53756D01*
X110987Y-53808D01*
X111038Y-53859D01*
X111322Y-53859D01*
X111322Y-53984D01*
X111038Y-53984D01*
X110987Y-54035D01*
X110987Y-54087D01*
X111018Y-54163D01*
X111076Y-54220D01*
X111151Y-54252D01*
X111232Y-54252D01*
X111271Y-54252D01*
X111322Y-54200D01*
X111322Y-55341D01*
X110932Y-55341D01*
X110932Y-54368D01*
X110932Y-54213D01*
X110932Y-54132D01*
X110906Y-54069D01*
X110906Y-53679D01*
X110861Y-53641D01*
X110649Y-53641D01*
X110649Y-53817D01*
X110688Y-53868D01*
X110781Y-53842D01*
X110857Y-53782D01*
X110904Y-53698D01*
X110906Y-53679D01*
X110906Y-54069D01*
X110901Y-54057D01*
X110843Y-53999D01*
X110768Y-53968D01*
X110739Y-53968D01*
X110688Y-54019D01*
X110688Y-54232D01*
X110881Y-54232D01*
X110932Y-54181D01*
X110932Y-54213D01*
X110932Y-54368D01*
X110932Y-54401D01*
X110881Y-54350D01*
X110688Y-54350D01*
X110688Y-54563D01*
X110739Y-54614D01*
X110768Y-54614D01*
X110843Y-54583D01*
X110901Y-54525D01*
X110932Y-54450D01*
X110932Y-54368D01*
X110932Y-55341D01*
X109009Y-55341D01*
X109009Y-55058D01*
X109009Y-54808D01*
X108996Y-54777D01*
X108973Y-54753D01*
X108942Y-54740D01*
X108909Y-54740D01*
X108459Y-54740D01*
X108428Y-54753D01*
X108404Y-54777D01*
X108392Y-54807D01*
X108392Y-54835D01*
X108378Y-54835D01*
X108378Y-54814D01*
X108365Y-54783D01*
X108342Y-54759D01*
X108311Y-54747D01*
X108278Y-54747D01*
X108263Y-54747D01*
X108263Y-54449D01*
X108263Y-54421D01*
X108212Y-54369D01*
X107999Y-54369D01*
X107999Y-54562D01*
X108051Y-54614D01*
X108018Y-54614D01*
X108099Y-54614D01*
X108175Y-54582D01*
X108232Y-54525D01*
X108263Y-54449D01*
X108263Y-54747D01*
X108121Y-54747D01*
X108090Y-54759D01*
X108066Y-54783D01*
X108054Y-54814D01*
X108054Y-54847D01*
X108054Y-55083D01*
X108066Y-55114D01*
X108090Y-55137D01*
X108121Y-55150D01*
X108154Y-55150D01*
X108311Y-55150D01*
X108342Y-55137D01*
X108365Y-55114D01*
X108378Y-55083D01*
X108378Y-55063D01*
X108392Y-55063D01*
X108392Y-55091D01*
X108404Y-55121D01*
X108428Y-55145D01*
X108459Y-55158D01*
X108492Y-55158D01*
X108942Y-55158D01*
X108973Y-55145D01*
X108996Y-55122D01*
X109009Y-55091D01*
X109009Y-55058D01*
X109009Y-55341D01*
X108024Y-55341D01*
X108024Y-55050D01*
X108024Y-54814D01*
X108011Y-54783D01*
X107988Y-54759D01*
X107957Y-54747D01*
X107924Y-54747D01*
X107767Y-54747D01*
X107736Y-54759D01*
X107712Y-54783D01*
X107702Y-54808D01*
X107702Y-54796D01*
X107689Y-54765D01*
X107666Y-54741D01*
X107635Y-54729D01*
X107602Y-54729D01*
X107554Y-54729D01*
X107573Y-54682D01*
X107573Y-54667D01*
X107578Y-54667D01*
X107659Y-54667D01*
X107734Y-54636D01*
X107764Y-54606D01*
X107781Y-54614D01*
X107863Y-54614D01*
X107830Y-54614D01*
X107881Y-54562D01*
X107881Y-54369D01*
X107669Y-54369D01*
X107638Y-54400D01*
X107488Y-54400D01*
X107488Y-54440D01*
X107298Y-54440D01*
X107298Y-54400D01*
X107298Y-54275D01*
X107298Y-54059D01*
X107247Y-54007D01*
X107209Y-54007D01*
X107127Y-54007D01*
X107052Y-54039D01*
X106994Y-54096D01*
X106963Y-54172D01*
X106963Y-54224D01*
X107014Y-54275D01*
X107298Y-54275D01*
X107298Y-54400D01*
X107014Y-54400D01*
X106963Y-54451D01*
X106963Y-54503D01*
X106994Y-54578D01*
X107052Y-54636D01*
X107127Y-54667D01*
X107206Y-54667D01*
X107205Y-54682D01*
X107225Y-54729D01*
X107152Y-54729D01*
X107121Y-54741D01*
X107097Y-54765D01*
X107084Y-54796D01*
X107084Y-54829D01*
X107084Y-55079D01*
X107097Y-55110D01*
X107121Y-55133D01*
X107151Y-55146D01*
X107185Y-55146D01*
X107635Y-55146D01*
X107666Y-55133D01*
X107689Y-55110D01*
X107700Y-55084D01*
X107712Y-55114D01*
X107736Y-55137D01*
X107767Y-55150D01*
X107800Y-55150D01*
X107957Y-55150D01*
X107988Y-55137D01*
X108011Y-55114D01*
X108024Y-55083D01*
X108024Y-55050D01*
X108024Y-55341D01*
X104792Y-55341D01*
X104792Y-51697D01*
X107406Y-51697D01*
X107406Y-50477D01*
X107516Y-50477D01*
X107546Y-50464D01*
X107561Y-50449D01*
X107568Y-50449D01*
X107550Y-50490D01*
X107551Y-50519D01*
X107602Y-50570D01*
X107815Y-50570D01*
X107815Y-50531D01*
X107933Y-50531D01*
X107933Y-50570D01*
X108145Y-50570D01*
X108197Y-50519D01*
X108197Y-50490D01*
X108180Y-50449D01*
X108186Y-50449D01*
X108200Y-50464D01*
X108231Y-50477D01*
X108265Y-50477D01*
X108422Y-50477D01*
X108452Y-50464D01*
X108476Y-50441D01*
X108489Y-50410D01*
X108489Y-50377D01*
X108489Y-50336D01*
X108501Y-50275D01*
X108489Y-50215D01*
X108489Y-50141D01*
X108476Y-50110D01*
X108452Y-50086D01*
X108422Y-50073D01*
X108388Y-50073D01*
X108231Y-50073D01*
X108201Y-50086D01*
X108186Y-50101D01*
X108026Y-50101D01*
X108008Y-50093D01*
X107975Y-50093D01*
X107739Y-50093D01*
X107721Y-50101D01*
X107561Y-50101D01*
X107547Y-50086D01*
X107516Y-50073D01*
X107483Y-50073D01*
X107406Y-50073D01*
X107406Y-49630D01*
X117971Y-49630D01*
X117971Y-52180D01*
M02*
