<?xml version="1.0" standalone="no"?>
 <!DOCTYPE svg PUBLIC "-//W3C//DTD SVG 1.1//EN" 
 "http://www.w3.org/Graphics/SVG/1.1/DTD/svg11.dtd"> 
<svg xmlns="http://www.w3.org/2000/svg" version="1.1" 
    width="41.9989cm" height="29.7002cm" viewBox="0 0 165350 116930 ">
<title>SVG Picture created as emg_circuit_2_ext_amp-F_SilkS.svg date 2015/04/13 22:01:02 </title>
  <desc>Picture generated by PCBNEW </desc>
<g style="fill:#000000; fill-opacity:1;stroke:#000000; stroke-opacity:1;
stroke-linecap:round; stroke-linejoin:round; "
 transform="translate(0 0) scale(1 1)">
</g>
<g style="fill:#000000; fill-opacity:0.0; 
stroke:#000000; stroke-width:39.3701; stroke-opacity:1; 
stroke-linecap:round; stroke-linejoin:round;">
<path d="M4000 4000
L161350 4000
L161350 112930
L4000 112930
L4000 4000
" />
<path d="M4700 4700
L160650 4700
L160650 112230
L4700 112230
L4700 4700
" />
<path d="M26470 4000
L26470 4700
" />
<path d="M15382 4552
L15097 4552
" />
<path d="M15240 4552
L15240 4052
L15192 4123
L15144 4171
L15097 4195
" />
<path d="M26470 112930
L26470 112230
" />
<path d="M15382 112782
L15097 112782
" />
<path d="M15240 112782
L15240 112282
L15192 112353
L15144 112401
L15097 112425
" />
<path d="M48940 4000
L48940 4700
" />
<path d="M37567 4100
L37590 4076
L37638 4052
L37757 4052
L37805 4076
L37829 4100
L37852 4147
L37852 4195
L37829 4266
L37543 4552
L37852 4552
" />
<path d="M48940 112930
L48940 112230
" />
<path d="M37567 112330
L37590 112306
L37638 112282
L37757 112282
L37805 112306
L37829 112330
L37852 112377
L37852 112425
L37829 112496
L37543 112782
L37852 112782
" />
<path d="M71410 4000
L71410 4700
" />
<path d="M60013 4052
L60322 4052
L60156 4242
L60227 4242
L60275 4266
L60299 4290
L60322 4338
L60322 4457
L60299 4504
L60275 4528
L60227 4552
L60084 4552
L60037 4528
L60013 4504
" />
<path d="M71410 112930
L71410 112230
" />
<path d="M60013 112282
L60322 112282
L60156 112472
L60227 112472
L60275 112496
L60299 112520
L60322 112568
L60322 112687
L60299 112734
L60275 112758
L60227 112782
L60084 112782
L60037 112758
L60013 112734
" />
<path d="M93880 4000
L93880 4700
" />
<path d="M82745 4219
L82745 4552
" />
<path d="M82626 4028
L82507 4385
L82816 4385
" />
<path d="M93880 112930
L93880 112230
" />
<path d="M82745 112449
L82745 112782
" />
<path d="M82626 112258
L82507 112615
L82816 112615
" />
<path d="M116350 4000
L116350 4700
" />
<path d="M105239 4052
L105000 4052
L104977 4290
L105000 4266
L105048 4242
L105167 4242
L105215 4266
L105239 4290
L105262 4338
L105262 4457
L105239 4504
L105215 4528
L105167 4552
L105048 4552
L105000 4528
L104977 4504
" />
<path d="M116350 112930
L116350 112230
" />
<path d="M105239 112282
L105000 112282
L104977 112520
L105000 112496
L105048 112472
L105167 112472
L105215 112496
L105239 112520
L105262 112568
L105262 112687
L105239 112734
L105215 112758
L105167 112782
L105048 112782
L105000 112758
L104977 112734
" />
<path d="M138820 4000
L138820 4700
" />
<path d="M127685 4052
L127590 4052
L127542 4076
L127518 4100
L127470 4171
L127447 4266
L127447 4457
L127470 4504
L127494 4528
L127542 4552
L127637 4552
L127685 4528
L127709 4504
L127732 4457
L127732 4338
L127709 4290
L127685 4266
L127637 4242
L127542 4242
L127494 4266
L127470 4290
L127447 4338
" />
<path d="M138820 112930
L138820 112230
" />
<path d="M127685 112282
L127590 112282
L127542 112306
L127518 112330
L127470 112401
L127447 112496
L127447 112687
L127470 112734
L127494 112758
L127542 112782
L127637 112782
L127685 112758
L127709 112734
L127732 112687
L127732 112568
L127709 112520
L127685 112496
L127637 112472
L127542 112472
L127494 112496
L127470 112520
L127447 112568
" />
<path d="M149893 4052
L150226 4052
L150012 4552
" />
<path d="M149893 112282
L150226 112282
L150012 112782
" />
<path d="M4000 25780
L4700 25780
" />
<path d="M4230 14949
L4469 14949
" />
<path d="M4183 15092
L4350 14592
L4516 15092
" />
<path d="M161350 25780
L160650 25780
" />
<path d="M160880 14949
L161119 14949
" />
<path d="M160833 15092
L161000 14592
L161166 15092
" />
<path d="M4000 47560
L4700 47560
" />
<path d="M4385 36610
L4457 36634
L4480 36658
L4504 36705
L4504 36777
L4480 36824
L4457 36848
L4409 36872
L4219 36872
L4219 36372
L4385 36372
L4433 36396
L4457 36420
L4480 36467
L4480 36515
L4457 36562
L4433 36586
L4385 36610
L4219 36610
" />
<path d="M161350 47560
L160650 47560
" />
<path d="M161035 36610
L161107 36634
L161130 36658
L161154 36705
L161154 36777
L161130 36824
L161107 36848
L161059 36872
L160869 36872
L160869 36372
L161035 36372
L161083 36396
L161107 36420
L161130 36467
L161130 36515
L161107 36562
L161083 36586
L161035 36610
L160869 36610
" />
<path d="M4000 69340
L4700 69340
" />
<path d="M4504 58604
L4480 58628
L4409 58652
L4361 58652
L4290 58628
L4242 58580
L4219 58533
L4195 58438
L4195 58366
L4219 58271
L4242 58223
L4290 58176
L4361 58152
L4409 58152
L4480 58176
L4504 58200
" />
<path d="M161350 69340
L160650 69340
" />
<path d="M161154 58604
L161130 58628
L161059 58652
L161011 58652
L160940 58628
L160892 58580
L160869 58533
L160845 58438
L160845 58366
L160869 58271
L160892 58223
L160940 58176
L161011 58152
L161059 58152
L161130 58176
L161154 58200
" />
<path d="M4000 91120
L4700 91120
" />
<path d="M4219 80432
L4219 79932
L4338 79932
L4409 79956
L4457 80003
L4480 80051
L4504 80146
L4504 80218
L4480 80313
L4457 80360
L4409 80408
L4338 80432
L4219 80432
" />
<path d="M161350 91120
L160650 91120
" />
<path d="M160869 80432
L160869 79932
L160988 79932
L161059 79956
L161107 80003
L161130 80051
L161154 80146
L161154 80218
L161130 80313
L161107 80360
L161059 80408
L160988 80432
L160869 80432
" />
<path d="M4242 101950
L4409 101950
" />
<path d="M4480 102212
L4242 102212
L4242 101712
L4480 101712
" />
<path d="M160892 101950
L161059 101950
" />
<path d="M161130 102212
L160892 102212
L160892 101712
L161130 101712
" />
<path d="M127800 110672
L127875 110072
L128017 110072
L128100 110101
L128150 110158
L128171 110215
L128185 110330
L128175 110415
L128132 110530
L128096 110587
L128032 110644
L127942 110672
L127800 110672
" />
<path d="M128657 110672
L128696 110358
L128675 110301
L128621 110272
L128507 110272
L128446 110301
" />
<path d="M128660 110644
L128600 110672
L128457 110672
L128403 110644
L128382 110587
L128389 110530
L128425 110472
L128485 110444
L128628 110444
L128689 110415
" />
<path d="M128907 110272
L129135 110272
" />
<path d="M129017 110072
L128953 110587
L128975 110644
L129028 110672
L129085 110672
" />
<path d="M129517 110644
L129457 110672
L129342 110672
L129289 110644
L129267 110587
L129296 110358
L129332 110301
L129392 110272
L129507 110272
L129560 110301
L129582 110358
L129575 110415
L129282 110472
" />
<path d="M129807 110615
L129832 110644
L129800 110672
L129775 110644
L129807 110615
L129800 110672
" />
<path d="M129846 110301
L129871 110330
L129839 110358
L129814 110330
L129846 110301
L129839 110358
" />
<path d="M119392 111872
L119392 111272
" />
<path d="M119735 111872
L119478 111530
" />
<path d="M119735 111272
L119392 111615
" />
<path d="M119992 111872
L119992 111472
" />
<path d="M119992 111272
L119964 111301
L119992 111330
L120021 111301
L119992 111272
L119992 111330
" />
<path d="M120621 111815
L120592 111844
L120507 111872
L120450 111872
L120364 111844
L120307 111787
L120278 111730
L120250 111615
L120250 111530
L120278 111415
L120307 111358
L120364 111301
L120450 111272
L120507 111272
L120592 111301
L120621 111330
" />
<path d="M121135 111872
L121135 111558
L121107 111501
L121050 111472
L120935 111472
L120878 111501
" />
<path d="M121135 111844
L121078 111872
L120935 111872
L120878 111844
L120850 111787
L120850 111730
L120878 111672
L120935 111644
L121078 111644
L121135 111615
" />
<path d="M121678 111872
L121678 111272
" />
<path d="M121678 111844
L121621 111872
L121507 111872
L121450 111844
L121421 111815
L121392 111758
L121392 111587
L121421 111530
L121450 111501
L121507 111472
L121621 111472
L121678 111501
" />
<path d="M122421 111558
L122621 111558
" />
<path d="M122707 111872
L122421 111872
L122421 111272
L122707 111272
" />
<path d="M122964 111815
L122992 111844
L122964 111872
L122935 111844
L122964 111815
L122964 111872
" />
<path d="M123249 111872
L123249 111272
L123392 111272
L123478 111301
L123535 111358
L123564 111415
L123592 111530
L123592 111615
L123564 111730
L123535 111787
L123478 111844
L123392 111872
L123249 111872
" />
<path d="M123849 111815
L123878 111844
L123849 111872
L123821 111844
L123849 111815
L123849 111872
" />
<path d="M124107 111701
L124392 111701
" />
<path d="M124049 111872
L124249 111272
L124449 111872
" />
<path d="M124649 111815
L124678 111844
L124649 111872
L124621 111844
L124649 111815
L124649 111872
" />
<path d="M152942 110672
L152778 110387
" />
<path d="M152600 110672
L152675 110072
L152903 110072
L152957 110101
L152982 110130
L153003 110187
L152992 110272
L152957 110330
L152925 110358
L152864 110387
L152635 110387
" />
<path d="M153432 110644
L153371 110672
L153257 110672
L153203 110644
L153182 110587
L153210 110358
L153246 110301
L153307 110272
L153421 110272
L153475 110301
L153496 110358
L153489 110415
L153196 110472
" />
<path d="M153707 110272
L153800 110672
L153992 110272
" />
<path d="M154178 110615
L154203 110644
L154171 110672
L154146 110644
L154178 110615
L154171 110672
" />
<path d="M154217 110301
L154242 110330
L154210 110358
L154185 110330
L154217 110301
L154210 110358
" />
<path d="M119364 110644
L119450 110672
L119592 110672
L119650 110644
L119678 110615
L119707 110558
L119707 110501
L119678 110444
L119650 110415
L119592 110387
L119478 110358
L119421 110330
L119392 110301
L119364 110244
L119364 110187
L119392 110130
L119421 110101
L119478 110072
L119621 110072
L119707 110101
" />
<path d="M119964 110672
L119964 110272
" />
<path d="M119964 110072
L119935 110101
L119964 110130
L119992 110101
L119964 110072
L119964 110130
" />
<path d="M120192 110272
L120507 110272
L120192 110672
L120507 110672
" />
<path d="M120964 110644
L120907 110672
L120792 110672
L120735 110644
L120707 110587
L120707 110358
L120735 110301
L120792 110272
L120907 110272
L120964 110301
L120992 110358
L120992 110415
L120707 110472
" />
<path d="M121250 110615
L121278 110644
L121250 110672
L121221 110644
L121250 110615
L121250 110672
" />
<path d="M121250 110301
L121278 110330
L121250 110358
L121221 110330
L121250 110301
L121250 110358
" />
<path d="M121964 110501
L122250 110501
" />
<path d="M121907 110672
L122107 110072
L122307 110672
" />
<path d="M122450 110072
L122821 110072
L122621 110301
L122707 110301
L122764 110330
L122792 110358
L122821 110415
L122821 110558
L122792 110615
L122764 110644
L122707 110672
L122535 110672
L122478 110644
L122450 110615
" />
<path d="M152592 111872
L152592 111272
" />
<path d="M153135 111872
L153135 111272
" />
<path d="M153135 111844
L153078 111872
L152964 111872
L152907 111844
L152878 111815
L152850 111758
L152850 111587
L152878 111530
L152907 111501
L152964 111472
L153078 111472
L153135 111501
" />
<path d="M153421 111815
L153450 111844
L153421 111872
L153392 111844
L153421 111815
L153421 111872
" />
<path d="M153421 111501
L153450 111530
L153421 111558
L153392 111530
L153421 111501
L153421 111558
" />
<path d="M154478 111872
L154135 111872
" />
<path d="M154307 111872
L154307 111272
L154249 111358
L154192 111415
L154135 111444
" />
<path d="M155164 111244
L154650 112015
" />
<path d="M155678 111872
L155335 111872
" />
<path d="M155507 111872
L155507 111272
L155449 111358
L155392 111415
L155335 111444
" />
<path d="M119389 108872
L119732 108872
" />
<path d="M119485 109472
L119560 108872
" />
<path d="M119857 109472
L119907 109072
" />
<path d="M119932 108872
L119900 108901
L119925 108930
L119957 108901
L119932 108872
L119925 108930
" />
<path d="M120107 109072
L120335 109072
" />
<path d="M120217 108872
L120153 109387
L120175 109444
L120228 109472
L120285 109472
" />
<path d="M120571 109472
L120517 109444
L120496 109387
L120560 108872
" />
<path d="M121032 109444
L120971 109472
L120857 109472
L120803 109444
L120782 109387
L120810 109158
L120846 109101
L120907 109072
L121021 109072
L121075 109101
L121096 109158
L121089 109215
L120796 109272
" />
<path d="M121321 109415
L121346 109444
L121314 109472
L121289 109444
L121321 109415
L121314 109472
" />
<path d="M121360 109101
L121385 109130
L121353 109158
L121328 109130
L121360 109101
L121353 109158
" />
<path d="M119592 106758
L119392 106758
" />
<path d="M119392 107072
L119392 106472
L119678 106472
" />
<path d="M119907 107072
L119907 106672
" />
<path d="M119907 106472
L119878 106501
L119907 106530
L119935 106501
L119907 106472
L119907 106530
" />
<path d="M120278 107072
L120221 107044
L120192 106987
L120192 106472
" />
<path d="M120735 107044
L120678 107072
L120564 107072
L120507 107044
L120478 106987
L120478 106758
L120507 106701
L120564 106672
L120678 106672
L120735 106701
L120764 106758
L120764 106815
L120478 106872
" />
<path d="M121021 107015
L121050 107044
L121021 107072
L120992 107044
L121021 107015
L121021 107072
" />
<path d="M121021 106701
L121050 106730
L121021 106758
L120992 106730
L121021 106701
L121021 106758
" />
<path d="M121992 107044
L121935 107072
L121821 107072
L121764 107044
L121735 106987
L121735 106758
L121764 106701
L121821 106672
L121935 106672
L121992 106701
L122021 106758
L122021 106815
L121735 106872
" />
<path d="M122278 107072
L122278 106672
" />
<path d="M122278 106730
L122307 106701
L122364 106672
L122450 106672
L122507 106701
L122535 106758
L122535 107072
" />
<path d="M122535 106758
L122564 106701
L122621 106672
L122707 106672
L122764 106701
L122792 106758
L122792 107072
" />
<path d="M123335 106672
L123335 107158
L123307 107215
L123278 107244
L123221 107272
L123135 107272
L123078 107244
" />
<path d="M123335 107044
L123278 107072
L123164 107072
L123107 107044
L123078 107015
L123050 106958
L123050 106787
L123078 106730
L123107 106701
L123164 106672
L123278 106672
L123335 106701
" />
<path d="M123478 107130
L123935 107130
" />
<path d="M124335 107044
L124278 107072
L124164 107072
L124107 107044
L124078 107015
L124050 106958
L124050 106787
L124078 106730
L124107 106701
L124164 106672
L124278 106672
L124335 106701
" />
<path d="M124592 107072
L124592 106672
" />
<path d="M124592 106472
L124564 106501
L124592 106530
L124621 106501
L124592 106472
L124592 106530
" />
<path d="M124878 107072
L124878 106672
" />
<path d="M124878 106787
L124907 106730
L124935 106701
L124992 106672
L125050 106672
" />
<path d="M125507 107044
L125450 107072
L125335 107072
L125278 107044
L125250 107015
L125221 106958
L125221 106787
L125250 106730
L125278 106701
L125335 106672
L125450 106672
L125507 106701
" />
<path d="M126021 106672
L126021 107072
" />
<path d="M125764 106672
L125764 106987
L125792 107044
L125850 107072
L125935 107072
L125992 107044
L126021 107015
" />
<path d="M126307 107072
L126307 106672
" />
<path d="M126307 106472
L126278 106501
L126307 106530
L126335 106501
L126307 106472
L126307 106530
" />
<path d="M126507 106672
L126735 106672
" />
<path d="M126592 106472
L126592 106987
L126621 107044
L126678 107072
L126735 107072
" />
<path d="M126792 107130
L127250 107130
" />
<path d="M127364 106530
L127392 106501
L127450 106472
L127592 106472
L127650 106501
L127678 106530
L127707 106587
L127707 106644
L127678 106730
L127335 107072
L127707 107072
" />
<path d="M127821 107130
L128278 107130
" />
<path d="M128650 107044
L128592 107072
L128478 107072
L128421 107044
L128392 106987
L128392 106758
L128421 106701
L128478 106672
L128592 106672
L128650 106701
L128678 106758
L128678 106815
L128392 106872
" />
<path d="M128878 107072
L129192 106672
" />
<path d="M128878 106672
L129192 107072
" />
<path d="M129335 106672
L129564 106672
" />
<path d="M129421 106472
L129421 106987
L129450 107044
L129507 107072
L129564 107072
" />
<path d="M129621 107130
L130078 107130
" />
<path d="M130478 107072
L130478 106758
L130450 106701
L130392 106672
L130278 106672
L130221 106701
" />
<path d="M130478 107044
L130421 107072
L130278 107072
L130221 107044
L130192 106987
L130192 106930
L130221 106872
L130278 106844
L130421 106844
L130478 106815
" />
<path d="M130764 107072
L130764 106672
" />
<path d="M130764 106730
L130792 106701
L130850 106672
L130935 106672
L130992 106701
L131021 106758
L131021 107072
" />
<path d="M131021 106758
L131050 106701
L131107 106672
L131192 106672
L131250 106701
L131278 106758
L131278 107072
" />
<path d="M131564 106672
L131564 107272
" />
<path d="M131564 106701
L131621 106672
L131735 106672
L131792 106701
L131821 106730
L131850 106787
L131850 106958
L131821 107015
L131792 107044
L131735 107072
L131621 107072
L131564 107044
" />
<path d="M132107 107015
L132135 107044
L132107 107072
L132078 107044
L132107 107015
L132107 107072
" />
<path d="M132392 107072
L132392 106472
" />
<path d="M132450 106844
L132621 107072
" />
<path d="M132621 106672
L132392 106901
" />
<path d="M132878 107072
L132878 106672
" />
<path d="M132878 106472
L132850 106501
L132878 106530
L132907 106501
L132878 106472
L132878 106530
" />
<path d="M133421 107044
L133364 107072
L133250 107072
L133192 107044
L133164 107015
L133135 106958
L133135 106787
L133164 106730
L133192 106701
L133250 106672
L133364 106672
L133421 106701
" />
<path d="M133935 107072
L133935 106758
L133907 106701
L133850 106672
L133735 106672
L133678 106701
" />
<path d="M133935 107044
L133878 107072
L133735 107072
L133678 107044
L133650 106987
L133650 106930
L133678 106872
L133735 106844
L133878 106844
L133935 106815
" />
<path d="M134478 107072
L134478 106472
" />
<path d="M134478 107044
L134421 107072
L134307 107072
L134250 107044
L134221 107015
L134192 106958
L134192 106787
L134221 106730
L134250 106701
L134307 106672
L134421 106672
L134478 106701
" />
<path d="M134621 107130
L135078 107130
" />
<path d="M135221 106672
L135221 107272
" />
<path d="M135221 106701
L135278 106672
L135392 106672
L135450 106701
L135478 106730
L135507 106787
L135507 106958
L135478 107015
L135450 107044
L135392 107072
L135278 107072
L135221 107044
" />
<path d="M136021 107044
L135964 107072
L135850 107072
L135792 107044
L135764 107015
L135735 106958
L135735 106787
L135764 106730
L135792 106701
L135850 106672
L135964 106672
L136021 106701
" />
<path d="M136278 107072
L136278 106472
" />
<path d="M136278 106701
L136335 106672
L136450 106672
L136507 106701
L136535 106730
L136564 106787
L136564 106958
L136535 107015
L136507 107044
L136450 107072
L136335 107072
L136278 107044
" />
<path d="M119364 108244
L119450 108272
L119592 108272
L119650 108244
L119678 108215
L119707 108158
L119707 108101
L119678 108044
L119650 108015
L119592 107987
L119478 107958
L119421 107930
L119392 107901
L119364 107844
L119364 107787
L119392 107730
L119421 107701
L119478 107672
L119621 107672
L119707 107701
" />
<path d="M119964 108272
L119964 107672
" />
<path d="M120221 108272
L120221 107958
L120192 107901
L120135 107872
L120050 107872
L119992 107901
L119964 107930
" />
<path d="M120735 108244
L120678 108272
L120564 108272
L120507 108244
L120478 108187
L120478 107958
L120507 107901
L120564 107872
L120678 107872
L120735 107901
L120764 107958
L120764 108015
L120478 108072
" />
<path d="M121250 108244
L121192 108272
L121078 108272
L121021 108244
L120992 108187
L120992 107958
L121021 107901
L121078 107872
L121192 107872
L121250 107901
L121278 107958
L121278 108015
L120992 108072
" />
<path d="M121450 107872
L121678 107872
" />
<path d="M121535 107672
L121535 108187
L121564 108244
L121621 108272
L121678 108272
" />
<path d="M121878 108215
L121907 108244
L121878 108272
L121850 108244
L121878 108215
L121878 108272
" />
<path d="M121878 107901
L121907 107930
L121878 107958
L121850 107930
L121878 107901
L121878 107958
" />
<path d="M118650 106230
L118650 112230
" />
<path d="M118650 106230
L160650 106230
" />
<path d="M118650 106230
L160650 106230
" />
<path d="M118650 108630
L160650 108630
" />
<path d="M151850 109830
L151850 112230
" />
<path d="M118650 111030
L160650 111030
" />
<path d="M118650 109830
L160650 109830
" />
<path d="M125250 109830
L125250 111030
" />
</g>
<g style="fill:#009F9F; fill-opacity:0.0; 
stroke:#009F9F; stroke-width:196.85; stroke-opacity:1; 
stroke-linecap:round; stroke-linejoin:round;">
<path d="M106259 50264
L106031 50264
" />
</g>
<g style="fill:#FFFF00; fill-opacity:0.0; 
stroke:#FFFF00; stroke-width:39.3701; stroke-opacity:1; 
stroke-linecap:round; stroke-linejoin:round;">
<path d="M104688 55444
L116893 55444
" />
<path d="M104688 49527
L104688 55444
" />
<path d="M116893 52283
L116893 55444
" />
</g>
<g style="fill:#009F9F; fill-opacity:0.0; 
stroke:#009F9F; stroke-width:78.7402; stroke-opacity:1; 
stroke-linecap:round; stroke-linejoin:round;">
<circle cx="113575" cy="51614.2" r="55.6776" /> 
</g>
<g style="fill:#FFFF00; fill-opacity:0.0; 
stroke:#FFFF00; stroke-width:39.3701; stroke-opacity:1; 
stroke-linecap:round; stroke-linejoin:round;">
<path d="M118074 52283
L116893 52283
" />
<path d="M118074 52283
L118074 49527
" />
<path d="M104688 49527
L118074 49527
" />
</g>
<g style="fill:#009F9F; fill-opacity:0.0; 
stroke:#009F9F; stroke-width:59.0551; stroke-opacity:1; 
stroke-linecap:round; stroke-linejoin:round;">
<path d="M109686 54870
L110005 54870
L110043 54852
L110061 54833
L110080 54795
L110080 54720
L110061 54683
L110043 54664
L110005 54645
L109686 54645
" />
<path d="M109724 54477
L109705 54458
L109686 54420
L109686 54327
L109705 54289
L109724 54270
L109761 54252
L109799 54252
L109855 54270
L110080 54495
L110080 54252
" />
<path d="M106698 53323
L106856 53560
" />
<path d="M106856 53323
L106698 53560
" />
<path d="M107069 53560
L106934 53560
" />
<path d="M107002 53560
L107002 53323
L106979 53357
L106957 53380
L106934 53391
" />
</g>
<g style="fill:#009F9F; fill-opacity:0.0; 
stroke:#009F9F; stroke-width:28; stroke-opacity:1; 
stroke-linecap:round; stroke-linejoin:round;">
<path d="M113765 53981
L113759 53988
L113742 53994
L113731 53994
L113714 53988
L113702 53975
L113696 53961
L113691 53935
L113691 53915
L113696 53889
L113702 53876
L113714 53863
L113731 53856
L113742 53856
L113759 53863
L113765 53869
" />
<path d="M113874 53856
L113816 53856
L113811 53922
L113816 53915
L113828 53909
L113856 53909
L113868 53915
L113874 53922
L113879 53935
L113879 53968
L113874 53981
L113868 53988
L113856 53994
L113828 53994
L113816 53988
L113811 53981
" />
<path d="M114567 51507
L114561 51513
L114544 51520
L114533 51520
L114516 51513
L114504 51500
L114499 51487
L114493 51461
L114493 51441
L114499 51415
L114504 51401
L114516 51388
L114533 51382
L114544 51382
L114561 51388
L114567 51395
" />
<path d="M114607 51382
L114681 51382
L114641 51434
L114659 51434
L114670 51441
L114676 51447
L114681 51461
L114681 51493
L114676 51507
L114670 51513
L114659 51520
L114624 51520
L114613 51513
L114607 51507
" />
<path d="M112532 51507
L112526 51513
L112509 51520
L112497 51520
L112480 51513
L112469 51500
L112463 51487
L112457 51461
L112457 51441
L112463 51415
L112469 51401
L112480 51388
L112497 51382
L112509 51382
L112526 51388
L112532 51395
" />
<path d="M112572 51382
L112652 51382
L112600 51520
" />
<path d="M112025 52896
L112032 52901
L112039 52919
L112039 52930
L112032 52947
L112019 52959
L112006 52964
L111979 52970
L111960 52970
L111933 52964
L111920 52959
L111907 52947
L111901 52930
L111901 52919
L111907 52901
L111914 52896
" />
<path d="M112039 52781
L112039 52850
" />
<path d="M112039 52816
L111901 52816
L111920 52827
L111933 52839
L111940 52850
" />
<path d="M111901 52707
L111901 52696
L111907 52684
L111914 52679
L111927 52673
L111953 52667
L111986 52667
L112012 52673
L112025 52679
L112032 52684
L112039 52696
L112039 52707
L112032 52719
L112025 52724
L112012 52730
L111986 52736
L111953 52736
L111927 52730
L111914 52724
L111907 52719
L111901 52707
" />
<path d="M112343 54345
L112337 54352
L112320 54358
L112308 54358
L112291 54352
L112280 54339
L112274 54325
L112268 54299
L112268 54279
L112274 54253
L112280 54240
L112291 54227
L112308 54220
L112320 54220
L112337 54227
L112343 54233
" />
<path d="M112400 54358
L112423 54358
L112434 54352
L112440 54345
L112451 54325
L112457 54299
L112457 54247
L112451 54233
L112446 54227
L112434 54220
L112411 54220
L112400 54227
L112394 54233
L112388 54247
L112388 54279
L112394 54293
L112400 54299
L112411 54306
L112434 54306
L112446 54299
L112451 54293
L112457 54279
" />
<path d="M114850 53641
L114844 53647
L114827 53654
L114815 53654
L114798 53647
L114787 53634
L114781 53621
L114775 53595
L114775 53575
L114781 53549
L114787 53535
L114798 53522
L114815 53516
L114827 53516
L114844 53522
L114850 53529
" />
<path d="M114964 53654
L114895 53654
" />
<path d="M114930 53654
L114930 53516
L114918 53535
L114907 53549
L114895 53555
" />
<path d="M114756 51909
L114762 51915
L114769 51932
L114769 51943
L114762 51960
L114749 51972
L114736 51978
L114710 51983
L114690 51983
L114664 51978
L114651 51972
L114638 51960
L114631 51943
L114631 51932
L114638 51915
L114644 51909
" />
<path d="M114644 51863
L114638 51858
L114631 51846
L114631 51818
L114638 51806
L114644 51800
L114657 51795
L114670 51795
L114690 51800
L114769 51869
L114769 51795
" />
<path d="M107586 51352
L107592 51358
L107599 51375
L107599 51387
L107592 51404
L107579 51415
L107566 51421
L107540 51427
L107520 51427
L107494 51421
L107480 51415
L107467 51404
L107461 51387
L107461 51375
L107467 51358
L107474 51352
" />
<path d="M107599 51238
L107599 51307
" />
<path d="M107599 51272
L107461 51272
L107480 51284
L107494 51295
L107500 51307
" />
<path d="M107520 51169
L107513 51181
L107507 51187
L107494 51192
L107487 51192
L107474 51187
L107467 51181
L107461 51169
L107461 51147
L107467 51135
L107474 51129
L107487 51124
L107494 51124
L107507 51129
L107513 51135
L107520 51147
L107520 51169
L107526 51181
L107533 51187
L107546 51192
L107572 51192
L107586 51187
L107592 51181
L107599 51169
L107599 51147
L107592 51135
L107586 51129
L107572 51124
L107546 51124
L107533 51129
L107526 51135
L107520 51147
" />
<path d="M107971 53199
L107978 53204
L107984 53222
L107984 53233
L107978 53250
L107965 53262
L107952 53267
L107925 53273
L107906 53273
L107879 53267
L107866 53262
L107853 53250
L107846 53233
L107846 53222
L107853 53204
L107860 53199
" />
<path d="M107984 53084
L107984 53153
" />
<path d="M107984 53119
L107846 53119
L107866 53130
L107879 53142
L107886 53153
" />
<path d="M107846 52982
L107846 53004
L107853 53016
L107860 53022
L107879 53033
L107906 53039
L107958 53039
L107971 53033
L107978 53027
L107984 53016
L107984 52993
L107978 52982
L107971 52976
L107958 52970
L107925 52970
L107912 52976
L107906 52982
L107899 52993
L107899 53016
L107906 53027
L107912 53033
L107925 53039
" />
<path d="M106245 52357
L106251 52363
L106258 52380
L106258 52391
L106251 52409
L106238 52420
L106225 52426
L106199 52431
L106179 52431
L106153 52426
L106140 52420
L106126 52409
L106120 52391
L106120 52380
L106126 52363
L106133 52357
" />
<path d="M106258 52243
L106258 52311
" />
<path d="M106258 52277
L106120 52277
L106140 52289
L106153 52300
L106159 52311
" />
<path d="M106166 52140
L106258 52140
" />
<path d="M106113 52169
L106212 52197
L106212 52123
" />
<path d="M107593 52321
L107600 52326
L107607 52344
L107607 52355
L107600 52372
L107587 52384
L107574 52389
L107547 52395
L107528 52395
L107501 52389
L107488 52384
L107475 52372
L107469 52355
L107469 52344
L107475 52326
L107482 52321
" />
<path d="M107607 52206
L107607 52275
" />
<path d="M107607 52241
L107469 52241
L107488 52252
L107501 52264
L107508 52275
" />
<path d="M107469 52098
L107469 52155
L107534 52161
L107528 52155
L107521 52144
L107521 52115
L107528 52104
L107534 52098
L107547 52092
L107580 52092
L107593 52098
L107600 52104
L107607 52115
L107607 52144
L107600 52155
L107593 52161
" />
<path d="M110826 51088
L110832 51094
L110839 51111
L110839 51123
L110832 51140
L110819 51151
L110806 51157
L110780 51163
L110760 51163
L110734 51157
L110721 51151
L110707 51140
L110701 51123
L110701 51111
L110707 51094
L110714 51088
" />
<path d="M110839 50974
L110839 51043
" />
<path d="M110839 51008
L110701 51008
L110721 51020
L110734 51031
L110740 51043
" />
<path d="M110701 50934
L110701 50854
L110839 50906
" />
<path d="M110391 54656
L110385 54663
L110368 54670
L110357 54670
L110339 54663
L110328 54650
L110322 54637
L110317 54610
L110317 54591
L110322 54564
L110328 54551
L110339 54538
L110357 54532
L110368 54532
L110385 54538
L110391 54545
" />
<path d="M110505 54670
L110437 54670
" />
<path d="M110471 54670
L110471 54532
L110459 54551
L110448 54564
L110437 54571
" />
<path d="M110551 54545
L110557 54538
L110568 54532
L110597 54532
L110608 54538
L110614 54545
L110619 54558
L110619 54571
L110614 54591
L110545 54670
L110619 54670
" />
<path d="M107792 53747
L107787 53754
L107770 53760
L107758 53760
L107741 53754
L107730 53740
L107724 53727
L107718 53701
L107718 53681
L107724 53655
L107730 53642
L107741 53629
L107758 53622
L107770 53622
L107787 53629
L107792 53635
" />
<path d="M107907 53760
L107838 53760
" />
<path d="M107872 53760
L107872 53622
L107861 53642
L107850 53655
L107838 53662
" />
<path d="M107947 53622
L108021 53622
L107981 53675
L107998 53675
L108010 53681
L108015 53688
L108021 53701
L108021 53734
L108015 53747
L108010 53754
L107998 53760
L107964 53760
L107952 53754
L107947 53747
" />
<path d="M109737 50440
L109732 50446
L109714 50453
L109703 50453
L109686 50446
L109674 50433
L109669 50420
L109663 50394
L109663 50374
L109669 50348
L109674 50335
L109686 50322
L109703 50315
L109714 50315
L109732 50322
L109737 50328
" />
<path d="M109852 50453
L109783 50453
" />
<path d="M109817 50453
L109817 50315
L109806 50335
L109794 50348
L109783 50354
" />
<path d="M109909 50453
L109932 50453
L109943 50446
L109949 50440
L109960 50420
L109966 50394
L109966 50341
L109960 50328
L109954 50322
L109943 50315
L109920 50315
L109909 50322
L109903 50328
L109897 50341
L109897 50374
L109903 50387
L109909 50394
L109920 50400
L109943 50400
L109954 50394
L109960 50387
L109966 50374
" />
</g>
<g style="fill:#009F9F; fill-opacity:0.0; 
stroke:#009F9F; stroke-width:45; stroke-opacity:1; 
stroke-linecap:round; stroke-linejoin:round;">
<path d="M114253 50561
L114244 50571
L114219 50580
L114202 50580
L114176 50571
L114159 50552
L114150 50533
L114142 50495
L114142 50466
L114150 50428
L114159 50409
L114176 50390
L114202 50380
L114219 50380
L114244 50390
L114253 50400
" />
<path d="M114407 50447
L114407 50580
" />
<path d="M114364 50371
L114322 50514
L114433 50514
" />
</g>
<g style="fill:#009F9F; fill-opacity:0.0; 
stroke:#009F9F; stroke-width:28; stroke-opacity:1; 
stroke-linecap:round; stroke-linejoin:round;">
<path d="M112539 51109
L112533 51116
L112516 51122
L112504 51122
L112487 51116
L112476 51103
L112470 51089
L112464 51063
L112464 51043
L112470 51017
L112476 51004
L112487 50991
L112504 50984
L112516 50984
L112533 50991
L112539 50997
" />
<path d="M112641 50984
L112619 50984
L112607 50991
L112601 50997
L112590 51017
L112584 51043
L112584 51096
L112590 51109
L112596 51116
L112607 51122
L112630 51122
L112641 51116
L112647 51109
L112653 51096
L112653 51063
L112647 51050
L112641 51043
L112630 51037
L112607 51037
L112596 51043
L112590 51050
L112584 51063
" />
<path d="M115220 53142
L115180 53076
" />
<path d="M115151 53142
L115151 53004
L115197 53004
L115208 53011
L115214 53017
L115220 53030
L115220 53050
L115214 53063
L115208 53070
L115197 53076
L115151 53076
" />
<path d="M115265 53017
L115271 53011
L115283 53004
L115311 53004
L115323 53011
L115328 53017
L115334 53030
L115334 53043
L115328 53063
L115260 53142
L115334 53142
" />
<path d="M115228 52701
L115188 52635
" />
<path d="M115159 52701
L115159 52563
L115205 52563
L115216 52570
L115222 52576
L115228 52589
L115228 52609
L115222 52622
L115216 52629
L115205 52635
L115159 52635
" />
<path d="M115268 52563
L115342 52563
L115302 52616
L115319 52616
L115330 52622
L115336 52629
L115342 52642
L115342 52675
L115336 52688
L115330 52694
L115319 52701
L115285 52701
L115273 52694
L115268 52688
" />
<path d="M114515 54122
L114475 54057
" />
<path d="M114446 54122
L114446 53984
L114492 53984
L114504 53991
L114509 53997
L114515 54011
L114515 54030
L114509 54043
L114504 54050
L114492 54057
L114446 54057
" />
<path d="M114618 54030
L114618 54122
" />
<path d="M114589 53978
L114561 54076
L114635 54076
" />
<path d="M107499 50673
L107442 50673
L107442 50535
" />
<path d="M107533 50549
L107539 50542
L107551 50535
L107579 50535
L107591 50542
L107596 50549
L107602 50562
L107602 50575
L107596 50595
L107528 50673
L107602 50673
" />
<path d="M107921 49968
L107921 50025
L107783 50025
" />
<path d="M107921 49865
L107921 49934
" />
<path d="M107921 49900
L107783 49900
L107803 49911
L107816 49923
L107823 49934
" />
<path d="M108411 50688
L108405 50694
L108388 50701
L108376 50701
L108359 50694
L108348 50681
L108342 50668
L108336 50642
L108336 50622
L108342 50596
L108348 50583
L108359 50570
L108376 50563
L108388 50563
L108405 50570
L108411 50576
" />
<path d="M108456 50576
L108462 50570
L108473 50563
L108502 50563
L108513 50570
L108519 50576
L108525 50589
L108525 50602
L108519 50622
L108451 50701
L108525 50701
" />
<path d="M108599 50563
L108611 50563
L108622 50570
L108628 50576
L108633 50589
L108639 50616
L108639 50648
L108633 50675
L108628 50688
L108622 50694
L108611 50701
L108599 50701
L108588 50694
L108582 50688
L108576 50675
L108571 50648
L108571 50616
L108576 50589
L108582 50576
L108588 50570
L108599 50563
" />
</g>
<g style="fill:#009F9F; fill-opacity:0.0; 
stroke:#009F9F; stroke-width:80; stroke-opacity:1; 
stroke-linecap:round; stroke-linejoin:round;">
<path d="M114996 55051
L114996 54651
L115148 54651
L115186 54670
L115205 54689
L115224 54727
L115224 54785
L115205 54823
L115186 54842
L115148 54861
L114996 54861
" />
<path d="M115377 54689
L115396 54670
L115434 54651
L115529 54651
L115567 54670
L115586 54689
L115605 54727
L115605 54765
L115586 54823
L115358 55051
L115605 55051
" />
</g>
<g style="fill:#009F9F; fill-opacity:0.0; 
stroke:#009F9F; stroke-width:50; stroke-opacity:1; 
stroke-linecap:round; stroke-linejoin:round;">
<path d="M117139 49789
L117139 49589
L117215 49589
L117235 49599
L117244 49608
L117254 49627
L117254 49656
L117244 49675
L117235 49684
L117215 49694
L117139 49694
" />
<path d="M117444 49789
L117330 49789
" />
<path d="M117387 49789
L117387 49589
L117368 49618
L117349 49637
L117330 49646
" />
</g>
<g style="fill:#009F9F; fill-opacity:0.0; 
stroke:#009F9F; stroke-width:59.0551; stroke-opacity:1; 
stroke-linecap:round; stroke-linejoin:round;">
<path d="M111463 52056
L111463 52375
L111482 52413
L111501 52431
L111538 52450
L111613 52450
L111651 52431
L111670 52413
L111688 52375
L111688 52056
" />
<path d="M112082 52450
L111857 52450
" />
<path d="M111970 52450
L111970 52056
L111932 52113
L111895 52150
L111857 52169
" />
</g>
<g style="fill:#009F9F; fill-opacity:0.0; 
stroke:#009F9F; stroke-width:45; stroke-opacity:1; 
stroke-linecap:round; stroke-linejoin:round;">
<path d="M109230 54687
L109230 54773
L109030 54773
" />
<path d="M109097 54550
L109230 54550
" />
<path d="M109021 54593
L109163 54636
L109163 54524
" />
</g>
<g style="fill:#009F9F; fill-opacity:0.0; 
stroke:#009F9F; stroke-width:28; stroke-opacity:1; 
stroke-linecap:round; stroke-linejoin:round;">
<path d="M108011 54705
L107954 54705
L107954 54567
" />
<path d="M108040 54567
L108114 54567
L108074 54620
L108091 54620
L108102 54626
L108108 54633
L108114 54646
L108114 54679
L108108 54692
L108102 54698
L108091 54705
L108057 54705
L108045 54698
L108040 54692
" />
</g>
<g style="fill:#009F9F; fill-opacity:0.0; 
stroke:#009F9F; stroke-width:59.0551; stroke-opacity:1; 
stroke-linecap:round; stroke-linejoin:round;">
<path d="M109267 50548
L109282 50506
L109296 50492
L109324 50478
L109366 50478
L109394 50492
L109408 50506
L109422 50534
L109422 50647
L109127 50647
L109127 50548
L109141 50520
L109155 50506
L109183 50492
L109211 50492
L109239 50506
L109253 50520
L109267 50548
L109267 50647
" />
<path d="M109422 50197
L109422 50365
" />
<path d="M109422 50281
L109127 50281
L109169 50309
L109197 50337
L109211 50365
" />
</g>
<g style="fill:#009F9F; fill-opacity:0.0; 
stroke:#009F9F; stroke-width:28; stroke-opacity:1; 
stroke-linecap:round; stroke-linejoin:round;">
<path d="M113247 54386
L113207 54320
" />
<path d="M113179 54386
L113179 54248
L113224 54248
L113236 54255
L113242 54261
L113247 54274
L113247 54294
L113242 54307
L113236 54314
L113224 54320
L113179 54320
" />
<path d="M113362 54386
L113293 54386
" />
<path d="M113327 54386
L113327 54248
L113316 54268
L113304 54281
L113293 54287
" />
</g>
<g style="fill:#009F9F; fill-opacity:0.0; 
stroke:#009F9F; stroke-width:29.5276; stroke-opacity:1; 
stroke-linecap:round; stroke-linejoin:round;">
<path d="M113627 50625
L113632 50631
L113638 50648
L113638 50659
L113632 50676
L113621 50687
L113610 50693
L113587 50699
L113570 50699
L113548 50693
L113537 50687
L113525 50676
L113520 50659
L113520 50648
L113525 50631
L113531 50625
" />
<path d="M113570 50558
L113565 50569
L113559 50575
L113548 50580
L113542 50580
L113531 50575
L113525 50569
L113520 50558
L113520 50535
L113525 50524
L113531 50519
L113542 50513
L113548 50513
L113559 50519
L113565 50524
L113570 50535
L113570 50558
L113576 50569
L113582 50575
L113593 50580
L113615 50580
L113627 50575
L113632 50569
L113638 50558
L113638 50535
L113632 50524
L113627 50519
L113615 50513
L113593 50513
L113582 50519
L113576 50524
L113570 50535
" />
</g>
<g style="fill:#009F9F; fill-opacity:0.0; 
stroke:#009F9F; stroke-width:45; stroke-opacity:1; 
stroke-linecap:round; stroke-linejoin:round;">
<path d="M107006 54749
L107016 54758
L107025 54783
L107025 54801
L107016 54826
L106997 54843
L106978 54852
L106940 54861
L106911 54861
L106873 54852
L106854 54843
L106835 54826
L106825 54801
L106825 54783
L106835 54758
L106844 54749
" />
<path d="M106844 54681
L106835 54672
L106825 54655
L106825 54612
L106835 54595
L106844 54586
L106863 54578
L106882 54578
L106911 54586
L107025 54689
L107025 54578
" />
<path d="M107025 54406
L107025 54509
" />
<path d="M107025 54458
L106825 54458
L106854 54475
L106873 54492
L106882 54509
" />
<path d="M111471 54576
L111480 54584
L111490 54610
L111490 54627
L111480 54653
L111461 54670
L111442 54679
L111404 54687
L111376 54687
L111338 54679
L111318 54670
L111299 54653
L111290 54627
L111290 54610
L111299 54584
L111309 54576
" />
<path d="M111490 54404
L111490 54507
" />
<path d="M111490 54456
L111290 54456
L111318 54473
L111338 54490
L111347 54507
" />
<path d="M111490 54233
L111490 54336
" />
<path d="M111490 54284
L111290 54284
L111318 54302
L111338 54319
L111347 54336
" />
</g>
<g style="fill:#009F9F; fill-opacity:0.0; 
stroke:#009F9F; stroke-width:59.0551; stroke-opacity:1; 
stroke-linecap:round; stroke-linejoin:round;">
<path d="M108267 53700
L108503 53937
" />
<path d="M110629 53937
L108503 53937
" />
<path d="M108267 51574
L108267 53700
" />
<path d="M108267 51574
L110629 51574
" />
<path d="M110629 51574
L110629 53937
" />
<path d="M107283 52795
L107283 52814
" />
<path d="M107283 52795
L107283 52775
" />
<path d="M106496 52795
L106496 52814
" />
<path d="M106496 52795
L106496 52775
" />
<path d="M106889 53110
L106948 53110
" />
<path d="M106889 53110
L106830 53110
" />
<path d="M106889 52480
L106948 52480
" />
<path d="M106889 52480
L106830 52480
" />
</g>
<g style="fill:#009F9F; fill-opacity:0.0; 
stroke:#009F9F; stroke-width:28; stroke-opacity:1; 
stroke-linecap:round; stroke-linejoin:round;">
<path d="M113367 54087
L113567 54087
" />
<path d="M113567 54087
L113567 53787
" />
<path d="M113567 53787
L113367 53787
" />
<path d="M113167 54087
L112967 54087
" />
<path d="M112967 54087
L112967 53787
" />
<path d="M112967 53787
L113167 53787
" />
<path d="M114226 51602
L114426 51602
" />
<path d="M114426 51602
L114426 51302
" />
<path d="M114426 51302
L114226 51302
" />
<path d="M114026 51602
L113826 51602
" />
<path d="M113826 51602
L113826 51302
" />
<path d="M113826 51302
L114026 51302
" />
<path d="M113120 51594
L113320 51594
" />
<path d="M113320 51594
L113320 51294
" />
<path d="M113320 51294
L113120 51294
" />
<path d="M112920 51594
L112720 51594
" />
<path d="M112720 51594
L112720 51294
" />
<path d="M112720 51294
L112920 51294
" />
<path d="M112118 53285
L112118 53085
" />
<path d="M112118 53085
L111818 53085
" />
<path d="M111818 53085
L111818 53285
" />
<path d="M112118 53485
L112118 53685
" />
<path d="M112118 53685
L111818 53685
" />
<path d="M111818 53685
L111818 53485
" />
<path d="M112463 54098
L112663 54098
" />
<path d="M112663 54098
L112663 53798
" />
<path d="M112663 53798
L112463 53798
" />
<path d="M112263 54098
L112063 54098
" />
<path d="M112063 54098
L112063 53798
" />
<path d="M112063 53798
L112263 53798
" />
<path d="M114459 53728
L114659 53728
" />
<path d="M114659 53728
L114659 53428
" />
<path d="M114659 53428
L114459 53428
" />
<path d="M114259 53728
L114059 53728
" />
<path d="M114059 53728
L114059 53428
" />
<path d="M114059 53428
L114259 53428
" />
<path d="M114554 51972
L114554 51772
" />
<path d="M114554 51772
L114254 51772
" />
<path d="M114254 51772
L114254 51972
" />
<path d="M114554 52172
L114554 52372
" />
<path d="M114554 52372
L114254 52372
" />
<path d="M114254 52372
L114254 52172
" />
<path d="M107724 51517
L107724 51717
" />
<path d="M107724 51717
L108024 51717
" />
<path d="M108024 51717
L108024 51517
" />
<path d="M107724 51317
L107724 51117
" />
<path d="M107724 51117
L108024 51117
" />
<path d="M108024 51117
L108024 51317
" />
<path d="M108063 52459
L108063 52259
" />
<path d="M108063 52259
L107763 52259
" />
<path d="M107763 52259
L107763 52459
" />
<path d="M108063 52659
L108063 52859
" />
<path d="M108063 52859
L107763 52859
" />
<path d="M107763 52859
L107763 52659
" />
<path d="M106370 52734
L106370 52534
" />
<path d="M106370 52534
L106070 52534
" />
<path d="M106070 52534
L106070 52734
" />
<path d="M106370 52934
L106370 53134
" />
<path d="M106370 53134
L106070 53134
" />
<path d="M106070 53134
L106070 52934
" />
<path d="M107409 52895
L107409 53095
" />
<path d="M107409 53095
L107709 53095
" />
<path d="M107709 53095
L107709 52895
" />
<path d="M107409 52695
L107409 52495
" />
<path d="M107409 52495
L107709 52495
" />
<path d="M107709 52495
L107709 52695
" />
<path d="M110214 50873
L110014 50873
" />
<path d="M110014 50873
L110014 51173
" />
<path d="M110014 51173
L110214 51173
" />
<path d="M110414 50873
L110614 50873
" />
<path d="M110614 50873
L110614 51173
" />
<path d="M110614 51173
L110414 51173
" />
<path d="M110372 54141
L110172 54141
" />
<path d="M110172 54141
L110172 54441
" />
<path d="M110172 54441
L110372 54441
" />
<path d="M110572 54141
L110772 54141
" />
<path d="M110772 54141
L110772 54441
" />
<path d="M110772 54441
L110572 54441
" />
<path d="M108090 54053
L108090 53853
" />
<path d="M108090 53853
L107790 53853
" />
<path d="M107790 53853
L107790 54053
" />
<path d="M108090 54253
L108090 54453
" />
<path d="M108090 54453
L107790 54453
" />
<path d="M107790 54453
L107790 54253
" />
<path d="M109653 50966
L109653 51166
" />
<path d="M109653 51166
L109953 51166
" />
<path d="M109953 51166
L109953 50966
" />
<path d="M109653 50766
L109653 50566
" />
<path d="M109653 50566
L109953 50566
" />
<path d="M109953 50566
L109953 50766
" />
</g>
<g style="fill:#009F9F; fill-opacity:0.0; 
stroke:#009F9F; stroke-width:50; stroke-opacity:1; 
stroke-linecap:round; stroke-linejoin:round;">
<path d="M114742 51230
L113842 51230
" />
<path d="M113842 51230
L113842 50730
" />
<path d="M113842 50730
L114742 50730
" />
<path d="M114742 50730
L114742 51230
" />
</g>
<g style="fill:#009F9F; fill-opacity:0.0; 
stroke:#009F9F; stroke-width:28; stroke-opacity:1; 
stroke-linecap:round; stroke-linejoin:round;">
<path d="M113116 51216
L113316 51216
" />
<path d="M113316 51216
L113316 50916
" />
<path d="M113316 50916
L113116 50916
" />
<path d="M112916 51216
L112716 51216
" />
<path d="M112716 51216
L112716 50916
" />
<path d="M112716 50916
L112916 50916
" />
<path d="M114864 53220
L115064 53220
" />
<path d="M115064 53220
L115064 52920
" />
<path d="M115064 52920
L114864 52920
" />
<path d="M114664 53220
L114464 53220
" />
<path d="M114464 53220
L114464 52920
" />
<path d="M114464 52920
L114664 52920
" />
<path d="M114668 52495
L114468 52495
" />
<path d="M114468 52495
L114468 52795
" />
<path d="M114468 52795
L114668 52795
" />
<path d="M114868 52495
L115068 52495
" />
<path d="M115068 52495
L115068 52795
" />
<path d="M115068 52795
L114868 52795
" />
<path d="M115139 54205
L115339 54205
" />
<path d="M115339 54205
L115339 53905
" />
<path d="M115339 53905
L115139 53905
" />
<path d="M114939 54205
L114739 54205
" />
<path d="M114739 54205
L114739 53905
" />
<path d="M114739 53905
L114939 53905
" />
</g>
<g style="fill:#009F9F; fill-opacity:0.0; 
stroke:#009F9F; stroke-width:59.0551; stroke-opacity:1; 
stroke-linecap:round; stroke-linejoin:round;">
<path d="M104978 49871
L106868 49871
" />
<path d="M106868 49871
L106868 50658
" />
<path d="M106828 50658
L104978 50658
" />
<path d="M104978 50658
L104978 49871
" />
<path d="M106868 50658
L106828 50658
" />
</g>
<g style="fill:#009F9F; fill-opacity:0.0; 
stroke:#009F9F; stroke-width:28; stroke-opacity:1; 
stroke-linecap:round; stroke-linejoin:round;">
<path d="M107344 50425
L107544 50425
" />
<path d="M107544 50425
L107544 50125
" />
<path d="M107544 50125
L107344 50125
" />
<path d="M107144 50425
L106944 50425
" />
<path d="M106944 50425
L106944 50125
" />
<path d="M106944 50125
L107144 50125
" />
<path d="M108024 50333
L108024 50133
" />
<path d="M108024 50133
L107724 50133
" />
<path d="M107724 50133
L107724 50333
" />
<path d="M108024 50533
L108024 50733
" />
<path d="M108024 50733
L107724 50733
" />
<path d="M107724 50733
L107724 50533
" />
<path d="M108603 50425
L108803 50425
" />
<path d="M108803 50425
L108803 50125
" />
<path d="M108803 50125
L108603 50125
" />
<path d="M108403 50425
L108203 50425
" />
<path d="M108203 50425
L108203 50125
" />
<path d="M108203 50125
L108403 50125
" />
</g>
<g style="fill:#009F9F; fill-opacity:0.0; 
stroke:#009F9F; stroke-width:120; stroke-opacity:1; 
stroke-linecap:round; stroke-linejoin:round;">
<path d="M116775 49925
L115775 49925
" />
<path d="M115775 54925
L116775 54925
" />
<path d="M116775 49925
L116775 54925
" />
<path d="M115775 54925
L115775 49925
" />
</g>
<g style="fill:#009F9F; fill-opacity:0.0; 
stroke:#009F9F; stroke-width:60; stroke-opacity:1; 
stroke-linecap:round; stroke-linejoin:round;">
<path d="M116775 49925
L117775 49925
" />
<path d="M117775 49925
L117775 51925
" />
<path d="M117775 51925
L116775 51925
" />
<path d="M116775 51925
L116775 49925
" />
</g>
<g style="fill:#009F9F; fill-opacity:0.0; 
stroke:#009F9F; stroke-width:59.0551; stroke-opacity:1; 
stroke-linecap:round; stroke-linejoin:round;">
<circle cx="113519" cy="53056.9" r="88.0339" /> 
<path d="M113951 51915
L113833 51915
" />
<path d="M113951 51915
L113951 52033
" />
<path d="M112376 51915
L112495 51915
" />
<path d="M112376 51915
L112376 52033
" />
<path d="M112376 53489
L112376 53371
" />
<path d="M112376 53489
L112495 53489
" />
<path d="M113951 53489
L113951 53371
" />
<path d="M113951 53489
L113833 53489
" />
</g>
<g style="fill:#009F9F; fill-opacity:0.0; 
stroke:#009F9F; stroke-width:50; stroke-opacity:1; 
stroke-linecap:round; stroke-linejoin:round;">
<path d="M108950 54199
L108950 55099
" />
<path d="M108950 55099
L108450 55099
" />
<path d="M108450 55099
L108450 54199
" />
<path d="M108450 54199
L108950 54199
" />
</g>
<g style="fill:#009F9F; fill-opacity:0.0; 
stroke:#009F9F; stroke-width:28; stroke-opacity:1; 
stroke-linecap:round; stroke-linejoin:round;">
<path d="M108139 55098
L108339 55098
" />
<path d="M108339 55098
L108339 54798
" />
<path d="M108339 54798
L108139 54798
" />
<path d="M107939 55098
L107739 55098
" />
<path d="M107739 55098
L107739 54798
" />
<path d="M107739 54798
L107939 54798
" />
</g>
<g style="fill:#009F9F; fill-opacity:0.0; 
stroke:#009F9F; stroke-width:59.0551; stroke-opacity:1; 
stroke-linecap:round; stroke-linejoin:round;">
<path d="M109291 50826
L109291 50984
" />
</g>
<g style="fill:#009F9F; fill-opacity:0.0; 
stroke:#009F9F; stroke-width:28; stroke-opacity:1; 
stroke-linecap:round; stroke-linejoin:round;">
<path d="M113367 54480
L113567 54480
" />
<path d="M113567 54480
L113567 54180
" />
<path d="M113567 54180
L113367 54180
" />
<path d="M113167 54480
L112967 54480
" />
<path d="M112967 54480
L112967 54180
" />
<path d="M112967 54180
L113167 54180
" />
</g>
<g style="fill:#009F9F; fill-opacity:0.0; 
stroke:#009F9F; stroke-width:50; stroke-opacity:1; 
stroke-linecap:round; stroke-linejoin:round;">
<path d="M113692 51271
L113472 51271
" />
<path d="M113692 51011
L113472 51011
" />
<path d="M113692 50931
L113472 50931
" />
<path d="M113472 50931
L113472 51351
" />
<path d="M113472 51351
L113692 51351
" />
<path d="M113692 51351
L113692 50931
" />
<path d="M107143 55087
L107143 54187
" />
<path d="M107143 54187
L107643 54187
" />
<path d="M107643 54187
L107643 55087
" />
<path d="M107643 55087
L107143 55087
" />
<path d="M111667 53172
L111667 54072
" />
<path d="M111667 54072
L111167 54072
" />
<path d="M111167 54072
L111167 53172
" />
<path d="M111167 53172
L111667 53172
" />
</g>
<g style="fill:#7F7F00; fill-opacity:0.0; 
stroke:#7F7F00; stroke-width:39.3701; stroke-opacity:1; 
stroke-linecap:round; stroke-linejoin:round;">
</g>
<g style="fill:#7F7F00; fill-opacity:1.0; 
stroke:#7F7F00; stroke-width:39.3701; stroke-opacity:1; 
stroke-linecap:round; stroke-linejoin:round;">
<polyline style="fill-rule:evenodd;"
points="115995,50144
116555,50144
116555,50705
115995,50705
115995,50144
" /> 
<circle cx="116276" cy="51425.2" r="280.315" /> 
<circle cx="116276" cy="52425.2" r="280.315" /> 
<circle cx="116276" cy="53425.2" r="280.315" /> 
<circle cx="116276" cy="54425.2" r="280.315" /> 
<polyline style="fill-rule:evenodd;"
points="116995,50144
117555,50144
117555,50705
116995,50705
116995,50144
" /> 
<circle cx="117276" cy="51425.2" r="280.315" /> 
</g> 
</svg>
