G04 (created by PCBNEW (2013-07-07 BZR 4022)-stable) date 3/16/2015 2:43:42 PM*
%MOIN*%
G04 Gerber Fmt 3.4, Leading zero omitted, Abs format*
%FSLAX34Y34*%
G01*
G70*
G90*
G04 APERTURE LIST*
%ADD10C,0.00590551*%
%ADD11C,0.005*%
G04 APERTURE END LIST*
G54D10*
G54D11*
X115429Y-49860D02*
X115358Y-50160D01*
X115301Y-49946D01*
X115243Y-50160D01*
X115172Y-49860D01*
X114943Y-50146D02*
X114972Y-50160D01*
X115029Y-50160D01*
X115058Y-50146D01*
X115072Y-50117D01*
X115072Y-50003D01*
X115058Y-49975D01*
X115029Y-49960D01*
X114972Y-49960D01*
X114943Y-49975D01*
X114929Y-50003D01*
X114929Y-50032D01*
X115072Y-50060D01*
X114672Y-50160D02*
X114672Y-50003D01*
X114686Y-49975D01*
X114715Y-49960D01*
X114772Y-49960D01*
X114801Y-49975D01*
X114672Y-50146D02*
X114701Y-50160D01*
X114772Y-50160D01*
X114801Y-50146D01*
X114815Y-50117D01*
X114815Y-50089D01*
X114801Y-50060D01*
X114772Y-50046D01*
X114701Y-50046D01*
X114672Y-50032D01*
X114529Y-50160D02*
X114529Y-49960D01*
X114529Y-50017D02*
X114515Y-49989D01*
X114501Y-49975D01*
X114472Y-49960D01*
X114443Y-49960D01*
X114215Y-50160D02*
X114215Y-50003D01*
X114229Y-49975D01*
X114258Y-49960D01*
X114315Y-49960D01*
X114343Y-49975D01*
X114215Y-50146D02*
X114243Y-50160D01*
X114315Y-50160D01*
X114343Y-50146D01*
X114358Y-50117D01*
X114358Y-50089D01*
X114343Y-50060D01*
X114315Y-50046D01*
X114243Y-50046D01*
X114215Y-50032D01*
X114072Y-50160D02*
X114072Y-49860D01*
X114072Y-49975D02*
X114043Y-49960D01*
X113986Y-49960D01*
X113958Y-49975D01*
X113943Y-49989D01*
X113929Y-50017D01*
X113929Y-50103D01*
X113943Y-50132D01*
X113958Y-50146D01*
X113986Y-50160D01*
X114043Y-50160D01*
X114072Y-50146D01*
X113758Y-50160D02*
X113786Y-50146D01*
X113801Y-50117D01*
X113801Y-49860D01*
X113529Y-50146D02*
X113558Y-50160D01*
X113615Y-50160D01*
X113643Y-50146D01*
X113658Y-50117D01*
X113658Y-50003D01*
X113643Y-49975D01*
X113615Y-49960D01*
X113558Y-49960D01*
X113529Y-49975D01*
X113515Y-50003D01*
X113515Y-50032D01*
X113658Y-50060D01*
X113058Y-50003D02*
X113015Y-50017D01*
X113001Y-50032D01*
X112986Y-50060D01*
X112986Y-50103D01*
X113001Y-50132D01*
X113015Y-50146D01*
X113043Y-50160D01*
X113158Y-50160D01*
X113158Y-49860D01*
X113058Y-49860D01*
X113029Y-49875D01*
X113015Y-49889D01*
X113001Y-49917D01*
X113001Y-49946D01*
X113015Y-49975D01*
X113029Y-49989D01*
X113058Y-50003D01*
X113158Y-50003D01*
X112715Y-50160D02*
X112858Y-50160D01*
X112858Y-49860D01*
X112615Y-50003D02*
X112515Y-50003D01*
X112472Y-50160D02*
X112615Y-50160D01*
X112615Y-49860D01*
X112472Y-49860D01*
X112115Y-50003D02*
X112015Y-50003D01*
X111972Y-50160D02*
X112115Y-50160D01*
X112115Y-49860D01*
X111972Y-49860D01*
X111872Y-50160D02*
X111715Y-49960D01*
X111872Y-49960D02*
X111715Y-50160D01*
X111443Y-49875D02*
X111472Y-49860D01*
X111515Y-49860D01*
X111558Y-49875D01*
X111586Y-49903D01*
X111601Y-49932D01*
X111615Y-49989D01*
X111615Y-50032D01*
X111601Y-50089D01*
X111586Y-50117D01*
X111558Y-50146D01*
X111515Y-50160D01*
X111486Y-50160D01*
X111443Y-50146D01*
X111429Y-50132D01*
X111429Y-50032D01*
X111486Y-50032D01*
X111072Y-50160D02*
X111072Y-49860D01*
X110958Y-49860D01*
X110929Y-49875D01*
X110915Y-49889D01*
X110901Y-49917D01*
X110901Y-49960D01*
X110915Y-49989D01*
X110929Y-50003D01*
X110958Y-50017D01*
X111072Y-50017D01*
X110772Y-50160D02*
X110772Y-49960D01*
X110772Y-50017D02*
X110758Y-49989D01*
X110743Y-49975D01*
X110715Y-49960D01*
X110686Y-49960D01*
X110543Y-50160D02*
X110572Y-50146D01*
X110586Y-50132D01*
X110601Y-50103D01*
X110601Y-50017D01*
X110586Y-49989D01*
X110572Y-49975D01*
X110543Y-49960D01*
X110501Y-49960D01*
X110472Y-49975D01*
X110458Y-49989D01*
X110443Y-50017D01*
X110443Y-50103D01*
X110458Y-50132D01*
X110472Y-50146D01*
X110501Y-50160D01*
X110543Y-50160D01*
X110358Y-49960D02*
X110243Y-49960D01*
X110315Y-49860D02*
X110315Y-50117D01*
X110301Y-50146D01*
X110272Y-50160D01*
X110243Y-50160D01*
X110101Y-50160D02*
X110129Y-50146D01*
X110143Y-50132D01*
X110158Y-50103D01*
X110158Y-50017D01*
X110143Y-49989D01*
X110129Y-49975D01*
X110101Y-49960D01*
X110058Y-49960D01*
X110029Y-49975D01*
X110015Y-49989D01*
X110001Y-50017D01*
X110001Y-50103D01*
X110015Y-50132D01*
X110029Y-50146D01*
X110058Y-50160D01*
X110101Y-50160D01*
X109915Y-49960D02*
X109801Y-49960D01*
X109872Y-49860D02*
X109872Y-50117D01*
X109858Y-50146D01*
X109829Y-50160D01*
X109801Y-50160D01*
X109729Y-49960D02*
X109658Y-50160D01*
X109586Y-49960D02*
X109658Y-50160D01*
X109686Y-50232D01*
X109701Y-50246D01*
X109729Y-50260D01*
X109472Y-49960D02*
X109472Y-50260D01*
X109472Y-49975D02*
X109443Y-49960D01*
X109386Y-49960D01*
X109358Y-49975D01*
X109343Y-49989D01*
X109329Y-50017D01*
X109329Y-50103D01*
X109343Y-50132D01*
X109358Y-50146D01*
X109386Y-50160D01*
X109443Y-50160D01*
X109472Y-50146D01*
X109086Y-50146D02*
X109115Y-50160D01*
X109172Y-50160D01*
X109201Y-50146D01*
X109215Y-50117D01*
X109215Y-50003D01*
X109201Y-49975D01*
X109172Y-49960D01*
X109115Y-49960D01*
X109086Y-49975D01*
X109072Y-50003D01*
X109072Y-50032D01*
X109215Y-50060D01*
X115443Y-50330D02*
X115343Y-50630D01*
X115243Y-50330D01*
X115029Y-50616D02*
X115058Y-50630D01*
X115115Y-50630D01*
X115143Y-50616D01*
X115158Y-50587D01*
X115158Y-50473D01*
X115143Y-50445D01*
X115115Y-50430D01*
X115058Y-50430D01*
X115029Y-50445D01*
X115015Y-50473D01*
X115015Y-50502D01*
X115158Y-50530D01*
X114886Y-50630D02*
X114886Y-50430D01*
X114886Y-50487D02*
X114872Y-50459D01*
X114858Y-50445D01*
X114829Y-50430D01*
X114801Y-50430D01*
X114715Y-50616D02*
X114686Y-50630D01*
X114629Y-50630D01*
X114601Y-50616D01*
X114586Y-50587D01*
X114586Y-50573D01*
X114601Y-50545D01*
X114629Y-50530D01*
X114672Y-50530D01*
X114701Y-50516D01*
X114715Y-50487D01*
X114715Y-50473D01*
X114701Y-50445D01*
X114672Y-50430D01*
X114629Y-50430D01*
X114601Y-50445D01*
X114458Y-50630D02*
X114458Y-50430D01*
X114458Y-50330D02*
X114472Y-50345D01*
X114458Y-50359D01*
X114443Y-50345D01*
X114458Y-50330D01*
X114458Y-50359D01*
X114272Y-50630D02*
X114301Y-50616D01*
X114315Y-50602D01*
X114329Y-50573D01*
X114329Y-50487D01*
X114315Y-50459D01*
X114301Y-50445D01*
X114272Y-50430D01*
X114229Y-50430D01*
X114201Y-50445D01*
X114186Y-50459D01*
X114172Y-50487D01*
X114172Y-50573D01*
X114186Y-50602D01*
X114201Y-50616D01*
X114229Y-50630D01*
X114272Y-50630D01*
X114043Y-50430D02*
X114043Y-50630D01*
X114043Y-50459D02*
X114029Y-50445D01*
X114001Y-50430D01*
X113958Y-50430D01*
X113929Y-50445D01*
X113915Y-50473D01*
X113915Y-50630D01*
X113386Y-50630D02*
X113558Y-50630D01*
X113472Y-50630D02*
X113472Y-50330D01*
X113501Y-50373D01*
X113529Y-50402D01*
X113558Y-50416D01*
X113258Y-50602D02*
X113243Y-50616D01*
X113258Y-50630D01*
X113272Y-50616D01*
X113258Y-50602D01*
X113258Y-50630D01*
X112972Y-50330D02*
X113115Y-50330D01*
X113129Y-50473D01*
X113115Y-50459D01*
X113086Y-50445D01*
X113015Y-50445D01*
X112986Y-50459D01*
X112972Y-50473D01*
X112958Y-50502D01*
X112958Y-50573D01*
X112972Y-50602D01*
X112986Y-50616D01*
X113015Y-50630D01*
X113086Y-50630D01*
X113115Y-50616D01*
X113129Y-50602D01*
X112543Y-50330D02*
X112515Y-50330D01*
X112486Y-50345D01*
X112472Y-50359D01*
X112458Y-50387D01*
X112443Y-50445D01*
X112443Y-50516D01*
X112458Y-50573D01*
X112472Y-50602D01*
X112486Y-50616D01*
X112515Y-50630D01*
X112543Y-50630D01*
X112572Y-50616D01*
X112586Y-50602D01*
X112601Y-50573D01*
X112615Y-50516D01*
X112615Y-50445D01*
X112601Y-50387D01*
X112586Y-50359D01*
X112572Y-50345D01*
X112543Y-50330D01*
X112343Y-50330D02*
X112158Y-50330D01*
X112258Y-50445D01*
X112215Y-50445D01*
X112186Y-50459D01*
X112172Y-50473D01*
X112158Y-50502D01*
X112158Y-50573D01*
X112172Y-50602D01*
X112186Y-50616D01*
X112215Y-50630D01*
X112301Y-50630D01*
X112329Y-50616D01*
X112343Y-50602D01*
X111815Y-50316D02*
X112072Y-50702D01*
X111558Y-50630D02*
X111729Y-50630D01*
X111643Y-50630D02*
X111643Y-50330D01*
X111672Y-50373D01*
X111701Y-50402D01*
X111729Y-50416D01*
X111458Y-50330D02*
X111272Y-50330D01*
X111372Y-50445D01*
X111329Y-50445D01*
X111301Y-50459D01*
X111286Y-50473D01*
X111272Y-50502D01*
X111272Y-50573D01*
X111286Y-50602D01*
X111301Y-50616D01*
X111329Y-50630D01*
X111415Y-50630D01*
X111443Y-50616D01*
X111458Y-50602D01*
X110929Y-50316D02*
X111186Y-50702D01*
X110672Y-50630D02*
X110843Y-50630D01*
X110758Y-50630D02*
X110758Y-50330D01*
X110786Y-50373D01*
X110815Y-50402D01*
X110843Y-50416D01*
X110401Y-50330D02*
X110543Y-50330D01*
X110558Y-50473D01*
X110543Y-50459D01*
X110515Y-50445D01*
X110443Y-50445D01*
X110415Y-50459D01*
X110401Y-50473D01*
X110386Y-50502D01*
X110386Y-50573D01*
X110401Y-50602D01*
X110415Y-50616D01*
X110443Y-50630D01*
X110515Y-50630D01*
X110543Y-50616D01*
X110558Y-50602D01*
X115443Y-50800D02*
X115343Y-51100D01*
X115243Y-50800D01*
X114972Y-51072D02*
X114986Y-51086D01*
X115029Y-51100D01*
X115058Y-51100D01*
X115101Y-51086D01*
X115129Y-51057D01*
X115143Y-51029D01*
X115158Y-50972D01*
X115158Y-50929D01*
X115143Y-50872D01*
X115129Y-50843D01*
X115101Y-50815D01*
X115058Y-50800D01*
X115029Y-50800D01*
X114986Y-50815D01*
X114972Y-50829D01*
X114843Y-50800D02*
X114843Y-51043D01*
X114829Y-51072D01*
X114815Y-51086D01*
X114786Y-51100D01*
X114729Y-51100D01*
X114701Y-51086D01*
X114686Y-51072D01*
X114672Y-51043D01*
X114672Y-50800D01*
X114201Y-50943D02*
X114158Y-50957D01*
X114143Y-50972D01*
X114129Y-51000D01*
X114129Y-51043D01*
X114143Y-51072D01*
X114158Y-51086D01*
X114186Y-51100D01*
X114301Y-51100D01*
X114301Y-50800D01*
X114201Y-50800D01*
X114172Y-50815D01*
X114158Y-50829D01*
X114143Y-50857D01*
X114143Y-50886D01*
X114158Y-50915D01*
X114172Y-50929D01*
X114201Y-50943D01*
X114301Y-50943D01*
X114001Y-50986D02*
X113772Y-50986D01*
X113629Y-51100D02*
X113629Y-50800D01*
X113458Y-51100D01*
X113458Y-50800D01*
X113315Y-50943D02*
X113215Y-50943D01*
X113172Y-51100D02*
X113315Y-51100D01*
X113315Y-50800D01*
X113172Y-50800D01*
X112672Y-51100D02*
X112815Y-51100D01*
X112815Y-50800D01*
X112443Y-51100D02*
X112443Y-50943D01*
X112458Y-50915D01*
X112486Y-50900D01*
X112543Y-50900D01*
X112572Y-50915D01*
X112443Y-51086D02*
X112472Y-51100D01*
X112543Y-51100D01*
X112572Y-51086D01*
X112586Y-51057D01*
X112586Y-51029D01*
X112572Y-51000D01*
X112543Y-50986D01*
X112472Y-50986D01*
X112443Y-50972D01*
X112301Y-51100D02*
X112301Y-50800D01*
X112301Y-50915D02*
X112272Y-50900D01*
X112215Y-50900D01*
X112186Y-50915D01*
X112172Y-50929D01*
X112158Y-50957D01*
X112158Y-51043D01*
X112172Y-51072D01*
X112186Y-51086D01*
X112215Y-51100D01*
X112272Y-51100D01*
X112301Y-51086D01*
M02*
