<?xml version="1.0" standalone="no"?>
 <!DOCTYPE svg PUBLIC "-//W3C//DTD SVG 1.1//EN" 
 "http://www.w3.org/Graphics/SVG/1.1/DTD/svg11.dtd"> 
<svg xmlns="http://www.w3.org/2000/svg" version="1.1" 
    width="41.9989cm" height="29.7002cm" viewBox="0 0 165350 116930 ">
<title>SVG Picture created as emg_circuit_2_ext_amp-B_Cu.svg date 2015/04/01 11:25:44 </title>
  <desc>Picture generated by PCBNEW </desc>
<g style="fill:#000000; fill-opacity:1;stroke:#000000; stroke-opacity:1;
stroke-linecap:round; stroke-linejoin:round; "
 transform="translate(0 0) scale(1 1)">
</g>
<g style="fill:#000000; fill-opacity:0.0; 
stroke:#000000; stroke-width:39.3701; stroke-opacity:1; 
stroke-linecap:round; stroke-linejoin:round;">
<path d="M4000 4000
L161350 4000
L161350 112930
L4000 112930
L4000 4000
" />
<path d="M4700 4700
L160650 4700
L160650 112230
L4700 112230
L4700 4700
" />
<path d="M26470 4000
L26470 4700
" />
<path d="M15382 4552
L15097 4552
" />
<path d="M15240 4552
L15240 4052
L15192 4123
L15144 4171
L15097 4195
" />
<path d="M26470 112930
L26470 112230
" />
<path d="M15382 112782
L15097 112782
" />
<path d="M15240 112782
L15240 112282
L15192 112353
L15144 112401
L15097 112425
" />
<path d="M48940 4000
L48940 4700
" />
<path d="M37567 4100
L37590 4076
L37638 4052
L37757 4052
L37805 4076
L37829 4100
L37852 4147
L37852 4195
L37829 4266
L37543 4552
L37852 4552
" />
<path d="M48940 112930
L48940 112230
" />
<path d="M37567 112330
L37590 112306
L37638 112282
L37757 112282
L37805 112306
L37829 112330
L37852 112377
L37852 112425
L37829 112496
L37543 112782
L37852 112782
" />
<path d="M71410 4000
L71410 4700
" />
<path d="M60013 4052
L60322 4052
L60156 4242
L60227 4242
L60275 4266
L60299 4290
L60322 4338
L60322 4457
L60299 4504
L60275 4528
L60227 4552
L60084 4552
L60037 4528
L60013 4504
" />
<path d="M71410 112930
L71410 112230
" />
<path d="M60013 112282
L60322 112282
L60156 112472
L60227 112472
L60275 112496
L60299 112520
L60322 112568
L60322 112687
L60299 112734
L60275 112758
L60227 112782
L60084 112782
L60037 112758
L60013 112734
" />
<path d="M93880 4000
L93880 4700
" />
<path d="M82745 4219
L82745 4552
" />
<path d="M82626 4028
L82507 4385
L82816 4385
" />
<path d="M93880 112930
L93880 112230
" />
<path d="M82745 112449
L82745 112782
" />
<path d="M82626 112258
L82507 112615
L82816 112615
" />
<path d="M116350 4000
L116350 4700
" />
<path d="M105239 4052
L105000 4052
L104977 4290
L105000 4266
L105048 4242
L105167 4242
L105215 4266
L105239 4290
L105262 4338
L105262 4457
L105239 4504
L105215 4528
L105167 4552
L105048 4552
L105000 4528
L104977 4504
" />
<path d="M116350 112930
L116350 112230
" />
<path d="M105239 112282
L105000 112282
L104977 112520
L105000 112496
L105048 112472
L105167 112472
L105215 112496
L105239 112520
L105262 112568
L105262 112687
L105239 112734
L105215 112758
L105167 112782
L105048 112782
L105000 112758
L104977 112734
" />
<path d="M138820 4000
L138820 4700
" />
<path d="M127685 4052
L127590 4052
L127542 4076
L127518 4100
L127470 4171
L127447 4266
L127447 4457
L127470 4504
L127494 4528
L127542 4552
L127637 4552
L127685 4528
L127709 4504
L127732 4457
L127732 4338
L127709 4290
L127685 4266
L127637 4242
L127542 4242
L127494 4266
L127470 4290
L127447 4338
" />
<path d="M138820 112930
L138820 112230
" />
<path d="M127685 112282
L127590 112282
L127542 112306
L127518 112330
L127470 112401
L127447 112496
L127447 112687
L127470 112734
L127494 112758
L127542 112782
L127637 112782
L127685 112758
L127709 112734
L127732 112687
L127732 112568
L127709 112520
L127685 112496
L127637 112472
L127542 112472
L127494 112496
L127470 112520
L127447 112568
" />
<path d="M149893 4052
L150226 4052
L150012 4552
" />
<path d="M149893 112282
L150226 112282
L150012 112782
" />
<path d="M4000 25780
L4700 25780
" />
<path d="M4230 14949
L4469 14949
" />
<path d="M4183 15092
L4350 14592
L4516 15092
" />
<path d="M161350 25780
L160650 25780
" />
<path d="M160880 14949
L161119 14949
" />
<path d="M160833 15092
L161000 14592
L161166 15092
" />
<path d="M4000 47560
L4700 47560
" />
<path d="M4385 36610
L4457 36634
L4480 36658
L4504 36705
L4504 36777
L4480 36824
L4457 36848
L4409 36872
L4219 36872
L4219 36372
L4385 36372
L4433 36396
L4457 36420
L4480 36467
L4480 36515
L4457 36562
L4433 36586
L4385 36610
L4219 36610
" />
<path d="M161350 47560
L160650 47560
" />
<path d="M161035 36610
L161107 36634
L161130 36658
L161154 36705
L161154 36777
L161130 36824
L161107 36848
L161059 36872
L160869 36872
L160869 36372
L161035 36372
L161083 36396
L161107 36420
L161130 36467
L161130 36515
L161107 36562
L161083 36586
L161035 36610
L160869 36610
" />
<path d="M4000 69340
L4700 69340
" />
<path d="M4504 58604
L4480 58628
L4409 58652
L4361 58652
L4290 58628
L4242 58580
L4219 58533
L4195 58438
L4195 58366
L4219 58271
L4242 58223
L4290 58176
L4361 58152
L4409 58152
L4480 58176
L4504 58200
" />
<path d="M161350 69340
L160650 69340
" />
<path d="M161154 58604
L161130 58628
L161059 58652
L161011 58652
L160940 58628
L160892 58580
L160869 58533
L160845 58438
L160845 58366
L160869 58271
L160892 58223
L160940 58176
L161011 58152
L161059 58152
L161130 58176
L161154 58200
" />
<path d="M4000 91120
L4700 91120
" />
<path d="M4219 80432
L4219 79932
L4338 79932
L4409 79956
L4457 80003
L4480 80051
L4504 80146
L4504 80218
L4480 80313
L4457 80360
L4409 80408
L4338 80432
L4219 80432
" />
<path d="M161350 91120
L160650 91120
" />
<path d="M160869 80432
L160869 79932
L160988 79932
L161059 79956
L161107 80003
L161130 80051
L161154 80146
L161154 80218
L161130 80313
L161107 80360
L161059 80408
L160988 80432
L160869 80432
" />
<path d="M4242 101950
L4409 101950
" />
<path d="M4480 102212
L4242 102212
L4242 101712
L4480 101712
" />
<path d="M160892 101950
L161059 101950
" />
<path d="M161130 102212
L160892 102212
L160892 101712
L161130 101712
" />
<path d="M127800 110672
L127875 110072
L128017 110072
L128100 110101
L128150 110158
L128171 110215
L128185 110330
L128175 110415
L128132 110530
L128096 110587
L128032 110644
L127942 110672
L127800 110672
" />
<path d="M128657 110672
L128696 110358
L128675 110301
L128621 110272
L128507 110272
L128446 110301
" />
<path d="M128660 110644
L128600 110672
L128457 110672
L128403 110644
L128382 110587
L128389 110530
L128425 110472
L128485 110444
L128628 110444
L128689 110415
" />
<path d="M128907 110272
L129135 110272
" />
<path d="M129017 110072
L128953 110587
L128975 110644
L129028 110672
L129085 110672
" />
<path d="M129517 110644
L129457 110672
L129342 110672
L129289 110644
L129267 110587
L129296 110358
L129332 110301
L129392 110272
L129507 110272
L129560 110301
L129582 110358
L129575 110415
L129282 110472
" />
<path d="M129807 110615
L129832 110644
L129800 110672
L129775 110644
L129807 110615
L129800 110672
" />
<path d="M129846 110301
L129871 110330
L129839 110358
L129814 110330
L129846 110301
L129839 110358
" />
<path d="M119392 111872
L119392 111272
" />
<path d="M119735 111872
L119478 111530
" />
<path d="M119735 111272
L119392 111615
" />
<path d="M119992 111872
L119992 111472
" />
<path d="M119992 111272
L119964 111301
L119992 111330
L120021 111301
L119992 111272
L119992 111330
" />
<path d="M120621 111815
L120592 111844
L120507 111872
L120450 111872
L120364 111844
L120307 111787
L120278 111730
L120250 111615
L120250 111530
L120278 111415
L120307 111358
L120364 111301
L120450 111272
L120507 111272
L120592 111301
L120621 111330
" />
<path d="M121135 111872
L121135 111558
L121107 111501
L121050 111472
L120935 111472
L120878 111501
" />
<path d="M121135 111844
L121078 111872
L120935 111872
L120878 111844
L120850 111787
L120850 111730
L120878 111672
L120935 111644
L121078 111644
L121135 111615
" />
<path d="M121678 111872
L121678 111272
" />
<path d="M121678 111844
L121621 111872
L121507 111872
L121450 111844
L121421 111815
L121392 111758
L121392 111587
L121421 111530
L121450 111501
L121507 111472
L121621 111472
L121678 111501
" />
<path d="M122421 111558
L122621 111558
" />
<path d="M122707 111872
L122421 111872
L122421 111272
L122707 111272
" />
<path d="M122964 111815
L122992 111844
L122964 111872
L122935 111844
L122964 111815
L122964 111872
" />
<path d="M123249 111872
L123249 111272
L123392 111272
L123478 111301
L123535 111358
L123564 111415
L123592 111530
L123592 111615
L123564 111730
L123535 111787
L123478 111844
L123392 111872
L123249 111872
" />
<path d="M123849 111815
L123878 111844
L123849 111872
L123821 111844
L123849 111815
L123849 111872
" />
<path d="M124107 111701
L124392 111701
" />
<path d="M124049 111872
L124249 111272
L124449 111872
" />
<path d="M124649 111815
L124678 111844
L124649 111872
L124621 111844
L124649 111815
L124649 111872
" />
<path d="M152942 110672
L152778 110387
" />
<path d="M152600 110672
L152675 110072
L152903 110072
L152957 110101
L152982 110130
L153003 110187
L152992 110272
L152957 110330
L152925 110358
L152864 110387
L152635 110387
" />
<path d="M153432 110644
L153371 110672
L153257 110672
L153203 110644
L153182 110587
L153210 110358
L153246 110301
L153307 110272
L153421 110272
L153475 110301
L153496 110358
L153489 110415
L153196 110472
" />
<path d="M153707 110272
L153800 110672
L153992 110272
" />
<path d="M154178 110615
L154203 110644
L154171 110672
L154146 110644
L154178 110615
L154171 110672
" />
<path d="M154217 110301
L154242 110330
L154210 110358
L154185 110330
L154217 110301
L154210 110358
" />
<path d="M119364 110644
L119450 110672
L119592 110672
L119650 110644
L119678 110615
L119707 110558
L119707 110501
L119678 110444
L119650 110415
L119592 110387
L119478 110358
L119421 110330
L119392 110301
L119364 110244
L119364 110187
L119392 110130
L119421 110101
L119478 110072
L119621 110072
L119707 110101
" />
<path d="M119964 110672
L119964 110272
" />
<path d="M119964 110072
L119935 110101
L119964 110130
L119992 110101
L119964 110072
L119964 110130
" />
<path d="M120192 110272
L120507 110272
L120192 110672
L120507 110672
" />
<path d="M120964 110644
L120907 110672
L120792 110672
L120735 110644
L120707 110587
L120707 110358
L120735 110301
L120792 110272
L120907 110272
L120964 110301
L120992 110358
L120992 110415
L120707 110472
" />
<path d="M121250 110615
L121278 110644
L121250 110672
L121221 110644
L121250 110615
L121250 110672
" />
<path d="M121250 110301
L121278 110330
L121250 110358
L121221 110330
L121250 110301
L121250 110358
" />
<path d="M121964 110501
L122250 110501
" />
<path d="M121907 110672
L122107 110072
L122307 110672
" />
<path d="M122450 110072
L122821 110072
L122621 110301
L122707 110301
L122764 110330
L122792 110358
L122821 110415
L122821 110558
L122792 110615
L122764 110644
L122707 110672
L122535 110672
L122478 110644
L122450 110615
" />
<path d="M152592 111872
L152592 111272
" />
<path d="M153135 111872
L153135 111272
" />
<path d="M153135 111844
L153078 111872
L152964 111872
L152907 111844
L152878 111815
L152850 111758
L152850 111587
L152878 111530
L152907 111501
L152964 111472
L153078 111472
L153135 111501
" />
<path d="M153421 111815
L153450 111844
L153421 111872
L153392 111844
L153421 111815
L153421 111872
" />
<path d="M153421 111501
L153450 111530
L153421 111558
L153392 111530
L153421 111501
L153421 111558
" />
<path d="M154478 111872
L154135 111872
" />
<path d="M154307 111872
L154307 111272
L154249 111358
L154192 111415
L154135 111444
" />
<path d="M155164 111244
L154650 112015
" />
<path d="M155678 111872
L155335 111872
" />
<path d="M155507 111872
L155507 111272
L155449 111358
L155392 111415
L155335 111444
" />
<path d="M119389 108872
L119732 108872
" />
<path d="M119485 109472
L119560 108872
" />
<path d="M119857 109472
L119907 109072
" />
<path d="M119932 108872
L119900 108901
L119925 108930
L119957 108901
L119932 108872
L119925 108930
" />
<path d="M120107 109072
L120335 109072
" />
<path d="M120217 108872
L120153 109387
L120175 109444
L120228 109472
L120285 109472
" />
<path d="M120571 109472
L120517 109444
L120496 109387
L120560 108872
" />
<path d="M121032 109444
L120971 109472
L120857 109472
L120803 109444
L120782 109387
L120810 109158
L120846 109101
L120907 109072
L121021 109072
L121075 109101
L121096 109158
L121089 109215
L120796 109272
" />
<path d="M121321 109415
L121346 109444
L121314 109472
L121289 109444
L121321 109415
L121314 109472
" />
<path d="M121360 109101
L121385 109130
L121353 109158
L121328 109130
L121360 109101
L121353 109158
" />
<path d="M119592 106758
L119392 106758
" />
<path d="M119392 107072
L119392 106472
L119678 106472
" />
<path d="M119907 107072
L119907 106672
" />
<path d="M119907 106472
L119878 106501
L119907 106530
L119935 106501
L119907 106472
L119907 106530
" />
<path d="M120278 107072
L120221 107044
L120192 106987
L120192 106472
" />
<path d="M120735 107044
L120678 107072
L120564 107072
L120507 107044
L120478 106987
L120478 106758
L120507 106701
L120564 106672
L120678 106672
L120735 106701
L120764 106758
L120764 106815
L120478 106872
" />
<path d="M121021 107015
L121050 107044
L121021 107072
L120992 107044
L121021 107015
L121021 107072
" />
<path d="M121021 106701
L121050 106730
L121021 106758
L120992 106730
L121021 106701
L121021 106758
" />
<path d="M121992 107044
L121935 107072
L121821 107072
L121764 107044
L121735 106987
L121735 106758
L121764 106701
L121821 106672
L121935 106672
L121992 106701
L122021 106758
L122021 106815
L121735 106872
" />
<path d="M122278 107072
L122278 106672
" />
<path d="M122278 106730
L122307 106701
L122364 106672
L122450 106672
L122507 106701
L122535 106758
L122535 107072
" />
<path d="M122535 106758
L122564 106701
L122621 106672
L122707 106672
L122764 106701
L122792 106758
L122792 107072
" />
<path d="M123335 106672
L123335 107158
L123307 107215
L123278 107244
L123221 107272
L123135 107272
L123078 107244
" />
<path d="M123335 107044
L123278 107072
L123164 107072
L123107 107044
L123078 107015
L123050 106958
L123050 106787
L123078 106730
L123107 106701
L123164 106672
L123278 106672
L123335 106701
" />
<path d="M123478 107130
L123935 107130
" />
<path d="M124335 107044
L124278 107072
L124164 107072
L124107 107044
L124078 107015
L124050 106958
L124050 106787
L124078 106730
L124107 106701
L124164 106672
L124278 106672
L124335 106701
" />
<path d="M124592 107072
L124592 106672
" />
<path d="M124592 106472
L124564 106501
L124592 106530
L124621 106501
L124592 106472
L124592 106530
" />
<path d="M124878 107072
L124878 106672
" />
<path d="M124878 106787
L124907 106730
L124935 106701
L124992 106672
L125050 106672
" />
<path d="M125507 107044
L125450 107072
L125335 107072
L125278 107044
L125250 107015
L125221 106958
L125221 106787
L125250 106730
L125278 106701
L125335 106672
L125450 106672
L125507 106701
" />
<path d="M126021 106672
L126021 107072
" />
<path d="M125764 106672
L125764 106987
L125792 107044
L125850 107072
L125935 107072
L125992 107044
L126021 107015
" />
<path d="M126307 107072
L126307 106672
" />
<path d="M126307 106472
L126278 106501
L126307 106530
L126335 106501
L126307 106472
L126307 106530
" />
<path d="M126507 106672
L126735 106672
" />
<path d="M126592 106472
L126592 106987
L126621 107044
L126678 107072
L126735 107072
" />
<path d="M126792 107130
L127250 107130
" />
<path d="M127364 106530
L127392 106501
L127450 106472
L127592 106472
L127650 106501
L127678 106530
L127707 106587
L127707 106644
L127678 106730
L127335 107072
L127707 107072
" />
<path d="M127821 107130
L128278 107130
" />
<path d="M128650 107044
L128592 107072
L128478 107072
L128421 107044
L128392 106987
L128392 106758
L128421 106701
L128478 106672
L128592 106672
L128650 106701
L128678 106758
L128678 106815
L128392 106872
" />
<path d="M128878 107072
L129192 106672
" />
<path d="M128878 106672
L129192 107072
" />
<path d="M129335 106672
L129564 106672
" />
<path d="M129421 106472
L129421 106987
L129450 107044
L129507 107072
L129564 107072
" />
<path d="M129621 107130
L130078 107130
" />
<path d="M130478 107072
L130478 106758
L130450 106701
L130392 106672
L130278 106672
L130221 106701
" />
<path d="M130478 107044
L130421 107072
L130278 107072
L130221 107044
L130192 106987
L130192 106930
L130221 106872
L130278 106844
L130421 106844
L130478 106815
" />
<path d="M130764 107072
L130764 106672
" />
<path d="M130764 106730
L130792 106701
L130850 106672
L130935 106672
L130992 106701
L131021 106758
L131021 107072
" />
<path d="M131021 106758
L131050 106701
L131107 106672
L131192 106672
L131250 106701
L131278 106758
L131278 107072
" />
<path d="M131564 106672
L131564 107272
" />
<path d="M131564 106701
L131621 106672
L131735 106672
L131792 106701
L131821 106730
L131850 106787
L131850 106958
L131821 107015
L131792 107044
L131735 107072
L131621 107072
L131564 107044
" />
<path d="M132107 107015
L132135 107044
L132107 107072
L132078 107044
L132107 107015
L132107 107072
" />
<path d="M132392 107072
L132392 106472
" />
<path d="M132450 106844
L132621 107072
" />
<path d="M132621 106672
L132392 106901
" />
<path d="M132878 107072
L132878 106672
" />
<path d="M132878 106472
L132850 106501
L132878 106530
L132907 106501
L132878 106472
L132878 106530
" />
<path d="M133421 107044
L133364 107072
L133250 107072
L133192 107044
L133164 107015
L133135 106958
L133135 106787
L133164 106730
L133192 106701
L133250 106672
L133364 106672
L133421 106701
" />
<path d="M133935 107072
L133935 106758
L133907 106701
L133850 106672
L133735 106672
L133678 106701
" />
<path d="M133935 107044
L133878 107072
L133735 107072
L133678 107044
L133650 106987
L133650 106930
L133678 106872
L133735 106844
L133878 106844
L133935 106815
" />
<path d="M134478 107072
L134478 106472
" />
<path d="M134478 107044
L134421 107072
L134307 107072
L134250 107044
L134221 107015
L134192 106958
L134192 106787
L134221 106730
L134250 106701
L134307 106672
L134421 106672
L134478 106701
" />
<path d="M134621 107130
L135078 107130
" />
<path d="M135221 106672
L135221 107272
" />
<path d="M135221 106701
L135278 106672
L135392 106672
L135450 106701
L135478 106730
L135507 106787
L135507 106958
L135478 107015
L135450 107044
L135392 107072
L135278 107072
L135221 107044
" />
<path d="M136021 107044
L135964 107072
L135850 107072
L135792 107044
L135764 107015
L135735 106958
L135735 106787
L135764 106730
L135792 106701
L135850 106672
L135964 106672
L136021 106701
" />
<path d="M136278 107072
L136278 106472
" />
<path d="M136278 106701
L136335 106672
L136450 106672
L136507 106701
L136535 106730
L136564 106787
L136564 106958
L136535 107015
L136507 107044
L136450 107072
L136335 107072
L136278 107044
" />
<path d="M119364 108244
L119450 108272
L119592 108272
L119650 108244
L119678 108215
L119707 108158
L119707 108101
L119678 108044
L119650 108015
L119592 107987
L119478 107958
L119421 107930
L119392 107901
L119364 107844
L119364 107787
L119392 107730
L119421 107701
L119478 107672
L119621 107672
L119707 107701
" />
<path d="M119964 108272
L119964 107672
" />
<path d="M120221 108272
L120221 107958
L120192 107901
L120135 107872
L120050 107872
L119992 107901
L119964 107930
" />
<path d="M120735 108244
L120678 108272
L120564 108272
L120507 108244
L120478 108187
L120478 107958
L120507 107901
L120564 107872
L120678 107872
L120735 107901
L120764 107958
L120764 108015
L120478 108072
" />
<path d="M121250 108244
L121192 108272
L121078 108272
L121021 108244
L120992 108187
L120992 107958
L121021 107901
L121078 107872
L121192 107872
L121250 107901
L121278 107958
L121278 108015
L120992 108072
" />
<path d="M121450 107872
L121678 107872
" />
<path d="M121535 107672
L121535 108187
L121564 108244
L121621 108272
L121678 108272
" />
<path d="M121878 108215
L121907 108244
L121878 108272
L121850 108244
L121878 108215
L121878 108272
" />
<path d="M121878 107901
L121907 107930
L121878 107958
L121850 107930
L121878 107901
L121878 107958
" />
<path d="M118650 106230
L118650 112230
" />
<path d="M118650 106230
L160650 106230
" />
<path d="M118650 106230
L160650 106230
" />
<path d="M118650 108630
L160650 108630
" />
<path d="M151850 109830
L151850 112230
" />
<path d="M118650 111030
L160650 111030
" />
<path d="M118650 109830
L160650 109830
" />
<path d="M125250 109830
L125250 111030
" />
</g>
<g style="fill:#FFFF00; fill-opacity:0.0; 
stroke:#FFFF00; stroke-width:39.3701; stroke-opacity:1; 
stroke-linecap:round; stroke-linejoin:round;">
<path d="M104688 55444
L116893 55444
" />
<path d="M104688 49527
L104688 55444
" />
<path d="M116893 52283
L116893 55444
" />
<path d="M118074 52283
L116893 52283
" />
<path d="M118074 52283
L118074 49527
" />
<path d="M104688 49527
L118074 49527
" />
</g>
<g style="fill:#009F00; fill-opacity:0.0; 
stroke:#009F00; stroke-width:39.3701; stroke-opacity:1; 
stroke-linecap:round; stroke-linejoin:round;">
</g>
<g style="fill:#009F00; fill-opacity:1.0; 
stroke:#009F00; stroke-width:39.3701; stroke-opacity:1; 
stroke-linecap:round; stroke-linejoin:round;">
<polyline style="fill-rule:evenodd;"
points="109082,54539
109082,53019
110602,53019
110602,54539
109082,54539
" /> 
<polyline style="fill-rule:evenodd;"
points="105291,54385
105291,53173
106503,53173
106503,54385
105291,54385
" /> 
<polyline style="fill-rule:evenodd;"
points="113181,54385
113181,53173
114393,53173
114393,54385
113181,54385
" /> 
</g>
<g style="fill:#7F7F00; fill-opacity:1.0; 
stroke:#7F7F00; stroke-width:39.3701; stroke-opacity:1; 
stroke-linecap:round; stroke-linejoin:round;">
<polyline style="fill-rule:evenodd;"
points="115995,50144
116555,50144
116555,50705
115995,50705
115995,50144
" /> 
<circle cx="116276" cy="51425.2" r="280.315" /> 
<circle cx="116276" cy="52425.2" r="280.315" /> 
<circle cx="116276" cy="53425.2" r="280.315" /> 
<circle cx="116276" cy="54425.2" r="280.315" /> 
<polyline style="fill-rule:evenodd;"
points="116995,50144
117555,50144
117555,50705
116995,50705
116995,50144
" /> 
<circle cx="117276" cy="51425.2" r="280.315" /> 
</g>
<g style="fill:#BFBFBF; fill-opacity:1.0; 
stroke:#BFBFBF; stroke-width:39.3701; stroke-opacity:1; 
stroke-linecap:round; stroke-linejoin:round;">
<circle cx="109843" cy="52795.3" r="80.315" /> 
<circle cx="112975" cy="53088.4" r="80.315" /> 
<circle cx="113347" cy="52610" r="80.315" /> 
<circle cx="108689" cy="51944.9" r="80.315" /> 
<circle cx="107390" cy="54645.7" r="80.315" /> 
<circle cx="112808" cy="52834.4" r="80.315" /> 
<circle cx="108740" cy="53425.2" r="80.315" /> 
<circle cx="113178" cy="52362" r="80.315" /> 
</g>
<g style="fill:#009F00; fill-opacity:1.0; 
stroke:#009F00; stroke-width:180; stroke-opacity:1; 
stroke-linecap:round; stroke-linejoin:round;">
<path d="M109842 52795
L109842 53779
" />
<path d="M108688 51944
L108527 51944
" />
<path d="M107389 54019
L107389 54645
" />
<path d="M108307 53102
L107389 54019
" />
<path d="M108307 52165
L108307 53102
" />
<path d="M108527 51944
L108307 52165
" />
<path d="M117275 50425
L117275 50440
" />
<path d="M115393 52173
L113787 53779
" />
<path d="M115393 51484
L115393 52173
" />
<path d="M115952 50925
L115393 51484
" />
<path d="M116791 50925
L115952 50925
" />
<path d="M117275 50440
L116791 50925
" />
<path d="M108740 53425
L108740 52677
" />
<path d="M108740 52677
L108976 52440
" />
<path d="M108976 52440
L112414 52440
" />
<path d="M112414 52440
L112808 52834
" />
<path d="M112808 52834
L112637 52834
" />
<path d="M112637 52834
L112440 53031
" />
<path d="M112440 53031
L112440 53503
" />
<path d="M112440 53503
L112716 53779
" />
<path d="M112716 53779
L113787 53779
" />
<path d="M105897 53779
L105897 54637
" />
<path d="M105897 54637
L106220 54960
" />
<path d="M106220 54960
L107834 54960
" />
<path d="M107834 54960
L108307 54488
" />
<path d="M108307 54488
L108307 53858
" />
<path d="M108307 53858
L108740 53425
" />
</g>
<g style="fill:#009F00; fill-opacity:1.0; 
stroke:#009F00; stroke-width:39.3701; stroke-opacity:1; 
stroke-linecap:round; stroke-linejoin:round;">
<polyline style="fill-rule:evenodd;"
points="117971,52180
117789,52180
117789,51450
117760,51252
117740,51204
117663,51171
117659,51175
117659,50708
117659,50108
117646,50077
117623,50054
117592,50041
117559,50041
116959,50041
116928,50054
116904,50077
116891,50108
116891,50141
116891,50578
116719,50751
116655,50751
116659,50741
116659,50708
116659,50108
116646,50077
116623,50054
116592,50041
116559,50041
115959,50041
115928,50054
115904,50077
115891,50108
115891,50141
115891,50741
115900,50761
115886,50764
115829,50802
115270,51361
115233,51417
115219,51484
115219,52101
114251,53069
113361,53069
113361,52325
113334,52258
113282,52206
113214,52178
113141,52178
113074,52206
113022,52257
112994,52325
112994,52398
113022,52465
113073,52517
113141,52545
113214,52545
113282,52517
113333,52466
113361,52398
113361,52325
113361,53069
113144,53069
113114,53082
113090,53106
113077,53136
113077,53170
113077,53605
112788,53605
112614,53431
112614,53103
112709,53008
112747,53008
112771,53018
112844,53018
112912,52990
112963,52938
112991,52871
112991,52798
112963,52730
112912,52678
112888,52668
112537,52318
112481,52280
112414,52267
108976,52267
108909,52280
108853,52318
108617,52554
108579,52610
108566,52677
108566,53353
108184,53735
108146,53791
108133,53858
108133,54416
107762,54786
107508,54786
107545,54749
107573,54682
107573,54609
107563,54585
107563,54091
108429,53225
108429,53225
108455,53187
108467,53168
108467,53168
108480,53102
108480,53102
108480,52237
108599,52118
108628,52118
108652,52128
108725,52128
108792,52100
108844,52049
108872,51981
108872,51908
108844,51840
108793,51789
108725,51761
108652,51761
108628,51771
108527,51771
108461,51784
108442,51796
108404,51822
108184,52042
108146,52098
108133,52165
108133,53030
107266,53896
107229,53953
107216,54019
107216,54584
107206,54608
107205,54682
107233,54749
107271,54786
106292,54786
106071,54565
106071,54489
106540,54489
106570,54476
106594,54453
106607,54422
106607,54388
106607,53136
106594,53106
106571,53082
106540,53069
106507,53069
105255,53069
105224,53082
105200,53106
105187,53136
105187,53170
105187,54422
105200,54452
105224,54476
105254,54489
105288,54489
105723,54489
105723,54637
105737,54704
105774,54760
106097,55083
106153,55121
106220,55134
107834,55134
107901,55121
107957,55083
108429,54611
108467,54554
108467,54554
108469,54543
108480,54488
108480,54488
108480,53930
108820,53590
108844,53581
108857,53567
108857,53633
108909,53684
109747,53684
109747,52846
109696,52795
109022,52794
108947,52826
108913,52859
108913,52749
109048,52614
112342,52614
112477,52749
112318,52908
112280,52965
112267,53031
112267,53503
112280,53570
112318,53626
112593,53902
112593,53902
112650,53940
112650,53940
112661,53942
112716,53953
113077,53953
113077,54422
113090,54452
113113,54476
113144,54489
113178,54489
114429,54489
114460,54476
114484,54453
114497,54422
114497,54388
114497,53315
115516,52296
115554,52239
115554,52239
115556,52228
115567,52173
115567,52173
115567,51556
116024,51098
116060,51098
116058,51099
115950,51207
115891,51348
115891,51501
115950,51642
116057,51750
116198,51808
116351,51809
116492,51750
116600,51642
116659,51501
116659,51349
116601,51208
116493,51100
116490,51098
116791,51098
116857,51085
116914,51048
117153,50808
117592,50808
117622,50796
117646,50772
117659,50741
117659,50708
117659,51175
117529,51305
117529,51037
117496,50959
117301,50910
117102,50940
117054,50959
117021,51037
117275,51290
117529,51037
117529,51305
117409,51425
117663,51678
117740,51645
117789,51450
117789,52180
117529,52180
117529,51813
117275,51559
117141,51693
117141,51425
116887,51171
116810,51204
116761,51399
116790,51598
116810,51645
116887,51678
117141,51425
117141,51693
117021,51813
117054,51890
117249,51939
117448,51910
117496,51890
117529,51813
117529,52180
116893,52180
116854,52187
116820,52210
116798,52243
116790,52283
116790,55341
116659,55341
116659,54349
116659,53349
116659,52349
116601,52208
116493,52100
116352,52041
116199,52041
116058,52099
115950,52207
115891,52348
115891,52501
115950,52642
116057,52750
116198,52808
116351,52809
116492,52750
116600,52642
116659,52501
116659,52349
116659,53349
116601,53208
116493,53100
116352,53041
116199,53041
116058,53099
115950,53207
115891,53348
115891,53501
115950,53642
116057,53750
116198,53808
116351,53809
116492,53750
116600,53642
116659,53501
116659,53349
116659,54349
116601,54208
116493,54100
116352,54041
116199,54041
116058,54099
115950,54207
115891,54348
115891,54501
115950,54642
116057,54750
116198,54808
116351,54809
116492,54750
116600,54642
116659,54501
116659,54349
116659,55341
110827,55341
110827,54518
110827,53040
110827,52959
110795,52883
110738,52826
110662,52794
109988,52795
109937,52846
109937,53684
110775,53684
110827,53633
110827,53040
110827,54518
110827,53925
110775,53874
109937,53874
109937,54712
109988,54764
110662,54764
110738,54732
110795,54675
110827,54600
110827,54518
110827,55341
109747,55341
109747,54712
109747,53874
108909,53874
108857,53925
108857,54518
108858,54600
108889,54675
108947,54732
109022,54764
109696,54764
109747,54712
109747,55341
104792,55341
104792,51697
107406,51697
107406,49630
117971,49630
117971,52180
" /> 
</g>
<g style="fill:#009F00; fill-opacity:0.0; 
stroke:#009F00; stroke-width:10; stroke-opacity:1; 
stroke-linecap:round; stroke-linejoin:round;">
<polyline fill="none;"
points="117971,52180
117789,52180
117789,51450
117760,51252
117740,51204
117663,51171
117659,51175
117659,50708
117659,50108
117646,50077
117623,50054
117592,50041
117559,50041
116959,50041
116928,50054
116904,50077
116891,50108
116891,50141
116891,50578
116719,50751
116655,50751
116659,50741
116659,50708
116659,50108
116646,50077
116623,50054
116592,50041
116559,50041
115959,50041
115928,50054
115904,50077
115891,50108
115891,50141
115891,50741
115900,50761
115886,50764
115829,50802
115270,51361
115233,51417
115219,51484
115219,52101
114251,53069
113361,53069
113361,52325
113334,52258
113282,52206
113214,52178
113141,52178
113074,52206
113022,52257
112994,52325
112994,52398
113022,52465
113073,52517
113141,52545
113214,52545
113282,52517
113333,52466
113361,52398
113361,52325
113361,53069
113144,53069
113114,53082
113090,53106
113077,53136
113077,53170
113077,53605
112788,53605
112614,53431
112614,53103
112709,53008
112747,53008
112771,53018
112844,53018
112912,52990
112963,52938
112991,52871
112991,52798
112963,52730
112912,52678
112888,52668
112537,52318
112481,52280
112414,52267
108976,52267
108909,52280
108853,52318
108617,52554
108579,52610
108566,52677
108566,53353
108184,53735
108146,53791
108133,53858
108133,54416
107762,54786
107508,54786
107545,54749
107573,54682
107573,54609
107563,54585
107563,54091
108429,53225
108429,53225
108455,53187
108467,53168
108467,53168
108480,53102
108480,53102
108480,52237
108599,52118
108628,52118
108652,52128
108725,52128
108792,52100
108844,52049
108872,51981
108872,51908
108844,51840
108793,51789
108725,51761
108652,51761
108628,51771
108527,51771
108461,51784
108442,51796
108404,51822
108184,52042
108146,52098
108133,52165
108133,53030
107266,53896
107229,53953
107216,54019
107216,54584
107206,54608
107205,54682
107233,54749
107271,54786
106292,54786
106071,54565
106071,54489
106540,54489
106570,54476
106594,54453
106607,54422
106607,54388
106607,53136
106594,53106
106571,53082
106540,53069
106507,53069
105255,53069
105224,53082
105200,53106
105187,53136
105187,53170
105187,54422
105200,54452
105224,54476
105254,54489
105288,54489
105723,54489
105723,54637
105737,54704
105774,54760
106097,55083
106153,55121
106220,55134
107834,55134
107901,55121
107957,55083
108429,54611
108467,54554
108467,54554
108469,54543
108480,54488
108480,54488
108480,53930
108820,53590
108844,53581
108857,53567
108857,53633
108909,53684
109747,53684
109747,52846
109696,52795
109022,52794
108947,52826
108913,52859
108913,52749
109048,52614
112342,52614
112477,52749
112318,52908
112280,52965
112267,53031
112267,53503
112280,53570
112318,53626
112593,53902
112593,53902
112650,53940
112650,53940
112661,53942
112716,53953
113077,53953
113077,54422
113090,54452
113113,54476
113144,54489
113178,54489
114429,54489
114460,54476
114484,54453
114497,54422
114497,54388
114497,53315
115516,52296
115554,52239
115554,52239
115556,52228
115567,52173
115567,52173
115567,51556
116024,51098
116060,51098
116058,51099
115950,51207
115891,51348
115891,51501
115950,51642
116057,51750
116198,51808
116351,51809
116492,51750
116600,51642
116659,51501
116659,51349
116601,51208
116493,51100
116490,51098
116791,51098
116857,51085
116914,51048
117153,50808
117592,50808
117622,50796
117646,50772
117659,50741
117659,50708
117659,51175
117529,51305
117529,51037
117496,50959
117301,50910
117102,50940
117054,50959
117021,51037
117275,51290
117529,51037
117529,51305
117409,51425
117663,51678
117740,51645
117789,51450
117789,52180
117529,52180
117529,51813
117275,51559
117141,51693
117141,51425
116887,51171
116810,51204
116761,51399
116790,51598
116810,51645
116887,51678
117141,51425
117141,51693
117021,51813
117054,51890
117249,51939
117448,51910
117496,51890
117529,51813
117529,52180
116893,52180
116854,52187
116820,52210
116798,52243
116790,52283
116790,55341
116659,55341
116659,54349
116659,53349
116659,52349
116601,52208
116493,52100
116352,52041
116199,52041
116058,52099
115950,52207
115891,52348
115891,52501
115950,52642
116057,52750
116198,52808
116351,52809
116492,52750
116600,52642
116659,52501
116659,52349
116659,53349
116601,53208
116493,53100
116352,53041
116199,53041
116058,53099
115950,53207
115891,53348
115891,53501
115950,53642
116057,53750
116198,53808
116351,53809
116492,53750
116600,53642
116659,53501
116659,53349
116659,54349
116601,54208
116493,54100
116352,54041
116199,54041
116058,54099
115950,54207
115891,54348
115891,54501
115950,54642
116057,54750
116198,54808
116351,54809
116492,54750
116600,54642
116659,54501
116659,54349
116659,55341
110827,55341
110827,54518
110827,53040
110827,52959
110795,52883
110738,52826
110662,52794
109988,52795
109937,52846
109937,53684
110775,53684
110827,53633
110827,53040
110827,54518
110827,53925
110775,53874
109937,53874
109937,54712
109988,54764
110662,54764
110738,54732
110795,54675
110827,54600
110827,54518
110827,55341
109747,55341
109747,54712
109747,53874
108909,53874
108857,53925
108857,54518
108858,54600
108889,54675
108947,54732
109022,54764
109696,54764
109747,54712
109747,55341
104792,55341
104792,51697
107406,51697
107406,49630
117971,49630
117971,52180
" /> 
</g>
<g style="fill:#FFFFFF; fill-opacity:0.0; 
stroke:#FFFFFF; stroke-width:39.3701; stroke-opacity:1; 
stroke-linecap:round; stroke-linejoin:round;">
</g>
<g style="fill:#FFFFFF; fill-opacity:1.0; 
stroke:#FFFFFF; stroke-width:39.3701; stroke-opacity:1; 
stroke-linecap:round; stroke-linejoin:round;">
<circle cx="109843" cy="52795.3" r="45.315" /> 
<circle cx="112975" cy="53088.4" r="45.315" /> 
<circle cx="113347" cy="52610" r="45.315" /> 
<circle cx="108689" cy="51944.9" r="45.315" /> 
<circle cx="107390" cy="54645.7" r="45.315" /> 
<circle cx="112808" cy="52834.4" r="45.315" /> 
<circle cx="108740" cy="53425.2" r="45.315" /> 
<circle cx="113178" cy="52362" r="45.315" /> 
<circle cx="116276" cy="50425.2" r="180.315" /> 
<circle cx="116276" cy="51425.2" r="180.315" /> 
<circle cx="116276" cy="52425.2" r="180.315" /> 
<circle cx="116276" cy="53425.2" r="180.315" /> 
<circle cx="116276" cy="54425.2" r="180.315" /> 
<circle cx="117276" cy="50425.2" r="180.315" /> 
<circle cx="117276" cy="51425.2" r="180.315" /> 
</g> 
</svg>
