G04 (created by PCBNEW (2013-07-07 BZR 4022)-stable) date 3/16/2015 2:43:42 PM*
%MOIN*%
G04 Gerber Fmt 3.4, Leading zero omitted, Abs format*
%FSLAX34Y34*%
G01*
G70*
G90*
G04 APERTURE LIST*
%ADD10C,0.00590551*%
%ADD11C,0.019685*%
%ADD12C,0.00787402*%
%ADD13C,0.0028*%
%ADD14C,0.005*%
%ADD15C,0.012*%
%ADD16C,0.006*%
%ADD17C,0.0045*%
%ADD18C,0.008*%
%ADD19C,0.00295276*%
G04 APERTURE END LIST*
G54D10*
G54D11*
X106259Y-50264D02*
X106031Y-50264D01*
G54D12*
X113630Y-51614D02*
G75*
G03X113630Y-51614I-55J0D01*
G74*
G01*
G54D10*
X108267Y-53700D02*
X108503Y-53937D01*
X110629Y-53937D02*
X108503Y-53937D01*
X108267Y-51574D02*
X108267Y-53700D01*
X108267Y-51574D02*
X110629Y-51574D01*
X110629Y-51574D02*
X110629Y-53937D01*
X107283Y-52795D02*
X107283Y-52814D01*
X107283Y-52795D02*
X107283Y-52775D01*
X106496Y-52795D02*
X106496Y-52814D01*
X106496Y-52795D02*
X106496Y-52775D01*
X106889Y-53110D02*
X106948Y-53110D01*
X106889Y-53110D02*
X106830Y-53110D01*
X106889Y-52480D02*
X106948Y-52480D01*
X106889Y-52480D02*
X106830Y-52480D01*
G54D13*
X113367Y-54087D02*
X113567Y-54087D01*
X113567Y-54087D02*
X113567Y-53787D01*
X113567Y-53787D02*
X113367Y-53787D01*
X113167Y-54087D02*
X112967Y-54087D01*
X112967Y-54087D02*
X112967Y-53787D01*
X112967Y-53787D02*
X113167Y-53787D01*
X114226Y-51602D02*
X114426Y-51602D01*
X114426Y-51602D02*
X114426Y-51302D01*
X114426Y-51302D02*
X114226Y-51302D01*
X114026Y-51602D02*
X113826Y-51602D01*
X113826Y-51602D02*
X113826Y-51302D01*
X113826Y-51302D02*
X114026Y-51302D01*
X113120Y-51594D02*
X113320Y-51594D01*
X113320Y-51594D02*
X113320Y-51294D01*
X113320Y-51294D02*
X113120Y-51294D01*
X112920Y-51594D02*
X112720Y-51594D01*
X112720Y-51594D02*
X112720Y-51294D01*
X112720Y-51294D02*
X112920Y-51294D01*
X112118Y-53285D02*
X112118Y-53085D01*
X112118Y-53085D02*
X111818Y-53085D01*
X111818Y-53085D02*
X111818Y-53285D01*
X112118Y-53485D02*
X112118Y-53685D01*
X112118Y-53685D02*
X111818Y-53685D01*
X111818Y-53685D02*
X111818Y-53485D01*
X112463Y-54098D02*
X112663Y-54098D01*
X112663Y-54098D02*
X112663Y-53798D01*
X112663Y-53798D02*
X112463Y-53798D01*
X112263Y-54098D02*
X112063Y-54098D01*
X112063Y-54098D02*
X112063Y-53798D01*
X112063Y-53798D02*
X112263Y-53798D01*
X114459Y-53728D02*
X114659Y-53728D01*
X114659Y-53728D02*
X114659Y-53428D01*
X114659Y-53428D02*
X114459Y-53428D01*
X114259Y-53728D02*
X114059Y-53728D01*
X114059Y-53728D02*
X114059Y-53428D01*
X114059Y-53428D02*
X114259Y-53428D01*
X114554Y-51972D02*
X114554Y-51772D01*
X114554Y-51772D02*
X114254Y-51772D01*
X114254Y-51772D02*
X114254Y-51972D01*
X114554Y-52172D02*
X114554Y-52372D01*
X114554Y-52372D02*
X114254Y-52372D01*
X114254Y-52372D02*
X114254Y-52172D01*
X107724Y-51517D02*
X107724Y-51717D01*
X107724Y-51717D02*
X108024Y-51717D01*
X108024Y-51717D02*
X108024Y-51517D01*
X107724Y-51317D02*
X107724Y-51117D01*
X107724Y-51117D02*
X108024Y-51117D01*
X108024Y-51117D02*
X108024Y-51317D01*
X108063Y-52459D02*
X108063Y-52259D01*
X108063Y-52259D02*
X107763Y-52259D01*
X107763Y-52259D02*
X107763Y-52459D01*
X108063Y-52659D02*
X108063Y-52859D01*
X108063Y-52859D02*
X107763Y-52859D01*
X107763Y-52859D02*
X107763Y-52659D01*
X106370Y-52734D02*
X106370Y-52534D01*
X106370Y-52534D02*
X106070Y-52534D01*
X106070Y-52534D02*
X106070Y-52734D01*
X106370Y-52934D02*
X106370Y-53134D01*
X106370Y-53134D02*
X106070Y-53134D01*
X106070Y-53134D02*
X106070Y-52934D01*
X107409Y-52895D02*
X107409Y-53095D01*
X107409Y-53095D02*
X107709Y-53095D01*
X107709Y-53095D02*
X107709Y-52895D01*
X107409Y-52695D02*
X107409Y-52495D01*
X107409Y-52495D02*
X107709Y-52495D01*
X107709Y-52495D02*
X107709Y-52695D01*
X110214Y-50873D02*
X110014Y-50873D01*
X110014Y-50873D02*
X110014Y-51173D01*
X110014Y-51173D02*
X110214Y-51173D01*
X110414Y-50873D02*
X110614Y-50873D01*
X110614Y-50873D02*
X110614Y-51173D01*
X110614Y-51173D02*
X110414Y-51173D01*
X110372Y-54141D02*
X110172Y-54141D01*
X110172Y-54141D02*
X110172Y-54441D01*
X110172Y-54441D02*
X110372Y-54441D01*
X110572Y-54141D02*
X110772Y-54141D01*
X110772Y-54141D02*
X110772Y-54441D01*
X110772Y-54441D02*
X110572Y-54441D01*
X108090Y-54053D02*
X108090Y-53853D01*
X108090Y-53853D02*
X107790Y-53853D01*
X107790Y-53853D02*
X107790Y-54053D01*
X108090Y-54253D02*
X108090Y-54453D01*
X108090Y-54453D02*
X107790Y-54453D01*
X107790Y-54453D02*
X107790Y-54253D01*
X109653Y-50966D02*
X109653Y-51166D01*
X109653Y-51166D02*
X109953Y-51166D01*
X109953Y-51166D02*
X109953Y-50966D01*
X109653Y-50766D02*
X109653Y-50566D01*
X109653Y-50566D02*
X109953Y-50566D01*
X109953Y-50566D02*
X109953Y-50766D01*
G54D14*
X114742Y-51230D02*
X113842Y-51230D01*
X113842Y-51230D02*
X113842Y-50730D01*
X113842Y-50730D02*
X114742Y-50730D01*
X114742Y-50730D02*
X114742Y-51230D01*
G54D13*
X113116Y-51216D02*
X113316Y-51216D01*
X113316Y-51216D02*
X113316Y-50916D01*
X113316Y-50916D02*
X113116Y-50916D01*
X112916Y-51216D02*
X112716Y-51216D01*
X112716Y-51216D02*
X112716Y-50916D01*
X112716Y-50916D02*
X112916Y-50916D01*
X114864Y-53220D02*
X115064Y-53220D01*
X115064Y-53220D02*
X115064Y-52920D01*
X115064Y-52920D02*
X114864Y-52920D01*
X114664Y-53220D02*
X114464Y-53220D01*
X114464Y-53220D02*
X114464Y-52920D01*
X114464Y-52920D02*
X114664Y-52920D01*
X114668Y-52495D02*
X114468Y-52495D01*
X114468Y-52495D02*
X114468Y-52795D01*
X114468Y-52795D02*
X114668Y-52795D01*
X114868Y-52495D02*
X115068Y-52495D01*
X115068Y-52495D02*
X115068Y-52795D01*
X115068Y-52795D02*
X114868Y-52795D01*
X115139Y-54205D02*
X115339Y-54205D01*
X115339Y-54205D02*
X115339Y-53905D01*
X115339Y-53905D02*
X115139Y-53905D01*
X114939Y-54205D02*
X114739Y-54205D01*
X114739Y-54205D02*
X114739Y-53905D01*
X114739Y-53905D02*
X114939Y-53905D01*
G54D10*
X104978Y-49871D02*
X106868Y-49871D01*
X106868Y-49871D02*
X106868Y-50658D01*
X106828Y-50658D02*
X104978Y-50658D01*
X104978Y-50658D02*
X104978Y-49871D01*
X106868Y-50658D02*
X106828Y-50658D01*
G54D13*
X107344Y-50425D02*
X107544Y-50425D01*
X107544Y-50425D02*
X107544Y-50125D01*
X107544Y-50125D02*
X107344Y-50125D01*
X107144Y-50425D02*
X106944Y-50425D01*
X106944Y-50425D02*
X106944Y-50125D01*
X106944Y-50125D02*
X107144Y-50125D01*
X108024Y-50333D02*
X108024Y-50133D01*
X108024Y-50133D02*
X107724Y-50133D01*
X107724Y-50133D02*
X107724Y-50333D01*
X108024Y-50533D02*
X108024Y-50733D01*
X108024Y-50733D02*
X107724Y-50733D01*
X107724Y-50733D02*
X107724Y-50533D01*
X108603Y-50425D02*
X108803Y-50425D01*
X108803Y-50425D02*
X108803Y-50125D01*
X108803Y-50125D02*
X108603Y-50125D01*
X108403Y-50425D02*
X108203Y-50425D01*
X108203Y-50425D02*
X108203Y-50125D01*
X108203Y-50125D02*
X108403Y-50125D01*
G54D15*
X116775Y-49925D02*
X115775Y-49925D01*
X115775Y-54925D02*
X116775Y-54925D01*
X116775Y-49925D02*
X116775Y-54925D01*
X115775Y-54925D02*
X115775Y-49925D01*
G54D16*
X116775Y-49925D02*
X117775Y-49925D01*
X117775Y-49925D02*
X117775Y-51925D01*
X117775Y-51925D02*
X116775Y-51925D01*
X116775Y-51925D02*
X116775Y-49925D01*
G54D10*
X113606Y-53056D02*
G75*
G03X113606Y-53056I-88J0D01*
G74*
G01*
X113951Y-51915D02*
X113833Y-51915D01*
X113951Y-51915D02*
X113951Y-52033D01*
X112376Y-51915D02*
X112495Y-51915D01*
X112376Y-51915D02*
X112376Y-52033D01*
X112376Y-53489D02*
X112376Y-53371D01*
X112376Y-53489D02*
X112495Y-53489D01*
X113951Y-53489D02*
X113951Y-53371D01*
X113951Y-53489D02*
X113833Y-53489D01*
G54D14*
X108950Y-54199D02*
X108950Y-55099D01*
X108950Y-55099D02*
X108450Y-55099D01*
X108450Y-55099D02*
X108450Y-54199D01*
X108450Y-54199D02*
X108950Y-54199D01*
G54D13*
X108139Y-55098D02*
X108339Y-55098D01*
X108339Y-55098D02*
X108339Y-54798D01*
X108339Y-54798D02*
X108139Y-54798D01*
X107939Y-55098D02*
X107739Y-55098D01*
X107739Y-55098D02*
X107739Y-54798D01*
X107739Y-54798D02*
X107939Y-54798D01*
G54D10*
X109291Y-50826D02*
X109291Y-50984D01*
G54D13*
X113367Y-54480D02*
X113567Y-54480D01*
X113567Y-54480D02*
X113567Y-54180D01*
X113567Y-54180D02*
X113367Y-54180D01*
X113167Y-54480D02*
X112967Y-54480D01*
X112967Y-54480D02*
X112967Y-54180D01*
X112967Y-54180D02*
X113167Y-54180D01*
G54D14*
X113692Y-51271D02*
X113472Y-51271D01*
X113692Y-51011D02*
X113472Y-51011D01*
X113692Y-50931D02*
X113472Y-50931D01*
X113472Y-50931D02*
X113472Y-51351D01*
X113472Y-51351D02*
X113692Y-51351D01*
X113692Y-51351D02*
X113692Y-50931D01*
X107143Y-55087D02*
X107143Y-54187D01*
X107143Y-54187D02*
X107643Y-54187D01*
X107643Y-54187D02*
X107643Y-55087D01*
X107643Y-55087D02*
X107143Y-55087D01*
X111667Y-53172D02*
X111667Y-54072D01*
X111667Y-54072D02*
X111167Y-54072D01*
X111167Y-54072D02*
X111167Y-53172D01*
X111167Y-53172D02*
X111667Y-53172D01*
G54D10*
X109686Y-54870D02*
X110005Y-54870D01*
X110043Y-54852D01*
X110061Y-54833D01*
X110080Y-54795D01*
X110080Y-54720D01*
X110061Y-54683D01*
X110043Y-54664D01*
X110005Y-54645D01*
X109686Y-54645D01*
X109724Y-54477D02*
X109705Y-54458D01*
X109686Y-54420D01*
X109686Y-54327D01*
X109705Y-54289D01*
X109724Y-54270D01*
X109761Y-54252D01*
X109799Y-54252D01*
X109855Y-54270D01*
X110080Y-54495D01*
X110080Y-54252D01*
X106698Y-53323D02*
X106856Y-53560D01*
X106856Y-53323D02*
X106698Y-53560D01*
X107069Y-53560D02*
X106934Y-53560D01*
X107002Y-53560D02*
X107002Y-53323D01*
X106979Y-53357D01*
X106957Y-53380D01*
X106934Y-53391D01*
G54D13*
X113765Y-53981D02*
X113759Y-53988D01*
X113742Y-53994D01*
X113731Y-53994D01*
X113714Y-53988D01*
X113702Y-53975D01*
X113696Y-53961D01*
X113691Y-53935D01*
X113691Y-53915D01*
X113696Y-53889D01*
X113702Y-53876D01*
X113714Y-53863D01*
X113731Y-53856D01*
X113742Y-53856D01*
X113759Y-53863D01*
X113765Y-53869D01*
X113874Y-53856D02*
X113816Y-53856D01*
X113811Y-53922D01*
X113816Y-53915D01*
X113828Y-53909D01*
X113856Y-53909D01*
X113868Y-53915D01*
X113874Y-53922D01*
X113879Y-53935D01*
X113879Y-53968D01*
X113874Y-53981D01*
X113868Y-53988D01*
X113856Y-53994D01*
X113828Y-53994D01*
X113816Y-53988D01*
X113811Y-53981D01*
X114567Y-51507D02*
X114561Y-51513D01*
X114544Y-51520D01*
X114533Y-51520D01*
X114516Y-51513D01*
X114504Y-51500D01*
X114499Y-51487D01*
X114493Y-51461D01*
X114493Y-51441D01*
X114499Y-51415D01*
X114504Y-51401D01*
X114516Y-51388D01*
X114533Y-51382D01*
X114544Y-51382D01*
X114561Y-51388D01*
X114567Y-51395D01*
X114607Y-51382D02*
X114681Y-51382D01*
X114641Y-51434D01*
X114659Y-51434D01*
X114670Y-51441D01*
X114676Y-51447D01*
X114681Y-51461D01*
X114681Y-51493D01*
X114676Y-51507D01*
X114670Y-51513D01*
X114659Y-51520D01*
X114624Y-51520D01*
X114613Y-51513D01*
X114607Y-51507D01*
X112532Y-51507D02*
X112526Y-51513D01*
X112509Y-51520D01*
X112497Y-51520D01*
X112480Y-51513D01*
X112469Y-51500D01*
X112463Y-51487D01*
X112457Y-51461D01*
X112457Y-51441D01*
X112463Y-51415D01*
X112469Y-51401D01*
X112480Y-51388D01*
X112497Y-51382D01*
X112509Y-51382D01*
X112526Y-51388D01*
X112532Y-51395D01*
X112572Y-51382D02*
X112652Y-51382D01*
X112600Y-51520D01*
X112025Y-52896D02*
X112032Y-52901D01*
X112039Y-52919D01*
X112039Y-52930D01*
X112032Y-52947D01*
X112019Y-52959D01*
X112006Y-52964D01*
X111979Y-52970D01*
X111960Y-52970D01*
X111933Y-52964D01*
X111920Y-52959D01*
X111907Y-52947D01*
X111901Y-52930D01*
X111901Y-52919D01*
X111907Y-52901D01*
X111914Y-52896D01*
X112039Y-52781D02*
X112039Y-52850D01*
X112039Y-52816D02*
X111901Y-52816D01*
X111920Y-52827D01*
X111933Y-52839D01*
X111940Y-52850D01*
X111901Y-52707D02*
X111901Y-52696D01*
X111907Y-52684D01*
X111914Y-52679D01*
X111927Y-52673D01*
X111953Y-52667D01*
X111986Y-52667D01*
X112012Y-52673D01*
X112025Y-52679D01*
X112032Y-52684D01*
X112039Y-52696D01*
X112039Y-52707D01*
X112032Y-52719D01*
X112025Y-52724D01*
X112012Y-52730D01*
X111986Y-52736D01*
X111953Y-52736D01*
X111927Y-52730D01*
X111914Y-52724D01*
X111907Y-52719D01*
X111901Y-52707D01*
X112343Y-54345D02*
X112337Y-54352D01*
X112320Y-54358D01*
X112308Y-54358D01*
X112291Y-54352D01*
X112280Y-54339D01*
X112274Y-54325D01*
X112268Y-54299D01*
X112268Y-54279D01*
X112274Y-54253D01*
X112280Y-54240D01*
X112291Y-54227D01*
X112308Y-54220D01*
X112320Y-54220D01*
X112337Y-54227D01*
X112343Y-54233D01*
X112400Y-54358D02*
X112423Y-54358D01*
X112434Y-54352D01*
X112440Y-54345D01*
X112451Y-54325D01*
X112457Y-54299D01*
X112457Y-54247D01*
X112451Y-54233D01*
X112446Y-54227D01*
X112434Y-54220D01*
X112411Y-54220D01*
X112400Y-54227D01*
X112394Y-54233D01*
X112388Y-54247D01*
X112388Y-54279D01*
X112394Y-54293D01*
X112400Y-54299D01*
X112411Y-54306D01*
X112434Y-54306D01*
X112446Y-54299D01*
X112451Y-54293D01*
X112457Y-54279D01*
X114850Y-53641D02*
X114844Y-53647D01*
X114827Y-53654D01*
X114815Y-53654D01*
X114798Y-53647D01*
X114787Y-53634D01*
X114781Y-53621D01*
X114775Y-53595D01*
X114775Y-53575D01*
X114781Y-53549D01*
X114787Y-53535D01*
X114798Y-53522D01*
X114815Y-53516D01*
X114827Y-53516D01*
X114844Y-53522D01*
X114850Y-53529D01*
X114964Y-53654D02*
X114895Y-53654D01*
X114930Y-53654D02*
X114930Y-53516D01*
X114918Y-53535D01*
X114907Y-53549D01*
X114895Y-53555D01*
X114756Y-51909D02*
X114762Y-51915D01*
X114769Y-51932D01*
X114769Y-51943D01*
X114762Y-51960D01*
X114749Y-51972D01*
X114736Y-51978D01*
X114710Y-51983D01*
X114690Y-51983D01*
X114664Y-51978D01*
X114651Y-51972D01*
X114638Y-51960D01*
X114631Y-51943D01*
X114631Y-51932D01*
X114638Y-51915D01*
X114644Y-51909D01*
X114644Y-51863D02*
X114638Y-51858D01*
X114631Y-51846D01*
X114631Y-51818D01*
X114638Y-51806D01*
X114644Y-51800D01*
X114657Y-51795D01*
X114670Y-51795D01*
X114690Y-51800D01*
X114769Y-51869D01*
X114769Y-51795D01*
X107586Y-51352D02*
X107592Y-51358D01*
X107599Y-51375D01*
X107599Y-51387D01*
X107592Y-51404D01*
X107579Y-51415D01*
X107566Y-51421D01*
X107540Y-51427D01*
X107520Y-51427D01*
X107494Y-51421D01*
X107480Y-51415D01*
X107467Y-51404D01*
X107461Y-51387D01*
X107461Y-51375D01*
X107467Y-51358D01*
X107474Y-51352D01*
X107599Y-51238D02*
X107599Y-51307D01*
X107599Y-51272D02*
X107461Y-51272D01*
X107480Y-51284D01*
X107494Y-51295D01*
X107500Y-51307D01*
X107520Y-51169D02*
X107513Y-51181D01*
X107507Y-51187D01*
X107494Y-51192D01*
X107487Y-51192D01*
X107474Y-51187D01*
X107467Y-51181D01*
X107461Y-51169D01*
X107461Y-51147D01*
X107467Y-51135D01*
X107474Y-51129D01*
X107487Y-51124D01*
X107494Y-51124D01*
X107507Y-51129D01*
X107513Y-51135D01*
X107520Y-51147D01*
X107520Y-51169D01*
X107526Y-51181D01*
X107533Y-51187D01*
X107546Y-51192D01*
X107572Y-51192D01*
X107586Y-51187D01*
X107592Y-51181D01*
X107599Y-51169D01*
X107599Y-51147D01*
X107592Y-51135D01*
X107586Y-51129D01*
X107572Y-51124D01*
X107546Y-51124D01*
X107533Y-51129D01*
X107526Y-51135D01*
X107520Y-51147D01*
X107971Y-53199D02*
X107978Y-53204D01*
X107984Y-53222D01*
X107984Y-53233D01*
X107978Y-53250D01*
X107965Y-53262D01*
X107952Y-53267D01*
X107925Y-53273D01*
X107906Y-53273D01*
X107879Y-53267D01*
X107866Y-53262D01*
X107853Y-53250D01*
X107846Y-53233D01*
X107846Y-53222D01*
X107853Y-53204D01*
X107860Y-53199D01*
X107984Y-53084D02*
X107984Y-53153D01*
X107984Y-53119D02*
X107846Y-53119D01*
X107866Y-53130D01*
X107879Y-53142D01*
X107886Y-53153D01*
X107846Y-52982D02*
X107846Y-53004D01*
X107853Y-53016D01*
X107860Y-53022D01*
X107879Y-53033D01*
X107906Y-53039D01*
X107958Y-53039D01*
X107971Y-53033D01*
X107978Y-53027D01*
X107984Y-53016D01*
X107984Y-52993D01*
X107978Y-52982D01*
X107971Y-52976D01*
X107958Y-52970D01*
X107925Y-52970D01*
X107912Y-52976D01*
X107906Y-52982D01*
X107899Y-52993D01*
X107899Y-53016D01*
X107906Y-53027D01*
X107912Y-53033D01*
X107925Y-53039D01*
X106245Y-52357D02*
X106251Y-52363D01*
X106258Y-52380D01*
X106258Y-52391D01*
X106251Y-52409D01*
X106238Y-52420D01*
X106225Y-52426D01*
X106199Y-52431D01*
X106179Y-52431D01*
X106153Y-52426D01*
X106140Y-52420D01*
X106126Y-52409D01*
X106120Y-52391D01*
X106120Y-52380D01*
X106126Y-52363D01*
X106133Y-52357D01*
X106258Y-52243D02*
X106258Y-52311D01*
X106258Y-52277D02*
X106120Y-52277D01*
X106140Y-52289D01*
X106153Y-52300D01*
X106159Y-52311D01*
X106166Y-52140D02*
X106258Y-52140D01*
X106113Y-52169D02*
X106212Y-52197D01*
X106212Y-52123D01*
X107593Y-52321D02*
X107600Y-52326D01*
X107607Y-52344D01*
X107607Y-52355D01*
X107600Y-52372D01*
X107587Y-52384D01*
X107574Y-52389D01*
X107547Y-52395D01*
X107528Y-52395D01*
X107501Y-52389D01*
X107488Y-52384D01*
X107475Y-52372D01*
X107469Y-52355D01*
X107469Y-52344D01*
X107475Y-52326D01*
X107482Y-52321D01*
X107607Y-52206D02*
X107607Y-52275D01*
X107607Y-52241D02*
X107469Y-52241D01*
X107488Y-52252D01*
X107501Y-52264D01*
X107508Y-52275D01*
X107469Y-52098D02*
X107469Y-52155D01*
X107534Y-52161D01*
X107528Y-52155D01*
X107521Y-52144D01*
X107521Y-52115D01*
X107528Y-52104D01*
X107534Y-52098D01*
X107547Y-52092D01*
X107580Y-52092D01*
X107593Y-52098D01*
X107600Y-52104D01*
X107607Y-52115D01*
X107607Y-52144D01*
X107600Y-52155D01*
X107593Y-52161D01*
X110826Y-51088D02*
X110832Y-51094D01*
X110839Y-51111D01*
X110839Y-51123D01*
X110832Y-51140D01*
X110819Y-51151D01*
X110806Y-51157D01*
X110780Y-51163D01*
X110760Y-51163D01*
X110734Y-51157D01*
X110721Y-51151D01*
X110707Y-51140D01*
X110701Y-51123D01*
X110701Y-51111D01*
X110707Y-51094D01*
X110714Y-51088D01*
X110839Y-50974D02*
X110839Y-51043D01*
X110839Y-51008D02*
X110701Y-51008D01*
X110721Y-51020D01*
X110734Y-51031D01*
X110740Y-51043D01*
X110701Y-50934D02*
X110701Y-50854D01*
X110839Y-50906D01*
X110391Y-54656D02*
X110385Y-54663D01*
X110368Y-54670D01*
X110357Y-54670D01*
X110339Y-54663D01*
X110328Y-54650D01*
X110322Y-54637D01*
X110317Y-54610D01*
X110317Y-54591D01*
X110322Y-54564D01*
X110328Y-54551D01*
X110339Y-54538D01*
X110357Y-54532D01*
X110368Y-54532D01*
X110385Y-54538D01*
X110391Y-54545D01*
X110505Y-54670D02*
X110437Y-54670D01*
X110471Y-54670D02*
X110471Y-54532D01*
X110459Y-54551D01*
X110448Y-54564D01*
X110437Y-54571D01*
X110551Y-54545D02*
X110557Y-54538D01*
X110568Y-54532D01*
X110597Y-54532D01*
X110608Y-54538D01*
X110614Y-54545D01*
X110619Y-54558D01*
X110619Y-54571D01*
X110614Y-54591D01*
X110545Y-54670D01*
X110619Y-54670D01*
X107792Y-53747D02*
X107787Y-53754D01*
X107770Y-53760D01*
X107758Y-53760D01*
X107741Y-53754D01*
X107730Y-53740D01*
X107724Y-53727D01*
X107718Y-53701D01*
X107718Y-53681D01*
X107724Y-53655D01*
X107730Y-53642D01*
X107741Y-53629D01*
X107758Y-53622D01*
X107770Y-53622D01*
X107787Y-53629D01*
X107792Y-53635D01*
X107907Y-53760D02*
X107838Y-53760D01*
X107872Y-53760D02*
X107872Y-53622D01*
X107861Y-53642D01*
X107850Y-53655D01*
X107838Y-53662D01*
X107947Y-53622D02*
X108021Y-53622D01*
X107981Y-53675D01*
X107998Y-53675D01*
X108010Y-53681D01*
X108015Y-53688D01*
X108021Y-53701D01*
X108021Y-53734D01*
X108015Y-53747D01*
X108010Y-53754D01*
X107998Y-53760D01*
X107964Y-53760D01*
X107952Y-53754D01*
X107947Y-53747D01*
X109737Y-50440D02*
X109732Y-50446D01*
X109714Y-50453D01*
X109703Y-50453D01*
X109686Y-50446D01*
X109674Y-50433D01*
X109669Y-50420D01*
X109663Y-50394D01*
X109663Y-50374D01*
X109669Y-50348D01*
X109674Y-50335D01*
X109686Y-50322D01*
X109703Y-50315D01*
X109714Y-50315D01*
X109732Y-50322D01*
X109737Y-50328D01*
X109852Y-50453D02*
X109783Y-50453D01*
X109817Y-50453D02*
X109817Y-50315D01*
X109806Y-50335D01*
X109794Y-50348D01*
X109783Y-50354D01*
X109909Y-50453D02*
X109932Y-50453D01*
X109943Y-50446D01*
X109949Y-50440D01*
X109960Y-50420D01*
X109966Y-50394D01*
X109966Y-50341D01*
X109960Y-50328D01*
X109954Y-50322D01*
X109943Y-50315D01*
X109920Y-50315D01*
X109909Y-50322D01*
X109903Y-50328D01*
X109897Y-50341D01*
X109897Y-50374D01*
X109903Y-50387D01*
X109909Y-50394D01*
X109920Y-50400D01*
X109943Y-50400D01*
X109954Y-50394D01*
X109960Y-50387D01*
X109966Y-50374D01*
G54D17*
X114253Y-50561D02*
X114244Y-50571D01*
X114219Y-50580D01*
X114202Y-50580D01*
X114176Y-50571D01*
X114159Y-50552D01*
X114150Y-50533D01*
X114142Y-50495D01*
X114142Y-50466D01*
X114150Y-50428D01*
X114159Y-50409D01*
X114176Y-50390D01*
X114202Y-50380D01*
X114219Y-50380D01*
X114244Y-50390D01*
X114253Y-50400D01*
X114407Y-50447D02*
X114407Y-50580D01*
X114364Y-50371D02*
X114322Y-50514D01*
X114433Y-50514D01*
G54D13*
X112539Y-51109D02*
X112533Y-51116D01*
X112516Y-51122D01*
X112504Y-51122D01*
X112487Y-51116D01*
X112476Y-51103D01*
X112470Y-51089D01*
X112464Y-51063D01*
X112464Y-51043D01*
X112470Y-51017D01*
X112476Y-51004D01*
X112487Y-50991D01*
X112504Y-50984D01*
X112516Y-50984D01*
X112533Y-50991D01*
X112539Y-50997D01*
X112641Y-50984D02*
X112619Y-50984D01*
X112607Y-50991D01*
X112601Y-50997D01*
X112590Y-51017D01*
X112584Y-51043D01*
X112584Y-51096D01*
X112590Y-51109D01*
X112596Y-51116D01*
X112607Y-51122D01*
X112630Y-51122D01*
X112641Y-51116D01*
X112647Y-51109D01*
X112653Y-51096D01*
X112653Y-51063D01*
X112647Y-51050D01*
X112641Y-51043D01*
X112630Y-51037D01*
X112607Y-51037D01*
X112596Y-51043D01*
X112590Y-51050D01*
X112584Y-51063D01*
X115220Y-53142D02*
X115180Y-53076D01*
X115151Y-53142D02*
X115151Y-53004D01*
X115197Y-53004D01*
X115208Y-53011D01*
X115214Y-53017D01*
X115220Y-53030D01*
X115220Y-53050D01*
X115214Y-53063D01*
X115208Y-53070D01*
X115197Y-53076D01*
X115151Y-53076D01*
X115265Y-53017D02*
X115271Y-53011D01*
X115283Y-53004D01*
X115311Y-53004D01*
X115323Y-53011D01*
X115328Y-53017D01*
X115334Y-53030D01*
X115334Y-53043D01*
X115328Y-53063D01*
X115260Y-53142D01*
X115334Y-53142D01*
X115228Y-52701D02*
X115188Y-52635D01*
X115159Y-52701D02*
X115159Y-52563D01*
X115205Y-52563D01*
X115216Y-52570D01*
X115222Y-52576D01*
X115228Y-52589D01*
X115228Y-52609D01*
X115222Y-52622D01*
X115216Y-52629D01*
X115205Y-52635D01*
X115159Y-52635D01*
X115268Y-52563D02*
X115342Y-52563D01*
X115302Y-52616D01*
X115319Y-52616D01*
X115330Y-52622D01*
X115336Y-52629D01*
X115342Y-52642D01*
X115342Y-52675D01*
X115336Y-52688D01*
X115330Y-52694D01*
X115319Y-52701D01*
X115285Y-52701D01*
X115273Y-52694D01*
X115268Y-52688D01*
X114515Y-54122D02*
X114475Y-54057D01*
X114446Y-54122D02*
X114446Y-53984D01*
X114492Y-53984D01*
X114504Y-53991D01*
X114509Y-53997D01*
X114515Y-54011D01*
X114515Y-54030D01*
X114509Y-54043D01*
X114504Y-54050D01*
X114492Y-54057D01*
X114446Y-54057D01*
X114618Y-54030D02*
X114618Y-54122D01*
X114589Y-53978D02*
X114561Y-54076D01*
X114635Y-54076D01*
X107499Y-50673D02*
X107442Y-50673D01*
X107442Y-50535D01*
X107533Y-50549D02*
X107539Y-50542D01*
X107551Y-50535D01*
X107579Y-50535D01*
X107591Y-50542D01*
X107596Y-50549D01*
X107602Y-50562D01*
X107602Y-50575D01*
X107596Y-50595D01*
X107528Y-50673D01*
X107602Y-50673D01*
X107921Y-49968D02*
X107921Y-50025D01*
X107783Y-50025D01*
X107921Y-49865D02*
X107921Y-49934D01*
X107921Y-49900D02*
X107783Y-49900D01*
X107803Y-49911D01*
X107816Y-49923D01*
X107823Y-49934D01*
X108411Y-50688D02*
X108405Y-50694D01*
X108388Y-50701D01*
X108376Y-50701D01*
X108359Y-50694D01*
X108348Y-50681D01*
X108342Y-50668D01*
X108336Y-50642D01*
X108336Y-50622D01*
X108342Y-50596D01*
X108348Y-50583D01*
X108359Y-50570D01*
X108376Y-50563D01*
X108388Y-50563D01*
X108405Y-50570D01*
X108411Y-50576D01*
X108456Y-50576D02*
X108462Y-50570D01*
X108473Y-50563D01*
X108502Y-50563D01*
X108513Y-50570D01*
X108519Y-50576D01*
X108525Y-50589D01*
X108525Y-50602D01*
X108519Y-50622D01*
X108451Y-50701D01*
X108525Y-50701D01*
X108599Y-50563D02*
X108611Y-50563D01*
X108622Y-50570D01*
X108628Y-50576D01*
X108633Y-50589D01*
X108639Y-50616D01*
X108639Y-50648D01*
X108633Y-50675D01*
X108628Y-50688D01*
X108622Y-50694D01*
X108611Y-50701D01*
X108599Y-50701D01*
X108588Y-50694D01*
X108582Y-50688D01*
X108576Y-50675D01*
X108571Y-50648D01*
X108571Y-50616D01*
X108576Y-50589D01*
X108582Y-50576D01*
X108588Y-50570D01*
X108599Y-50563D01*
G54D18*
X114996Y-55051D02*
X114996Y-54651D01*
X115148Y-54651D01*
X115186Y-54670D01*
X115205Y-54689D01*
X115224Y-54727D01*
X115224Y-54785D01*
X115205Y-54823D01*
X115186Y-54842D01*
X115148Y-54861D01*
X114996Y-54861D01*
X115377Y-54689D02*
X115396Y-54670D01*
X115434Y-54651D01*
X115529Y-54651D01*
X115567Y-54670D01*
X115586Y-54689D01*
X115605Y-54727D01*
X115605Y-54765D01*
X115586Y-54823D01*
X115358Y-55051D01*
X115605Y-55051D01*
G54D14*
X117139Y-49789D02*
X117139Y-49589D01*
X117215Y-49589D01*
X117235Y-49599D01*
X117244Y-49608D01*
X117254Y-49627D01*
X117254Y-49656D01*
X117244Y-49675D01*
X117235Y-49684D01*
X117215Y-49694D01*
X117139Y-49694D01*
X117444Y-49789D02*
X117330Y-49789D01*
X117387Y-49789D02*
X117387Y-49589D01*
X117368Y-49618D01*
X117349Y-49637D01*
X117330Y-49646D01*
G54D10*
X111463Y-52056D02*
X111463Y-52375D01*
X111482Y-52413D01*
X111501Y-52431D01*
X111538Y-52450D01*
X111613Y-52450D01*
X111651Y-52431D01*
X111670Y-52413D01*
X111688Y-52375D01*
X111688Y-52056D01*
X112082Y-52450D02*
X111857Y-52450D01*
X111970Y-52450D02*
X111970Y-52056D01*
X111932Y-52113D01*
X111895Y-52150D01*
X111857Y-52169D01*
G54D17*
X109230Y-54687D02*
X109230Y-54773D01*
X109030Y-54773D01*
X109097Y-54550D02*
X109230Y-54550D01*
X109021Y-54593D02*
X109163Y-54636D01*
X109163Y-54524D01*
G54D13*
X108011Y-54705D02*
X107954Y-54705D01*
X107954Y-54567D01*
X108040Y-54567D02*
X108114Y-54567D01*
X108074Y-54620D01*
X108091Y-54620D01*
X108102Y-54626D01*
X108108Y-54633D01*
X108114Y-54646D01*
X108114Y-54679D01*
X108108Y-54692D01*
X108102Y-54698D01*
X108091Y-54705D01*
X108057Y-54705D01*
X108045Y-54698D01*
X108040Y-54692D01*
G54D10*
X109267Y-50548D02*
X109282Y-50506D01*
X109296Y-50492D01*
X109324Y-50478D01*
X109366Y-50478D01*
X109394Y-50492D01*
X109408Y-50506D01*
X109422Y-50534D01*
X109422Y-50647D01*
X109127Y-50647D01*
X109127Y-50548D01*
X109141Y-50520D01*
X109155Y-50506D01*
X109183Y-50492D01*
X109211Y-50492D01*
X109239Y-50506D01*
X109253Y-50520D01*
X109267Y-50548D01*
X109267Y-50647D01*
X109422Y-50197D02*
X109422Y-50365D01*
X109422Y-50281D02*
X109127Y-50281D01*
X109169Y-50309D01*
X109197Y-50337D01*
X109211Y-50365D01*
G54D13*
X113247Y-54386D02*
X113207Y-54320D01*
X113179Y-54386D02*
X113179Y-54248D01*
X113224Y-54248D01*
X113236Y-54255D01*
X113242Y-54261D01*
X113247Y-54274D01*
X113247Y-54294D01*
X113242Y-54307D01*
X113236Y-54314D01*
X113224Y-54320D01*
X113179Y-54320D01*
X113362Y-54386D02*
X113293Y-54386D01*
X113327Y-54386D02*
X113327Y-54248D01*
X113316Y-54268D01*
X113304Y-54281D01*
X113293Y-54287D01*
G54D19*
X113627Y-50625D02*
X113632Y-50631D01*
X113638Y-50648D01*
X113638Y-50659D01*
X113632Y-50676D01*
X113621Y-50687D01*
X113610Y-50693D01*
X113587Y-50699D01*
X113570Y-50699D01*
X113548Y-50693D01*
X113537Y-50687D01*
X113525Y-50676D01*
X113520Y-50659D01*
X113520Y-50648D01*
X113525Y-50631D01*
X113531Y-50625D01*
X113570Y-50558D02*
X113565Y-50569D01*
X113559Y-50575D01*
X113548Y-50580D01*
X113542Y-50580D01*
X113531Y-50575D01*
X113525Y-50569D01*
X113520Y-50558D01*
X113520Y-50535D01*
X113525Y-50524D01*
X113531Y-50519D01*
X113542Y-50513D01*
X113548Y-50513D01*
X113559Y-50519D01*
X113565Y-50524D01*
X113570Y-50535D01*
X113570Y-50558D01*
X113576Y-50569D01*
X113582Y-50575D01*
X113593Y-50580D01*
X113615Y-50580D01*
X113627Y-50575D01*
X113632Y-50569D01*
X113638Y-50558D01*
X113638Y-50535D01*
X113632Y-50524D01*
X113627Y-50519D01*
X113615Y-50513D01*
X113593Y-50513D01*
X113582Y-50519D01*
X113576Y-50524D01*
X113570Y-50535D01*
G54D17*
X107006Y-54749D02*
X107016Y-54758D01*
X107025Y-54783D01*
X107025Y-54801D01*
X107016Y-54826D01*
X106997Y-54843D01*
X106978Y-54852D01*
X106940Y-54861D01*
X106911Y-54861D01*
X106873Y-54852D01*
X106854Y-54843D01*
X106835Y-54826D01*
X106825Y-54801D01*
X106825Y-54783D01*
X106835Y-54758D01*
X106844Y-54749D01*
X106844Y-54681D02*
X106835Y-54672D01*
X106825Y-54655D01*
X106825Y-54612D01*
X106835Y-54595D01*
X106844Y-54586D01*
X106863Y-54578D01*
X106882Y-54578D01*
X106911Y-54586D01*
X107025Y-54689D01*
X107025Y-54578D01*
X107025Y-54406D02*
X107025Y-54509D01*
X107025Y-54458D02*
X106825Y-54458D01*
X106854Y-54475D01*
X106873Y-54492D01*
X106882Y-54509D01*
X111471Y-54576D02*
X111480Y-54584D01*
X111490Y-54610D01*
X111490Y-54627D01*
X111480Y-54653D01*
X111461Y-54670D01*
X111442Y-54679D01*
X111404Y-54687D01*
X111376Y-54687D01*
X111338Y-54679D01*
X111318Y-54670D01*
X111299Y-54653D01*
X111290Y-54627D01*
X111290Y-54610D01*
X111299Y-54584D01*
X111309Y-54576D01*
X111490Y-54404D02*
X111490Y-54507D01*
X111490Y-54456D02*
X111290Y-54456D01*
X111318Y-54473D01*
X111338Y-54490D01*
X111347Y-54507D01*
X111490Y-54233D02*
X111490Y-54336D01*
X111490Y-54284D02*
X111290Y-54284D01*
X111318Y-54302D01*
X111338Y-54319D01*
X111347Y-54336D01*
M02*
